<?xml version="1.0" standalone="no"?>
<!DOCTYPE svg PUBLIC "-//W3C//DTD SVG 1.1//EN"
  "http://www.w3.org/Graphics/SVG/1.1/DTD/svg11.dtd">

<svg xmlns="http://www.w3.org/2000/svg" version="1.1" class="railroad-diagram"  width="502" height="92" viewBox="0 0 502 92" >
<defs><style type="text/css"><![CDATA[ svg.railroad-diagram {
  background-color: #ffffff;
}
svg.railroad-diagram path {
  stroke-width: 2;
  stroke: #5a6872;
  fill: none;
}
svg.railroad-diagram text {
  font-size: 14px;
  font-family: 'ibm-plex-mono', 'Menlo', 'DejaVu Sans Mono', 'Bitstream Vera Sans Mono', Courier, monospace;
  color: #152935;
  text-anchor: middle;
  cursor: pointer;
}
svg.railroad-diagram text.label {
  text-anchor: start;
}
svg.railroad-diagram text.comment {
  font-size: 12px;
}
svg.railroad-diagram rect {
  stroke-width: 2;
  stroke:  #5a6872;
  fill: #5aaafa;
}
 ]]></style></defs>

<g transform="translate(.5 .5)">
<path d="M 20 21 v 20 m 10 -20 v 20 m -10 -10 h 20.5"></path>
<g>
<path d="M40 31h0"></path>
<path d="M472 31h0"></path>
<path d="M40 31h20"></path>
<g>
<path d="M60 31h0"></path>
<path d="M452 31h0"></path>
<path d="M60 31h10"></path>
<g>
<path d="M70 31h0"></path>
<path d="M122 31h0"></path>
<rect x="70" y="20" width="52" height="22" rx="10" ry="10"></rect>
<text x="96" y="35">USER</text>
</g>
<path d="M122 31h10"></path>
<path d="M132 31h10"></path>
<g>
<path d="M142 31h0"></path>
<path d="M242 31h0"></path>
<rect x="142" y="20" width="100" height="22"></rect>
<text x="192" y="35">identifier</text>
</g>
<path d="M242 31h10"></path>
<path d="M252 31h10"></path>
<g>
<path d="M262 31h0"></path>
<path d="M346 31h0"></path>
<rect x="262" y="20" width="84" height="22" rx="10" ry="10"></rect>
<text x="304" y="35">PASSWORD</text>
</g>
<path d="M346 31h10"></path>
<path d="M356 31h10"></path>
<g>
<path d="M366 31h0"></path>
<path d="M442 31h0"></path>
<rect x="366" y="20" width="76" height="22"></rect>
<text x="404" y="35">CRN&#95;URI</text>
</g>
<path d="M442 31h10"></path>
</g>
<path d="M452 31h20"></path>
<path d="M40 31a10 10 0 0 1 10 10v10a10 10 0 0 0 10 10"></path>
<g>
<path d="M60 61h104"></path>
<path d="M348 61h104"></path>
<path d="M164 61h10"></path>
<g>
<path d="M174 61h0"></path>
<path d="M242 61h0"></path>
<rect x="174" y="50" width="68" height="22" rx="10" ry="10"></rect>
<text x="208" y="65">APIKEY</text>
</g>
<path d="M242 61h10"></path>
<path d="M252 61h10"></path>
<g>
<path d="M262 61h0"></path>
<path d="M338 61h0"></path>
<rect x="262" y="50" width="76" height="22"></rect>
<text x="300" y="65">CRN&#95;URI</text>
</g>
<path d="M338 61h10"></path>
</g>
<path d="M452 61a10 10 0 0 0 10 -10v-10a10 10 0 0 1 10 -10"></path>
</g>
<path d="M 472 31 h 20 m -10 -10 v 20 m 10 -20 v 20"></path>
</g>
</svg>
