<?xml version="1.0" standalone="no"?>
<!DOCTYPE svg PUBLIC "-//W3C//DTD SVG 1.1//EN"
  "http://www.w3.org/Graphics/SVG/1.1/DTD/svg11.dtd">

<svg xmlns="http://www.w3.org/2000/svg" version="1.1" class="railroad-diagram"  width="1158" height="221" viewBox="0 0 1158 221" >
<defs><style type="text/css"><![CDATA[ svg.railroad-diagram {
  background-color: #ffffff;
}
svg.railroad-diagram path {
  stroke-width: 2;
  stroke: #5a6872;
  fill: none;
}
svg.railroad-diagram text {
  font-size: 14px;
  font-family: 'ibm-plex-mono', 'Menlo', 'DejaVu Sans Mono', 'Bitstream Vera Sans Mono', Courier, monospace;
  color: #152935;
  text-anchor: middle;
  cursor: pointer;
}
svg.railroad-diagram text.label {
  text-anchor: start;
}
svg.railroad-diagram text.comment {
  font-size: 12px;
}
svg.railroad-diagram rect {
  stroke-width: 2;
  stroke:  #5a6872;
  fill: #5aaafa;
}
 ]]></style></defs>

<g transform="translate(.5 .5)">
<path d="M 20 21 v 20 m 10 -20 v 20 m -10 -10 h 20.5"></path>
<g>
<path d="M40 31h0"></path>
<path d="M1128 31h0"></path>
<path d="M40 31h10"></path>
<g>
<path d="M50 31h0"></path>
<path d="M110 31h0"></path>
<rect x="50" y="20" width="60" height="22" rx="10" ry="10"></rect>
<text x="80" y="35">ALTER</text>
</g>
<path d="M110 31h10"></path>
<path d="M120 31h10"></path>
<g>
<path d="M130 31h0"></path>
<path d="M190 31h0"></path>
<rect x="130" y="20" width="60" height="22" rx="10" ry="10"></rect>
<text x="160" y="35">TABLE</text>
</g>
<path d="M190 31h10"></path>
<path d="M200 31h10"></path>
<g>
<path d="M210 31h0"></path>
<path d="M350 31h0"></path>
<rect x="210" y="20" width="140" height="22"></rect>
<text x="280" y="35">tableIdentifier</text>
</g>
<path d="M350 31h10"></path>
<g>
<path d="M360 31h0"></path>
<path d="M1128 31h0"></path>
<path d="M360 31h20"></path>
<g>
<path d="M380 31h256"></path>
<path d="M852 31h256"></path>
<path d="M636 31h10"></path>
<g>
<path d="M646 31h0"></path>
<path d="M722 31h0"></path>
<rect x="646" y="20" width="76" height="22" rx="10" ry="10"></rect>
<text x="684" y="35">RECOVER</text>
</g>
<path d="M722 31h10"></path>
<path d="M732 31h10"></path>
<g>
<path d="M742 31h0"></path>
<path d="M842 31h0"></path>
<rect x="742" y="20" width="100" height="22" rx="10" ry="10"></rect>
<text x="792" y="35">PARTITIONS</text>
</g>
<path d="M842 31h10"></path>
</g>
<path d="M1108 31h20"></path>
<path d="M360 31a10 10 0 0 1 10 10v20a10 10 0 0 0 10 10"></path>
<g>
<path d="M380 71h0"></path>
<path d="M1108 71h0"></path>
<path d="M380 71h10"></path>
<g>
<path d="M390 71h0"></path>
<path d="M434 71h0"></path>
<rect x="390" y="60" width="44" height="22" rx="10" ry="10"></rect>
<text x="412" y="75">ADD</text>
</g>
<path d="M434 71h10"></path>
<g>
<path d="M444 71h0"></path>
<path d="M692 71h0"></path>
<path d="M444 71a10 10 0 0 0 10 -10v0a10 10 0 0 1 10 -10"></path>
<g>
<path d="M464 51h208"></path>
</g>
<path d="M672 51a10 10 0 0 1 10 10v0a10 10 0 0 0 10 10"></path>
<path d="M444 71h20"></path>
<g>
<path d="M464 71h0"></path>
<path d="M672 71h0"></path>
<path d="M464 71h10"></path>
<g>
<path d="M474 71h0"></path>
<path d="M510 71h0"></path>
<rect x="474" y="60" width="36" height="22" rx="10" ry="10"></rect>
<text x="492" y="75">IF</text>
</g>
<path d="M510 71h10"></path>
<path d="M520 71h10"></path>
<g>
<path d="M530 71h0"></path>
<path d="M574 71h0"></path>
<rect x="530" y="60" width="44" height="22" rx="10" ry="10"></rect>
<text x="552" y="75">NOT</text>
</g>
<path d="M574 71h10"></path>
<path d="M584 71h10"></path>
<g>
<path d="M594 71h0"></path>
<path d="M662 71h0"></path>
<rect x="594" y="60" width="68" height="22" rx="10" ry="10"></rect>
<text x="628" y="75">EXISTS</text>
</g>
<path d="M662 71h10"></path>
</g>
<path d="M672 71h20"></path>
</g>
<path d="M692 71h10"></path>
<g>
<path d="M702 71h0"></path>
<path d="M1098 71h0"></path>
<path d="M702 71h10"></path>
<g>
<path d="M712 71h0"></path>
<path d="M1088 71h0"></path>
<path d="M712 71h10"></path>
<g>
<path d="M722 71h0"></path>
<path d="M846 71h0"></path>
<rect x="722" y="60" width="124" height="22"></rect>
<text x="784" y="75">partitionSpec</text>
</g>
<path d="M846 71h10"></path>
<g>
<path d="M856 71h0"></path>
<path d="M1088 71h0"></path>
<path d="M856 71a10 10 0 0 0 10 -10v0a10 10 0 0 1 10 -10"></path>
<g>
<path d="M876 51h192"></path>
</g>
<path d="M1068 51a10 10 0 0 1 10 10v0a10 10 0 0 0 10 10"></path>
<path d="M856 71h20"></path>
<g>
<path d="M876 71h0"></path>
<path d="M1068 71h0"></path>
<path d="M876 71h10"></path>
<g>
<path d="M886 71h0"></path>
<path d="M970 71h0"></path>
<rect x="886" y="60" width="84" height="22" rx="10" ry="10"></rect>
<text x="928" y="75">LOCATION</text>
</g>
<path d="M970 71h10"></path>
<path d="M980 71h10"></path>
<g>
<path d="M990 71h0"></path>
<path d="M1058 71h0"></path>
<rect x="990" y="60" width="68" height="22"></rect>
<text x="1024" y="75">COSURI</text>
</g>
<path d="M1058 71h10"></path>
</g>
<path d="M1068 71h20"></path>
</g>
</g>
<path d="M1088 71h10"></path>
<path d="M712 71a10 10 0 0 0 -10 10v0a10 10 0 0 0 10 10"></path>
<g>
<path d="M712 91h376"></path>
</g>
<path d="M1088 91a10 10 0 0 0 10 -10v0a10 10 0 0 0 -10 -10"></path>
</g>
<path d="M1098 71h10"></path>
</g>
<path d="M1108 71a10 10 0 0 0 10 -10v-20a10 10 0 0 1 10 -10"></path>
<path d="M360 31a10 10 0 0 1 10 10v69a10 10 0 0 0 10 10"></path>
<g>
<path d="M380 120h144"></path>
<path d="M964 120h144"></path>
<path d="M524 120h10"></path>
<g>
<path d="M534 120h0"></path>
<path d="M586 120h0"></path>
<rect x="534" y="109" width="52" height="22" rx="10" ry="10"></rect>
<text x="560" y="124">DROP</text>
</g>
<path d="M586 120h10"></path>
<g>
<path d="M596 120h0"></path>
<path d="M780 120h0"></path>
<path d="M596 120a10 10 0 0 0 10 -10v0a10 10 0 0 1 10 -10"></path>
<g>
<path d="M616 100h144"></path>
</g>
<path d="M760 100a10 10 0 0 1 10 10v0a10 10 0 0 0 10 10"></path>
<path d="M596 120h20"></path>
<g>
<path d="M616 120h0"></path>
<path d="M760 120h0"></path>
<path d="M616 120h10"></path>
<g>
<path d="M626 120h0"></path>
<path d="M662 120h0"></path>
<rect x="626" y="109" width="36" height="22" rx="10" ry="10"></rect>
<text x="644" y="124">IF</text>
</g>
<path d="M662 120h10"></path>
<path d="M672 120h10"></path>
<g>
<path d="M682 120h0"></path>
<path d="M750 120h0"></path>
<rect x="682" y="109" width="68" height="22" rx="10" ry="10"></rect>
<text x="716" y="124">EXISTS</text>
</g>
<path d="M750 120h10"></path>
</g>
<path d="M760 120h20"></path>
</g>
<path d="M780 120h10"></path>
<g>
<path d="M790 120h0"></path>
<path d="M954 120h0"></path>
<path d="M790 120h10"></path>
<g>
<path d="M800 120h0"></path>
<path d="M944 120h0"></path>
<path d="M800 120h10"></path>
<g>
<path d="M810 120h0"></path>
<path d="M934 120h0"></path>
<rect x="810" y="109" width="124" height="22"></rect>
<text x="872" y="124">partitionSpec</text>
</g>
<path d="M934 120h10"></path>
</g>
<path d="M944 120h10"></path>
<path d="M800 120a10 10 0 0 0 -10 10v10a10 10 0 0 0 10 10"></path>
<g>
<path d="M800 150h48"></path>
<path d="M896 150h48"></path>
<path d="M848 150h10"></path>
<g>
<path d="M858 150h0"></path>
<path d="M886 150h0"></path>
<rect x="858" y="139" width="28" height="22" rx="10" ry="10"></rect>
<text x="872" y="154">,</text>
</g>
<path d="M886 150h10"></path>
</g>
<path d="M944 150a10 10 0 0 0 10 -10v-10a10 10 0 0 0 -10 -10"></path>
</g>
<path d="M954 120h10"></path>
</g>
<path d="M1108 120a10 10 0 0 0 10 -10v-69a10 10 0 0 1 10 -10"></path>
<path d="M360 31a10 10 0 0 1 10 10v139a10 10 0 0 0 10 10"></path>
<g>
<path d="M380 190h154"></path>
<path d="M954 190h154"></path>
<g>
<path d="M534 190h0"></path>
<path d="M698 190h0"></path>
<path d="M534 190a10 10 0 0 0 10 -10v0a10 10 0 0 1 10 -10"></path>
<g>
<path d="M554 170h124"></path>
</g>
<path d="M678 170a10 10 0 0 1 10 10v0a10 10 0 0 0 10 10"></path>
<path d="M534 190h20"></path>
<g>
<path d="M554 190h0"></path>
<path d="M678 190h0"></path>
<rect x="554" y="179" width="124" height="22"></rect>
<text x="616" y="194">partitionSpec</text>
</g>
<path d="M678 190h20"></path>
</g>
<path d="M698 190h10"></path>
<g>
<path d="M708 190h0"></path>
<path d="M752 190h0"></path>
<rect x="708" y="179" width="44" height="22" rx="10" ry="10"></rect>
<text x="730" y="194">SET</text>
</g>
<path d="M752 190h10"></path>
<path d="M762 190h10"></path>
<g>
<path d="M772 190h0"></path>
<path d="M856 190h0"></path>
<rect x="772" y="179" width="84" height="22" rx="10" ry="10"></rect>
<text x="814" y="194">LOCATION</text>
</g>
<path d="M856 190h10"></path>
<path d="M866 190h10"></path>
<g>
<path d="M876 190h0"></path>
<path d="M944 190h0"></path>
<rect x="876" y="179" width="68" height="22"></rect>
<text x="910" y="194">COSURI</text>
</g>
<path d="M944 190h10"></path>
</g>
<path d="M1108 190a10 10 0 0 0 10 -10v-139a10 10 0 0 1 10 -10"></path>
</g>
</g>
<path d="M 1128 31 h 20 m -10 -10 v 20 m 10 -20 v 20"></path>
</g>
</svg>
