<?xml version="1.0" standalone="no"?>
<!DOCTYPE svg PUBLIC "-//W3C//DTD SVG 1.1//EN"
  "http://www.w3.org/Graphics/SVG/1.1/DTD/svg11.dtd">

<svg xmlns="http://www.w3.org/2000/svg" version="1.1" class="railroad-diagram"  width="598" height="62" viewBox="0 0 598 62" >
<defs><style type="text/css"><![CDATA[ svg.railroad-diagram {
  background-color: #ffffff;
}
svg.railroad-diagram path {
  stroke-width: 2;
  stroke: #5a6872;
  fill: none;
}
svg.railroad-diagram text {
  font-size: 14px;
  font-family: 'ibm-plex-mono', 'Menlo', 'DejaVu Sans Mono', 'Bitstream Vera Sans Mono', Courier, monospace;
  color: #152935;
  text-anchor: middle;
  cursor: pointer;
}
svg.railroad-diagram text.label {
  text-anchor: start;
}
svg.railroad-diagram text.comment {
  font-size: 12px;
}
svg.railroad-diagram rect {
  stroke-width: 2;
  stroke:  #5a6872;
  fill: #5aaafa;
}
 ]]></style></defs>

<g transform="translate(.5 .5)">
<path d="M 20 21 v 20 m 10 -20 v 20 m -10 -10 h 20.5"></path>
<g>
<path d="M40 31h0"></path>
<path d="M568 31h0"></path>
<path d="M40 31h10"></path>
<g>
<path d="M50 31h0"></path>
<path d="M118 31h0"></path>
<rect x="50" y="20" width="68" height="22" rx="10" ry="10"></rect>
<text x="84" y="35">BUCKET</text>
</g>
<path d="M118 31h10"></path>
<path d="M128 31h10"></path>
<g>
<path d="M138 31h0"></path>
<path d="M278 31h0"></path>
<rect x="138" y="20" width="140" height="22"></rect>
<text x="208" y="35">unsignedInteger</text>
</g>
<path d="M278 31h10"></path>
<path d="M288 31h10"></path>
<g>
<path d="M298 31h0"></path>
<path d="M342 31h0"></path>
<rect x="298" y="20" width="44" height="22" rx="10" ry="10"></rect>
<text x="320" y="35">OUT</text>
</g>
<path d="M342 31h10"></path>
<path d="M352 31h10"></path>
<g>
<path d="M362 31h0"></path>
<path d="M398 31h0"></path>
<rect x="362" y="20" width="36" height="22" rx="10" ry="10"></rect>
<text x="380" y="35">OF</text>
</g>
<path d="M398 31h10"></path>
<path d="M408 31h10"></path>
<g>
<path d="M418 31h0"></path>
<path d="M558 31h0"></path>
<rect x="418" y="20" width="140" height="22"></rect>
<text x="488" y="35">unsignedInteger</text>
</g>
<path d="M558 31h10"></path>
</g>
<path d="M 568 31 h 20 m -10 -10 v 20 m 10 -20 v 20"></path>
</g>
</svg>
