<?xml version="1.0" standalone="no"?>
<!DOCTYPE svg PUBLIC "-//W3C//DTD SVG 1.1//EN"
  "http://www.w3.org/Graphics/SVG/1.1/DTD/svg11.dtd">

<svg xmlns="http://www.w3.org/2000/svg" version="1.1" class="railroad-diagram"  width="566" height="62" viewBox="0 0 566 62" >
<defs><style type="text/css"><![CDATA[ svg.railroad-diagram {
  background-color: #ffffff;
}
svg.railroad-diagram path {
  stroke-width: 2;
  stroke: #5a6872;
  fill: none;
}
svg.railroad-diagram text {
  font-size: 14px;
  font-family: 'ibm-plex-mono', 'Menlo', 'DejaVu Sans Mono', 'Bitstream Vera Sans Mono', Courier, monospace;
  color: #152935;
  text-anchor: middle;
  cursor: pointer;
}
svg.railroad-diagram text.label {
  text-anchor: start;
}
svg.railroad-diagram text.comment {
  font-size: 12px;
}
svg.railroad-diagram rect {
  stroke-width: 2;
  stroke:  #5a6872;
  fill: #5aaafa;
}
 ]]></style></defs>

<g transform="translate(.5 .5)">
<path d="M 20 21 v 20 m 10 -20 v 20 m -10 -10 h 20.5"></path>
<g>
<path d="M40 31h0"></path>
<path d="M536 31h0"></path>
<path d="M40 31h10"></path>
<g>
<path d="M50 31h0"></path>
<path d="M118 31h0"></path>
<rect x="50" y="20" width="68" height="22" rx="10" ry="10"></rect>
<text x="84" y="35">BUCKET</text>
</g>
<path d="M118 31h10"></path>
<path d="M128 31h10"></path>
<g>
<path d="M138 31h0"></path>
<path d="M262 31h0"></path>
<rect x="138" y="20" width="124" height="22"></rect>
<text x="200" y="35">INTEGER&#95;VALUE</text>
</g>
<path d="M262 31h10"></path>
<path d="M272 31h10"></path>
<g>
<path d="M282 31h0"></path>
<path d="M326 31h0"></path>
<rect x="282" y="20" width="44" height="22" rx="10" ry="10"></rect>
<text x="304" y="35">OUT</text>
</g>
<path d="M326 31h10"></path>
<path d="M336 31h10"></path>
<g>
<path d="M346 31h0"></path>
<path d="M382 31h0"></path>
<rect x="346" y="20" width="36" height="22" rx="10" ry="10"></rect>
<text x="364" y="35">OF</text>
</g>
<path d="M382 31h10"></path>
<path d="M392 31h10"></path>
<g>
<path d="M402 31h0"></path>
<path d="M526 31h0"></path>
<rect x="402" y="20" width="124" height="22"></rect>
<text x="464" y="35">INTEGER&#95;VALUE</text>
</g>
<path d="M526 31h10"></path>
</g>
<path d="M 536 31 h 20 m -10 -10 v 20 m 10 -20 v 20"></path>
</g>
</svg>
