<?xml version="1.0" standalone="no"?>
<!DOCTYPE svg PUBLIC "-//W3C//DTD SVG 1.1//EN"
  "http://www.w3.org/Graphics/SVG/1.1/DTD/svg11.dtd">

<svg xmlns="http://www.w3.org/2000/svg" version="1.1" class="railroad-diagram" width="361" height="122" viewBox="0 0 361 122">

<defs><style type="text/css"><![CDATA[ svg.railroad-diagram {
  background-color: #ffffff;
}
svg.railroad-diagram path {
  stroke-width: 2;
  stroke: #5a6872;
  fill: none;
}
svg.railroad-diagram text {
  font-size: 14px;
  font-family: 'ibm-plex-mono', 'Menlo', 'DejaVu Sans Mono', 'Bitstream Vera Sans Mono', Courier, monospace;
  color: #152935;
  text-anchor: middle;
  cursor: pointer;
}
svg.railroad-diagram text.label {
  text-anchor: start;
}
svg.railroad-diagram text.comment {
  font-size: 12px;
}
svg.railroad-diagram rect {
  stroke-width: 2;
  stroke:  #5a6872;
  fill: #5aaafa;
}
 ]]></style></defs>

<g transform="translate(.5 .5)">
<path d="M 20 21 v 20 m 10 -20 v 20 m -10 -10 h 20.5"></path>
<g>
<path d="M40 31h0"></path>
<path d="M320 31h0"></path>
<path d="M40 31h20"></path>
<g>
<path d="M60 31h58"></path>
<path d="M242 31h58"></path>
<rect x="118" y="20" width="124" height="22"></rect>
<text x="180" y="35">qualifiedName</text>
</g>
<path d="M300 31h20"></path>
<path d="M40 31a10 10 0 0 1 10 10v10a10 10 0 0 0 10 10"></path>
<g>
<path d="M60 61h106"></path>
<path d="M194 61h106"></path>
<rect x="166" y="50" width="28" height="22" rx="10" ry="10"></rect>
<text x="180" y="65">&#42;</text>
</g>
<path d="M300 61a10 10 0 0 0 10 -10v-10a10 10 0 0 1 10 -10"></path>
<path d="M40 31a10 10 0 0 1 10 10v40a10 10 0 0 0 10 10"></path>
<g>
<path d="M60 91h0"></path>
<path d="M300 91h0"></path>
<path d="M60 91h10"></path>
<g>
<path d="M70 91h0"></path>
<path d="M194 91h0"></path>
<rect x="70" y="80" width="124" height="22"></rect>
<text x="132" y="95">qualifiedName</text>
</g>
<path d="M194 91h10"></path>
<path d="M204 91h10"></path>
<g>
<path d="M214 91h0"></path>
<path d="M242 91h0"></path>
<rect x="214" y="80" width="28" height="22" rx="10" ry="10"></rect>
<text x="228" y="95">.</text>
</g>
<path d="M242 91h10"></path>
<path d="M252 91h10"></path>
<g>
<path d="M262 91h0"></path>
<path d="M290 91h0"></path>
<rect x="262" y="80" width="28" height="22" rx="10" ry="10"></rect>
<text x="276" y="95">&#42;</text>
</g>
<path d="M290 91h10"></path>
</g>
<path d="M300 91a10 10 0 0 0 10 -10v-40a10 10 0 0 1 10 -10"></path>
</g>
<path d="M 320 31 h 20 m -10 -10 v 20 m 10 -20 v 20"></path>
</g>
</svg>
