<?xml version="1.0" standalone="no"?>
<!DOCTYPE svg PUBLIC "-//W3C//DTD SVG 1.1//EN"
  "http://www.w3.org/Graphics/SVG/1.1/DTD/svg11.dtd">

<svg xmlns="http://www.w3.org/2000/svg" version="1.1" class="railroad-diagram" width="577" height="72" viewBox="0 0 577 72">

<defs><style type="text/css"><![CDATA[ svg.railroad-diagram {
  background-color: #ffffff;
}
svg.railroad-diagram path {
  stroke-width: 2;
  stroke: #5a6872;
  fill: none;
}
svg.railroad-diagram text {
  font-size: 14px;
  font-family: 'ibm-plex-mono', 'Menlo', 'DejaVu Sans Mono', 'Bitstream Vera Sans Mono', Courier, monospace;
  color: #152935;
  text-anchor: middle;
  cursor: pointer;
}
svg.railroad-diagram text.label {
  text-anchor: start;
}
svg.railroad-diagram text.comment {
  font-size: 12px;
}
svg.railroad-diagram rect {
  stroke-width: 2;
  stroke:  #5a6872;
  fill: #5aaafa;
}
 ]]></style></defs>

<g transform="translate(.5 .5)">
<path d="M 20 31 v 20 m 10 -20 v 20 m -10 -10 h 20.5"></path>
<g>
<path d="M40 41h0"></path>
<path d="M536 41h0"></path>
<path d="M40 41h10"></path>
<g>
<path d="M50 41h0"></path>
<path d="M150 41h0"></path>
<rect x="50" y="30" width="100" height="22"></rect>
<text x="100" y="45">identifier</text>
</g>
<path d="M150 41h10"></path>
<path d="M160 41h10"></path>
<g>
<path d="M170 41h0"></path>
<path d="M198 41h0"></path>
<rect x="170" y="30" width="28" height="22" rx="10" ry="10"></rect>
<text x="184" y="45">:</text>
</g>
<path d="M198 41h10"></path>
<path d="M208 41h10"></path>
<g>
<path d="M218 41h0"></path>
<path d="M302 41h0"></path>
<rect x="218" y="30" width="84" height="22"></rect>
<text x="260" y="45">dataType</text>
</g>
<path d="M302 41h10"></path>
<g>
<path d="M312 41h0"></path>
<path d="M536 41h0"></path>
<path d="M312 41a10 10 0 0 0 10 -10v0a10 10 0 0 1 10 -10"></path>
<g>
<path d="M332 21h184"></path>
</g>
<path d="M516 21a10 10 0 0 1 10 10v0a10 10 0 0 0 10 10"></path>
<path d="M312 41h20"></path>
<g>
<path d="M332 41h0"></path>
<path d="M516 41h0"></path>
<path d="M332 41h10"></path>
<g>
<path d="M342 41h0"></path>
<path d="M418 41h0"></path>
<rect x="342" y="30" width="76" height="22" rx="10" ry="10"></rect>
<text x="380" y="45">COMMENT</text>
</g>
<path d="M418 41h10"></path>
<path d="M428 41h10"></path>
<g>
<path d="M438 41h0"></path>
<path d="M506 41h0"></path>
<rect x="438" y="30" width="68" height="22"></rect>
<text x="472" y="45">STRING</text>
</g>
<path d="M506 41h10"></path>
</g>
<path d="M516 41h20"></path>
</g>
</g>
<path d="M 536 41 h 20 m -10 -10 v 20 m 10 -20 v 20"></path>
</g>
</svg>
