<?xml version="1.0" standalone="no"?>
<!DOCTYPE svg PUBLIC "-//W3C//DTD SVG 1.1//EN"
  "http://www.w3.org/Graphics/SVG/1.1/DTD/svg11.dtd">

<svg xmlns="http://www.w3.org/2000/svg" version="1.1" class="railroad-diagram"  width="723" height="507" viewBox="0 0 723 507" >
<defs><style type="text/css"><![CDATA[ svg.railroad-diagram {
  background-color: #ffffff;
}
svg.railroad-diagram path {
  stroke-width: 2;
  stroke: #5a6872;
  fill: none;
}
svg.railroad-diagram text {
  font-size: 14px;
  font-family: 'ibm-plex-mono', 'Menlo', 'DejaVu Sans Mono', 'Bitstream Vera Sans Mono', Courier, monospace;
  color: #152935;
  text-anchor: middle;
  cursor: pointer;
}
svg.railroad-diagram text.label {
  text-anchor: start;
}
svg.railroad-diagram text.comment {
  font-size: 12px;
}
svg.railroad-diagram rect {
  stroke-width: 2;
  stroke:  #5a6872;
  fill: #5aaafa;
}
 ]]></style></defs>

<g transform="translate(.5 .5)">
<path d="M20 31  v 20 m 10 -20 v 20 m -10 -10 h 20.5"></path>
<g>
<path d="M40 41 h0"></path>
<path d="M1128 41 h0"></path>
<path d="M40 41 h10"></path>
<g>
<path d="M50 41 h0"></path>
<path d="M118 41 h0"></path>
<rect x="50" y="30" width="68" height="22" ></rect>
<text x="84" y="45">COSURI</text>
</g>
<path d="M118 41 h10"></path>
<g>
<path d="M128 41 h0"></path>
<path d="M380 41 h0"></path>
<path d="M128 41 a10 10 0 0 0 10 -10v0a10 10 0 0 1 10 -10"></path>
<g>
<path d="M148 21 h212"></path>
</g>
<path d="M360 21 a10 10 0 0 1 10 10v0a10 10 0 0 0 10 10"></path>
<path d="M128 41 h20"></path>
<g>
<path d="M148 41 h0"></path>
<path d="M360 41 h0"></path>
<path d="M148 41 h10"></path>
<g>
<path d="M158 41 h0"></path>
<path d="M250 41 h0"></path>
<rect x="158" y="30" width="92" height="22"  rx="10" ry="10"></rect>
<text x="204" y="45">JOBPREFIX</text>
</g>
<path d="M250 41 h10"></path>
<g>
<path d="M260 41 h0"></path>
<path d="M360 41 h0"></path>
<path d="M260 41 h20"></path>
<g>
<path d="M280 41 h0"></path>
<path d="M340 41 h0"></path>
<rect x="280" y="30" width="60" height="22"  rx="10" ry="10"></rect>
<text x="310" y="45">JOBID</text>
</g>
<path d="M340 41 h20"></path>
<path d="M260 41 a10 10 0 0 1 10 10v10a10 10 0 0 0 10 10"></path>
<g>
<path d="M280 71 h4"></path>
<path d="M336 71 h4"></path>
<rect x="284" y="60" width="52" height="22"  rx="10" ry="10"></rect>
<text x="310" y="75">NONE</text>
</g>
<path d="M340 71 a10 10 0 0 0 10 -10v-10a10 10 0 0 1 10 -10"></path>
</g>
</g>
<path d="M360 41 h20"></path>
</g>
<path d="M380 41 h10"></path>
<g id="eol">
<path d="M390 41 h0"></path>
<path d="M390 41 a 10 10 0 0 1 10 10 V 90 a 10 10 0 0 1 -10 10 h -359 a 10 10 0 0 0 -10 10 V 135 a 10 10 0 0 0 10 10"></path>
<path d="M390 41 h0"></path>
<path d="M390 41 h0"></path>
</g>
<path d="M31 145 h10"></path>
<g>
<path d="M41 145 h0"></path>
<path d="M357 145 h0"></path>
<path d="M41 145 a10 10 0 0 0 10 -10v0a10 10 0 0 1 10 -10"></path>
<g>
<path d="M61 125 h276"></path>
</g>
<path d="M337 125 a10 10 0 0 1 10 10v0a10 10 0 0 0 10 10"></path>
<path d="M41 145 h20"></path>
<g>
<path d="M61 145 h0"></path>
<path d="M337 145 h0"></path>
<path d="M61 145 h10"></path>
<g>
<path d="M71 145 h0"></path>
<path d="M139 145 h0"></path>
<rect x="71" y="134" width="68" height="22"  rx="10" ry="10"></rect>
<text x="105" y="149">STORED</text>
</g>
<path d="M139 145 h10"></path>
<path d="M149 145 h10"></path>
<g>
<path d="M159 145 h0"></path>
<path d="M195 145 h0"></path>
<rect x="159" y="134" width="36" height="22"  rx="10" ry="10"></rect>
<text x="177" y="149">AS</text>
</g>
<path d="M195 145 h10"></path>
<g>
<path d="M205 145 h0"></path>
<path d="M337 145 h0"></path>
<path d="M205 145 h20"></path>
<g>
<path d="M225 145 h20"></path>
<path d="M297 145 h20"></path>
<rect x="245" y="134" width="52" height="22"  rx="10" ry="10"></rect>
<text x="271" y="149">AVRO</text>
</g>
<path d="M317 145 h20"></path>
<path d="M205 145 a10 10 0 0 1 10 10v10a10 10 0 0 0 10 10"></path>
<g>
<path d="M225 175 h24"></path>
<path d="M293 175 h24"></path>
<rect x="249" y="164" width="44" height="22"  rx="10" ry="10"></rect>
<text x="271" y="179">CSV</text>
</g>
<path d="M317 175 a10 10 0 0 0 10 -10v-10a10 10 0 0 1 10 -10"></path>
<path d="M205 145 a10 10 0 0 1 10 10v40a10 10 0 0 0 10 10"></path>
<g>
<path d="M225 205 h20"></path>
<path d="M297 205 h20"></path>
<rect x="245" y="194" width="52" height="22"  rx="10" ry="10"></rect>
<text x="271" y="209">JSON</text>
</g>
<path d="M317 205 a10 10 0 0 0 10 -10v-40a10 10 0 0 1 10 -10"></path>
<path d="M205 145 a10 10 0 0 1 10 10v70a10 10 0 0 0 10 10"></path>
<g>
<path d="M225 235 h24"></path>
<path d="M293 235 h24"></path>
<rect x="249" y="224" width="44" height="22"  rx="10" ry="10"></rect>
<text x="271" y="239">ORC</text>
</g>
<path d="M317 235 a10 10 0 0 0 10 -10v-70a10 10 0 0 1 10 -10"></path>
<path d="M205 145 a10 10 0 0 1 10 10v100a10 10 0 0 0 10 10"></path>
<g>
<path d="M225 265 h8"></path>
<path d="M309 265 h8"></path>
<rect x="233" y="254" width="76" height="22"  rx="10" ry="10"></rect>
<text x="271" y="269">PARQUET</text>
</g>
<path d="M317 265 a10 10 0 0 0 10 -10v-100a10 10 0 0 1 10 -10"></path>
<path d="M205 145 a10 10 0 0 1 10 10v130a10 10 0 0 0 10 10"></path>
<g>
<path d="M225 295 h8"></path>
<path d="M309 295 h8"></path>
<rect x="233" y="284" width="76" height="22"  rx="10" ry="10"></rect>
<text x="271" y="299">GEOJSON</text>
</g>
<path d="M317 295 a10 10 0 0 0 10 -10v-130a10 10 0 0 1 10 -10"></path>
<path d="M205 145 a10 10 0 0 1 10 10v160a10 10 0 0 0 10 10"></path>
<g>
<path d="M225 325 h0"></path>
<path d="M317 325 h0"></path>
<rect x="225" y="314" width="92" height="22"  rx="10" ry="10"></rect>
<text x="271" y="329">SHAPEFILE</text>
</g>
<path d="M317 325 a10 10 0 0 0 10 -10v-160a10 10 0 0 1 10 -10"></path>
</g>
</g>
<path d="M337 145 h20"></path>
</g>
<g>
<path d="M357 145 h0"></path>
<path d="M553 145 h0"></path>
<path d="M357 145 a10 10 0 0 0 10 -10v0a10 10 0 0 1 10 -10"></path>
<g>
<path d="M377 125 h156"></path>
</g>
<path d="M533 125 a10 10 0 0 1 10 10v0a10 10 0 0 0 10 10"></path>
<path d="M357 145 h20"></path>
<g>
<path d="M377 145 h0"></path>
<path d="M533 145 h0"></path>
<rect x="377" y="134" width="156" height="22" ></rect>
<text x="455" y="149">partitionedClause</text>
</g>
<path d="M533 145 h20"></path>
</g>
<g>
<path d="M553 145 h0"></path>
<path d="M693 145 h0"></path>
<path d="M553 145 a10 10 0 0 0 10 -10v0a10 10 0 0 1 10 -10"></path>
<g>
<path d="M573 125 h100"></path>
</g>
<path d="M673 125 a10 10 0 0 1 10 10v0a10 10 0 0 0 10 10"></path>
<path d="M553 145 h20"></path>
<g>
<path d="M573 145 h0"></path>
<path d="M673 145 h0"></path>
<rect x="573" y="134" width="100" height="22" ></rect>
<text x="623" y="149">sortClause</text>
</g>
<path d="M673 145 h20"></path>
</g>
</g>
<path d="M693 145  h 20 m -10 -10 v 20 m 10 -20 v 20"></path>
</g>
</svg>
