<?xml version="1.0" standalone="no"?>
<!DOCTYPE svg PUBLIC "-//W3C//DTD SVG 1.1//EN"
  "http://www.w3.org/Graphics/SVG/1.1/DTD/svg11.dtd">

<svg xmlns="http://www.w3.org/2000/svg" version="1.1" class="railroad-diagram"  width="885" height="207" viewBox="0 0 885 207" >
<defs><style type="text/css"><![CDATA[ svg.railroad-diagram {
  background-color: #ffffff;
}
svg.railroad-diagram path {
  stroke-width: 2;
  stroke: #5a6872;
  fill: none;
}
svg.railroad-diagram text {
  font-size: 14px;
  font-family: 'ibm-plex-mono', 'Menlo', 'DejaVu Sans Mono', 'Bitstream Vera Sans Mono', Courier, monospace;
  color: #152935;
  text-anchor: middle;
  cursor: pointer;
}
svg.railroad-diagram text.label {
  text-anchor: start;
}
svg.railroad-diagram text.comment {
  font-size: 12px;
}
svg.railroad-diagram rect {
  stroke-width: 2;
  stroke:  #5a6872;
  fill: #5aaafa;
}
 ]]></style></defs>

<g transform="translate(.5 .5)">
<path d="M20 31  v 20 m 10 -20 v 20 m -10 -10 h 20.5"></path>
<g>
<path d="M40 41 h0"></path>
<path d="M1608 41 h0"></path>
<path d="M40 41 h10"></path>
<g>
<path d="M50 41 h0"></path>
<path d="M118 41 h0"></path>
<rect x="50" y="30" width="68" height="22"  rx="10" ry="10"></rect>
<text x="84" y="45">CREATE</text>
</g>
<path d="M118 41 h10"></path>
<g>
<path d="M128 41 h0"></path>
<path d="M320 41 h0"></path>
<path d="M128 41 a10 10 0 0 0 10 -10v0a10 10 0 0 1 10 -10"></path>
<g>
<path d="M148 21 h152"></path>
</g>
<path d="M300 21 a10 10 0 0 1 10 10v0a10 10 0 0 0 10 10"></path>
<path d="M128 41 h20"></path>
<g>
<path d="M148 41 h0"></path>
<path d="M300 41 h0"></path>
<path d="M148 41 h10"></path>
<g>
<path d="M158 41 h0"></path>
<path d="M194 41 h0"></path>
<rect x="158" y="30" width="36" height="22"  rx="10" ry="10"></rect>
<text x="176" y="45">OR</text>
</g>
<path d="M194 41 h10"></path>
<path d="M204 41 h10"></path>
<g>
<path d="M214 41 h0"></path>
<path d="M290 41 h0"></path>
<rect x="214" y="30" width="76" height="22"  rx="10" ry="10"></rect>
<text x="252" y="45">REPLACE</text>
</g>
<path d="M290 41 h10"></path>
</g>
<path d="M300 41 h20"></path>
</g>
<path d="M320 41 h10"></path>
<g>
<path d="M330 41 h0"></path>
<path d="M382 41 h0"></path>
<rect x="330" y="30" width="52" height="22"  rx="10" ry="10"></rect>
<text x="356" y="45">VIEW</text>
</g>
<path d="M382 41 h10"></path>
<g>
<path d="M392 41 h0"></path>
<path d="M640 41 h0"></path>
<path d="M392 41 a10 10 0 0 0 10 -10v0a10 10 0 0 1 10 -10"></path>
<g>
<path d="M412 21 h208"></path>
</g>
<path d="M620 21 a10 10 0 0 1 10 10v0a10 10 0 0 0 10 10"></path>
<path d="M392 41 h20"></path>
<g>
<path d="M412 41 h0"></path>
<path d="M620 41 h0"></path>
<path d="M412 41 h10"></path>
<g>
<path d="M422 41 h0"></path>
<path d="M458 41 h0"></path>
<rect x="422" y="30" width="36" height="22"  rx="10" ry="10"></rect>
<text x="440" y="45">IF</text>
</g>
<path d="M458 41 h10"></path>
<path d="M468 41 h10"></path>
<g>
<path d="M478 41 h0"></path>
<path d="M522 41 h0"></path>
<rect x="478" y="30" width="44" height="22"  rx="10" ry="10"></rect>
<text x="500" y="45">NOT</text>
</g>
<path d="M522 41 h10"></path>
<path d="M532 41 h10"></path>
<g>
<path d="M542 41 h0"></path>
<path d="M610 41 h0"></path>
<rect x="542" y="30" width="68" height="22"  rx="10" ry="10"></rect>
<text x="576" y="45">EXISTS</text>
</g>
<path d="M610 41 h10"></path>
</g>
<path d="M620 41 h20"></path>
</g>
<path d="M640 41 h10"></path>
<g>
<path d="M650 41 h0"></path>
<path d="M790 41 h0"></path>
<rect x="650" y="30" width="140" height="22" ></rect>
<text x="720" y="45">tableIdentifier</text>
</g>
<path d="M790 41 h10"></path>
<path d="M800 41 h10"></path>
<g id="eol">
<path d="M810 41 h0"></path>
<path d="M810 41 a 10 10 0 0 1 10 10 V 60 a 10 10 0 0 1 -10 10 h -779 a 10 10 0 0 0 -10 10 V 105 a 10 10 0 0 0 10 10"></path>
<path d="M810 41 h0"></path>
<path d="M810 41 h0"></path>
</g>
<path d="M31 115 h10"></path>
<g>
<path d="M41 115 h0"></path>
<path d="M393 115 h0"></path>
<path d="M41 115 a10 10 0 0 0 10 -10v0a10 10 0 0 1 10 -10"></path>
<g>
<path d="M61 95 h312"></path>
</g>
<path d="M373 95 a10 10 0 0 1 10 10v0a10 10 0 0 0 10 10"></path>
<path d="M41 115 h20"></path>
<g>
<path d="M61 115 h0"></path>
<path d="M373 115 h0"></path>
<path d="M61 115 h10"></path>
<g>
<path d="M71 115 h0"></path>
<path d="M99 115 h0"></path>
<rect x="71" y="104" width="28" height="22"  rx="10" ry="10"></rect>
<text x="85" y="119">(</text>
</g>
<path d="M99 115 h10"></path>
<path d="M109 115 h10"></path>
<g>
<path d="M119 115 h0"></path>
<path d="M315 115 h0"></path>
<path d="M119 115 h10"></path>
<g>
<path d="M129 115 h0"></path>
<path d="M305 115 h0"></path>
<path d="M129 115 h10"></path>
<g>
<path d="M139 115 h0"></path>
<path d="M295 115 h0"></path>
<rect x="139" y="104" width="156" height="22" ></rect>
<text x="217" y="119">identifierComment</text>
</g>
<path d="M295 115 h10"></path>
</g>
<path d="M305 115 h10"></path>
<path d="M129 115 a10 10 0 0 0 -10 10v10a10 10 0 0 0 10 10"></path>
<g>
<path d="M129 145 h64"></path>
<path d="M241 145 h64"></path>
<path d="M193 145 h10"></path>
<g>
<path d="M203 145 h0"></path>
<path d="M231 145 h0"></path>
<rect x="203" y="134" width="28" height="22"  rx="10" ry="10"></rect>
<text x="217" y="149">,</text>
</g>
<path d="M231 145 h10"></path>
</g>
<path d="M305 145 a10 10 0 0 0 10 -10v-10a10 10 0 0 0 -10 -10"></path>
</g>
<path d="M315 115 h10"></path>
<path d="M325 115 h10"></path>
<g>
<path d="M335 115 h0"></path>
<path d="M363 115 h0"></path>
<rect x="335" y="104" width="28" height="22"  rx="10" ry="10"></rect>
<text x="349" y="119">)</text>
</g>
<path d="M363 115 h10"></path>
</g>
<path d="M373 115 h20"></path>
</g>
<g>
<path d="M393 115 h0"></path>
<path d="M617 115 h0"></path>
<path d="M393 115 a10 10 0 0 0 10 -10v0a10 10 0 0 1 10 -10"></path>
<g>
<path d="M413 95 h184"></path>
</g>
<path d="M597 95 a10 10 0 0 1 10 10v0a10 10 0 0 0 10 10"></path>
<path d="M393 115 h20"></path>
<g>
<path d="M413 115 h0"></path>
<path d="M597 115 h0"></path>
<path d="M413 115 h10"></path>
<g>
<path d="M423 115 h0"></path>
<path d="M499 115 h0"></path>
<rect x="423" y="104" width="76" height="22"  rx="10" ry="10"></rect>
<text x="461" y="119">COMMENT</text>
</g>
<path d="M499 115 h10"></path>
<path d="M509 115 h10"></path>
<g>
<path d="M519 115 h0"></path>
<path d="M587 115 h0"></path>
<rect x="519" y="104" width="68" height="22" ></rect>
<text x="553" y="119">STRING</text>
</g>
<path d="M587 115 h10"></path>
</g>
<path d="M597 115 h20"></path>
</g>
<path d="M617 115 h10"></path>
<g>
<path d="M627 115 h0"></path>
<path d="M663 115 h0"></path>
<rect x="627" y="104" width="36" height="22"  rx="10" ry="10"></rect>
<text x="645" y="119">AS</text>
</g>
<path d="M663 115 h10"></path>
<path d="M673 115 h10"></path>
<g>
<path d="M683 115 h0"></path>
<path d="M743 115 h0"></path>
<rect x="683" y="104" width="60" height="22" ></rect>
<text x="713" y="119">query</text>
</g>
<path d="M743 115 h10"></path>
</g>
<path d="M753 115  h 20 m -10 -10 v 20 m 10 -20 v 20"></path>
</g>
</svg>
