<?xml version="1.0" standalone="no"?>
<!DOCTYPE svg PUBLIC "-//W3C//DTD SVG 1.1//EN"
  "http://www.w3.org/Graphics/SVG/1.1/DTD/svg11.dtd">

<svg xmlns="http://www.w3.org/2000/svg" version="1.1" class="railroad-diagram"  width="2006" height="102" viewBox="0 0 2006 102" >
<defs><style type="text/css"><![CDATA[ svg.railroad-diagram {
  background-color: #ffffff;
}
svg.railroad-diagram path {
  stroke-width: 2;
  stroke: #5a6872;
  fill: none;
}
svg.railroad-diagram text {
  font-size: 14px;
  font-family: 'ibm-plex-mono', 'Menlo', 'DejaVu Sans Mono', 'Bitstream Vera Sans Mono', Courier, monospace;
  color: #152935;
  text-anchor: middle;
  cursor: pointer;
}
svg.railroad-diagram text.label {
  text-anchor: start;
}
svg.railroad-diagram text.comment {
  font-size: 12px;
}
svg.railroad-diagram rect {
  stroke-width: 2;
  stroke:  #5a6872;
  fill: #5aaafa;
}
 ]]></style></defs>

<g transform="translate(.5 .5)">
<path d="M 20 31 v 20 m 10 -20 v 20 m -10 -10 h 20.5"></path>
<g>
<path d="M40 41h0"></path>
<path d="M1976 41h0"></path>
<path d="M40 41h10"></path>
<g>
<path d="M50 41h0"></path>
<path d="M118 41h0"></path>
<rect x="50" y="30" width="68" height="22" rx="10" ry="10"></rect>
<text x="84" y="45">CREATE</text>
</g>
<path d="M118 41h10"></path>
<g>
<path d="M128 41h0"></path>
<path d="M320 41h0"></path>
<path d="M128 41a10 10 0 0 0 10 -10v0a10 10 0 0 1 10 -10"></path>
<g>
<path d="M148 21h152"></path>
</g>
<path d="M300 21a10 10 0 0 1 10 10v0a10 10 0 0 0 10 10"></path>
<path d="M128 41h20"></path>
<g>
<path d="M148 41h0"></path>
<path d="M300 41h0"></path>
<path d="M148 41h10"></path>
<g>
<path d="M158 41h0"></path>
<path d="M194 41h0"></path>
<rect x="158" y="30" width="36" height="22" rx="10" ry="10"></rect>
<text x="176" y="45">OR</text>
</g>
<path d="M194 41h10"></path>
<path d="M204 41h10"></path>
<g>
<path d="M214 41h0"></path>
<path d="M290 41h0"></path>
<rect x="214" y="30" width="76" height="22" rx="10" ry="10"></rect>
<text x="252" y="45">REPLACE</text>
</g>
<path d="M290 41h10"></path>
</g>
<path d="M300 41h20"></path>
</g>
<path d="M320 41h10"></path>
<g>
<path d="M330 41h0"></path>
<path d="M382 41h0"></path>
<rect x="330" y="30" width="52" height="22" rx="10" ry="10"></rect>
<text x="356" y="45">VIEW</text>
</g>
<path d="M382 41h10"></path>
<g>
<path d="M392 41h0"></path>
<path d="M640 41h0"></path>
<path d="M392 41a10 10 0 0 0 10 -10v0a10 10 0 0 1 10 -10"></path>
<g>
<path d="M412 21h208"></path>
</g>
<path d="M620 21a10 10 0 0 1 10 10v0a10 10 0 0 0 10 10"></path>
<path d="M392 41h20"></path>
<g>
<path d="M412 41h0"></path>
<path d="M620 41h0"></path>
<path d="M412 41h10"></path>
<g>
<path d="M422 41h0"></path>
<path d="M458 41h0"></path>
<rect x="422" y="30" width="36" height="22" rx="10" ry="10"></rect>
<text x="440" y="45">IF</text>
</g>
<path d="M458 41h10"></path>
<path d="M468 41h10"></path>
<g>
<path d="M478 41h0"></path>
<path d="M522 41h0"></path>
<rect x="478" y="30" width="44" height="22" rx="10" ry="10"></rect>
<text x="500" y="45">NOT</text>
</g>
<path d="M522 41h10"></path>
<path d="M532 41h10"></path>
<g>
<path d="M542 41h0"></path>
<path d="M610 41h0"></path>
<rect x="542" y="30" width="68" height="22" rx="10" ry="10"></rect>
<text x="576" y="45">EXISTS</text>
</g>
<path d="M610 41h10"></path>
</g>
<path d="M620 41h20"></path>
</g>
<path d="M640 41h10"></path>
<g>
<path d="M650 41h0"></path>
<path d="M790 41h0"></path>
<rect x="650" y="30" width="140" height="22"></rect>
<text x="720" y="45">tableIdentifier</text>
</g>
<path d="M790 41h10"></path>
<g>
<path d="M800 41h0"></path>
<path d="M1152 41h0"></path>
<path d="M800 41a10 10 0 0 0 10 -10v0a10 10 0 0 1 10 -10"></path>
<g>
<path d="M820 21h312"></path>
</g>
<path d="M1132 21a10 10 0 0 1 10 10v0a10 10 0 0 0 10 10"></path>
<path d="M800 41h20"></path>
<g>
<path d="M820 41h0"></path>
<path d="M1132 41h0"></path>
<path d="M820 41h10"></path>
<g>
<path d="M830 41h0"></path>
<path d="M858 41h0"></path>
<rect x="830" y="30" width="28" height="22" rx="10" ry="10"></rect>
<text x="844" y="45">(</text>
</g>
<path d="M858 41h10"></path>
<path d="M868 41h10"></path>
<g>
<path d="M878 41h0"></path>
<path d="M1074 41h0"></path>
<path d="M878 41h10"></path>
<g>
<path d="M888 41h0"></path>
<path d="M1064 41h0"></path>
<path d="M888 41h10"></path>
<g>
<path d="M898 41h0"></path>
<path d="M1054 41h0"></path>
<rect x="898" y="30" width="156" height="22"></rect>
<text x="976" y="45">identifierComment</text>
</g>
<path d="M1054 41h10"></path>
</g>
<path d="M1064 41h10"></path>
<path d="M888 41a10 10 0 0 0 -10 10v10a10 10 0 0 0 10 10"></path>
<g>
<path d="M888 71h64"></path>
<path d="M1000 71h64"></path>
<path d="M952 71h10"></path>
<g>
<path d="M962 71h0"></path>
<path d="M990 71h0"></path>
<rect x="962" y="60" width="28" height="22" rx="10" ry="10"></rect>
<text x="976" y="75">,</text>
</g>
<path d="M990 71h10"></path>
</g>
<path d="M1064 71a10 10 0 0 0 10 -10v-10a10 10 0 0 0 -10 -10"></path>
</g>
<path d="M1074 41h10"></path>
<path d="M1084 41h10"></path>
<g>
<path d="M1094 41h0"></path>
<path d="M1122 41h0"></path>
<rect x="1094" y="30" width="28" height="22" rx="10" ry="10"></rect>
<text x="1108" y="45">)</text>
</g>
<path d="M1122 41h10"></path>
</g>
<path d="M1132 41h20"></path>
</g>
<g>
<path d="M1152 41h0"></path>
<path d="M1376 41h0"></path>
<path d="M1152 41a10 10 0 0 0 10 -10v0a10 10 0 0 1 10 -10"></path>
<g>
<path d="M1172 21h184"></path>
</g>
<path d="M1356 21a10 10 0 0 1 10 10v0a10 10 0 0 0 10 10"></path>
<path d="M1152 41h20"></path>
<g>
<path d="M1172 41h0"></path>
<path d="M1356 41h0"></path>
<path d="M1172 41h10"></path>
<g>
<path d="M1182 41h0"></path>
<path d="M1258 41h0"></path>
<rect x="1182" y="30" width="76" height="22" rx="10" ry="10"></rect>
<text x="1220" y="45">COMMENT</text>
</g>
<path d="M1258 41h10"></path>
<path d="M1268 41h10"></path>
<g>
<path d="M1278 41h0"></path>
<path d="M1346 41h0"></path>
<rect x="1278" y="30" width="68" height="22"></rect>
<text x="1312" y="45">STRING</text>
</g>
<path d="M1346 41h10"></path>
</g>
<path d="M1356 41h20"></path>
</g>
<g>
<path d="M1376 41h0"></path>
<path d="M1840 41h0"></path>
<path d="M1376 41a10 10 0 0 0 10 -10v0a10 10 0 0 1 10 -10"></path>
<g>
<path d="M1396 21h424"></path>
</g>
<path d="M1820 21a10 10 0 0 1 10 10v0a10 10 0 0 0 10 10"></path>
<path d="M1376 41h20"></path>
<g>
<path d="M1396 41h0"></path>
<path d="M1820 41h0"></path>
<path d="M1396 41h10"></path>
<g>
<path d="M1406 41h0"></path>
<path d="M1530 41h0"></path>
<rect x="1406" y="30" width="124" height="22" rx="10" ry="10"></rect>
<text x="1468" y="45">TBLPROPERTIES</text>
</g>
<path d="M1530 41h10"></path>
<path d="M1540 41h10"></path>
<g>
<path d="M1550 41h0"></path>
<path d="M1578 41h0"></path>
<rect x="1550" y="30" width="28" height="22" rx="10" ry="10"></rect>
<text x="1564" y="45">(</text>
</g>
<path d="M1578 41h10"></path>
<path d="M1588 41h10"></path>
<g>
<path d="M1598 41h0"></path>
<path d="M1762 41h0"></path>
<path d="M1598 41h10"></path>
<g>
<path d="M1608 41h0"></path>
<path d="M1752 41h0"></path>
<path d="M1608 41h10"></path>
<g>
<path d="M1618 41h0"></path>
<path d="M1742 41h0"></path>
<rect x="1618" y="30" width="124" height="22"></rect>
<text x="1680" y="45">tableProperty</text>
</g>
<path d="M1742 41h10"></path>
</g>
<path d="M1752 41h10"></path>
<path d="M1608 41a10 10 0 0 0 -10 10v10a10 10 0 0 0 10 10"></path>
<g>
<path d="M1608 71h48"></path>
<path d="M1704 71h48"></path>
<path d="M1656 71h10"></path>
<g>
<path d="M1666 71h0"></path>
<path d="M1694 71h0"></path>
<rect x="1666" y="60" width="28" height="22" rx="10" ry="10"></rect>
<text x="1680" y="75">,</text>
</g>
<path d="M1694 71h10"></path>
</g>
<path d="M1752 71a10 10 0 0 0 10 -10v-10a10 10 0 0 0 -10 -10"></path>
</g>
<path d="M1762 41h10"></path>
<path d="M1772 41h10"></path>
<g>
<path d="M1782 41h0"></path>
<path d="M1810 41h0"></path>
<rect x="1782" y="30" width="28" height="22" rx="10" ry="10"></rect>
<text x="1796" y="45">)</text>
</g>
<path d="M1810 41h10"></path>
</g>
<path d="M1820 41h20"></path>
</g>
<path d="M1840 41h10"></path>
<g>
<path d="M1850 41h0"></path>
<path d="M1886 41h0"></path>
<rect x="1850" y="30" width="36" height="22" rx="10" ry="10"></rect>
<text x="1868" y="45">AS</text>
</g>
<path d="M1886 41h10"></path>
<path d="M1896 41h10"></path>
<g>
<path d="M1906 41h0"></path>
<path d="M1966 41h0"></path>
<rect x="1906" y="30" width="60" height="22"></rect>
<text x="1936" y="45">query</text>
</g>
<path d="M1966 41h10"></path>
</g>
<path d="M 1976 41 h 20 m -10 -10 v 20 m 10 -20 v 20"></path>
</g>
</svg>
