<?xml version="1.0" standalone="no"?>
<!DOCTYPE svg PUBLIC "-//W3C//DTD SVG 1.1//EN"
  "http://www.w3.org/Graphics/SVG/1.1/DTD/svg11.dtd">

<svg xmlns="http://www.w3.org/2000/svg" version="1.1" class="railroad-diagram" width="561" height="232" viewBox="0 0 561 232">

<defs><style type="text/css"><![CDATA[ svg.railroad-diagram {
  background-color: #ffffff;
}
svg.railroad-diagram path {
  stroke-width: 2;
  stroke: #5a6872;
  fill: none;
}
svg.railroad-diagram text {
  font-size: 14px;
  font-family: 'ibm-plex-mono', 'Menlo', 'DejaVu Sans Mono', 'Bitstream Vera Sans Mono', Courier, monospace;
  color: #152935;
  text-anchor: middle;
  cursor: pointer;
}
svg.railroad-diagram text.label {
  text-anchor: start;
}
svg.railroad-diagram text.comment {
  font-size: 12px;
}
svg.railroad-diagram rect {
  stroke-width: 2;
  stroke:  #5a6872;
  fill: #5aaafa;
}
 ]]></style></defs>

<g transform="translate(.5 .5)">
<path d="M 20 21 v 20 m 10 -20 v 20 m -10 -10 h 20.5"></path>
<g>
<path d="M40 31h0"></path>
<path d="M520 31h0"></path>
<path d="M40 31h20"></path>
<g>
<path d="M60 31h80"></path>
<path d="M420 31h80"></path>
<path d="M140 31h10"></path>
<g>
<path d="M150 31h0"></path>
<path d="M210 31h0"></path>
<rect x="150" y="20" width="60" height="22" rx="10" ry="10"></rect>
<text x="180" y="35">ARRAY</text>
</g>
<path d="M210 31h10"></path>
<path d="M220 31h10"></path>
<g>
<path d="M230 31h0"></path>
<path d="M258 31h0"></path>
<rect x="230" y="20" width="28" height="22" rx="10" ry="10"></rect>
<text x="244" y="35">&#60;</text>
</g>
<path d="M258 31h10"></path>
<path d="M268 31h10"></path>
<g>
<path d="M278 31h0"></path>
<path d="M362 31h0"></path>
<rect x="278" y="20" width="84" height="22"></rect>
<text x="320" y="35">dataType</text>
</g>
<path d="M362 31h10"></path>
<path d="M372 31h10"></path>
<g>
<path d="M382 31h0"></path>
<path d="M410 31h0"></path>
<rect x="382" y="20" width="28" height="22" rx="10" ry="10"></rect>
<text x="396" y="35">></text>
</g>
<path d="M410 31h10"></path>
</g>
<path d="M500 31h20"></path>
<path d="M40 31a10 10 0 0 1 10 10v10a10 10 0 0 0 10 10"></path>
<g>
<path d="M60 61h12"></path>
<path d="M488 61h12"></path>
<path d="M72 61h10"></path>
<g>
<path d="M82 61h0"></path>
<path d="M126 61h0"></path>
<rect x="82" y="50" width="44" height="22" rx="10" ry="10"></rect>
<text x="104" y="65">MAP</text>
</g>
<path d="M126 61h10"></path>
<path d="M136 61h10"></path>
<g>
<path d="M146 61h0"></path>
<path d="M174 61h0"></path>
<rect x="146" y="50" width="28" height="22" rx="10" ry="10"></rect>
<text x="160" y="65">&#60;</text>
</g>
<path d="M174 61h10"></path>
<path d="M184 61h10"></path>
<g>
<path d="M194 61h0"></path>
<path d="M278 61h0"></path>
<rect x="194" y="50" width="84" height="22"></rect>
<text x="236" y="65">dataType</text>
</g>
<path d="M278 61h10"></path>
<path d="M288 61h10"></path>
<g>
<path d="M298 61h0"></path>
<path d="M326 61h0"></path>
<rect x="298" y="50" width="28" height="22" rx="10" ry="10"></rect>
<text x="312" y="65">,</text>
</g>
<path d="M326 61h10"></path>
<path d="M336 61h10"></path>
<g>
<path d="M346 61h0"></path>
<path d="M430 61h0"></path>
<rect x="346" y="50" width="84" height="22"></rect>
<text x="388" y="65">dataType</text>
</g>
<path d="M430 61h10"></path>
<path d="M440 61h10"></path>
<g>
<path d="M450 61h0"></path>
<path d="M478 61h0"></path>
<rect x="450" y="50" width="28" height="22" rx="10" ry="10"></rect>
<text x="464" y="65">></text>
</g>
<path d="M478 61h10"></path>
</g>
<path d="M500 61a10 10 0 0 0 10 -10v-10a10 10 0 0 1 10 -10"></path>
<path d="M40 31a10 10 0 0 1 10 10v50a10 10 0 0 0 10 10"></path>
<g>
<path d="M60 101h6"></path>
<path d="M494 101h6"></path>
<path d="M66 101h10"></path>
<g>
<path d="M76 101h0"></path>
<path d="M144 101h0"></path>
<rect x="76" y="90" width="68" height="22" rx="10" ry="10"></rect>
<text x="110" y="105">STRUCT</text>
</g>
<path d="M144 101h10"></path>
<g>
<path d="M154 101h0"></path>
<path d="M494 101h0"></path>
<path d="M154 101h20"></path>
<g>
<path d="M174 101h0"></path>
<path d="M474 101h0"></path>
<path d="M174 101h10"></path>
<g>
<path d="M184 101h0"></path>
<path d="M212 101h0"></path>
<rect x="184" y="90" width="28" height="22" rx="10" ry="10"></rect>
<text x="198" y="105">&#60;</text>
</g>
<path d="M212 101h10"></path>
<g>
<path d="M222 101h0"></path>
<path d="M426 101h0"></path>
<path d="M222 101a10 10 0 0 0 10 -10v0a10 10 0 0 1 10 -10"></path>
<g>
<path d="M242 81h164"></path>
</g>
<path d="M406 81a10 10 0 0 1 10 10v0a10 10 0 0 0 10 10"></path>
<path d="M222 101h20"></path>
<g>
<path d="M242 101h0"></path>
<path d="M406 101h0"></path>
<rect x="242" y="90" width="164" height="22"></rect>
<text x="324" y="105">complexColTypeList</text>
</g>
<path d="M406 101h20"></path>
</g>
<path d="M426 101h10"></path>
<g>
<path d="M436 101h0"></path>
<path d="M464 101h0"></path>
<rect x="436" y="90" width="28" height="22" rx="10" ry="10"></rect>
<text x="450" y="105">></text>
</g>
<path d="M464 101h10"></path>
</g>
<path d="M474 101h20"></path>
<path d="M154 101a10 10 0 0 1 10 10v10a10 10 0 0 0 10 10"></path>
<g>
<path d="M174 131h132"></path>
<path d="M342 131h132"></path>
<rect x="306" y="120" width="36" height="22" rx="10" ry="10"></rect>
<text x="324" y="135">&#60;></text>
</g>
<path d="M474 131a10 10 0 0 0 10 -10v-10a10 10 0 0 1 10 -10"></path>
</g>
</g>
<path d="M500 101a10 10 0 0 0 10 -10v-50a10 10 0 0 1 10 -10"></path>
<path d="M40 31a10 10 0 0 1 10 10v120a10 10 0 0 0 10 10"></path>
<g>
<path d="M60 171h0"></path>
<path d="M500 171h0"></path>
<path d="M60 171h10"></path>
<g>
<path d="M70 171h0"></path>
<path d="M170 171h0"></path>
<rect x="70" y="160" width="100" height="22"></rect>
<text x="120" y="175">identifier</text>
</g>
<path d="M170 171h10"></path>
<g>
<path d="M180 171h0"></path>
<path d="M500 171h0"></path>
<path d="M180 171a10 10 0 0 0 10 -10v0a10 10 0 0 1 10 -10"></path>
<g>
<path d="M200 151h280"></path>
</g>
<path d="M480 151a10 10 0 0 1 10 10v0a10 10 0 0 0 10 10"></path>
<path d="M180 171h20"></path>
<g>
<path d="M200 171h0"></path>
<path d="M480 171h0"></path>
<path d="M200 171h10"></path>
<g>
<path d="M210 171h0"></path>
<path d="M238 171h0"></path>
<rect x="210" y="160" width="28" height="22" rx="10" ry="10"></rect>
<text x="224" y="175">(</text>
</g>
<path d="M238 171h10"></path>
<path d="M248 171h10"></path>
<g>
<path d="M258 171h0"></path>
<path d="M422 171h0"></path>
<path d="M258 171h10"></path>
<g>
<path d="M268 171h0"></path>
<path d="M412 171h0"></path>
<path d="M268 171h10"></path>
<g>
<path d="M278 171h0"></path>
<path d="M402 171h0"></path>
<rect x="278" y="160" width="124" height="22"></rect>
<text x="340" y="175">INTEGER&#95;VALUE</text>
</g>
<path d="M402 171h10"></path>
</g>
<path d="M412 171h10"></path>
<path d="M268 171a10 10 0 0 0 -10 10v10a10 10 0 0 0 10 10"></path>
<g>
<path d="M268 201h48"></path>
<path d="M364 201h48"></path>
<path d="M316 201h10"></path>
<g>
<path d="M326 201h0"></path>
<path d="M354 201h0"></path>
<rect x="326" y="190" width="28" height="22" rx="10" ry="10"></rect>
<text x="340" y="205">,</text>
</g>
<path d="M354 201h10"></path>
</g>
<path d="M412 201a10 10 0 0 0 10 -10v-10a10 10 0 0 0 -10 -10"></path>
</g>
<path d="M422 171h10"></path>
<path d="M432 171h10"></path>
<g>
<path d="M442 171h0"></path>
<path d="M470 171h0"></path>
<rect x="442" y="160" width="28" height="22" rx="10" ry="10"></rect>
<text x="456" y="175">)</text>
</g>
<path d="M470 171h10"></path>
</g>
<path d="M480 171h20"></path>
</g>
</g>
<path d="M500 171a10 10 0 0 0 10 -10v-120a10 10 0 0 1 10 -10"></path>
</g>
<path d="M 520 31 h 20 m -10 -10 v 20 m 10 -20 v 20"></path>
</g>
</svg>
