<?xml version="1.0" standalone="no"?>
<!DOCTYPE svg PUBLIC "-//W3C//DTD SVG 1.1//EN"
  "http://www.w3.org/Graphics/SVG/1.1/DTD/svg11.dtd">

<svg xmlns="http://www.w3.org/2000/svg" version="1.1" class="railroad-diagram" width="577" height="232" viewBox="0 0 577 232">

<defs><style type="text/css"><![CDATA[ svg.railroad-diagram {
  background-color: #ffffff;
}
svg.railroad-diagram path {
  stroke-width: 2;
  stroke: #5a6872;
  fill: none;
}
svg.railroad-diagram text {
  font-size: 14px;
  font-family: 'ibm-plex-mono', 'Menlo', 'DejaVu Sans Mono', 'Bitstream Vera Sans Mono', Courier, monospace;
  color: #152935;
  text-anchor: middle;
  cursor: pointer;
}
svg.railroad-diagram text.label {
  text-anchor: start;
}
svg.railroad-diagram text.comment {
  font-size: 12px;
}
svg.railroad-diagram rect {
  stroke-width: 2;
  stroke:  #5a6872;
  fill: #5aaafa;
}
 ]]></style></defs>

<g transform="translate(.5 .5)">
<path d="M 20 21 v 20 m 10 -20 v 20 m -10 -10 h 20.5"></path>
<g>
<path d="M40 31h0"></path>
<path d="M536 31h0"></path>
<path d="M40 31h20"></path>
<g>
<path d="M60 31h88"></path>
<path d="M428 31h88"></path>
<path d="M148 31h10"></path>
<g>
<path d="M158 31h0"></path>
<path d="M218 31h0"></path>
<rect x="158" y="20" width="60" height="22" rx="10" ry="10"></rect>
<text x="188" y="35">ARRAY</text>
</g>
<path d="M218 31h10"></path>
<path d="M228 31h10"></path>
<g>
<path d="M238 31h0"></path>
<path d="M266 31h0"></path>
<rect x="238" y="20" width="28" height="22" rx="10" ry="10"></rect>
<text x="252" y="35">&#60;</text>
</g>
<path d="M266 31h10"></path>
<path d="M276 31h10"></path>
<g>
<path d="M286 31h0"></path>
<path d="M370 31h0"></path>
<rect x="286" y="20" width="84" height="22"></rect>
<text x="328" y="35">dataType</text>
</g>
<path d="M370 31h10"></path>
<path d="M380 31h10"></path>
<g>
<path d="M390 31h0"></path>
<path d="M418 31h0"></path>
<rect x="390" y="20" width="28" height="22" rx="10" ry="10"></rect>
<text x="404" y="35">></text>
</g>
<path d="M418 31h10"></path>
</g>
<path d="M516 31h20"></path>
<path d="M40 31a10 10 0 0 1 10 10v10a10 10 0 0 0 10 10"></path>
<g>
<path d="M60 61h20"></path>
<path d="M496 61h20"></path>
<path d="M80 61h10"></path>
<g>
<path d="M90 61h0"></path>
<path d="M134 61h0"></path>
<rect x="90" y="50" width="44" height="22" rx="10" ry="10"></rect>
<text x="112" y="65">MAP</text>
</g>
<path d="M134 61h10"></path>
<path d="M144 61h10"></path>
<g>
<path d="M154 61h0"></path>
<path d="M182 61h0"></path>
<rect x="154" y="50" width="28" height="22" rx="10" ry="10"></rect>
<text x="168" y="65">&#60;</text>
</g>
<path d="M182 61h10"></path>
<path d="M192 61h10"></path>
<g>
<path d="M202 61h0"></path>
<path d="M286 61h0"></path>
<rect x="202" y="50" width="84" height="22"></rect>
<text x="244" y="65">dataType</text>
</g>
<path d="M286 61h10"></path>
<path d="M296 61h10"></path>
<g>
<path d="M306 61h0"></path>
<path d="M334 61h0"></path>
<rect x="306" y="50" width="28" height="22" rx="10" ry="10"></rect>
<text x="320" y="65">,</text>
</g>
<path d="M334 61h10"></path>
<path d="M344 61h10"></path>
<g>
<path d="M354 61h0"></path>
<path d="M438 61h0"></path>
<rect x="354" y="50" width="84" height="22"></rect>
<text x="396" y="65">dataType</text>
</g>
<path d="M438 61h10"></path>
<path d="M448 61h10"></path>
<g>
<path d="M458 61h0"></path>
<path d="M486 61h0"></path>
<rect x="458" y="50" width="28" height="22" rx="10" ry="10"></rect>
<text x="472" y="65">></text>
</g>
<path d="M486 61h10"></path>
</g>
<path d="M516 61a10 10 0 0 0 10 -10v-10a10 10 0 0 1 10 -10"></path>
<path d="M40 31a10 10 0 0 1 10 10v50a10 10 0 0 0 10 10"></path>
<g>
<path d="M60 101h14"></path>
<path d="M502 101h14"></path>
<path d="M74 101h10"></path>
<g>
<path d="M84 101h0"></path>
<path d="M152 101h0"></path>
<rect x="84" y="90" width="68" height="22" rx="10" ry="10"></rect>
<text x="118" y="105">STRUCT</text>
</g>
<path d="M152 101h10"></path>
<g>
<path d="M162 101h0"></path>
<path d="M502 101h0"></path>
<path d="M162 101h20"></path>
<g>
<path d="M182 101h0"></path>
<path d="M482 101h0"></path>
<path d="M182 101h10"></path>
<g>
<path d="M192 101h0"></path>
<path d="M220 101h0"></path>
<rect x="192" y="90" width="28" height="22" rx="10" ry="10"></rect>
<text x="206" y="105">&#60;</text>
</g>
<path d="M220 101h10"></path>
<g>
<path d="M230 101h0"></path>
<path d="M434 101h0"></path>
<path d="M230 101a10 10 0 0 0 10 -10v0a10 10 0 0 1 10 -10"></path>
<g>
<path d="M250 81h164"></path>
</g>
<path d="M414 81a10 10 0 0 1 10 10v0a10 10 0 0 0 10 10"></path>
<path d="M230 101h20"></path>
<g>
<path d="M250 101h0"></path>
<path d="M414 101h0"></path>
<rect x="250" y="90" width="164" height="22"></rect>
<text x="332" y="105">complexColTypeList</text>
</g>
<path d="M414 101h20"></path>
</g>
<path d="M434 101h10"></path>
<g>
<path d="M444 101h0"></path>
<path d="M472 101h0"></path>
<rect x="444" y="90" width="28" height="22" rx="10" ry="10"></rect>
<text x="458" y="105">></text>
</g>
<path d="M472 101h10"></path>
</g>
<path d="M482 101h20"></path>
<path d="M162 101a10 10 0 0 1 10 10v10a10 10 0 0 0 10 10"></path>
<g>
<path d="M182 131h132"></path>
<path d="M350 131h132"></path>
<rect x="314" y="120" width="36" height="22" rx="10" ry="10"></rect>
<text x="332" y="135">&#60;></text>
</g>
<path d="M482 131a10 10 0 0 0 10 -10v-10a10 10 0 0 1 10 -10"></path>
</g>
</g>
<path d="M516 101a10 10 0 0 0 10 -10v-50a10 10 0 0 1 10 -10"></path>
<path d="M40 31a10 10 0 0 1 10 10v120a10 10 0 0 0 10 10"></path>
<g>
<path d="M60 171h0"></path>
<path d="M516 171h0"></path>
<path d="M60 171h10"></path>
<g>
<path d="M70 171h0"></path>
<path d="M170 171h0"></path>
<rect x="70" y="160" width="100" height="22"></rect>
<text x="120" y="175">identifier</text>
</g>
<path d="M170 171h10"></path>
<g>
<path d="M180 171h0"></path>
<path d="M516 171h0"></path>
<path d="M180 171a10 10 0 0 0 10 -10v0a10 10 0 0 1 10 -10"></path>
<g>
<path d="M200 151h296"></path>
</g>
<path d="M496 151a10 10 0 0 1 10 10v0a10 10 0 0 0 10 10"></path>
<path d="M180 171h20"></path>
<g>
<path d="M200 171h0"></path>
<path d="M496 171h0"></path>
<path d="M200 171h10"></path>
<g>
<path d="M210 171h0"></path>
<path d="M238 171h0"></path>
<rect x="210" y="160" width="28" height="22" rx="10" ry="10"></rect>
<text x="224" y="175">(</text>
</g>
<path d="M238 171h10"></path>
<path d="M248 171h10"></path>
<g>
<path d="M258 171h0"></path>
<path d="M438 171h0"></path>
<path d="M258 171h10"></path>
<g>
<path d="M268 171h0"></path>
<path d="M428 171h0"></path>
<path d="M268 171h10"></path>
<g>
<path d="M278 171h0"></path>
<path d="M418 171h0"></path>
<rect x="278" y="160" width="140" height="22"></rect>
<text x="348" y="175">unsignedInteger</text>
</g>
<path d="M418 171h10"></path>
</g>
<path d="M428 171h10"></path>
<path d="M268 171a10 10 0 0 0 -10 10v10a10 10 0 0 0 10 10"></path>
<g>
<path d="M268 201h56"></path>
<path d="M372 201h56"></path>
<path d="M324 201h10"></path>
<g>
<path d="M334 201h0"></path>
<path d="M362 201h0"></path>
<rect x="334" y="190" width="28" height="22" rx="10" ry="10"></rect>
<text x="348" y="205">,</text>
</g>
<path d="M362 201h10"></path>
</g>
<path d="M428 201a10 10 0 0 0 10 -10v-10a10 10 0 0 0 -10 -10"></path>
</g>
<path d="M438 171h10"></path>
<path d="M448 171h10"></path>
<g>
<path d="M458 171h0"></path>
<path d="M486 171h0"></path>
<rect x="458" y="160" width="28" height="22" rx="10" ry="10"></rect>
<text x="472" y="175">)</text>
</g>
<path d="M486 171h10"></path>
</g>
<path d="M496 171h20"></path>
</g>
</g>
<path d="M516 171a10 10 0 0 0 10 -10v-120a10 10 0 0 1 10 -10"></path>
</g>
<path d="M 536 31 h 20 m -10 -10 v 20 m 10 -20 v 20"></path>
</g>
</svg>
