<?xml version="1.0" standalone="no"?>
<!DOCTYPE svg PUBLIC "-//W3C//DTD SVG 1.1//EN"
  "http://www.w3.org/Graphics/SVG/1.1/DTD/svg11.dtd">

<svg xmlns="http://www.w3.org/2000/svg" version="1.1" class="railroad-diagram"  width="546" height="271" viewBox="0 0 546 271" >
<defs><style type="text/css"><![CDATA[ svg.railroad-diagram {
  background-color: #ffffff;
}
svg.railroad-diagram path {
  stroke-width: 2;
  stroke: #5a6872;
  fill: none;
}
svg.railroad-diagram text {
  font-size: 14px;
  font-family: 'ibm-plex-mono', 'Menlo', 'DejaVu Sans Mono', 'Bitstream Vera Sans Mono', Courier, monospace;
  color: #152935;
  text-anchor: middle;
  cursor: pointer;
}
svg.railroad-diagram text.label {
  text-anchor: start;
}
svg.railroad-diagram text.comment {
  font-size: 12px;
}
svg.railroad-diagram rect {
  stroke-width: 2;
  stroke:  #5a6872;
  fill: #5aaafa;
}
 ]]></style></defs>

<g transform="translate(.5 .5)">
<path d="M20 41  v 20 m 10 -20 v 20 m -10 -10 h 20.5"></path>
<g>
<path d="M40 51 h0"></path>
<path d="M980 51 h0"></path>
<g>
<path d="M40 51 h0"></path>
<path d="M204 51 h0"></path>
<path d="M40 51 h20"></path>
<g>
<path d="M60 51 h24"></path>
<path d="M160 51 h24"></path>
<rect x="84" y="40" width="76" height="22" ></rect>
<text x="122" y="55">CRN_URI</text>
</g>
<path d="M184 51 h20"></path>
<path d="M40 51 a10 10 0 0 1 10 10v10a10 10 0 0 0 10 10"></path>
<g>
<path d="M60 81 h0"></path>
<path d="M184 81 h0"></path>
<rect x="60" y="70" width="124" height="22" ></rect>
<text x="122" y="85">DB2_TABLE_URI</text>
</g>
<path d="M184 81 a10 10 0 0 0 10 -10v-10a10 10 0 0 1 10 -10"></path>
</g>
<path d="M204 51 h10"></path>
<g id="eol">
<path d="M214 51 h0"></path>
<path d="M214 51 a 10 10 0 0 1 10 10 V 100 a 10 10 0 0 1 -10 10 h -183 a 10 10 0 0 0 -10 10 V 154 a 10 10 0 0 0 10 10"></path>
<path d="M214 51 h0"></path>
<path d="M214 51 h0"></path>
</g>
<path d="M31 164 h10"></path>
<g>
<path d="M41 164 h0"></path>
<path d="M461 164 h0"></path>
<path d="M41 164 a10 10 0 0 0 10 -10v-9a10 10 0 0 1 10 -10"></path>
<g>
<path d="M61 135 h380"></path>
</g>
<path d="M441 135 a10 10 0 0 1 10 10v9a10 10 0 0 0 10 10"></path>
<path d="M41 164 h20"></path>
<g>
<path d="M61 164 h0"></path>
<path d="M441 164 h0"></path>
<g>
<path d="M61 164 h0"></path>
<path d="M153 164 h0"></path>
<path d="M61 164 a10 10 0 0 0 10 -10v0a10 10 0 0 1 10 -10"></path>
<g>
<path d="M81 144 h52"></path>
</g>
<path d="M133 144 a10 10 0 0 1 10 10v0a10 10 0 0 0 10 10"></path>
<path d="M61 164 h20"></path>
<g>
<path d="M81 164 h0"></path>
<path d="M133 164 h0"></path>
<rect x="81" y="153" width="52" height="22"  rx="10" ry="10"></rect>
<text x="107" y="168">WITH</text>
</g>
<path d="M133 164 h20"></path>
</g>
<path d="M153 164 h10"></path>
<g>
<path d="M163 164 h0"></path>
<path d="M271 164 h0"></path>
<rect x="163" y="153" width="108" height="22"  rx="10" ry="10"></rect>
<text x="217" y="168">PARALLELISM</text>
</g>
<path d="M271 164 h10"></path>
<path d="M281 164 h10"></path>
<g>
<path d="M291 164 h0"></path>
<path d="M431 164 h0"></path>
<rect x="291" y="153" width="140" height="22" ></rect>
<text x="361" y="168">unsignedInteger</text>
</g>
<path d="M431 164 h10"></path>
</g>
<path d="M441 164 h20"></path>
</g>
<path d="M461 164 h10"></path>
<g id="eol">
<path d="M471 164 h0"></path>
<path d="M471 164 a 10 10 0 0 1 10 10 V 183 a 10 10 0 0 1 -10 10 h -440 a 10 10 0 0 0 -10 10 V 228 a 10 10 0 0 0 10 10"></path>
<path d="M471 164 h0"></path>
<path d="M471 164 h0"></path>
</g>
<path d="M31 238 h10"></path>
<g>
<path d="M41 238 h0"></path>
<path d="M205 238 h0"></path>
<path d="M41 238 a10 10 0 0 0 10 -10v0a10 10 0 0 1 10 -10"></path>
<g>
<path d="M61 218 h124"></path>
</g>
<path d="M185 218 a10 10 0 0 1 10 10v0a10 10 0 0 0 10 10"></path>
<path d="M41 238 h20"></path>
<g>
<path d="M61 238 h0"></path>
<path d="M185 238 h0"></path>
<rect x="61" y="227" width="124" height="22" ></rect>
<text x="123" y="242">accessSecrets</text>
</g>
<path d="M185 238 h20"></path>
</g>
</g>
<path d="M205 238  h 20 m -10 -10 v 20 m 10 -20 v 20"></path>
</g>
</svg>
