<?xml version="1.0" standalone="no"?>
<!DOCTYPE svg PUBLIC "-//W3C//DTD SVG 1.1//EN"
  "http://www.w3.org/Graphics/SVG/1.1/DTD/svg11.dtd">

<svg xmlns="http://www.w3.org/2000/svg" version="1.1" class="railroad-diagram" width="921" height="782" viewBox="0 0 921 782">

<defs><style type="text/css"><![CDATA[ svg.railroad-diagram {
  background-color: #ffffff;
}
svg.railroad-diagram path {
  stroke-width: 2;
  stroke: #5a6872;
  fill: none;
}
svg.railroad-diagram text {
  font-size: 14px;
  font-family: 'ibm-plex-mono', 'Menlo', 'DejaVu Sans Mono', 'Bitstream Vera Sans Mono', Courier, monospace;
  color: #152935;
  text-anchor: middle;
  cursor: pointer;
}
svg.railroad-diagram text.label {
  text-anchor: start;
}
svg.railroad-diagram text.comment {
  font-size: 12px;
}
svg.railroad-diagram rect {
  stroke-width: 2;
  stroke:  #5a6872;
  fill: #5aaafa;
}
 ]]></style></defs>

<g transform="translate(.5 .5)">
<path d="M 20 21 v 20 m 10 -20 v 20 m -10 -10 h 20.5"></path>
<g>
<path d="M40 31h0"></path>
<path d="M880 31h0"></path>
<path d="M40 31h20"></path>
<g>
<path d="M60 31h168"></path>
<path d="M692 31h168"></path>
<path d="M228 31h10"></path>
<g>
<path d="M238 31h0"></path>
<path d="M338 31h0"></path>
<rect x="238" y="20" width="100" height="22" rx="10" ry="10"></rect>
<text x="288" y="35">TS&#95;EXP&#95;ABS</text>
</g>
<path d="M338 31h10"></path>
<path d="M348 31h10"></path>
<g>
<path d="M358 31h0"></path>
<path d="M386 31h0"></path>
<rect x="358" y="20" width="28" height="22" rx="10" ry="10"></rect>
<text x="372" y="35">(</text>
</g>
<path d="M386 31h10"></path>
<path d="M396 31h10"></path>
<g>
<path d="M406 31h0"></path>
<path d="M634 31h0"></path>
<rect x="406" y="20" width="228" height="22"></rect>
<text x="520" y="35">doubleTimeSeriesExpression</text>
</g>
<path d="M634 31h10"></path>
<path d="M644 31h10"></path>
<g>
<path d="M654 31h0"></path>
<path d="M682 31h0"></path>
<rect x="654" y="20" width="28" height="22" rx="10" ry="10"></rect>
<text x="668" y="35">)</text>
</g>
<path d="M682 31h10"></path>
</g>
<path d="M860 31h20"></path>
<path d="M40 31a10 10 0 0 1 10 10v10a10 10 0 0 0 10 10"></path>
<g>
<path d="M60 61h168"></path>
<path d="M692 61h168"></path>
<path d="M228 61h10"></path>
<g>
<path d="M238 61h0"></path>
<path d="M338 61h0"></path>
<rect x="238" y="50" width="100" height="22" rx="10" ry="10"></rect>
<text x="288" y="65">TS&#95;EXP&#95;EXP</text>
</g>
<path d="M338 61h10"></path>
<path d="M348 61h10"></path>
<g>
<path d="M358 61h0"></path>
<path d="M386 61h0"></path>
<rect x="358" y="50" width="28" height="22" rx="10" ry="10"></rect>
<text x="372" y="65">(</text>
</g>
<path d="M386 61h10"></path>
<path d="M396 61h10"></path>
<g>
<path d="M406 61h0"></path>
<path d="M634 61h0"></path>
<rect x="406" y="50" width="228" height="22"></rect>
<text x="520" y="65">doubleTimeSeriesExpression</text>
</g>
<path d="M634 61h10"></path>
<path d="M644 61h10"></path>
<g>
<path d="M654 61h0"></path>
<path d="M682 61h0"></path>
<rect x="654" y="50" width="28" height="22" rx="10" ry="10"></rect>
<text x="668" y="65">)</text>
</g>
<path d="M682 61h10"></path>
</g>
<path d="M860 61a10 10 0 0 0 10 -10v-10a10 10 0 0 1 10 -10"></path>
<path d="M40 31a10 10 0 0 1 10 10v40a10 10 0 0 0 10 10"></path>
<g>
<path d="M60 91h168"></path>
<path d="M692 91h168"></path>
<path d="M228 91h10"></path>
<g>
<path d="M238 91h0"></path>
<path d="M338 91h0"></path>
<rect x="238" y="80" width="100" height="22" rx="10" ry="10"></rect>
<text x="288" y="95">TS&#95;EXP&#95;LOG</text>
</g>
<path d="M338 91h10"></path>
<path d="M348 91h10"></path>
<g>
<path d="M358 91h0"></path>
<path d="M386 91h0"></path>
<rect x="358" y="80" width="28" height="22" rx="10" ry="10"></rect>
<text x="372" y="95">(</text>
</g>
<path d="M386 91h10"></path>
<path d="M396 91h10"></path>
<g>
<path d="M406 91h0"></path>
<path d="M634 91h0"></path>
<rect x="406" y="80" width="228" height="22"></rect>
<text x="520" y="95">doubleTimeSeriesExpression</text>
</g>
<path d="M634 91h10"></path>
<path d="M644 91h10"></path>
<g>
<path d="M654 91h0"></path>
<path d="M682 91h0"></path>
<rect x="654" y="80" width="28" height="22" rx="10" ry="10"></rect>
<text x="668" y="95">)</text>
</g>
<path d="M682 91h10"></path>
</g>
<path d="M860 91a10 10 0 0 0 10 -10v-40a10 10 0 0 1 10 -10"></path>
<path d="M40 31a10 10 0 0 1 10 10v70a10 10 0 0 0 10 10"></path>
<g>
<path d="M60 121h160"></path>
<path d="M700 121h160"></path>
<path d="M220 121h10"></path>
<g>
<path d="M230 121h0"></path>
<path d="M346 121h0"></path>
<rect x="230" y="110" width="116" height="22" rx="10" ry="10"></rect>
<text x="288" y="125">TS&#95;EXP&#95;LOG10</text>
</g>
<path d="M346 121h10"></path>
<path d="M356 121h10"></path>
<g>
<path d="M366 121h0"></path>
<path d="M394 121h0"></path>
<rect x="366" y="110" width="28" height="22" rx="10" ry="10"></rect>
<text x="380" y="125">(</text>
</g>
<path d="M394 121h10"></path>
<path d="M404 121h10"></path>
<g>
<path d="M414 121h0"></path>
<path d="M642 121h0"></path>
<rect x="414" y="110" width="228" height="22"></rect>
<text x="528" y="125">doubleTimeSeriesExpression</text>
</g>
<path d="M642 121h10"></path>
<path d="M652 121h10"></path>
<g>
<path d="M662 121h0"></path>
<path d="M690 121h0"></path>
<rect x="662" y="110" width="28" height="22" rx="10" ry="10"></rect>
<text x="676" y="125">)</text>
</g>
<path d="M690 121h10"></path>
</g>
<path d="M860 121a10 10 0 0 0 10 -10v-70a10 10 0 0 1 10 -10"></path>
<path d="M40 31a10 10 0 0 1 10 10v100a10 10 0 0 0 10 10"></path>
<g>
<path d="M60 151h164"></path>
<path d="M696 151h164"></path>
<path d="M224 151h10"></path>
<g>
<path d="M234 151h0"></path>
<path d="M342 151h0"></path>
<rect x="234" y="140" width="108" height="22" rx="10" ry="10"></rect>
<text x="288" y="155">TS&#95;EXP&#95;SQRT</text>
</g>
<path d="M342 151h10"></path>
<path d="M352 151h10"></path>
<g>
<path d="M362 151h0"></path>
<path d="M390 151h0"></path>
<rect x="362" y="140" width="28" height="22" rx="10" ry="10"></rect>
<text x="376" y="155">(</text>
</g>
<path d="M390 151h10"></path>
<path d="M400 151h10"></path>
<g>
<path d="M410 151h0"></path>
<path d="M638 151h0"></path>
<rect x="410" y="140" width="228" height="22"></rect>
<text x="524" y="155">doubleTimeSeriesExpression</text>
</g>
<path d="M638 151h10"></path>
<path d="M648 151h10"></path>
<g>
<path d="M658 151h0"></path>
<path d="M686 151h0"></path>
<rect x="658" y="140" width="28" height="22" rx="10" ry="10"></rect>
<text x="672" y="155">)</text>
</g>
<path d="M686 151h10"></path>
</g>
<path d="M860 151a10 10 0 0 0 10 -10v-100a10 10 0 0 1 10 -10"></path>
<path d="M40 31a10 10 0 0 1 10 10v130a10 10 0 0 0 10 10"></path>
<g>
<path d="M60 181h168"></path>
<path d="M692 181h168"></path>
<path d="M228 181h10"></path>
<g>
<path d="M238 181h0"></path>
<path d="M338 181h0"></path>
<rect x="238" y="170" width="100" height="22" rx="10" ry="10"></rect>
<text x="288" y="185">TS&#95;EXP&#95;SIN</text>
</g>
<path d="M338 181h10"></path>
<path d="M348 181h10"></path>
<g>
<path d="M358 181h0"></path>
<path d="M386 181h0"></path>
<rect x="358" y="170" width="28" height="22" rx="10" ry="10"></rect>
<text x="372" y="185">(</text>
</g>
<path d="M386 181h10"></path>
<path d="M396 181h10"></path>
<g>
<path d="M406 181h0"></path>
<path d="M634 181h0"></path>
<rect x="406" y="170" width="228" height="22"></rect>
<text x="520" y="185">doubleTimeSeriesExpression</text>
</g>
<path d="M634 181h10"></path>
<path d="M644 181h10"></path>
<g>
<path d="M654 181h0"></path>
<path d="M682 181h0"></path>
<rect x="654" y="170" width="28" height="22" rx="10" ry="10"></rect>
<text x="668" y="185">)</text>
</g>
<path d="M682 181h10"></path>
</g>
<path d="M860 181a10 10 0 0 0 10 -10v-130a10 10 0 0 1 10 -10"></path>
<path d="M40 31a10 10 0 0 1 10 10v160a10 10 0 0 0 10 10"></path>
<g>
<path d="M60 211h168"></path>
<path d="M692 211h168"></path>
<path d="M228 211h10"></path>
<g>
<path d="M238 211h0"></path>
<path d="M338 211h0"></path>
<rect x="238" y="200" width="100" height="22" rx="10" ry="10"></rect>
<text x="288" y="215">TS&#95;EXP&#95;COS</text>
</g>
<path d="M338 211h10"></path>
<path d="M348 211h10"></path>
<g>
<path d="M358 211h0"></path>
<path d="M386 211h0"></path>
<rect x="358" y="200" width="28" height="22" rx="10" ry="10"></rect>
<text x="372" y="215">(</text>
</g>
<path d="M386 211h10"></path>
<path d="M396 211h10"></path>
<g>
<path d="M406 211h0"></path>
<path d="M634 211h0"></path>
<rect x="406" y="200" width="228" height="22"></rect>
<text x="520" y="215">doubleTimeSeriesExpression</text>
</g>
<path d="M634 211h10"></path>
<path d="M644 211h10"></path>
<g>
<path d="M654 211h0"></path>
<path d="M682 211h0"></path>
<rect x="654" y="200" width="28" height="22" rx="10" ry="10"></rect>
<text x="668" y="215">)</text>
</g>
<path d="M682 211h10"></path>
</g>
<path d="M860 211a10 10 0 0 0 10 -10v-160a10 10 0 0 1 10 -10"></path>
<path d="M40 31a10 10 0 0 1 10 10v190a10 10 0 0 0 10 10"></path>
<g>
<path d="M60 241h168"></path>
<path d="M692 241h168"></path>
<path d="M228 241h10"></path>
<g>
<path d="M238 241h0"></path>
<path d="M338 241h0"></path>
<rect x="238" y="230" width="100" height="22" rx="10" ry="10"></rect>
<text x="288" y="245">TS&#95;EXP&#95;TAN</text>
</g>
<path d="M338 241h10"></path>
<path d="M348 241h10"></path>
<g>
<path d="M358 241h0"></path>
<path d="M386 241h0"></path>
<rect x="358" y="230" width="28" height="22" rx="10" ry="10"></rect>
<text x="372" y="245">(</text>
</g>
<path d="M386 241h10"></path>
<path d="M396 241h10"></path>
<g>
<path d="M406 241h0"></path>
<path d="M634 241h0"></path>
<rect x="406" y="230" width="228" height="22"></rect>
<text x="520" y="245">doubleTimeSeriesExpression</text>
</g>
<path d="M634 241h10"></path>
<path d="M644 241h10"></path>
<g>
<path d="M654 241h0"></path>
<path d="M682 241h0"></path>
<rect x="654" y="230" width="28" height="22" rx="10" ry="10"></rect>
<text x="668" y="245">)</text>
</g>
<path d="M682 241h10"></path>
</g>
<path d="M860 241a10 10 0 0 0 10 -10v-190a10 10 0 0 1 10 -10"></path>
<path d="M40 31a10 10 0 0 1 10 10v220a10 10 0 0 0 10 10"></path>
<g>
<path d="M60 271h164"></path>
<path d="M696 271h164"></path>
<path d="M224 271h10"></path>
<g>
<path d="M234 271h0"></path>
<path d="M342 271h0"></path>
<rect x="234" y="260" width="108" height="22" rx="10" ry="10"></rect>
<text x="288" y="275">TS&#95;EXP&#95;ASIN</text>
</g>
<path d="M342 271h10"></path>
<path d="M352 271h10"></path>
<g>
<path d="M362 271h0"></path>
<path d="M390 271h0"></path>
<rect x="362" y="260" width="28" height="22" rx="10" ry="10"></rect>
<text x="376" y="275">(</text>
</g>
<path d="M390 271h10"></path>
<path d="M400 271h10"></path>
<g>
<path d="M410 271h0"></path>
<path d="M638 271h0"></path>
<rect x="410" y="260" width="228" height="22"></rect>
<text x="524" y="275">doubleTimeSeriesExpression</text>
</g>
<path d="M638 271h10"></path>
<path d="M648 271h10"></path>
<g>
<path d="M658 271h0"></path>
<path d="M686 271h0"></path>
<rect x="658" y="260" width="28" height="22" rx="10" ry="10"></rect>
<text x="672" y="275">)</text>
</g>
<path d="M686 271h10"></path>
</g>
<path d="M860 271a10 10 0 0 0 10 -10v-220a10 10 0 0 1 10 -10"></path>
<path d="M40 31a10 10 0 0 1 10 10v250a10 10 0 0 0 10 10"></path>
<g>
<path d="M60 301h164"></path>
<path d="M696 301h164"></path>
<path d="M224 301h10"></path>
<g>
<path d="M234 301h0"></path>
<path d="M342 301h0"></path>
<rect x="234" y="290" width="108" height="22" rx="10" ry="10"></rect>
<text x="288" y="305">TS&#95;EXP&#95;ACOS</text>
</g>
<path d="M342 301h10"></path>
<path d="M352 301h10"></path>
<g>
<path d="M362 301h0"></path>
<path d="M390 301h0"></path>
<rect x="362" y="290" width="28" height="22" rx="10" ry="10"></rect>
<text x="376" y="305">(</text>
</g>
<path d="M390 301h10"></path>
<path d="M400 301h10"></path>
<g>
<path d="M410 301h0"></path>
<path d="M638 301h0"></path>
<rect x="410" y="290" width="228" height="22"></rect>
<text x="524" y="305">doubleTimeSeriesExpression</text>
</g>
<path d="M638 301h10"></path>
<path d="M648 301h10"></path>
<g>
<path d="M658 301h0"></path>
<path d="M686 301h0"></path>
<rect x="658" y="290" width="28" height="22" rx="10" ry="10"></rect>
<text x="672" y="305">)</text>
</g>
<path d="M686 301h10"></path>
</g>
<path d="M860 301a10 10 0 0 0 10 -10v-250a10 10 0 0 1 10 -10"></path>
<path d="M40 31a10 10 0 0 1 10 10v280a10 10 0 0 0 10 10"></path>
<g>
<path d="M60 331h164"></path>
<path d="M696 331h164"></path>
<path d="M224 331h10"></path>
<g>
<path d="M234 331h0"></path>
<path d="M342 331h0"></path>
<rect x="234" y="320" width="108" height="22" rx="10" ry="10"></rect>
<text x="288" y="335">TS&#95;EXP&#95;ATAN</text>
</g>
<path d="M342 331h10"></path>
<path d="M352 331h10"></path>
<g>
<path d="M362 331h0"></path>
<path d="M390 331h0"></path>
<rect x="362" y="320" width="28" height="22" rx="10" ry="10"></rect>
<text x="376" y="335">(</text>
</g>
<path d="M390 331h10"></path>
<path d="M400 331h10"></path>
<g>
<path d="M410 331h0"></path>
<path d="M638 331h0"></path>
<rect x="410" y="320" width="228" height="22"></rect>
<text x="524" y="335">doubleTimeSeriesExpression</text>
</g>
<path d="M638 331h10"></path>
<path d="M648 331h10"></path>
<g>
<path d="M658 331h0"></path>
<path d="M686 331h0"></path>
<rect x="658" y="320" width="28" height="22" rx="10" ry="10"></rect>
<text x="672" y="335">)</text>
</g>
<path d="M686 331h10"></path>
</g>
<path d="M860 331a10 10 0 0 0 10 -10v-280a10 10 0 0 1 10 -10"></path>
<path d="M40 31a10 10 0 0 1 10 10v310a10 10 0 0 0 10 10"></path>
<g>
<path d="M60 361h164"></path>
<path d="M696 361h164"></path>
<path d="M224 361h10"></path>
<g>
<path d="M234 361h0"></path>
<path d="M342 361h0"></path>
<rect x="234" y="350" width="108" height="22" rx="10" ry="10"></rect>
<text x="288" y="365">TS&#95;EXP&#95;SINH</text>
</g>
<path d="M342 361h10"></path>
<path d="M352 361h10"></path>
<g>
<path d="M362 361h0"></path>
<path d="M390 361h0"></path>
<rect x="362" y="350" width="28" height="22" rx="10" ry="10"></rect>
<text x="376" y="365">(</text>
</g>
<path d="M390 361h10"></path>
<path d="M400 361h10"></path>
<g>
<path d="M410 361h0"></path>
<path d="M638 361h0"></path>
<rect x="410" y="350" width="228" height="22"></rect>
<text x="524" y="365">doubleTimeSeriesExpression</text>
</g>
<path d="M638 361h10"></path>
<path d="M648 361h10"></path>
<g>
<path d="M658 361h0"></path>
<path d="M686 361h0"></path>
<rect x="658" y="350" width="28" height="22" rx="10" ry="10"></rect>
<text x="672" y="365">)</text>
</g>
<path d="M686 361h10"></path>
</g>
<path d="M860 361a10 10 0 0 0 10 -10v-310a10 10 0 0 1 10 -10"></path>
<path d="M40 31a10 10 0 0 1 10 10v340a10 10 0 0 0 10 10"></path>
<g>
<path d="M60 391h164"></path>
<path d="M696 391h164"></path>
<path d="M224 391h10"></path>
<g>
<path d="M234 391h0"></path>
<path d="M342 391h0"></path>
<rect x="234" y="380" width="108" height="22" rx="10" ry="10"></rect>
<text x="288" y="395">TS&#95;EXP&#95;COSH</text>
</g>
<path d="M342 391h10"></path>
<path d="M352 391h10"></path>
<g>
<path d="M362 391h0"></path>
<path d="M390 391h0"></path>
<rect x="362" y="380" width="28" height="22" rx="10" ry="10"></rect>
<text x="376" y="395">(</text>
</g>
<path d="M390 391h10"></path>
<path d="M400 391h10"></path>
<g>
<path d="M410 391h0"></path>
<path d="M638 391h0"></path>
<rect x="410" y="380" width="228" height="22"></rect>
<text x="524" y="395">doubleTimeSeriesExpression</text>
</g>
<path d="M638 391h10"></path>
<path d="M648 391h10"></path>
<g>
<path d="M658 391h0"></path>
<path d="M686 391h0"></path>
<rect x="658" y="380" width="28" height="22" rx="10" ry="10"></rect>
<text x="672" y="395">)</text>
</g>
<path d="M686 391h10"></path>
</g>
<path d="M860 391a10 10 0 0 0 10 -10v-340a10 10 0 0 1 10 -10"></path>
<path d="M40 31a10 10 0 0 1 10 10v370a10 10 0 0 0 10 10"></path>
<g>
<path d="M60 421h164"></path>
<path d="M696 421h164"></path>
<path d="M224 421h10"></path>
<g>
<path d="M234 421h0"></path>
<path d="M342 421h0"></path>
<rect x="234" y="410" width="108" height="22" rx="10" ry="10"></rect>
<text x="288" y="425">TS&#95;EXP&#95;TANH</text>
</g>
<path d="M342 421h10"></path>
<path d="M352 421h10"></path>
<g>
<path d="M362 421h0"></path>
<path d="M390 421h0"></path>
<rect x="362" y="410" width="28" height="22" rx="10" ry="10"></rect>
<text x="376" y="425">(</text>
</g>
<path d="M390 421h10"></path>
<path d="M400 421h10"></path>
<g>
<path d="M410 421h0"></path>
<path d="M638 421h0"></path>
<rect x="410" y="410" width="228" height="22"></rect>
<text x="524" y="425">doubleTimeSeriesExpression</text>
</g>
<path d="M638 421h10"></path>
<path d="M648 421h10"></path>
<g>
<path d="M658 421h0"></path>
<path d="M686 421h0"></path>
<rect x="658" y="410" width="28" height="22" rx="10" ry="10"></rect>
<text x="672" y="425">)</text>
</g>
<path d="M686 421h10"></path>
</g>
<path d="M860 421a10 10 0 0 0 10 -10v-370a10 10 0 0 1 10 -10"></path>
<path d="M40 31a10 10 0 0 1 10 10v400a10 10 0 0 0 10 10"></path>
<g>
<path d="M60 451h156"></path>
<path d="M704 451h156"></path>
<path d="M216 451h10"></path>
<g>
<path d="M226 451h0"></path>
<path d="M350 451h0"></path>
<rect x="226" y="440" width="124" height="22" rx="10" ry="10"></rect>
<text x="288" y="455">TS&#95;EXP&#95;LENGTH</text>
</g>
<path d="M350 451h10"></path>
<path d="M360 451h10"></path>
<g>
<path d="M370 451h0"></path>
<path d="M398 451h0"></path>
<rect x="370" y="440" width="28" height="22" rx="10" ry="10"></rect>
<text x="384" y="455">(</text>
</g>
<path d="M398 451h10"></path>
<path d="M408 451h10"></path>
<g>
<path d="M418 451h0"></path>
<path d="M646 451h0"></path>
<rect x="418" y="440" width="228" height="22"></rect>
<text x="532" y="455">stringTimeSeriesExpression</text>
</g>
<path d="M646 451h10"></path>
<path d="M656 451h10"></path>
<g>
<path d="M666 451h0"></path>
<path d="M694 451h0"></path>
<rect x="666" y="440" width="28" height="22" rx="10" ry="10"></rect>
<text x="680" y="455">)</text>
</g>
<path d="M694 451h10"></path>
</g>
<path d="M860 451a10 10 0 0 0 10 -10v-400a10 10 0 0 1 10 -10"></path>
<path d="M40 31a10 10 0 0 1 10 10v430a10 10 0 0 0 10 10"></path>
<g>
<path d="M60 481h20"></path>
<path d="M840 481h20"></path>
<path d="M80 481h10"></path>
<g>
<path d="M90 481h0"></path>
<path d="M190 481h0"></path>
<rect x="90" y="470" width="100" height="22" rx="10" ry="10"></rect>
<text x="140" y="485">TS&#95;EXP&#95;ADD</text>
</g>
<path d="M190 481h10"></path>
<path d="M200 481h10"></path>
<g>
<path d="M210 481h0"></path>
<path d="M238 481h0"></path>
<rect x="210" y="470" width="28" height="22" rx="10" ry="10"></rect>
<text x="224" y="485">(</text>
</g>
<path d="M238 481h10"></path>
<path d="M248 481h10"></path>
<g>
<path d="M258 481h0"></path>
<path d="M486 481h0"></path>
<rect x="258" y="470" width="228" height="22"></rect>
<text x="372" y="485">doubleTimeSeriesExpression</text>
</g>
<path d="M486 481h10"></path>
<path d="M496 481h10"></path>
<g>
<path d="M506 481h0"></path>
<path d="M534 481h0"></path>
<rect x="506" y="470" width="28" height="22" rx="10" ry="10"></rect>
<text x="520" y="485">,</text>
</g>
<path d="M534 481h10"></path>
<path d="M544 481h10"></path>
<g>
<path d="M554 481h0"></path>
<path d="M782 481h0"></path>
<rect x="554" y="470" width="228" height="22"></rect>
<text x="668" y="485">doubleTimeSeriesExpression</text>
</g>
<path d="M782 481h10"></path>
<path d="M792 481h10"></path>
<g>
<path d="M802 481h0"></path>
<path d="M830 481h0"></path>
<rect x="802" y="470" width="28" height="22" rx="10" ry="10"></rect>
<text x="816" y="485">)</text>
</g>
<path d="M830 481h10"></path>
</g>
<path d="M860 481a10 10 0 0 0 10 -10v-430a10 10 0 0 1 10 -10"></path>
<path d="M40 31a10 10 0 0 1 10 10v460a10 10 0 0 0 10 10"></path>
<g>
<path d="M60 511h0"></path>
<path d="M860 511h0"></path>
<path d="M60 511h10"></path>
<g>
<path d="M70 511h0"></path>
<path d="M210 511h0"></path>
<rect x="70" y="500" width="140" height="22" rx="10" ry="10"></rect>
<text x="140" y="515">TS&#95;EXP&#95;SUBTRACT</text>
</g>
<path d="M210 511h10"></path>
<path d="M220 511h10"></path>
<g>
<path d="M230 511h0"></path>
<path d="M258 511h0"></path>
<rect x="230" y="500" width="28" height="22" rx="10" ry="10"></rect>
<text x="244" y="515">(</text>
</g>
<path d="M258 511h10"></path>
<path d="M268 511h10"></path>
<g>
<path d="M278 511h0"></path>
<path d="M506 511h0"></path>
<rect x="278" y="500" width="228" height="22"></rect>
<text x="392" y="515">doubleTimeSeriesExpression</text>
</g>
<path d="M506 511h10"></path>
<path d="M516 511h10"></path>
<g>
<path d="M526 511h0"></path>
<path d="M554 511h0"></path>
<rect x="526" y="500" width="28" height="22" rx="10" ry="10"></rect>
<text x="540" y="515">,</text>
</g>
<path d="M554 511h10"></path>
<path d="M564 511h10"></path>
<g>
<path d="M574 511h0"></path>
<path d="M802 511h0"></path>
<rect x="574" y="500" width="228" height="22"></rect>
<text x="688" y="515">doubleTimeSeriesExpression</text>
</g>
<path d="M802 511h10"></path>
<path d="M812 511h10"></path>
<g>
<path d="M822 511h0"></path>
<path d="M850 511h0"></path>
<rect x="822" y="500" width="28" height="22" rx="10" ry="10"></rect>
<text x="836" y="515">)</text>
</g>
<path d="M850 511h10"></path>
</g>
<path d="M860 511a10 10 0 0 0 10 -10v-460a10 10 0 0 1 10 -10"></path>
<path d="M40 31a10 10 0 0 1 10 10v490a10 10 0 0 0 10 10"></path>
<g>
<path d="M60 541h8"></path>
<path d="M852 541h8"></path>
<path d="M68 541h10"></path>
<g>
<path d="M78 541h0"></path>
<path d="M202 541h0"></path>
<rect x="78" y="530" width="124" height="22" rx="10" ry="10"></rect>
<text x="140" y="545">TS&#95;EXP&#95;DIVIDE</text>
</g>
<path d="M202 541h10"></path>
<path d="M212 541h10"></path>
<g>
<path d="M222 541h0"></path>
<path d="M250 541h0"></path>
<rect x="222" y="530" width="28" height="22" rx="10" ry="10"></rect>
<text x="236" y="545">(</text>
</g>
<path d="M250 541h10"></path>
<path d="M260 541h10"></path>
<g>
<path d="M270 541h0"></path>
<path d="M498 541h0"></path>
<rect x="270" y="530" width="228" height="22"></rect>
<text x="384" y="545">doubleTimeSeriesExpression</text>
</g>
<path d="M498 541h10"></path>
<path d="M508 541h10"></path>
<g>
<path d="M518 541h0"></path>
<path d="M546 541h0"></path>
<rect x="518" y="530" width="28" height="22" rx="10" ry="10"></rect>
<text x="532" y="545">,</text>
</g>
<path d="M546 541h10"></path>
<path d="M556 541h10"></path>
<g>
<path d="M566 541h0"></path>
<path d="M794 541h0"></path>
<rect x="566" y="530" width="228" height="22"></rect>
<text x="680" y="545">doubleTimeSeriesExpression</text>
</g>
<path d="M794 541h10"></path>
<path d="M804 541h10"></path>
<g>
<path d="M814 541h0"></path>
<path d="M842 541h0"></path>
<rect x="814" y="530" width="28" height="22" rx="10" ry="10"></rect>
<text x="828" y="545">)</text>
</g>
<path d="M842 541h10"></path>
</g>
<path d="M860 541a10 10 0 0 0 10 -10v-490a10 10 0 0 1 10 -10"></path>
<path d="M40 31a10 10 0 0 1 10 10v520a10 10 0 0 0 10 10"></path>
<g>
<path d="M60 571h0"></path>
<path d="M860 571h0"></path>
<path d="M60 571h10"></path>
<g>
<path d="M70 571h0"></path>
<path d="M210 571h0"></path>
<rect x="70" y="560" width="140" height="22" rx="10" ry="10"></rect>
<text x="140" y="575">TS&#95;EXP&#95;MULTIPLY</text>
</g>
<path d="M210 571h10"></path>
<path d="M220 571h10"></path>
<g>
<path d="M230 571h0"></path>
<path d="M258 571h0"></path>
<rect x="230" y="560" width="28" height="22" rx="10" ry="10"></rect>
<text x="244" y="575">(</text>
</g>
<path d="M258 571h10"></path>
<path d="M268 571h10"></path>
<g>
<path d="M278 571h0"></path>
<path d="M506 571h0"></path>
<rect x="278" y="560" width="228" height="22"></rect>
<text x="392" y="575">doubleTimeSeriesExpression</text>
</g>
<path d="M506 571h10"></path>
<path d="M516 571h10"></path>
<g>
<path d="M526 571h0"></path>
<path d="M554 571h0"></path>
<rect x="526" y="560" width="28" height="22" rx="10" ry="10"></rect>
<text x="540" y="575">,</text>
</g>
<path d="M554 571h10"></path>
<path d="M564 571h10"></path>
<g>
<path d="M574 571h0"></path>
<path d="M802 571h0"></path>
<rect x="574" y="560" width="228" height="22"></rect>
<text x="688" y="575">doubleTimeSeriesExpression</text>
</g>
<path d="M802 571h10"></path>
<path d="M812 571h10"></path>
<g>
<path d="M822 571h0"></path>
<path d="M850 571h0"></path>
<rect x="822" y="560" width="28" height="22" rx="10" ry="10"></rect>
<text x="836" y="575">)</text>
</g>
<path d="M850 571h10"></path>
</g>
<path d="M860 571a10 10 0 0 0 10 -10v-520a10 10 0 0 1 10 -10"></path>
<path d="M40 31a10 10 0 0 1 10 10v550a10 10 0 0 0 10 10"></path>
<g>
<path d="M60 601h20"></path>
<path d="M840 601h20"></path>
<path d="M80 601h10"></path>
<g>
<path d="M90 601h0"></path>
<path d="M190 601h0"></path>
<rect x="90" y="590" width="100" height="22" rx="10" ry="10"></rect>
<text x="140" y="605">TS&#95;EXP&#95;MOD</text>
</g>
<path d="M190 601h10"></path>
<path d="M200 601h10"></path>
<g>
<path d="M210 601h0"></path>
<path d="M238 601h0"></path>
<rect x="210" y="590" width="28" height="22" rx="10" ry="10"></rect>
<text x="224" y="605">(</text>
</g>
<path d="M238 601h10"></path>
<path d="M248 601h10"></path>
<g>
<path d="M258 601h0"></path>
<path d="M486 601h0"></path>
<rect x="258" y="590" width="228" height="22"></rect>
<text x="372" y="605">doubleTimeSeriesExpression</text>
</g>
<path d="M486 601h10"></path>
<path d="M496 601h10"></path>
<g>
<path d="M506 601h0"></path>
<path d="M534 601h0"></path>
<rect x="506" y="590" width="28" height="22" rx="10" ry="10"></rect>
<text x="520" y="605">,</text>
</g>
<path d="M534 601h10"></path>
<path d="M544 601h10"></path>
<g>
<path d="M554 601h0"></path>
<path d="M782 601h0"></path>
<rect x="554" y="590" width="228" height="22"></rect>
<text x="668" y="605">doubleTimeSeriesExpression</text>
</g>
<path d="M782 601h10"></path>
<path d="M792 601h10"></path>
<g>
<path d="M802 601h0"></path>
<path d="M830 601h0"></path>
<rect x="802" y="590" width="28" height="22" rx="10" ry="10"></rect>
<text x="816" y="605">)</text>
</g>
<path d="M830 601h10"></path>
</g>
<path d="M860 601a10 10 0 0 0 10 -10v-550a10 10 0 0 1 10 -10"></path>
<path d="M40 31a10 10 0 0 1 10 10v580a10 10 0 0 0 10 10"></path>
<g>
<path d="M60 631h20"></path>
<path d="M840 631h20"></path>
<path d="M80 631h10"></path>
<g>
<path d="M90 631h0"></path>
<path d="M190 631h0"></path>
<rect x="90" y="620" width="100" height="22" rx="10" ry="10"></rect>
<text x="140" y="635">TS&#95;EXP&#95;POW</text>
</g>
<path d="M190 631h10"></path>
<path d="M200 631h10"></path>
<g>
<path d="M210 631h0"></path>
<path d="M238 631h0"></path>
<rect x="210" y="620" width="28" height="22" rx="10" ry="10"></rect>
<text x="224" y="635">(</text>
</g>
<path d="M238 631h10"></path>
<path d="M248 631h10"></path>
<g>
<path d="M258 631h0"></path>
<path d="M486 631h0"></path>
<rect x="258" y="620" width="228" height="22"></rect>
<text x="372" y="635">doubleTimeSeriesExpression</text>
</g>
<path d="M486 631h10"></path>
<path d="M496 631h10"></path>
<g>
<path d="M506 631h0"></path>
<path d="M534 631h0"></path>
<rect x="506" y="620" width="28" height="22" rx="10" ry="10"></rect>
<text x="520" y="635">,</text>
</g>
<path d="M534 631h10"></path>
<path d="M544 631h10"></path>
<g>
<path d="M554 631h0"></path>
<path d="M782 631h0"></path>
<rect x="554" y="620" width="228" height="22"></rect>
<text x="668" y="635">doubleTimeSeriesExpression</text>
</g>
<path d="M782 631h10"></path>
<path d="M792 631h10"></path>
<g>
<path d="M802 631h0"></path>
<path d="M830 631h0"></path>
<rect x="802" y="620" width="28" height="22" rx="10" ry="10"></rect>
<text x="816" y="635">)</text>
</g>
<path d="M830 631h10"></path>
</g>
<path d="M860 631a10 10 0 0 0 10 -10v-580a10 10 0 0 1 10 -10"></path>
<path d="M40 31a10 10 0 0 1 10 10v610a10 10 0 0 0 10 10"></path>
<g>
<path d="M60 661h12"></path>
<path d="M848 661h12"></path>
<path d="M72 661h10"></path>
<g>
<path d="M82 661h0"></path>
<path d="M198 661h0"></path>
<rect x="82" y="650" width="116" height="22" rx="10" ry="10"></rect>
<text x="140" y="665">TS&#95;EXP&#95;ATAN2</text>
</g>
<path d="M198 661h10"></path>
<path d="M208 661h10"></path>
<g>
<path d="M218 661h0"></path>
<path d="M246 661h0"></path>
<rect x="218" y="650" width="28" height="22" rx="10" ry="10"></rect>
<text x="232" y="665">(</text>
</g>
<path d="M246 661h10"></path>
<path d="M256 661h10"></path>
<g>
<path d="M266 661h0"></path>
<path d="M494 661h0"></path>
<rect x="266" y="650" width="228" height="22"></rect>
<text x="380" y="665">doubleTimeSeriesExpression</text>
</g>
<path d="M494 661h10"></path>
<path d="M504 661h10"></path>
<g>
<path d="M514 661h0"></path>
<path d="M542 661h0"></path>
<rect x="514" y="650" width="28" height="22" rx="10" ry="10"></rect>
<text x="528" y="665">,</text>
</g>
<path d="M542 661h10"></path>
<path d="M552 661h10"></path>
<g>
<path d="M562 661h0"></path>
<path d="M790 661h0"></path>
<rect x="562" y="650" width="228" height="22"></rect>
<text x="676" y="665">doubleTimeSeriesExpression</text>
</g>
<path d="M790 661h10"></path>
<path d="M800 661h10"></path>
<g>
<path d="M810 661h0"></path>
<path d="M838 661h0"></path>
<rect x="810" y="650" width="28" height="22" rx="10" ry="10"></rect>
<text x="824" y="665">)</text>
</g>
<path d="M838 661h10"></path>
</g>
<path d="M860 661a10 10 0 0 0 10 -10v-610a10 10 0 0 1 10 -10"></path>
<path d="M40 31a10 10 0 0 1 10 10v640a10 10 0 0 0 10 10"></path>
<g>
<path d="M60 691h282"></path>
<path d="M578 691h282"></path>
<rect x="342" y="680" width="236" height="22"></rect>
<text x="460" y="695">doubleConditionalExpression</text>
</g>
<path d="M860 691a10 10 0 0 0 10 -10v-640a10 10 0 0 1 10 -10"></path>
<path d="M40 31a10 10 0 0 1 10 10v670a10 10 0 0 0 10 10"></path>
<g>
<path d="M60 721h366"></path>
<path d="M494 721h366"></path>
<rect x="426" y="710" width="68" height="22"></rect>
<text x="460" y="725">number</text>
</g>
<path d="M860 721a10 10 0 0 0 10 -10v-670a10 10 0 0 1 10 -10"></path>
<path d="M40 31a10 10 0 0 1 10 10v700a10 10 0 0 0 10 10"></path>
<g>
<path d="M60 751h278"></path>
<path d="M582 751h278"></path>
<rect x="338" y="740" width="244" height="22"></rect>
<text x="460" y="755">identityTimeSeriesExpression</text>
</g>
<path d="M860 751a10 10 0 0 0 10 -10v-700a10 10 0 0 1 10 -10"></path>
</g>
<path d="M 880 31 h 20 m -10 -10 v 20 m 10 -20 v 20"></path>
</g>
</svg>
