<?xml version="1.0" standalone="no"?>
<!DOCTYPE svg PUBLIC "-//W3C//DTD SVG 1.1//EN"
  "http://www.w3.org/Graphics/SVG/1.1/DTD/svg11.dtd">

<svg xmlns="http://www.w3.org/2000/svg" version="1.1" class="railroad-diagram" width="1389" height="342" viewBox="0 0 1389 342">

<defs><style type="text/css"><![CDATA[ svg.railroad-diagram {
  background-color: #ffffff;
}
svg.railroad-diagram path {
  stroke-width: 2;
  stroke: #5a6872;
  fill: none;
}
svg.railroad-diagram text {
  font-size: 14px;
  font-family: 'ibm-plex-mono', 'Menlo', 'DejaVu Sans Mono', 'Bitstream Vera Sans Mono', Courier, monospace;
  color: #152935;
  text-anchor: middle;
  cursor: pointer;
}
svg.railroad-diagram text.label {
  text-anchor: start;
}
svg.railroad-diagram text.comment {
  font-size: 12px;
}
svg.railroad-diagram rect {
  stroke-width: 2;
  stroke:  #5a6872;
  fill: #5aaafa;
}
 ]]></style></defs>

<g transform="translate(.5 .5)">
<path d="M 20 21 v 20 m 10 -20 v 20 m -10 -10 h 20.5"></path>
<g>
<path d="M40 31h0"></path>
<path d="M1348 31h0"></path>
<path d="M40 31h20"></path>
<g>
<path d="M60 31h560"></path>
<path d="M768 31h560"></path>
<rect x="620" y="20" width="148" height="22"></rect>
<text x="694" y="35">tableTransformer</text>
</g>
<path d="M1328 31h20"></path>
<path d="M40 31a10 10 0 0 1 10 10v20a10 10 0 0 0 10 10"></path>
<g>
<path d="M60 71h0"></path>
<path d="M1328 71h0"></path>
<path d="M60 71h10"></path>
<g>
<path d="M70 71h0"></path>
<path d="M138 71h0"></path>
<rect x="70" y="60" width="68" height="22"></rect>
<text x="104" y="75">COSURI</text>
</g>
<path d="M138 71h10"></path>
<g>
<path d="M148 71h0"></path>
<path d="M1012 71h0"></path>
<path d="M148 71a10 10 0 0 0 10 -10v0a10 10 0 0 1 10 -10"></path>
<g>
<path d="M168 51h824"></path>
</g>
<path d="M992 51a10 10 0 0 1 10 10v0a10 10 0 0 0 10 10"></path>
<path d="M148 71h20"></path>
<g>
<path d="M168 71h0"></path>
<path d="M992 71h0"></path>
<path d="M168 71h10"></path>
<g>
<path d="M178 71h0"></path>
<path d="M246 71h0"></path>
<rect x="178" y="60" width="68" height="22" rx="10" ry="10"></rect>
<text x="212" y="75">STORED</text>
</g>
<path d="M246 71h10"></path>
<path d="M256 71h10"></path>
<g>
<path d="M266 71h0"></path>
<path d="M302 71h0"></path>
<rect x="266" y="60" width="36" height="22" rx="10" ry="10"></rect>
<text x="284" y="75">AS</text>
</g>
<path d="M302 71h10"></path>
<g>
<path d="M312 71h0"></path>
<path d="M992 71h0"></path>
<path d="M312 71h20"></path>
<g>
<path d="M332 71h294"></path>
<path d="M678 71h294"></path>
<rect x="626" y="60" width="52" height="22" rx="10" ry="10"></rect>
<text x="652" y="75">AVRO</text>
</g>
<path d="M972 71h20"></path>
<path d="M312 71a10 10 0 0 1 10 10v20a10 10 0 0 0 10 10"></path>
<g>
<path d="M332 111h0"></path>
<path d="M972 111h0"></path>
<g>
<path d="M332 111h0"></path>
<path d="M456 111h0"></path>
<path d="M332 111h20"></path>
<g>
<path d="M352 111h20"></path>
<path d="M416 111h20"></path>
<rect x="372" y="100" width="44" height="22" rx="10" ry="10"></rect>
<text x="394" y="115">CSV</text>
</g>
<path d="M436 111h20"></path>
<path d="M332 111a10 10 0 0 1 10 10v10a10 10 0 0 0 10 10"></path>
<g>
<path d="M352 141h0"></path>
<path d="M436 141h0"></path>
<rect x="352" y="130" width="84" height="22" rx="10" ry="10"></rect>
<text x="394" y="145">TEXTFILE</text>
</g>
<path d="M436 141a10 10 0 0 0 10 -10v-10a10 10 0 0 1 10 -10"></path>
</g>
<g>
<path d="M456 111h0"></path>
<path d="M848 111h0"></path>
<path d="M456 111a10 10 0 0 0 10 -10v0a10 10 0 0 1 10 -10"></path>
<g>
<path d="M476 91h352"></path>
</g>
<path d="M828 91a10 10 0 0 1 10 10v0a10 10 0 0 0 10 10"></path>
<path d="M456 111h20"></path>
<g>
<path d="M476 111h0"></path>
<path d="M828 111h0"></path>
<path d="M476 111h10"></path>
<g>
<path d="M486 111h0"></path>
<path d="M554 111h0"></path>
<rect x="486" y="100" width="68" height="22" rx="10" ry="10"></rect>
<text x="520" y="115">FIELDS</text>
</g>
<path d="M554 111h10"></path>
<path d="M564 111h10"></path>
<g>
<path d="M574 111h0"></path>
<path d="M674 111h0"></path>
<rect x="574" y="100" width="100" height="22" rx="10" ry="10"></rect>
<text x="624" y="115">TERMINATED</text>
</g>
<path d="M674 111h10"></path>
<path d="M684 111h10"></path>
<g>
<path d="M694 111h0"></path>
<path d="M730 111h0"></path>
<rect x="694" y="100" width="36" height="22" rx="10" ry="10"></rect>
<text x="712" y="115">BY</text>
</g>
<path d="M730 111h10"></path>
<path d="M740 111h10"></path>
<g>
<path d="M750 111h0"></path>
<path d="M818 111h0"></path>
<rect x="750" y="100" width="68" height="22"></rect>
<text x="784" y="115">STRING</text>
</g>
<path d="M818 111h10"></path>
</g>
<path d="M828 111h20"></path>
</g>
<g>
<path d="M848 111h0"></path>
<path d="M972 111h0"></path>
<path d="M848 111a10 10 0 0 0 10 -10v0a10 10 0 0 1 10 -10"></path>
<g>
<path d="M868 91h84"></path>
</g>
<path d="M952 91a10 10 0 0 1 10 10v0a10 10 0 0 0 10 10"></path>
<path d="M848 111h20"></path>
<g>
<path d="M868 111h0"></path>
<path d="M952 111h0"></path>
<rect x="868" y="100" width="84" height="22" rx="10" ry="10"></rect>
<text x="910" y="115">NOHEADER</text>
</g>
<path d="M952 111h20"></path>
</g>
</g>
<path d="M972 111a10 10 0 0 0 10 -10v-20a10 10 0 0 1 10 -10"></path>
<path d="M312 71a10 10 0 0 1 10 10v90a10 10 0 0 0 10 10"></path>
<g>
<path d="M332 181h218"></path>
<path d="M754 181h218"></path>
<path d="M550 181h10"></path>
<g>
<path d="M560 181h0"></path>
<path d="M612 181h0"></path>
<rect x="560" y="170" width="52" height="22" rx="10" ry="10"></rect>
<text x="586" y="185">JSON</text>
</g>
<path d="M612 181h10"></path>
<g>
<path d="M622 181h0"></path>
<path d="M754 181h0"></path>
<path d="M622 181a10 10 0 0 0 10 -10v0a10 10 0 0 1 10 -10"></path>
<g>
<path d="M642 161h92"></path>
</g>
<path d="M734 161a10 10 0 0 1 10 10v0a10 10 0 0 0 10 10"></path>
<path d="M622 181h20"></path>
<g>
<path d="M642 181h0"></path>
<path d="M734 181h0"></path>
<rect x="642" y="170" width="92" height="22" rx="10" ry="10"></rect>
<text x="688" y="185">MULTILINE</text>
</g>
<path d="M734 181h20"></path>
</g>
</g>
<path d="M972 181a10 10 0 0 0 10 -10v-90a10 10 0 0 1 10 -10"></path>
<path d="M312 71a10 10 0 0 1 10 10v120a10 10 0 0 0 10 10"></path>
<g>
<path d="M332 211h298"></path>
<path d="M674 211h298"></path>
<rect x="630" y="200" width="44" height="22" rx="10" ry="10"></rect>
<text x="652" y="215">ORC</text>
</g>
<path d="M972 211a10 10 0 0 0 10 -10v-120a10 10 0 0 1 10 -10"></path>
<path d="M312 71a10 10 0 0 1 10 10v160a10 10 0 0 0 10 10"></path>
<g>
<path d="M332 251h168"></path>
<path d="M804 251h168"></path>
<path d="M500 251h10"></path>
<g>
<path d="M510 251h0"></path>
<path d="M586 251h0"></path>
<rect x="510" y="240" width="76" height="22" rx="10" ry="10"></rect>
<text x="548" y="255">PARQUET</text>
</g>
<path d="M586 251h10"></path>
<g>
<path d="M596 251h0"></path>
<path d="M804 251h0"></path>
<path d="M596 251a10 10 0 0 0 10 -10v0a10 10 0 0 1 10 -10"></path>
<g>
<path d="M616 231h168"></path>
</g>
<path d="M784 231a10 10 0 0 1 10 10v0a10 10 0 0 0 10 10"></path>
<path d="M596 251h20"></path>
<g>
<path d="M616 251h0"></path>
<path d="M784 251h0"></path>
<path d="M616 251h10"></path>
<g>
<path d="M626 251h0"></path>
<path d="M686 251h0"></path>
<rect x="626" y="240" width="60" height="22" rx="10" ry="10"></rect>
<text x="656" y="255">MERGE</text>
</g>
<path d="M686 251h10"></path>
<path d="M696 251h10"></path>
<g>
<path d="M706 251h0"></path>
<path d="M774 251h0"></path>
<rect x="706" y="240" width="68" height="22" rx="10" ry="10"></rect>
<text x="740" y="255">SCHEMA</text>
</g>
<path d="M774 251h10"></path>
</g>
<path d="M784 251h20"></path>
</g>
</g>
<path d="M972 251a10 10 0 0 0 10 -10v-160a10 10 0 0 1 10 -10"></path>
<path d="M312 71a10 10 0 0 1 10 10v190a10 10 0 0 0 10 10"></path>
<g>
<path d="M332 281h282"></path>
<path d="M690 281h282"></path>
<rect x="614" y="270" width="76" height="22" rx="10" ry="10"></rect>
<text x="652" y="285">GEOJSON</text>
</g>
<path d="M972 281a10 10 0 0 0 10 -10v-190a10 10 0 0 1 10 -10"></path>
<path d="M312 71a10 10 0 0 1 10 10v220a10 10 0 0 0 10 10"></path>
<g>
<path d="M332 311h274"></path>
<path d="M698 311h274"></path>
<rect x="606" y="300" width="92" height="22" rx="10" ry="10"></rect>
<text x="652" y="315">SHAPEFILE</text>
</g>
<path d="M972 311a10 10 0 0 0 10 -10v-220a10 10 0 0 1 10 -10"></path>
</g>
</g>
<path d="M992 71h20"></path>
</g>
<path d="M1012 71h10"></path>
<g>
<path d="M1022 71h0"></path>
<path d="M1098 71h0"></path>
<rect x="1022" y="60" width="76" height="22" rx="10" ry="10"></rect>
<text x="1060" y="75">@break@</text>
</g>
<path d="M1098 71h10"></path>
<g>
<path d="M1108 71h0"></path>
<path d="M1328 71h0"></path>
<path d="M1108 71a10 10 0 0 0 10 -10v0a10 10 0 0 1 10 -10"></path>
<g>
<path d="M1128 51h180"></path>
</g>
<path d="M1308 51a10 10 0 0 1 10 10v0a10 10 0 0 0 10 10"></path>
<path d="M1108 71h20"></path>
<g>
<path d="M1128 71h0"></path>
<path d="M1308 71h0"></path>
<rect x="1128" y="60" width="180" height="22"></rect>
<text x="1218" y="75">timeSeriesProperties</text>
</g>
<path d="M1308 71h20"></path>
</g>
</g>
<path d="M1328 71a10 10 0 0 0 10 -10v-20a10 10 0 0 1 10 -10"></path>
</g>
<path d="M 1348 31 h 20 m -10 -10 v 20 m 10 -20 v 20"></path>
</g>
</svg>
