<?xml version="1.0" standalone="no"?>
<!DOCTYPE svg PUBLIC "-//W3C//DTD SVG 1.1//EN"
  "http://www.w3.org/Graphics/SVG/1.1/DTD/svg11.dtd">

<svg xmlns="http://www.w3.org/2000/svg" version="1.1" class="railroad-diagram" width="977" height="232" viewBox="0 0 977 232">

<defs><style type="text/css"><![CDATA[ svg.railroad-diagram {
  background-color: #ffffff;
}
svg.railroad-diagram path {
  stroke-width: 2;
  stroke: #5a6872;
  fill: none;
}
svg.railroad-diagram text {
  font-size: 14px;
  font-family: 'ibm-plex-mono', 'Menlo', 'DejaVu Sans Mono', 'Bitstream Vera Sans Mono', Courier, monospace;
  color: #152935;
  text-anchor: middle;
  cursor: pointer;
}
svg.railroad-diagram text.label {
  text-anchor: start;
}
svg.railroad-diagram text.comment {
  font-size: 12px;
}
svg.railroad-diagram rect {
  stroke-width: 2;
  stroke:  #5a6872;
  fill: #5aaafa;
}
 ]]></style></defs>

<g transform="translate(.5 .5)">
<path d="M 20 31 v 20 m 10 -20 v 20 m -10 -10 h 20.5"></path>
<g>
<path d="M40 41h0"></path>
<path d="M936 41h0"></path>
<path d="M40 41h10"></path>
<g>
<path d="M50 41h0"></path>
<path d="M118 41h0"></path>
<rect x="50" y="30" width="68" height="22"></rect>
<text x="84" y="45">COSURI</text>
</g>
<path d="M118 41h10"></path>
<g>
<path d="M128 41h0"></path>
<path d="M936 41h0"></path>
<path d="M128 41a10 10 0 0 0 10 -10v0a10 10 0 0 1 10 -10"></path>
<g>
<path d="M148 21h768"></path>
</g>
<path d="M916 21a10 10 0 0 1 10 10v0a10 10 0 0 0 10 10"></path>
<path d="M128 41h20"></path>
<g>
<path d="M148 41h0"></path>
<path d="M916 41h0"></path>
<path d="M148 41h10"></path>
<g>
<path d="M158 41h0"></path>
<path d="M226 41h0"></path>
<rect x="158" y="30" width="68" height="22" rx="10" ry="10"></rect>
<text x="192" y="45">STORED</text>
</g>
<path d="M226 41h10"></path>
<path d="M236 41h10"></path>
<g>
<path d="M246 41h0"></path>
<path d="M282 41h0"></path>
<rect x="246" y="30" width="36" height="22" rx="10" ry="10"></rect>
<text x="264" y="45">AS</text>
</g>
<path d="M282 41h10"></path>
<g>
<path d="M292 41h0"></path>
<path d="M916 41h0"></path>
<path d="M292 41h20"></path>
<g>
<path d="M312 41h266"></path>
<path d="M630 41h266"></path>
<rect x="578" y="30" width="52" height="22" rx="10" ry="10"></rect>
<text x="604" y="45">AVRO</text>
</g>
<path d="M896 41h20"></path>
<path d="M292 41a10 10 0 0 1 10 10v20a10 10 0 0 0 10 10"></path>
<g>
<path d="M312 81h0"></path>
<path d="M896 81h0"></path>
<g>
<path d="M312 81h0"></path>
<path d="M436 81h0"></path>
<path d="M312 81h20"></path>
<g>
<path d="M332 81h20"></path>
<path d="M396 81h20"></path>
<rect x="352" y="70" width="44" height="22" rx="10" ry="10"></rect>
<text x="374" y="85">CSV</text>
</g>
<path d="M416 81h20"></path>
<path d="M312 81a10 10 0 0 1 10 10v10a10 10 0 0 0 10 10"></path>
<g>
<path d="M332 111h0"></path>
<path d="M416 111h0"></path>
<rect x="332" y="100" width="84" height="22" rx="10" ry="10"></rect>
<text x="374" y="115">TEXTFILE</text>
</g>
<path d="M416 111a10 10 0 0 0 10 -10v-10a10 10 0 0 1 10 -10"></path>
</g>
<g>
<path d="M436 81h0"></path>
<path d="M772 81h0"></path>
<path d="M436 81a10 10 0 0 0 10 -10v0a10 10 0 0 1 10 -10"></path>
<g>
<path d="M456 61h296"></path>
</g>
<path d="M752 61a10 10 0 0 1 10 10v0a10 10 0 0 0 10 10"></path>
<path d="M436 81h20"></path>
<g>
<path d="M456 81h0"></path>
<path d="M752 81h0"></path>
<path d="M456 81h10"></path>
<g>
<path d="M466 81h0"></path>
<path d="M654 81h0"></path>
<rect x="466" y="70" width="188" height="22" rx="10" ry="10"></rect>
<text x="560" y="85">FIELDS TERMINATED BY </text>
</g>
<path d="M654 81h10"></path>
<path d="M664 81h10"></path>
<g>
<path d="M674 81h0"></path>
<path d="M742 81h0"></path>
<rect x="674" y="70" width="68" height="22"></rect>
<text x="708" y="85">STRING</text>
</g>
<path d="M742 81h10"></path>
</g>
<path d="M752 81h20"></path>
</g>
<g>
<path d="M772 81h0"></path>
<path d="M896 81h0"></path>
<path d="M772 81a10 10 0 0 0 10 -10v0a10 10 0 0 1 10 -10"></path>
<g>
<path d="M792 61h84"></path>
</g>
<path d="M876 61a10 10 0 0 1 10 10v0a10 10 0 0 0 10 10"></path>
<path d="M772 81h20"></path>
<g>
<path d="M792 81h0"></path>
<path d="M876 81h0"></path>
<rect x="792" y="70" width="84" height="22" rx="10" ry="10"></rect>
<text x="834" y="85">NOHEADER</text>
</g>
<path d="M876 81h20"></path>
</g>
</g>
<path d="M896 81a10 10 0 0 0 10 -10v-20a10 10 0 0 1 10 -10"></path>
<path d="M292 41a10 10 0 0 1 10 10v80a10 10 0 0 0 10 10"></path>
<g>
<path d="M312 141h266"></path>
<path d="M630 141h266"></path>
<rect x="578" y="130" width="52" height="22" rx="10" ry="10"></rect>
<text x="604" y="145">JSON</text>
</g>
<path d="M896 141a10 10 0 0 0 10 -10v-80a10 10 0 0 1 10 -10"></path>
<path d="M292 41a10 10 0 0 1 10 10v110a10 10 0 0 0 10 10"></path>
<g>
<path d="M312 171h270"></path>
<path d="M626 171h270"></path>
<rect x="582" y="160" width="44" height="22" rx="10" ry="10"></rect>
<text x="604" y="175">ORC</text>
</g>
<path d="M896 171a10 10 0 0 0 10 -10v-110a10 10 0 0 1 10 -10"></path>
<path d="M292 41a10 10 0 0 1 10 10v140a10 10 0 0 0 10 10"></path>
<g>
<path d="M312 201h254"></path>
<path d="M642 201h254"></path>
<rect x="566" y="190" width="76" height="22" rx="10" ry="10"></rect>
<text x="604" y="205">PARQUET</text>
</g>
<path d="M896 201a10 10 0 0 0 10 -10v-140a10 10 0 0 1 10 -10"></path>
</g>
</g>
<path d="M916 41h20"></path>
</g>
</g>
<path d="M 936 41 h 20 m -10 -10 v 20 m 10 -20 v 20"></path>
</g>
</svg>
