<?xml version="1.0" standalone="no"?>
<!DOCTYPE svg PUBLIC "-//W3C//DTD SVG 1.1//EN"
  "http://www.w3.org/Graphics/SVG/1.1/DTD/svg11.dtd">

<svg xmlns="http://www.w3.org/2000/svg" version="1.1" class="railroad-diagram" width="1073" height="272" viewBox="0 0 1073 272">

<defs><style type="text/css"><![CDATA[ svg.railroad-diagram {
  background-color: #ffffff;
}
svg.railroad-diagram path {
  stroke-width: 2;
  stroke: #5a6872;
  fill: none;
}
svg.railroad-diagram text {
  font-size: 14px;
  font-family: 'ibm-plex-mono', 'Menlo', 'DejaVu Sans Mono', 'Bitstream Vera Sans Mono', Courier, monospace;
  color: #152935;
  text-anchor: middle;
  cursor: pointer;
}
svg.railroad-diagram text.label {
  text-anchor: start;
}
svg.railroad-diagram text.comment {
  font-size: 12px;
}
svg.railroad-diagram rect {
  stroke-width: 2;
  stroke:  #5a6872;
  fill: #5aaafa;
}
 ]]></style></defs>

<g transform="translate(.5 .5)">
<path d="M 20 31 v 20 m 10 -20 v 20 m -10 -10 h 20.5"></path>
<g>
<path d="M40 41h0"></path>
<path d="M1032 41h0"></path>
<path d="M40 41h20"></path>
<g>
<path d="M60 41h0"></path>
<path d="M1012 41h0"></path>
<path d="M60 41h10"></path>
<g>
<path d="M70 41h0"></path>
<path d="M138 41h0"></path>
<rect x="70" y="30" width="68" height="22"></rect>
<text x="104" y="45">COSURI</text>
</g>
<path d="M138 41h10"></path>
<g>
<path d="M148 41h0"></path>
<path d="M1012 41h0"></path>
<path d="M148 41a10 10 0 0 0 10 -10v0a10 10 0 0 1 10 -10"></path>
<g>
<path d="M168 21h824"></path>
</g>
<path d="M992 21a10 10 0 0 1 10 10v0a10 10 0 0 0 10 10"></path>
<path d="M148 41h20"></path>
<g>
<path d="M168 41h0"></path>
<path d="M992 41h0"></path>
<path d="M168 41h10"></path>
<g>
<path d="M178 41h0"></path>
<path d="M246 41h0"></path>
<rect x="178" y="30" width="68" height="22" rx="10" ry="10"></rect>
<text x="212" y="45">STORED</text>
</g>
<path d="M246 41h10"></path>
<path d="M256 41h10"></path>
<g>
<path d="M266 41h0"></path>
<path d="M302 41h0"></path>
<rect x="266" y="30" width="36" height="22" rx="10" ry="10"></rect>
<text x="284" y="45">AS</text>
</g>
<path d="M302 41h10"></path>
<g>
<path d="M312 41h0"></path>
<path d="M992 41h0"></path>
<path d="M312 41h20"></path>
<g>
<path d="M332 41h294"></path>
<path d="M678 41h294"></path>
<rect x="626" y="30" width="52" height="22" rx="10" ry="10"></rect>
<text x="652" y="45">AVRO</text>
</g>
<path d="M972 41h20"></path>
<path d="M312 41a10 10 0 0 1 10 10v20a10 10 0 0 0 10 10"></path>
<g>
<path d="M332 81h0"></path>
<path d="M972 81h0"></path>
<g>
<path d="M332 81h0"></path>
<path d="M456 81h0"></path>
<path d="M332 81h20"></path>
<g>
<path d="M352 81h20"></path>
<path d="M416 81h20"></path>
<rect x="372" y="70" width="44" height="22" rx="10" ry="10"></rect>
<text x="394" y="85">CSV</text>
</g>
<path d="M436 81h20"></path>
<path d="M332 81a10 10 0 0 1 10 10v10a10 10 0 0 0 10 10"></path>
<g>
<path d="M352 111h0"></path>
<path d="M436 111h0"></path>
<rect x="352" y="100" width="84" height="22" rx="10" ry="10"></rect>
<text x="394" y="115">TEXTFILE</text>
</g>
<path d="M436 111a10 10 0 0 0 10 -10v-10a10 10 0 0 1 10 -10"></path>
</g>
<g>
<path d="M456 81h0"></path>
<path d="M848 81h0"></path>
<path d="M456 81a10 10 0 0 0 10 -10v0a10 10 0 0 1 10 -10"></path>
<g>
<path d="M476 61h352"></path>
</g>
<path d="M828 61a10 10 0 0 1 10 10v0a10 10 0 0 0 10 10"></path>
<path d="M456 81h20"></path>
<g>
<path d="M476 81h0"></path>
<path d="M828 81h0"></path>
<path d="M476 81h10"></path>
<g>
<path d="M486 81h0"></path>
<path d="M554 81h0"></path>
<rect x="486" y="70" width="68" height="22" rx="10" ry="10"></rect>
<text x="520" y="85">FIELDS</text>
</g>
<path d="M554 81h10"></path>
<path d="M564 81h10"></path>
<g>
<path d="M574 81h0"></path>
<path d="M674 81h0"></path>
<rect x="574" y="70" width="100" height="22" rx="10" ry="10"></rect>
<text x="624" y="85">TERMINATED</text>
</g>
<path d="M674 81h10"></path>
<path d="M684 81h10"></path>
<g>
<path d="M694 81h0"></path>
<path d="M730 81h0"></path>
<rect x="694" y="70" width="36" height="22" rx="10" ry="10"></rect>
<text x="712" y="85">BY</text>
</g>
<path d="M730 81h10"></path>
<path d="M740 81h10"></path>
<g>
<path d="M750 81h0"></path>
<path d="M818 81h0"></path>
<rect x="750" y="70" width="68" height="22"></rect>
<text x="784" y="85">STRING</text>
</g>
<path d="M818 81h10"></path>
</g>
<path d="M828 81h20"></path>
</g>
<g>
<path d="M848 81h0"></path>
<path d="M972 81h0"></path>
<path d="M848 81a10 10 0 0 0 10 -10v0a10 10 0 0 1 10 -10"></path>
<g>
<path d="M868 61h84"></path>
</g>
<path d="M952 61a10 10 0 0 1 10 10v0a10 10 0 0 0 10 10"></path>
<path d="M848 81h20"></path>
<g>
<path d="M868 81h0"></path>
<path d="M952 81h0"></path>
<rect x="868" y="70" width="84" height="22" rx="10" ry="10"></rect>
<text x="910" y="85">NOHEADER</text>
</g>
<path d="M952 81h20"></path>
</g>
</g>
<path d="M972 81a10 10 0 0 0 10 -10v-20a10 10 0 0 1 10 -10"></path>
<path d="M312 41a10 10 0 0 1 10 10v80a10 10 0 0 0 10 10"></path>
<g>
<path d="M332 141h294"></path>
<path d="M678 141h294"></path>
<rect x="626" y="130" width="52" height="22" rx="10" ry="10"></rect>
<text x="652" y="145">JSON</text>
</g>
<path d="M972 141a10 10 0 0 0 10 -10v-80a10 10 0 0 1 10 -10"></path>
<path d="M312 41a10 10 0 0 1 10 10v110a10 10 0 0 0 10 10"></path>
<g>
<path d="M332 171h298"></path>
<path d="M674 171h298"></path>
<rect x="630" y="160" width="44" height="22" rx="10" ry="10"></rect>
<text x="652" y="175">ORC</text>
</g>
<path d="M972 171a10 10 0 0 0 10 -10v-110a10 10 0 0 1 10 -10"></path>
<path d="M312 41a10 10 0 0 1 10 10v150a10 10 0 0 0 10 10"></path>
<g>
<path d="M332 211h168"></path>
<path d="M804 211h168"></path>
<path d="M500 211h10"></path>
<g>
<path d="M510 211h0"></path>
<path d="M586 211h0"></path>
<rect x="510" y="200" width="76" height="22" rx="10" ry="10"></rect>
<text x="548" y="215">PARQUET</text>
</g>
<path d="M586 211h10"></path>
<g>
<path d="M596 211h0"></path>
<path d="M804 211h0"></path>
<path d="M596 211a10 10 0 0 0 10 -10v0a10 10 0 0 1 10 -10"></path>
<g>
<path d="M616 191h168"></path>
</g>
<path d="M784 191a10 10 0 0 1 10 10v0a10 10 0 0 0 10 10"></path>
<path d="M596 211h20"></path>
<g>
<path d="M616 211h0"></path>
<path d="M784 211h0"></path>
<path d="M616 211h10"></path>
<g>
<path d="M626 211h0"></path>
<path d="M686 211h0"></path>
<rect x="626" y="200" width="60" height="22" rx="10" ry="10"></rect>
<text x="656" y="215">MERGE</text>
</g>
<path d="M686 211h10"></path>
<path d="M696 211h10"></path>
<g>
<path d="M706 211h0"></path>
<path d="M774 211h0"></path>
<rect x="706" y="200" width="68" height="22" rx="10" ry="10"></rect>
<text x="740" y="215">SCHEMA</text>
</g>
<path d="M774 211h10"></path>
</g>
<path d="M784 211h20"></path>
</g>
</g>
<path d="M972 211a10 10 0 0 0 10 -10v-150a10 10 0 0 1 10 -10"></path>
</g>
</g>
<path d="M992 41h20"></path>
</g>
</g>
<path d="M1012 41h20"></path>
<path d="M40 41a10 10 0 0 1 10 10v180a10 10 0 0 0 10 10"></path>
<g>
<path d="M60 241h402"></path>
<path d="M610 241h402"></path>
<rect x="462" y="230" width="148" height="22"></rect>
<text x="536" y="245">tableTransformer</text>
</g>
<path d="M1012 241a10 10 0 0 0 10 -10v-180a10 10 0 0 1 10 -10"></path>
</g>
<path d="M 1032 41 h 20 m -10 -10 v 20 m 10 -20 v 20"></path>
</g>
</svg>
