<?xml version="1.0" standalone="no"?>
<!DOCTYPE svg PUBLIC "-//W3C//DTD SVG 1.1//EN"
  "http://www.w3.org/Graphics/SVG/1.1/DTD/svg11.dtd">

<svg xmlns="http://www.w3.org/2000/svg" version="1.1" class="railroad-diagram"  width="502" height="787" viewBox="0 0 502 787" >
<defs><style type="text/css"><![CDATA[ svg.railroad-diagram {
  background-color: #ffffff;
}
svg.railroad-diagram path {
  stroke-width: 2;
  stroke: #5a6872;
  fill: none;
}
svg.railroad-diagram text {
  font-size: 14px;
  font-family: 'ibm-plex-mono', 'Menlo', 'DejaVu Sans Mono', 'Bitstream Vera Sans Mono', Courier, monospace;
  color: #152935;
  text-anchor: middle;
  cursor: pointer;
}
svg.railroad-diagram text.label {
  text-anchor: start;
}
svg.railroad-diagram text.comment {
  font-size: 12px;
}
svg.railroad-diagram rect {
  stroke-width: 2;
  stroke:  #5a6872;
  fill: #5aaafa;
}
 ]]></style></defs>

<g transform="translate(.5 .5)">
<path d="M20 31  v 20 m 10 -20 v 20 m -10 -10 h 20.5"></path>
<g>
<path d="M40 41 h0"></path>
<path d="M2632 41 h0"></path>
<path d="M40 41 h10"></path>
<g>
<path d="M50 41 h0"></path>
<path d="M366 41 h0"></path>
<path d="M50 41 h10"></path>
<g>
<path d="M60 41 h20"></path>
<path d="M336 41 h20"></path>
<g>
<path d="M80 41 h0"></path>
<path d="M336 41 h0"></path>
<path d="M80 41 h20"></path>
<g>
<path d="M100 41 h50"></path>
<path d="M266 41 h50"></path>
<rect x="150" y="30" width="116" height="22" ></rect>
<text x="208" y="45">simpleselect</text>
</g>
<path d="M316 41 h20"></path>
<path d="M80 41 a10 10 0 0 1 10 10v10a10 10 0 0 0 10 10"></path>
<g>
<path d="M100 71 h0"></path>
<path d="M316 71 h0"></path>
<path d="M100 71 h10"></path>
<g>
<path d="M110 71 h0"></path>
<path d="M138 71 h0"></path>
<rect x="110" y="60" width="28" height="22"  rx="10" ry="10"></rect>
<text x="124" y="75">(</text>
</g>
<path d="M138 71 h10"></path>
<path d="M148 71 h10"></path>
<g>
<path d="M158 71 h0"></path>
<path d="M258 71 h0"></path>
<rect x="158" y="60" width="100" height="22" ></rect>
<text x="208" y="75">fullselect</text>
</g>
<path d="M258 71 h10"></path>
<path d="M268 71 h10"></path>
<g>
<path d="M278 71 h0"></path>
<path d="M306 71 h0"></path>
<rect x="278" y="60" width="28" height="22"  rx="10" ry="10"></rect>
<text x="292" y="75">)</text>
</g>
<path d="M306 71 h10"></path>
</g>
<path d="M316 71 a10 10 0 0 0 10 -10v-10a10 10 0 0 1 10 -10"></path>
<path d="M80 41 a10 10 0 0 1 10 10v40a10 10 0 0 0 10 10"></path>
<g>
<path d="M100 101 h50"></path>
<path d="M266 101 h50"></path>
<rect x="150" y="90" width="116" height="22" ></rect>
<text x="208" y="105">valuesClause</text>
</g>
<path d="M316 101 a10 10 0 0 0 10 -10v-40a10 10 0 0 1 10 -10"></path>
</g>
</g>
<path d="M356 41 h10"></path>
<path d="M60 41 a10 10 0 0 0 -10 10v80a10 10 0 0 0 10 10"></path>
<g>
<path d="M60 141 h0"></path>
<path d="M356 141 h0"></path>
<g>
<path d="M60 141 h0"></path>
<path d="M224 141 h0"></path>
<path d="M60 141 a10 10 0 0 0 10 -10v0a10 10 0 0 1 10 -10"></path>
<g>
<path d="M80 121 h124"></path>
</g>
<path d="M204 121 a10 10 0 0 1 10 10v0a10 10 0 0 0 10 10"></path>
<path d="M60 141 h20"></path>
<g>
<path d="M80 141 h0"></path>
<path d="M204 141 h0"></path>
<path d="M80 141 h20"></path>
<g>
<path d="M100 141 h0"></path>
<path d="M184 141 h0"></path>
<rect x="100" y="130" width="84" height="22"  rx="10" ry="10"></rect>
<text x="142" y="145">DISTINCT</text>
</g>
<path d="M184 141 h20"></path>
<path d="M80 141 a10 10 0 0 1 10 10v10a10 10 0 0 0 10 10"></path>
<g>
<path d="M100 171 h20"></path>
<path d="M164 171 h20"></path>
<rect x="120" y="160" width="44" height="22"  rx="10" ry="10"></rect>
<text x="142" y="175">ALL</text>
</g>
<path d="M184 171 a10 10 0 0 0 10 -10v-10a10 10 0 0 1 10 -10"></path>
</g>
<path d="M204 141 h20"></path>
</g>
<g>
<path d="M224 141 h0"></path>
<path d="M356 141 h0"></path>
<path d="M224 141 h20"></path>
<g>
<path d="M244 141 h0"></path>
<path d="M336 141 h0"></path>
<rect x="244" y="130" width="92" height="22"  rx="10" ry="10"></rect>
<text x="290" y="145">INTERSECT</text>
</g>
<path d="M336 141 h20"></path>
<path d="M224 141 a10 10 0 0 1 10 10v10a10 10 0 0 0 10 10"></path>
<g>
<path d="M244 171 h16"></path>
<path d="M320 171 h16"></path>
<rect x="260" y="160" width="60" height="22"  rx="10" ry="10"></rect>
<text x="290" y="175">UNION</text>
</g>
<path d="M336 171 a10 10 0 0 0 10 -10v-10a10 10 0 0 1 10 -10"></path>
<path d="M224 141 a10 10 0 0 1 10 10v40a10 10 0 0 0 10 10"></path>
<g>
<path d="M244 201 h12"></path>
<path d="M324 201 h12"></path>
<rect x="256" y="190" width="68" height="22"  rx="10" ry="10"></rect>
<text x="290" y="205">EXCEPT</text>
</g>
<path d="M336 201 a10 10 0 0 0 10 -10v-40a10 10 0 0 1 10 -10"></path>
<path d="M224 141 a10 10 0 0 1 10 10v70a10 10 0 0 0 10 10"></path>
<g>
<path d="M244 231 h16"></path>
<path d="M320 231 h16"></path>
<rect x="260" y="220" width="60" height="22"  rx="10" ry="10"></rect>
<text x="290" y="235">MINUS</text>
</g>
<path d="M336 231 a10 10 0 0 0 10 -10v-70a10 10 0 0 1 10 -10"></path>
</g>
</g>
<path d="M356 141 a10 10 0 0 0 10 -10v-80a10 10 0 0 0 -10 -10"></path>
</g>
<path d="M366 41 h10"></path>
<path d="M376 41 h10"></path>
<g id="eol">
<path d="M386 41 h0"></path>
<path d="M386 41 a 10 10 0 0 1 10 10 V 250 a 10 10 0 0 1 -10 10 h -355 a 10 10 0 0 0 -10 10 V 295 a 10 10 0 0 0 10 10"></path>
<path d="M386 41 h0"></path>
<path d="M386 41 h0"></path>
</g>
<path d="M31 305 h10"></path>
<g>
<path d="M41 305 h0"></path>
<path d="M361 305 h0"></path>
<path d="M41 305 a10 10 0 0 0 10 -10v0a10 10 0 0 1 10 -10"></path>
<g>
<path d="M61 285 h280"></path>
</g>
<path d="M341 285 a10 10 0 0 1 10 10v0a10 10 0 0 0 10 10"></path>
<path d="M41 305 h20"></path>
<g>
<path d="M61 305 h0"></path>
<path d="M341 305 h0"></path>
<path d="M61 305 h10"></path>
<g>
<path d="M71 305 h0"></path>
<path d="M131 305 h0"></path>
<rect x="71" y="294" width="60" height="22"  rx="10" ry="10"></rect>
<text x="101" y="309">ORDER</text>
</g>
<path d="M131 305 h10"></path>
<path d="M141 305 h10"></path>
<g>
<path d="M151 305 h0"></path>
<path d="M187 305 h0"></path>
<rect x="151" y="294" width="36" height="22"  rx="10" ry="10"></rect>
<text x="169" y="309">BY</text>
</g>
<path d="M187 305 h10"></path>
<path d="M197 305 h10"></path>
<g>
<path d="M207 305 h0"></path>
<path d="M331 305 h0"></path>
<path d="M207 305 h10"></path>
<g>
<path d="M217 305 h0"></path>
<path d="M321 305 h0"></path>
<path d="M217 305 h10"></path>
<g>
<path d="M227 305 h0"></path>
<path d="M311 305 h0"></path>
<rect x="227" y="294" width="84" height="22" ></rect>
<text x="269" y="309">sortItem</text>
</g>
<path d="M311 305 h10"></path>
</g>
<path d="M321 305 h10"></path>
<path d="M217 305 a10 10 0 0 0 -10 10v10a10 10 0 0 0 10 10"></path>
<g>
<path d="M217 335 h28"></path>
<path d="M293 335 h28"></path>
<path d="M245 335 h10"></path>
<g>
<path d="M255 335 h0"></path>
<path d="M283 335 h0"></path>
<rect x="255" y="324" width="28" height="22"  rx="10" ry="10"></rect>
<text x="269" y="339">,</text>
</g>
<path d="M283 335 h10"></path>
</g>
<path d="M321 335 a10 10 0 0 0 10 -10v-10a10 10 0 0 0 -10 -10"></path>
</g>
<path d="M331 305 h10"></path>
</g>
<path d="M341 305 h20"></path>
</g>
<path d="M361 305 h10"></path>
<g id="eol">
<path d="M371 305 h0"></path>
<path d="M371 305 a 10 10 0 0 1 10 10 V 354 a 10 10 0 0 1 -10 10 h -340 a 10 10 0 0 0 -10 10 V 399 a 10 10 0 0 0 10 10"></path>
<path d="M371 305 h0"></path>
<path d="M371 305 h0"></path>
</g>
<path d="M31 409 h10"></path>
<g>
<path d="M41 409 h0"></path>
<path d="M393 409 h0"></path>
<path d="M41 409 a10 10 0 0 0 10 -10v0a10 10 0 0 1 10 -10"></path>
<g>
<path d="M61 389 h312"></path>
</g>
<path d="M373 389 a10 10 0 0 1 10 10v0a10 10 0 0 0 10 10"></path>
<path d="M41 409 h20"></path>
<g>
<path d="M61 409 h0"></path>
<path d="M373 409 h0"></path>
<path d="M61 409 h10"></path>
<g>
<path d="M71 409 h0"></path>
<path d="M147 409 h0"></path>
<rect x="71" y="398" width="76" height="22"  rx="10" ry="10"></rect>
<text x="109" y="413">CLUSTER</text>
</g>
<path d="M147 409 h10"></path>
<path d="M157 409 h10"></path>
<g>
<path d="M167 409 h0"></path>
<path d="M203 409 h0"></path>
<rect x="167" y="398" width="36" height="22"  rx="10" ry="10"></rect>
<text x="185" y="413">BY</text>
</g>
<path d="M203 409 h10"></path>
<path d="M213 409 h10"></path>
<g>
<path d="M223 409 h0"></path>
<path d="M363 409 h0"></path>
<path d="M223 409 h10"></path>
<g>
<path d="M233 409 h0"></path>
<path d="M353 409 h0"></path>
<path d="M233 409 h10"></path>
<g>
<path d="M243 409 h0"></path>
<path d="M343 409 h0"></path>
<rect x="243" y="398" width="100" height="22" ></rect>
<text x="293" y="413">expression</text>
</g>
<path d="M343 409 h10"></path>
</g>
<path d="M353 409 h10"></path>
<path d="M233 409 a10 10 0 0 0 -10 10v10a10 10 0 0 0 10 10"></path>
<g>
<path d="M233 439 h36"></path>
<path d="M317 439 h36"></path>
<path d="M269 439 h10"></path>
<g>
<path d="M279 439 h0"></path>
<path d="M307 439 h0"></path>
<rect x="279" y="428" width="28" height="22"  rx="10" ry="10"></rect>
<text x="293" y="443">,</text>
</g>
<path d="M307 439 h10"></path>
</g>
<path d="M353 439 a10 10 0 0 0 10 -10v-10a10 10 0 0 0 -10 -10"></path>
</g>
<path d="M363 409 h10"></path>
</g>
<path d="M373 409 h20"></path>
</g>
<path d="M393 409 h10"></path>
<g id="eol">
<path d="M403 409 h0"></path>
<path d="M403 409 a 10 10 0 0 1 10 10 V 458 a 10 10 0 0 1 -10 10 h -372 a 10 10 0 0 0 -10 10 V 503 a 10 10 0 0 0 10 10"></path>
<path d="M403 409 h0"></path>
<path d="M403 409 h0"></path>
</g>
<path d="M31 513 h10"></path>
<g>
<path d="M41 513 h0"></path>
<path d="M417 513 h0"></path>
<path d="M41 513 a10 10 0 0 0 10 -10v0a10 10 0 0 1 10 -10"></path>
<g>
<path d="M61 493 h336"></path>
</g>
<path d="M397 493 a10 10 0 0 1 10 10v0a10 10 0 0 0 10 10"></path>
<path d="M41 513 h20"></path>
<g>
<path d="M61 513 h0"></path>
<path d="M397 513 h0"></path>
<path d="M61 513 h10"></path>
<g>
<path d="M71 513 h0"></path>
<path d="M171 513 h0"></path>
<rect x="71" y="502" width="100" height="22"  rx="10" ry="10"></rect>
<text x="121" y="517">DISTRIBUTE</text>
</g>
<path d="M171 513 h10"></path>
<path d="M181 513 h10"></path>
<g>
<path d="M191 513 h0"></path>
<path d="M227 513 h0"></path>
<rect x="191" y="502" width="36" height="22"  rx="10" ry="10"></rect>
<text x="209" y="517">BY</text>
</g>
<path d="M227 513 h10"></path>
<path d="M237 513 h10"></path>
<g>
<path d="M247 513 h0"></path>
<path d="M387 513 h0"></path>
<path d="M247 513 h10"></path>
<g>
<path d="M257 513 h0"></path>
<path d="M377 513 h0"></path>
<path d="M257 513 h10"></path>
<g>
<path d="M267 513 h0"></path>
<path d="M367 513 h0"></path>
<rect x="267" y="502" width="100" height="22" ></rect>
<text x="317" y="517">expression</text>
</g>
<path d="M367 513 h10"></path>
</g>
<path d="M377 513 h10"></path>
<path d="M257 513 a10 10 0 0 0 -10 10v10a10 10 0 0 0 10 10"></path>
<g>
<path d="M257 543 h36"></path>
<path d="M341 543 h36"></path>
<path d="M293 543 h10"></path>
<g>
<path d="M303 543 h0"></path>
<path d="M331 543 h0"></path>
<rect x="303" y="532" width="28" height="22"  rx="10" ry="10"></rect>
<text x="317" y="547">,</text>
</g>
<path d="M331 543 h10"></path>
</g>
<path d="M377 543 a10 10 0 0 0 10 -10v-10a10 10 0 0 0 -10 -10"></path>
</g>
<path d="M387 513 h10"></path>
</g>
<path d="M397 513 h20"></path>
</g>
<path d="M417 513 h10"></path>
<g id="eol">
<path d="M427 513 h0"></path>
<path d="M427 513 a 10 10 0 0 1 10 10 V 562 a 10 10 0 0 1 -10 10 h -396 a 10 10 0 0 0 -10 10 V 607 a 10 10 0 0 0 10 10"></path>
<path d="M427 513 h0"></path>
<path d="M427 513 h0"></path>
</g>
<path d="M31 617 h10"></path>
<g>
<path d="M41 617 h0"></path>
<path d="M353 617 h0"></path>
<path d="M41 617 a10 10 0 0 0 10 -10v0a10 10 0 0 1 10 -10"></path>
<g>
<path d="M61 597 h272"></path>
</g>
<path d="M333 597 a10 10 0 0 1 10 10v0a10 10 0 0 0 10 10"></path>
<path d="M41 617 h20"></path>
<g>
<path d="M61 617 h0"></path>
<path d="M333 617 h0"></path>
<path d="M61 617 h10"></path>
<g>
<path d="M71 617 h0"></path>
<path d="M123 617 h0"></path>
<rect x="71" y="606" width="52" height="22"  rx="10" ry="10"></rect>
<text x="97" y="621">SORT</text>
</g>
<path d="M123 617 h10"></path>
<path d="M133 617 h10"></path>
<g>
<path d="M143 617 h0"></path>
<path d="M179 617 h0"></path>
<rect x="143" y="606" width="36" height="22"  rx="10" ry="10"></rect>
<text x="161" y="621">BY</text>
</g>
<path d="M179 617 h10"></path>
<path d="M189 617 h10"></path>
<g>
<path d="M199 617 h0"></path>
<path d="M323 617 h0"></path>
<path d="M199 617 h10"></path>
<g>
<path d="M209 617 h0"></path>
<path d="M313 617 h0"></path>
<path d="M209 617 h10"></path>
<g>
<path d="M219 617 h0"></path>
<path d="M303 617 h0"></path>
<rect x="219" y="606" width="84" height="22" ></rect>
<text x="261" y="621">sortItem</text>
</g>
<path d="M303 617 h10"></path>
</g>
<path d="M313 617 h10"></path>
<path d="M209 617 a10 10 0 0 0 -10 10v10a10 10 0 0 0 10 10"></path>
<g>
<path d="M209 647 h28"></path>
<path d="M285 647 h28"></path>
<path d="M237 647 h10"></path>
<g>
<path d="M247 647 h0"></path>
<path d="M275 647 h0"></path>
<rect x="247" y="636" width="28" height="22"  rx="10" ry="10"></rect>
<text x="261" y="651">,</text>
</g>
<path d="M275 647 h10"></path>
</g>
<path d="M313 647 a10 10 0 0 0 10 -10v-10a10 10 0 0 0 -10 -10"></path>
</g>
<path d="M323 617 h10"></path>
</g>
<path d="M333 617 h20"></path>
</g>
<path d="M353 617 h10"></path>
<g id="eol">
<path d="M363 617 h0"></path>
<path d="M363 617 a 10 10 0 0 1 10 10 V 666 a 10 10 0 0 1 -10 10 h -332 a 10 10 0 0 0 -10 10 V 711 a 10 10 0 0 0 10 10"></path>
<path d="M363 617 h0"></path>
<path d="M363 617 h0"></path>
</g>
<path d="M31 721 h10"></path>
<g>
<path d="M41 721 h0"></path>
<path d="M197 721 h0"></path>
<path d="M41 721 a10 10 0 0 0 10 -10v0a10 10 0 0 1 10 -10"></path>
<g>
<path d="M61 701 h116"></path>
</g>
<path d="M177 701 a10 10 0 0 1 10 10v0a10 10 0 0 0 10 10"></path>
<path d="M41 721 h20"></path>
<g>
<path d="M61 721 h0"></path>
<path d="M177 721 h0"></path>
<rect x="61" y="710" width="116" height="22" ></rect>
<text x="119" y="725">namedWindows</text>
</g>
<path d="M177 721 h20"></path>
</g>
<g>
<path d="M197 721 h0"></path>
<path d="M457 721 h0"></path>
<path d="M197 721 a10 10 0 0 0 10 -10v0a10 10 0 0 1 10 -10"></path>
<g>
<path d="M217 701 h220"></path>
</g>
<path d="M437 701 a10 10 0 0 1 10 10v0a10 10 0 0 0 10 10"></path>
<path d="M197 721 h20"></path>
<g>
<path d="M217 721 h0"></path>
<path d="M437 721 h0"></path>
<path d="M217 721 h10"></path>
<g>
<path d="M227 721 h0"></path>
<path d="M287 721 h0"></path>
<rect x="227" y="710" width="60" height="22"  rx="10" ry="10"></rect>
<text x="257" y="725">LIMIT</text>
</g>
<path d="M287 721 h10"></path>
<g>
<path d="M297 721 h0"></path>
<path d="M437 721 h0"></path>
<path d="M297 721 h20"></path>
<g>
<path d="M317 721 h28"></path>
<path d="M389 721 h28"></path>
<rect x="345" y="710" width="44" height="22"  rx="10" ry="10"></rect>
<text x="367" y="725">ALL</text>
</g>
<path d="M417 721 h20"></path>
<path d="M297 721 a10 10 0 0 1 10 10v10a10 10 0 0 0 10 10"></path>
<g>
<path d="M317 751 h0"></path>
<path d="M417 751 h0"></path>
<rect x="317" y="740" width="100" height="22" ></rect>
<text x="367" y="755">expression</text>
</g>
<path d="M417 751 a10 10 0 0 0 10 -10v-10a10 10 0 0 1 10 -10"></path>
</g>
</g>
<path d="M437 721 h20"></path>
</g>
</g>
<path d="M457 721  h 20 m -10 -10 v 20 m 10 -20 v 20"></path>
</g>
</svg>
