<?xml version="1.0" standalone="no"?>
<!DOCTYPE svg PUBLIC "-//W3C//DTD SVG 1.1//EN"
  "http://www.w3.org/Graphics/SVG/1.1/DTD/svg11.dtd">

<svg xmlns="http://www.w3.org/2000/svg" version="1.1" class="railroad-diagram" width="1045" height="882" viewBox="0 0 1045 882">

<defs><style type="text/css"><![CDATA[ svg.railroad-diagram {
  background-color: #ffffff;
}
svg.railroad-diagram path {
  stroke-width: 2;
  stroke: #5a6872;
  fill: none;
}
svg.railroad-diagram text {
  font-size: 14px;
  font-family: 'ibm-plex-mono', 'Menlo', 'DejaVu Sans Mono', 'Bitstream Vera Sans Mono', Courier, monospace;
  color: #152935;
  text-anchor: middle;
  cursor: pointer;
}
svg.railroad-diagram text.label {
  text-anchor: start;
}
svg.railroad-diagram text.comment {
  font-size: 12px;
}
svg.railroad-diagram rect {
  stroke-width: 2;
  stroke:  #5a6872;
  fill: #5aaafa;
}
 ]]></style></defs>

<g transform="translate(.5 .5)">
<path d="M 20 41 v 20 m 10 -20 v 20 m -10 -10 h 20.5"></path>
<g>
<path d="M40 51h0"></path>
<path d="M1004 51h0"></path>
<path d="M40 51h20"></path>
<g>
<path d="M60 51h44"></path>
<path d="M940 51h44"></path>
<path d="M104 51h10"></path>
<g>
<path d="M114 51h0"></path>
<path d="M238 51h0"></path>
<rect x="114" y="40" width="124" height="22"></rect>
<text x="176" y="55">qualifiedName</text>
</g>
<path d="M238 51h10"></path>
<path d="M248 51h10"></path>
<g>
<path d="M258 51h0"></path>
<path d="M286 51h0"></path>
<rect x="258" y="40" width="28" height="22" rx="10" ry="10"></rect>
<text x="272" y="55">(</text>
</g>
<path d="M286 51h10"></path>
<g>
<path d="M296 51h0"></path>
<path d="M660 51h0"></path>
<path d="M296 51a10 10 0 0 0 10 -10v-9a10 10 0 0 1 10 -10"></path>
<g>
<path d="M316 22h324"></path>
</g>
<path d="M640 22a10 10 0 0 1 10 10v9a10 10 0 0 0 10 10"></path>
<path d="M296 51h20"></path>
<g>
<path d="M316 51h0"></path>
<path d="M640 51h0"></path>
<g>
<path d="M316 51h0"></path>
<path d="M480 51h0"></path>
<path d="M316 51a10 10 0 0 0 10 -10v0a10 10 0 0 1 10 -10"></path>
<g>
<path d="M336 31h124"></path>
</g>
<path d="M460 31a10 10 0 0 1 10 10v0a10 10 0 0 0 10 10"></path>
<path d="M316 51h20"></path>
<g>
<path d="M336 51h0"></path>
<path d="M460 51h0"></path>
<path d="M336 51h20"></path>
<g>
<path d="M356 51h0"></path>
<path d="M440 51h0"></path>
<rect x="356" y="40" width="84" height="22" rx="10" ry="10"></rect>
<text x="398" y="55">DISTINCT</text>
</g>
<path d="M440 51h20"></path>
<path d="M336 51a10 10 0 0 1 10 10v10a10 10 0 0 0 10 10"></path>
<g>
<path d="M356 81h20"></path>
<path d="M420 81h20"></path>
<rect x="376" y="70" width="44" height="22" rx="10" ry="10"></rect>
<text x="398" y="85">ALL</text>
</g>
<path d="M440 81a10 10 0 0 0 10 -10v-10a10 10 0 0 1 10 -10"></path>
</g>
<path d="M460 51h20"></path>
</g>
<path d="M480 51h10"></path>
<g>
<path d="M490 51h0"></path>
<path d="M630 51h0"></path>
<path d="M490 51h10"></path>
<g>
<path d="M500 51h0"></path>
<path d="M620 51h0"></path>
<path d="M500 51h10"></path>
<g>
<path d="M510 51h0"></path>
<path d="M610 51h0"></path>
<rect x="510" y="40" width="100" height="22"></rect>
<text x="560" y="55">expression</text>
</g>
<path d="M610 51h10"></path>
</g>
<path d="M620 51h10"></path>
<path d="M500 51a10 10 0 0 0 -10 10v10a10 10 0 0 0 10 10"></path>
<g>
<path d="M500 81h36"></path>
<path d="M584 81h36"></path>
<path d="M536 81h10"></path>
<g>
<path d="M546 81h0"></path>
<path d="M574 81h0"></path>
<rect x="546" y="70" width="28" height="22" rx="10" ry="10"></rect>
<text x="560" y="85">,</text>
</g>
<path d="M574 81h10"></path>
</g>
<path d="M620 81a10 10 0 0 0 10 -10v-10a10 10 0 0 0 -10 -10"></path>
</g>
<path d="M630 51h10"></path>
</g>
<path d="M640 51h20"></path>
</g>
<path d="M660 51h10"></path>
<g>
<path d="M670 51h0"></path>
<path d="M698 51h0"></path>
<rect x="670" y="40" width="28" height="22" rx="10" ry="10"></rect>
<text x="684" y="55">)</text>
</g>
<path d="M698 51h10"></path>
<g>
<path d="M708 51h0"></path>
<path d="M940 51h0"></path>
<path d="M708 51a10 10 0 0 0 10 -10v0a10 10 0 0 1 10 -10"></path>
<g>
<path d="M728 31h192"></path>
</g>
<path d="M920 31a10 10 0 0 1 10 10v0a10 10 0 0 0 10 10"></path>
<path d="M708 51h20"></path>
<g>
<path d="M728 51h0"></path>
<path d="M920 51h0"></path>
<path d="M728 51h10"></path>
<g>
<path d="M738 51h0"></path>
<path d="M790 51h0"></path>
<rect x="738" y="40" width="52" height="22" rx="10" ry="10"></rect>
<text x="764" y="55">OVER</text>
</g>
<path d="M790 51h10"></path>
<path d="M800 51h10"></path>
<g>
<path d="M810 51h0"></path>
<path d="M910 51h0"></path>
<rect x="810" y="40" width="100" height="22"></rect>
<text x="860" y="55">windowSpec</text>
</g>
<path d="M910 51h10"></path>
</g>
<path d="M920 51h20"></path>
</g>
</g>
<path d="M984 51h20"></path>
<path d="M40 51a10 10 0 0 1 10 10v40a10 10 0 0 0 10 10"></path>
<g>
<path d="M60 111h140"></path>
<path d="M844 111h140"></path>
<path d="M200 111h10"></path>
<g>
<path d="M210 111h0"></path>
<path d="M262 111h0"></path>
<rect x="210" y="100" width="52" height="22" rx="10" ry="10"></rect>
<text x="236" y="115">TRIM</text>
</g>
<path d="M262 111h10"></path>
<path d="M272 111h10"></path>
<g>
<path d="M282 111h0"></path>
<path d="M310 111h0"></path>
<rect x="282" y="100" width="28" height="22" rx="10" ry="10"></rect>
<text x="296" y="115">(</text>
</g>
<path d="M310 111h10"></path>
<g>
<path d="M320 111h0"></path>
<path d="M796 111h0"></path>
<path d="M320 111h20"></path>
<g>
<path d="M340 111h0"></path>
<path d="M776 111h0"></path>
<g>
<path d="M340 111h0"></path>
<path d="M464 111h0"></path>
<path d="M340 111h20"></path>
<g>
<path d="M360 111h16"></path>
<path d="M428 111h16"></path>
<rect x="376" y="100" width="52" height="22" rx="10" ry="10"></rect>
<text x="402" y="115">BOTH</text>
</g>
<path d="M444 111h20"></path>
<path d="M340 111a10 10 0 0 1 10 10v10a10 10 0 0 0 10 10"></path>
<g>
<path d="M360 141h4"></path>
<path d="M440 141h4"></path>
<rect x="364" y="130" width="76" height="22" rx="10" ry="10"></rect>
<text x="402" y="145">LEADING</text>
</g>
<path d="M444 141a10 10 0 0 0 10 -10v-10a10 10 0 0 1 10 -10"></path>
<path d="M340 111a10 10 0 0 1 10 10v40a10 10 0 0 0 10 10"></path>
<g>
<path d="M360 171h0"></path>
<path d="M444 171h0"></path>
<rect x="360" y="160" width="84" height="22" rx="10" ry="10"></rect>
<text x="402" y="175">TRAILING</text>
</g>
<path d="M444 171a10 10 0 0 0 10 -10v-40a10 10 0 0 1 10 -10"></path>
</g>
<path d="M464 111h10"></path>
<g>
<path d="M474 111h0"></path>
<path d="M574 111h0"></path>
<rect x="474" y="100" width="100" height="22"></rect>
<text x="524" y="115">expression</text>
</g>
<path d="M574 111h10"></path>
<path d="M584 111h10"></path>
<g>
<path d="M594 111h0"></path>
<path d="M646 111h0"></path>
<rect x="594" y="100" width="52" height="22" rx="10" ry="10"></rect>
<text x="620" y="115">FROM</text>
</g>
<path d="M646 111h10"></path>
<path d="M656 111h10"></path>
<g>
<path d="M666 111h0"></path>
<path d="M766 111h0"></path>
<rect x="666" y="100" width="100" height="22"></rect>
<text x="716" y="115">expression</text>
</g>
<path d="M766 111h10"></path>
</g>
<path d="M776 111h20"></path>
<path d="M320 111a10 10 0 0 1 10 10v80a10 10 0 0 0 10 10"></path>
<g>
<path d="M340 211h54"></path>
<path d="M722 211h54"></path>
<path d="M394 211h10"></path>
<g>
<path d="M404 211h0"></path>
<path d="M504 211h0"></path>
<rect x="404" y="200" width="100" height="22"></rect>
<text x="454" y="215">expression</text>
</g>
<path d="M504 211h10"></path>
<g>
<path d="M514 211h0"></path>
<path d="M722 211h0"></path>
<path d="M514 211a10 10 0 0 0 10 -10v0a10 10 0 0 1 10 -10"></path>
<g>
<path d="M534 191h168"></path>
</g>
<path d="M702 191a10 10 0 0 1 10 10v0a10 10 0 0 0 10 10"></path>
<path d="M514 211h20"></path>
<g>
<path d="M534 211h0"></path>
<path d="M702 211h0"></path>
<path d="M534 211h10"></path>
<g>
<path d="M544 211h0"></path>
<path d="M572 211h0"></path>
<rect x="544" y="200" width="28" height="22" rx="10" ry="10"></rect>
<text x="558" y="215">,</text>
</g>
<path d="M572 211h10"></path>
<path d="M582 211h10"></path>
<g>
<path d="M592 211h0"></path>
<path d="M692 211h0"></path>
<rect x="592" y="200" width="100" height="22"></rect>
<text x="642" y="215">expression</text>
</g>
<path d="M692 211h10"></path>
</g>
<path d="M702 211h20"></path>
</g>
</g>
<path d="M776 211a10 10 0 0 0 10 -10v-80a10 10 0 0 1 10 -10"></path>
</g>
<path d="M796 111h10"></path>
<g>
<path d="M806 111h0"></path>
<path d="M834 111h0"></path>
<rect x="806" y="100" width="28" height="22" rx="10" ry="10"></rect>
<text x="820" y="115">)</text>
</g>
<path d="M834 111h10"></path>
</g>
<path d="M984 111a10 10 0 0 0 10 -10v-40a10 10 0 0 1 10 -10"></path>
<path d="M40 51a10 10 0 0 1 10 10v170a10 10 0 0 0 10 10"></path>
<g>
<path d="M60 241h94"></path>
<path d="M890 241h94"></path>
<path d="M154 241h10"></path>
<g>
<path d="M164 241h0"></path>
<path d="M248 241h0"></path>
<rect x="164" y="230" width="84" height="22" rx="10" ry="10"></rect>
<text x="206" y="245">POSITION</text>
</g>
<path d="M248 241h10"></path>
<path d="M258 241h10"></path>
<g>
<path d="M268 241h0"></path>
<path d="M296 241h0"></path>
<rect x="268" y="230" width="28" height="22" rx="10" ry="10"></rect>
<text x="282" y="245">(</text>
</g>
<path d="M296 241h10"></path>
<g>
<path d="M306 241h0"></path>
<path d="M842 241h0"></path>
<path d="M306 241h20"></path>
<g>
<path d="M326 241h60"></path>
<path d="M762 241h60"></path>
<path d="M386 241h10"></path>
<g>
<path d="M396 241h0"></path>
<path d="M536 241h0"></path>
<rect x="396" y="230" width="140" height="22"></rect>
<text x="466" y="245">valueExpression</text>
</g>
<path d="M536 241h10"></path>
<path d="M546 241h10"></path>
<g>
<path d="M556 241h0"></path>
<path d="M592 241h0"></path>
<rect x="556" y="230" width="36" height="22" rx="10" ry="10"></rect>
<text x="574" y="245">IN</text>
</g>
<path d="M592 241h10"></path>
<path d="M602 241h10"></path>
<g>
<path d="M612 241h0"></path>
<path d="M752 241h0"></path>
<rect x="612" y="230" width="140" height="22"></rect>
<text x="682" y="245">valueExpression</text>
</g>
<path d="M752 241h10"></path>
</g>
<path d="M822 241h20"></path>
<path d="M306 241a10 10 0 0 1 10 10v20a10 10 0 0 0 10 10"></path>
<g>
<path d="M326 281h0"></path>
<path d="M822 281h0"></path>
<path d="M326 281h10"></path>
<g>
<path d="M336 281h0"></path>
<path d="M436 281h0"></path>
<rect x="336" y="270" width="100" height="22"></rect>
<text x="386" y="285">expression</text>
</g>
<path d="M436 281h10"></path>
<path d="M446 281h10"></path>
<g>
<path d="M456 281h0"></path>
<path d="M484 281h0"></path>
<rect x="456" y="270" width="28" height="22" rx="10" ry="10"></rect>
<text x="470" y="285">,</text>
</g>
<path d="M484 281h10"></path>
<path d="M494 281h10"></path>
<g>
<path d="M504 281h0"></path>
<path d="M604 281h0"></path>
<rect x="504" y="270" width="100" height="22"></rect>
<text x="554" y="285">expression</text>
</g>
<path d="M604 281h10"></path>
<g>
<path d="M614 281h0"></path>
<path d="M822 281h0"></path>
<path d="M614 281a10 10 0 0 0 10 -10v0a10 10 0 0 1 10 -10"></path>
<g>
<path d="M634 261h168"></path>
</g>
<path d="M802 261a10 10 0 0 1 10 10v0a10 10 0 0 0 10 10"></path>
<path d="M614 281h20"></path>
<g>
<path d="M634 281h0"></path>
<path d="M802 281h0"></path>
<path d="M634 281h10"></path>
<g>
<path d="M644 281h0"></path>
<path d="M672 281h0"></path>
<rect x="644" y="270" width="28" height="22" rx="10" ry="10"></rect>
<text x="658" y="285">,</text>
</g>
<path d="M672 281h10"></path>
<path d="M682 281h10"></path>
<g>
<path d="M692 281h0"></path>
<path d="M792 281h0"></path>
<rect x="692" y="270" width="100" height="22"></rect>
<text x="742" y="285">expression</text>
</g>
<path d="M792 281h10"></path>
</g>
<path d="M802 281h20"></path>
</g>
</g>
<path d="M822 281a10 10 0 0 0 10 -10v-20a10 10 0 0 1 10 -10"></path>
</g>
<path d="M842 241h10"></path>
<g>
<path d="M852 241h0"></path>
<path d="M880 241h0"></path>
<rect x="852" y="230" width="28" height="22" rx="10" ry="10"></rect>
<text x="866" y="245">)</text>
</g>
<path d="M880 241h10"></path>
</g>
<path d="M984 241a10 10 0 0 0 10 -10v-170a10 10 0 0 1 10 -10"></path>
<path d="M40 51a10 10 0 0 1 10 10v250a10 10 0 0 0 10 10"></path>
<g>
<path d="M60 321h162"></path>
<path d="M822 321h162"></path>
<path d="M222 321h10"></path>
<g>
<path d="M232 321h0"></path>
<path d="M292 321h0"></path>
<rect x="232" y="310" width="60" height="22" rx="10" ry="10"></rect>
<text x="262" y="325">FIRST</text>
</g>
<path d="M292 321h10"></path>
<path d="M302 321h10"></path>
<g>
<path d="M312 321h0"></path>
<path d="M340 321h0"></path>
<rect x="312" y="310" width="28" height="22" rx="10" ry="10"></rect>
<text x="326" y="325">(</text>
</g>
<path d="M340 321h10"></path>
<g>
<path d="M350 321h0"></path>
<path d="M774 321h0"></path>
<path d="M350 321h20"></path>
<g>
<path d="M370 321h28"></path>
<path d="M726 321h28"></path>
<path d="M398 321h10"></path>
<g>
<path d="M408 321h0"></path>
<path d="M508 321h0"></path>
<rect x="408" y="310" width="100" height="22"></rect>
<text x="458" y="325">expression</text>
</g>
<path d="M508 321h10"></path>
<g>
<path d="M518 321h0"></path>
<path d="M726 321h0"></path>
<path d="M518 321a10 10 0 0 0 10 -10v0a10 10 0 0 1 10 -10"></path>
<g>
<path d="M538 301h168"></path>
</g>
<path d="M706 301a10 10 0 0 1 10 10v0a10 10 0 0 0 10 10"></path>
<path d="M518 321h20"></path>
<g>
<path d="M538 321h0"></path>
<path d="M706 321h0"></path>
<path d="M538 321h10"></path>
<g>
<path d="M548 321h0"></path>
<path d="M616 321h0"></path>
<rect x="548" y="310" width="68" height="22" rx="10" ry="10"></rect>
<text x="582" y="325">IGNORE</text>
</g>
<path d="M616 321h10"></path>
<path d="M626 321h10"></path>
<g>
<path d="M636 321h0"></path>
<path d="M696 321h0"></path>
<rect x="636" y="310" width="60" height="22" rx="10" ry="10"></rect>
<text x="666" y="325">NULLS</text>
</g>
<path d="M696 321h10"></path>
</g>
<path d="M706 321h20"></path>
</g>
</g>
<path d="M754 321h20"></path>
<path d="M350 321a10 10 0 0 1 10 10v20a10 10 0 0 0 10 10"></path>
<g>
<path d="M370 361h0"></path>
<path d="M754 361h0"></path>
<path d="M370 361h10"></path>
<g>
<path d="M380 361h0"></path>
<path d="M480 361h0"></path>
<rect x="380" y="350" width="100" height="22"></rect>
<text x="430" y="365">expression</text>
</g>
<path d="M480 361h10"></path>
<g>
<path d="M490 361h0"></path>
<path d="M754 361h0"></path>
<path d="M490 361a10 10 0 0 0 10 -10v0a10 10 0 0 1 10 -10"></path>
<g>
<path d="M510 341h224"></path>
</g>
<path d="M734 341a10 10 0 0 1 10 10v0a10 10 0 0 0 10 10"></path>
<path d="M490 361h20"></path>
<g>
<path d="M510 361h0"></path>
<path d="M734 361h0"></path>
<path d="M510 361h10"></path>
<g>
<path d="M520 361h0"></path>
<path d="M548 361h0"></path>
<rect x="520" y="350" width="28" height="22" rx="10" ry="10"></rect>
<text x="534" y="365">,</text>
</g>
<path d="M548 361h10"></path>
<path d="M558 361h10"></path>
<g>
<path d="M568 361h0"></path>
<path d="M724 361h0"></path>
<rect x="568" y="350" width="156" height="22"></rect>
<text x="646" y="365">booleanExpression</text>
</g>
<path d="M724 361h10"></path>
</g>
<path d="M734 361h20"></path>
</g>
</g>
<path d="M754 361a10 10 0 0 0 10 -10v-20a10 10 0 0 1 10 -10"></path>
</g>
<path d="M774 321h10"></path>
<g>
<path d="M784 321h0"></path>
<path d="M812 321h0"></path>
<rect x="784" y="310" width="28" height="22" rx="10" ry="10"></rect>
<text x="798" y="325">)</text>
</g>
<path d="M812 321h10"></path>
</g>
<path d="M984 321a10 10 0 0 0 10 -10v-250a10 10 0 0 1 10 -10"></path>
<path d="M40 51a10 10 0 0 1 10 10v330a10 10 0 0 0 10 10"></path>
<g>
<path d="M60 401h166"></path>
<path d="M818 401h166"></path>
<path d="M226 401h10"></path>
<g>
<path d="M236 401h0"></path>
<path d="M288 401h0"></path>
<rect x="236" y="390" width="52" height="22" rx="10" ry="10"></rect>
<text x="262" y="405">LAST</text>
</g>
<path d="M288 401h10"></path>
<path d="M298 401h10"></path>
<g>
<path d="M308 401h0"></path>
<path d="M336 401h0"></path>
<rect x="308" y="390" width="28" height="22" rx="10" ry="10"></rect>
<text x="322" y="405">(</text>
</g>
<path d="M336 401h10"></path>
<g>
<path d="M346 401h0"></path>
<path d="M770 401h0"></path>
<path d="M346 401h20"></path>
<g>
<path d="M366 401h28"></path>
<path d="M722 401h28"></path>
<path d="M394 401h10"></path>
<g>
<path d="M404 401h0"></path>
<path d="M504 401h0"></path>
<rect x="404" y="390" width="100" height="22"></rect>
<text x="454" y="405">expression</text>
</g>
<path d="M504 401h10"></path>
<g>
<path d="M514 401h0"></path>
<path d="M722 401h0"></path>
<path d="M514 401a10 10 0 0 0 10 -10v0a10 10 0 0 1 10 -10"></path>
<g>
<path d="M534 381h168"></path>
</g>
<path d="M702 381a10 10 0 0 1 10 10v0a10 10 0 0 0 10 10"></path>
<path d="M514 401h20"></path>
<g>
<path d="M534 401h0"></path>
<path d="M702 401h0"></path>
<path d="M534 401h10"></path>
<g>
<path d="M544 401h0"></path>
<path d="M612 401h0"></path>
<rect x="544" y="390" width="68" height="22" rx="10" ry="10"></rect>
<text x="578" y="405">IGNORE</text>
</g>
<path d="M612 401h10"></path>
<path d="M622 401h10"></path>
<g>
<path d="M632 401h0"></path>
<path d="M692 401h0"></path>
<rect x="632" y="390" width="60" height="22" rx="10" ry="10"></rect>
<text x="662" y="405">NULLS</text>
</g>
<path d="M692 401h10"></path>
</g>
<path d="M702 401h20"></path>
</g>
</g>
<path d="M750 401h20"></path>
<path d="M346 401a10 10 0 0 1 10 10v20a10 10 0 0 0 10 10"></path>
<g>
<path d="M366 441h0"></path>
<path d="M750 441h0"></path>
<path d="M366 441h10"></path>
<g>
<path d="M376 441h0"></path>
<path d="M476 441h0"></path>
<rect x="376" y="430" width="100" height="22"></rect>
<text x="426" y="445">expression</text>
</g>
<path d="M476 441h10"></path>
<g>
<path d="M486 441h0"></path>
<path d="M750 441h0"></path>
<path d="M486 441a10 10 0 0 0 10 -10v0a10 10 0 0 1 10 -10"></path>
<g>
<path d="M506 421h224"></path>
</g>
<path d="M730 421a10 10 0 0 1 10 10v0a10 10 0 0 0 10 10"></path>
<path d="M486 441h20"></path>
<g>
<path d="M506 441h0"></path>
<path d="M730 441h0"></path>
<path d="M506 441h10"></path>
<g>
<path d="M516 441h0"></path>
<path d="M544 441h0"></path>
<rect x="516" y="430" width="28" height="22" rx="10" ry="10"></rect>
<text x="530" y="445">,</text>
</g>
<path d="M544 441h10"></path>
<path d="M554 441h10"></path>
<g>
<path d="M564 441h0"></path>
<path d="M720 441h0"></path>
<rect x="564" y="430" width="156" height="22"></rect>
<text x="642" y="445">booleanExpression</text>
</g>
<path d="M720 441h10"></path>
</g>
<path d="M730 441h20"></path>
</g>
</g>
<path d="M750 441a10 10 0 0 0 10 -10v-20a10 10 0 0 1 10 -10"></path>
</g>
<path d="M770 401h10"></path>
<g>
<path d="M780 401h0"></path>
<path d="M808 401h0"></path>
<rect x="780" y="390" width="28" height="22" rx="10" ry="10"></rect>
<text x="794" y="405">)</text>
</g>
<path d="M808 401h10"></path>
</g>
<path d="M984 401a10 10 0 0 0 10 -10v-330a10 10 0 0 1 10 -10"></path>
<path d="M40 51a10 10 0 0 1 10 10v410a10 10 0 0 0 10 10"></path>
<g>
<path d="M60 481h262"></path>
<path d="M722 481h262"></path>
<path d="M322 481h10"></path>
<g>
<path d="M332 481h0"></path>
<path d="M400 481h0"></path>
<rect x="332" y="470" width="68" height="22" rx="10" ry="10"></rect>
<text x="366" y="485">STRUCT</text>
</g>
<path d="M400 481h10"></path>
<path d="M410 481h10"></path>
<g>
<path d="M420 481h0"></path>
<path d="M448 481h0"></path>
<rect x="420" y="470" width="28" height="22" rx="10" ry="10"></rect>
<text x="434" y="485">(</text>
</g>
<path d="M448 481h10"></path>
<g>
<path d="M458 481h0"></path>
<path d="M674 481h0"></path>
<path d="M458 481a10 10 0 0 0 10 -10v0a10 10 0 0 1 10 -10"></path>
<g>
<path d="M478 461h176"></path>
</g>
<path d="M654 461a10 10 0 0 1 10 10v0a10 10 0 0 0 10 10"></path>
<path d="M458 481h20"></path>
<g>
<path d="M478 481h0"></path>
<path d="M654 481h0"></path>
<path d="M478 481h10"></path>
<g>
<path d="M488 481h0"></path>
<path d="M644 481h0"></path>
<path d="M488 481h10"></path>
<g>
<path d="M498 481h0"></path>
<path d="M634 481h0"></path>
<path d="M498 481h10"></path>
<g>
<path d="M508 481h0"></path>
<path d="M624 481h0"></path>
<rect x="508" y="470" width="116" height="22"></rect>
<text x="566" y="485">resultColumn</text>
</g>
<path d="M624 481h10"></path>
</g>
<path d="M634 481h10"></path>
<path d="M498 481a10 10 0 0 0 -10 10v10a10 10 0 0 0 10 10"></path>
<g>
<path d="M498 511h44"></path>
<path d="M590 511h44"></path>
<path d="M542 511h10"></path>
<g>
<path d="M552 511h0"></path>
<path d="M580 511h0"></path>
<rect x="552" y="500" width="28" height="22" rx="10" ry="10"></rect>
<text x="566" y="515">,</text>
</g>
<path d="M580 511h10"></path>
</g>
<path d="M634 511a10 10 0 0 0 10 -10v-10a10 10 0 0 0 -10 -10"></path>
</g>
<path d="M644 481h10"></path>
</g>
<path d="M654 481h20"></path>
</g>
<path d="M674 481h10"></path>
<g>
<path d="M684 481h0"></path>
<path d="M712 481h0"></path>
<rect x="684" y="470" width="28" height="22" rx="10" ry="10"></rect>
<text x="698" y="485">)</text>
</g>
<path d="M712 481h10"></path>
</g>
<path d="M984 481a10 10 0 0 0 10 -10v-410a10 10 0 0 1 10 -10"></path>
<path d="M40 51a10 10 0 0 1 10 10v470a10 10 0 0 0 10 10"></path>
<g>
<path d="M60 541h184"></path>
<path d="M800 541h184"></path>
<path d="M244 541h10"></path>
<g>
<path d="M254 541h0"></path>
<path d="M330 541h0"></path>
<rect x="254" y="530" width="76" height="22" rx="10" ry="10"></rect>
<text x="292" y="545">EXTRACT</text>
</g>
<path d="M330 541h10"></path>
<path d="M340 541h10"></path>
<g>
<path d="M350 541h0"></path>
<path d="M378 541h0"></path>
<rect x="350" y="530" width="28" height="22" rx="10" ry="10"></rect>
<text x="364" y="545">(</text>
</g>
<path d="M378 541h10"></path>
<g>
<path d="M388 541h0"></path>
<path d="M520 541h0"></path>
<path d="M388 541h20"></path>
<g>
<path d="M408 541h20"></path>
<path d="M480 541h20"></path>
<rect x="428" y="530" width="52" height="22" rx="10" ry="10"></rect>
<text x="454" y="545">YEAR</text>
</g>
<path d="M500 541h20"></path>
<path d="M388 541a10 10 0 0 1 10 10v10a10 10 0 0 0 10 10"></path>
<g>
<path d="M408 571h8"></path>
<path d="M492 571h8"></path>
<rect x="416" y="560" width="76" height="22" rx="10" ry="10"></rect>
<text x="454" y="575">QUARTER</text>
</g>
<path d="M500 571a10 10 0 0 0 10 -10v-10a10 10 0 0 1 10 -10"></path>
<path d="M388 541a10 10 0 0 1 10 10v40a10 10 0 0 0 10 10"></path>
<g>
<path d="M408 601h16"></path>
<path d="M484 601h16"></path>
<rect x="424" y="590" width="60" height="22" rx="10" ry="10"></rect>
<text x="454" y="605">MONTH</text>
</g>
<path d="M500 601a10 10 0 0 0 10 -10v-40a10 10 0 0 1 10 -10"></path>
<path d="M388 541a10 10 0 0 1 10 10v70a10 10 0 0 0 10 10"></path>
<g>
<path d="M408 631h20"></path>
<path d="M480 631h20"></path>
<rect x="428" y="620" width="52" height="22" rx="10" ry="10"></rect>
<text x="454" y="635">WEEK</text>
</g>
<path d="M500 631a10 10 0 0 0 10 -10v-70a10 10 0 0 1 10 -10"></path>
<path d="M388 541a10 10 0 0 1 10 10v100a10 10 0 0 0 10 10"></path>
<g>
<path d="M408 661h24"></path>
<path d="M476 661h24"></path>
<rect x="432" y="650" width="44" height="22" rx="10" ry="10"></rect>
<text x="454" y="665">DAY</text>
</g>
<path d="M500 661a10 10 0 0 0 10 -10v-100a10 10 0 0 1 10 -10"></path>
<path d="M388 541a10 10 0 0 1 10 10v130a10 10 0 0 0 10 10"></path>
<g>
<path d="M408 691h0"></path>
<path d="M500 691h0"></path>
<rect x="408" y="680" width="92" height="22" rx="10" ry="10"></rect>
<text x="454" y="695">DAYOFWEEK</text>
</g>
<path d="M500 691a10 10 0 0 0 10 -10v-130a10 10 0 0 1 10 -10"></path>
<path d="M388 541a10 10 0 0 1 10 10v160a10 10 0 0 0 10 10"></path>
<g>
<path d="M408 721h20"></path>
<path d="M480 721h20"></path>
<rect x="428" y="710" width="52" height="22" rx="10" ry="10"></rect>
<text x="454" y="725">HOUR</text>
</g>
<path d="M500 721a10 10 0 0 0 10 -10v-160a10 10 0 0 1 10 -10"></path>
<path d="M388 541a10 10 0 0 1 10 10v190a10 10 0 0 0 10 10"></path>
<g>
<path d="M408 751h12"></path>
<path d="M488 751h12"></path>
<rect x="420" y="740" width="68" height="22" rx="10" ry="10"></rect>
<text x="454" y="755">MINUTE</text>
</g>
<path d="M500 751a10 10 0 0 0 10 -10v-190a10 10 0 0 1 10 -10"></path>
<path d="M388 541a10 10 0 0 1 10 10v220a10 10 0 0 0 10 10"></path>
<g>
<path d="M408 781h12"></path>
<path d="M488 781h12"></path>
<rect x="420" y="770" width="68" height="22" rx="10" ry="10"></rect>
<text x="454" y="785">SECOND</text>
</g>
<path d="M500 781a10 10 0 0 0 10 -10v-220a10 10 0 0 1 10 -10"></path>
</g>
<path d="M520 541h10"></path>
<g>
<path d="M530 541h0"></path>
<path d="M582 541h0"></path>
<rect x="530" y="530" width="52" height="22" rx="10" ry="10"></rect>
<text x="556" y="545">FROM</text>
</g>
<path d="M582 541h10"></path>
<path d="M592 541h10"></path>
<g>
<path d="M602 541h0"></path>
<path d="M742 541h0"></path>
<rect x="602" y="530" width="140" height="22"></rect>
<text x="672" y="545">valueExpression</text>
</g>
<path d="M742 541h10"></path>
<path d="M752 541h10"></path>
<g>
<path d="M762 541h0"></path>
<path d="M790 541h0"></path>
<rect x="762" y="530" width="28" height="22" rx="10" ry="10"></rect>
<text x="776" y="545">)</text>
</g>
<path d="M790 541h10"></path>
</g>
<path d="M984 541a10 10 0 0 0 10 -10v-470a10 10 0 0 1 10 -10"></path>
<path d="M40 51a10 10 0 0 1 10 10v750a10 10 0 0 0 10 10"></path>
<g>
<path d="M60 821h0"></path>
<path d="M984 821h0"></path>
<g>
<path d="M60 821h0"></path>
<path d="M192 821h0"></path>
<path d="M60 821h20"></path>
<g>
<path d="M80 821h12"></path>
<path d="M160 821h12"></path>
<rect x="92" y="810" width="68" height="22" rx="10" ry="10"></rect>
<text x="126" y="825">SUBSTR</text>
</g>
<path d="M172 821h20"></path>
<path d="M60 821a10 10 0 0 1 10 10v10a10 10 0 0 0 10 10"></path>
<g>
<path d="M80 851h0"></path>
<path d="M172 851h0"></path>
<rect x="80" y="840" width="92" height="22" rx="10" ry="10"></rect>
<text x="126" y="855">SUBSTRING</text>
</g>
<path d="M172 851a10 10 0 0 0 10 -10v-10a10 10 0 0 1 10 -10"></path>
</g>
<path d="M192 821h10"></path>
<g>
<path d="M202 821h0"></path>
<path d="M230 821h0"></path>
<rect x="202" y="810" width="28" height="22" rx="10" ry="10"></rect>
<text x="216" y="825">(</text>
</g>
<path d="M230 821h10"></path>
<path d="M240 821h10"></path>
<g>
<path d="M250 821h0"></path>
<path d="M390 821h0"></path>
<rect x="250" y="810" width="140" height="22"></rect>
<text x="320" y="825">valueExpression</text>
</g>
<path d="M390 821h10"></path>
<g>
<path d="M400 821h0"></path>
<path d="M492 821h0"></path>
<path d="M400 821h20"></path>
<g>
<path d="M420 821h0"></path>
<path d="M472 821h0"></path>
<rect x="420" y="810" width="52" height="22" rx="10" ry="10"></rect>
<text x="446" y="825">FROM</text>
</g>
<path d="M472 821h20"></path>
<path d="M400 821a10 10 0 0 1 10 10v10a10 10 0 0 0 10 10"></path>
<g>
<path d="M420 851h12"></path>
<path d="M460 851h12"></path>
<rect x="432" y="840" width="28" height="22" rx="10" ry="10"></rect>
<text x="446" y="855">,</text>
</g>
<path d="M472 851a10 10 0 0 0 10 -10v-10a10 10 0 0 1 10 -10"></path>
</g>
<path d="M492 821h10"></path>
<g>
<path d="M502 821h0"></path>
<path d="M642 821h0"></path>
<rect x="502" y="810" width="140" height="22"></rect>
<text x="572" y="825">valueExpression</text>
</g>
<path d="M642 821h10"></path>
<g>
<path d="M652 821h0"></path>
<path d="M936 821h0"></path>
<path d="M652 821a10 10 0 0 0 10 -10v0a10 10 0 0 1 10 -10"></path>
<g>
<path d="M672 801h244"></path>
</g>
<path d="M916 801a10 10 0 0 1 10 10v0a10 10 0 0 0 10 10"></path>
<path d="M652 821h20"></path>
<g>
<path d="M672 821h0"></path>
<path d="M916 821h0"></path>
<g>
<path d="M672 821h0"></path>
<path d="M756 821h0"></path>
<path d="M672 821h20"></path>
<g>
<path d="M692 821h0"></path>
<path d="M736 821h0"></path>
<rect x="692" y="810" width="44" height="22" rx="10" ry="10"></rect>
<text x="714" y="825">FOR</text>
</g>
<path d="M736 821h20"></path>
<path d="M672 821a10 10 0 0 1 10 10v10a10 10 0 0 0 10 10"></path>
<g>
<path d="M692 851h8"></path>
<path d="M728 851h8"></path>
<rect x="700" y="840" width="28" height="22" rx="10" ry="10"></rect>
<text x="714" y="855">,</text>
</g>
<path d="M736 851a10 10 0 0 0 10 -10v-10a10 10 0 0 1 10 -10"></path>
</g>
<path d="M756 821h10"></path>
<g>
<path d="M766 821h0"></path>
<path d="M906 821h0"></path>
<rect x="766" y="810" width="140" height="22"></rect>
<text x="836" y="825">valueExpression</text>
</g>
<path d="M906 821h10"></path>
</g>
<path d="M916 821h20"></path>
</g>
<path d="M936 821h10"></path>
<g>
<path d="M946 821h0"></path>
<path d="M974 821h0"></path>
<rect x="946" y="810" width="28" height="22" rx="10" ry="10"></rect>
<text x="960" y="825">)</text>
</g>
<path d="M974 821h10"></path>
</g>
<path d="M984 821a10 10 0 0 0 10 -10v-750a10 10 0 0 1 10 -10"></path>
</g>
<path d="M 1004 51 h 20 m -10 -10 v 20 m 10 -20 v 20"></path>
</g>
</svg>
