<?xml version="1.0" standalone="no"?>
<!DOCTYPE svg PUBLIC "-//W3C//DTD SVG 1.1//EN"
  "http://www.w3.org/Graphics/SVG/1.1/DTD/svg11.dtd">

<svg xmlns="http://www.w3.org/2000/svg" version="1.1" class="railroad-diagram"  width="591" height="327" viewBox="0 0 591 327" >
<defs><style type="text/css"><![CDATA[ svg.railroad-diagram {
  background-color: #ffffff;
}
svg.railroad-diagram path {
  stroke-width: 2;
  stroke: #5a6872;
  fill: none;
}
svg.railroad-diagram text {
  font-size: 14px;
  font-family: 'ibm-plex-mono', 'Menlo', 'DejaVu Sans Mono', 'Bitstream Vera Sans Mono', Courier, monospace;
  color: #152935;
  text-anchor: middle;
  cursor: pointer;
}
svg.railroad-diagram text.label {
  text-anchor: start;
}
svg.railroad-diagram text.comment {
  font-size: 12px;
}
svg.railroad-diagram rect {
  stroke-width: 2;
  stroke:  #5a6872;
  fill: #5aaafa;
}
 ]]></style></defs>

<g transform="translate(.5 .5)">
<path d="M20 31  v 20 m 10 -20 v 20 m -10 -10 h 20.5"></path>
<g>
<path d="M40 41 h0"></path>
<path d="M952 41 h0"></path>
<path d="M40 41 h10"></path>
<g>
<path d="M50 41 h0"></path>
<path d="M110 41 h0"></path>
<rect x="50" y="30" width="60" height="22"  rx="10" ry="10"></rect>
<text x="80" y="45">GROUP</text>
</g>
<path d="M110 41 h10"></path>
<path d="M120 41 h10"></path>
<g>
<path d="M130 41 h0"></path>
<path d="M166 41 h0"></path>
<rect x="130" y="30" width="36" height="22"  rx="10" ry="10"></rect>
<text x="148" y="45">BY</text>
</g>
<path d="M166 41 h10"></path>
<path d="M176 41 h10"></path>
<g>
<path d="M186 41 h0"></path>
<path d="M326 41 h0"></path>
<path d="M186 41 h10"></path>
<g>
<path d="M196 41 h0"></path>
<path d="M316 41 h0"></path>
<path d="M196 41 h10"></path>
<g>
<path d="M206 41 h0"></path>
<path d="M306 41 h0"></path>
<rect x="206" y="30" width="100" height="22" ></rect>
<text x="256" y="45">expression</text>
</g>
<path d="M306 41 h10"></path>
</g>
<path d="M316 41 h10"></path>
<path d="M196 41 a10 10 0 0 0 -10 10v10a10 10 0 0 0 10 10"></path>
<g>
<path d="M196 71 h36"></path>
<path d="M280 71 h36"></path>
<path d="M232 71 h10"></path>
<g>
<path d="M242 71 h0"></path>
<path d="M270 71 h0"></path>
<rect x="242" y="60" width="28" height="22"  rx="10" ry="10"></rect>
<text x="256" y="75">,</text>
</g>
<path d="M270 71 h10"></path>
</g>
<path d="M316 71 a10 10 0 0 0 10 -10v-10a10 10 0 0 0 -10 -10"></path>
</g>
<path d="M326 41 h10"></path>
<path d="M336 41 h10"></path>
<g id="eol">
<path d="M346 41 h0"></path>
<path d="M346 41 a 10 10 0 0 1 10 10 V 90 a 10 10 0 0 1 -10 10 h -315 a 10 10 0 0 0 -10 10 V 135 a 10 10 0 0 0 10 10"></path>
<path d="M346 41 h0"></path>
<path d="M346 41 h0"></path>
</g>
<path d="M31 145 h10"></path>
<g>
<path d="M41 145 h0"></path>
<path d="M561 145 h0"></path>
<path d="M41 145 a10 10 0 0 0 10 -10v0a10 10 0 0 1 10 -10"></path>
<g>
<path d="M61 125 h480"></path>
</g>
<path d="M541 125 a10 10 0 0 1 10 10v0a10 10 0 0 0 10 10"></path>
<path d="M41 145 h20"></path>
<g>
<path d="M61 145 h0"></path>
<path d="M541 145 h0"></path>
<path d="M61 145 h20"></path>
<g>
<path d="M81 145 h140"></path>
<path d="M381 145 h140"></path>
<path d="M221 145 h10"></path>
<g>
<path d="M231 145 h0"></path>
<path d="M283 145 h0"></path>
<rect x="231" y="134" width="52" height="22"  rx="10" ry="10"></rect>
<text x="257" y="149">WITH</text>
</g>
<path d="M283 145 h10"></path>
<path d="M293 145 h10"></path>
<g>
<path d="M303 145 h0"></path>
<path d="M371 145 h0"></path>
<rect x="303" y="134" width="68" height="22"  rx="10" ry="10"></rect>
<text x="337" y="149">ROLLUP</text>
</g>
<path d="M371 145 h10"></path>
</g>
<path d="M521 145 h20"></path>
<path d="M61 145 a10 10 0 0 1 10 10v10a10 10 0 0 0 10 10"></path>
<g>
<path d="M81 175 h148"></path>
<path d="M373 175 h148"></path>
<path d="M229 175 h10"></path>
<g>
<path d="M239 175 h0"></path>
<path d="M291 175 h0"></path>
<rect x="239" y="164" width="52" height="22"  rx="10" ry="10"></rect>
<text x="265" y="179">WITH</text>
</g>
<path d="M291 175 h10"></path>
<path d="M301 175 h10"></path>
<g>
<path d="M311 175 h0"></path>
<path d="M363 175 h0"></path>
<rect x="311" y="164" width="52" height="22"  rx="10" ry="10"></rect>
<text x="337" y="179">CUBE</text>
</g>
<path d="M363 175 h10"></path>
</g>
<path d="M521 175 a10 10 0 0 0 10 -10v-10a10 10 0 0 1 10 -10"></path>
<path d="M61 145 a10 10 0 0 1 10 10v40a10 10 0 0 0 10 10"></path>
<g>
<path d="M81 205 h0"></path>
<path d="M521 205 h0"></path>
<path d="M81 205 h10"></path>
<g>
<path d="M91 205 h0"></path>
<path d="M175 205 h0"></path>
<rect x="91" y="194" width="84" height="22"  rx="10" ry="10"></rect>
<text x="133" y="209">GROUPING</text>
</g>
<path d="M175 205 h10"></path>
<path d="M185 205 h10"></path>
<g>
<path d="M195 205 h0"></path>
<path d="M247 205 h0"></path>
<rect x="195" y="194" width="52" height="22"  rx="10" ry="10"></rect>
<text x="221" y="209">SETS</text>
</g>
<path d="M247 205 h10"></path>
<path d="M257 205 h10"></path>
<g>
<path d="M267 205 h0"></path>
<path d="M295 205 h0"></path>
<rect x="267" y="194" width="28" height="22"  rx="10" ry="10"></rect>
<text x="281" y="209">(</text>
</g>
<path d="M295 205 h10"></path>
<path d="M305 205 h10"></path>
<g>
<path d="M315 205 h0"></path>
<path d="M463 205 h0"></path>
<path d="M315 205 h10"></path>
<g>
<path d="M325 205 h0"></path>
<path d="M453 205 h0"></path>
<path d="M325 205 h10"></path>
<g>
<path d="M335 205 h0"></path>
<path d="M443 205 h0"></path>
<rect x="335" y="194" width="108" height="22" ></rect>
<text x="389" y="209">groupingSet</text>
</g>
<path d="M443 205 h10"></path>
</g>
<path d="M453 205 h10"></path>
<path d="M325 205 a10 10 0 0 0 -10 10v10a10 10 0 0 0 10 10"></path>
<g>
<path d="M325 235 h40"></path>
<path d="M413 235 h40"></path>
<path d="M365 235 h10"></path>
<g>
<path d="M375 235 h0"></path>
<path d="M403 235 h0"></path>
<rect x="375" y="224" width="28" height="22"  rx="10" ry="10"></rect>
<text x="389" y="239">,</text>
</g>
<path d="M403 235 h10"></path>
</g>
<path d="M453 235 a10 10 0 0 0 10 -10v-10a10 10 0 0 0 -10 -10"></path>
</g>
<path d="M463 205 h10"></path>
<path d="M473 205 h10"></path>
<g>
<path d="M483 205 h0"></path>
<path d="M511 205 h0"></path>
<rect x="483" y="194" width="28" height="22"  rx="10" ry="10"></rect>
<text x="497" y="209">)</text>
</g>
<path d="M511 205 h10"></path>
</g>
<path d="M521 205 a10 10 0 0 0 10 -10v-40a10 10 0 0 1 10 -10"></path>
</g>
<path d="M541 145 h20"></path>
</g>
</g>
<path d="M561 145  h 20 m -10 -10 v 20 m 10 -20 v 20"></path>
</g>
</svg>
