<?xml version="1.0" standalone="no"?>
<!DOCTYPE svg PUBLIC "-//W3C//DTD SVG 1.1//EN"
  "http://www.w3.org/Graphics/SVG/1.1/DTD/svg11.dtd">

<svg xmlns="http://www.w3.org/2000/svg" version="1.1" class="railroad-diagram" width="417" height="132" viewBox="0 0 417 132">

<defs><style type="text/css"><![CDATA[ svg.railroad-diagram {
  background-color: #ffffff;
}
svg.railroad-diagram path {
  stroke-width: 2;
  stroke: #5a6872;
  fill: none;
}
svg.railroad-diagram text {
  font-size: 14px;
  font-family: 'ibm-plex-mono', 'Menlo', 'DejaVu Sans Mono', 'Bitstream Vera Sans Mono', Courier, monospace;
  color: #152935;
  text-anchor: middle;
  cursor: pointer;
}
svg.railroad-diagram text.label {
  text-anchor: start;
}
svg.railroad-diagram text.comment {
  font-size: 12px;
}
svg.railroad-diagram rect {
  stroke-width: 2;
  stroke:  #5a6872;
  fill: #5aaafa;
}
 ]]></style></defs>

<g transform="translate(.5 .5)">
<path d="M 20 31 v 20 m 10 -20 v 20 m -10 -10 h 20.5"></path>
<g>
<path d="M40 41h0"></path>
<path d="M376 41h0"></path>
<path d="M40 41h20"></path>
<g>
<path d="M60 41h0"></path>
<path d="M356 41h0"></path>
<path d="M60 41h10"></path>
<g>
<path d="M70 41h0"></path>
<path d="M98 41h0"></path>
<rect x="70" y="30" width="28" height="22" rx="10" ry="10"></rect>
<text x="84" y="45">(</text>
</g>
<path d="M98 41h10"></path>
<g>
<path d="M108 41h0"></path>
<path d="M308 41h0"></path>
<path d="M108 41a10 10 0 0 0 10 -10v0a10 10 0 0 1 10 -10"></path>
<g>
<path d="M128 21h160"></path>
</g>
<path d="M288 21a10 10 0 0 1 10 10v0a10 10 0 0 0 10 10"></path>
<path d="M108 41h20"></path>
<g>
<path d="M128 41h0"></path>
<path d="M288 41h0"></path>
<path d="M128 41h10"></path>
<g>
<path d="M138 41h0"></path>
<path d="M278 41h0"></path>
<path d="M138 41h10"></path>
<g>
<path d="M148 41h0"></path>
<path d="M268 41h0"></path>
<path d="M148 41h10"></path>
<g>
<path d="M158 41h0"></path>
<path d="M258 41h0"></path>
<rect x="158" y="30" width="100" height="22"></rect>
<text x="208" y="45">expression</text>
</g>
<path d="M258 41h10"></path>
</g>
<path d="M268 41h10"></path>
<path d="M148 41a10 10 0 0 0 -10 10v10a10 10 0 0 0 10 10"></path>
<g>
<path d="M148 71h36"></path>
<path d="M232 71h36"></path>
<path d="M184 71h10"></path>
<g>
<path d="M194 71h0"></path>
<path d="M222 71h0"></path>
<rect x="194" y="60" width="28" height="22" rx="10" ry="10"></rect>
<text x="208" y="75">,</text>
</g>
<path d="M222 71h10"></path>
</g>
<path d="M268 71a10 10 0 0 0 10 -10v-10a10 10 0 0 0 -10 -10"></path>
</g>
<path d="M278 41h10"></path>
</g>
<path d="M288 41h20"></path>
</g>
<path d="M308 41h10"></path>
<g>
<path d="M318 41h0"></path>
<path d="M346 41h0"></path>
<rect x="318" y="30" width="28" height="22" rx="10" ry="10"></rect>
<text x="332" y="45">)</text>
</g>
<path d="M346 41h10"></path>
</g>
<path d="M356 41h20"></path>
<path d="M40 41a10 10 0 0 1 10 10v40a10 10 0 0 0 10 10"></path>
<g>
<path d="M60 101h98"></path>
<path d="M258 101h98"></path>
<rect x="158" y="90" width="100" height="22"></rect>
<text x="208" y="105">expression</text>
</g>
<path d="M356 101a10 10 0 0 0 10 -10v-40a10 10 0 0 1 10 -10"></path>
</g>
<path d="M 376 41 h 20 m -10 -10 v 20 m 10 -20 v 20"></path>
</g>
</svg>
