<?xml version="1.0" standalone="no"?>
<!DOCTYPE svg PUBLIC "-//W3C//DTD SVG 1.1//EN"
  "http://www.w3.org/Graphics/SVG/1.1/DTD/svg11.dtd">

<svg xmlns="http://www.w3.org/2000/svg" version="1.1" class="railroad-diagram"  width="886" height="62" viewBox="0 0 886 62" >
<defs><style type="text/css"><![CDATA[ svg.railroad-diagram {
  background-color: #ffffff;
}
svg.railroad-diagram path {
  stroke-width: 2;
  stroke: #5a6872;
  fill: none;
}
svg.railroad-diagram text {
  font-size: 14px;
  font-family: 'ibm-plex-mono', 'Menlo', 'DejaVu Sans Mono', 'Bitstream Vera Sans Mono', Courier, monospace;
  color: #152935;
  text-anchor: middle;
  cursor: pointer;
}
svg.railroad-diagram text.label {
  text-anchor: start;
}
svg.railroad-diagram text.comment {
  font-size: 12px;
}
svg.railroad-diagram rect {
  stroke-width: 2;
  stroke:  #5a6872;
  fill: #5aaafa;
}
 ]]></style></defs>

<g transform="translate(.5 .5)">
<path d="M 20 21 v 20 m 10 -20 v 20 m -10 -10 h 20.5"></path>
<g>
<path d="M40 31h0"></path>
<path d="M856 31h0"></path>
<path d="M40 31h10"></path>
<g>
<path d="M50 31h0"></path>
<path d="M110 31h0"></path>
<rect x="50" y="20" width="60" height="22" rx="10" ry="10"></rect>
<text x="80" y="35">ALTER</text>
</g>
<path d="M110 31h10"></path>
<path d="M120 31h10"></path>
<g>
<path d="M130 31h0"></path>
<path d="M190 31h0"></path>
<rect x="130" y="20" width="60" height="22" rx="10" ry="10"></rect>
<text x="160" y="35">TABLE</text>
</g>
<path d="M190 31h10"></path>
<path d="M200 31h10"></path>
<g>
<path d="M210 31h0"></path>
<path d="M350 31h0"></path>
<rect x="210" y="20" width="140" height="22"></rect>
<text x="280" y="35">tableIdentifier</text>
</g>
<path d="M350 31h10"></path>
<path d="M360 31h10"></path>
<g>
<path d="M370 31h0"></path>
<path d="M414 31h0"></path>
<rect x="370" y="20" width="44" height="22" rx="10" ry="10"></rect>
<text x="392" y="35">SET</text>
</g>
<path d="M414 31h10"></path>
<path d="M424 31h10"></path>
<g>
<path d="M434 31h0"></path>
<path d="M526 31h0"></path>
<rect x="434" y="20" width="92" height="22" rx="10" ry="10"></rect>
<text x="480" y="35">METAINDEX</text>
</g>
<path d="M526 31h10"></path>
<path d="M536 31h10"></path>
<g>
<path d="M546 31h0"></path>
<path d="M630 31h0"></path>
<rect x="546" y="20" width="84" height="22" rx="10" ry="10"></rect>
<text x="588" y="35">LOCATION</text>
</g>
<path d="M630 31h10"></path>
<path d="M640 31h10"></path>
<g>
<path d="M650 31h0"></path>
<path d="M846 31h0"></path>
<rect x="650" y="20" width="196" height="22"></rect>
<text x="748" y="35">metaindexAssetLocation</text>
</g>
<path d="M846 31h10"></path>
</g>
<path d="M 856 31 h 20 m -10 -10 v 20 m 10 -20 v 20"></path>
</g>
</svg>
