<?xml version="1.0" standalone="no"?>
<!DOCTYPE svg PUBLIC "-//W3C//DTD SVG 1.1//EN"
  "http://www.w3.org/Graphics/SVG/1.1/DTD/svg11.dtd">

<svg xmlns="http://www.w3.org/2000/svg" version="1.1" class="railroad-diagram"  width="414" height="72" viewBox="0 0 414 72" >
<defs><style type="text/css"><![CDATA[ svg.railroad-diagram {
  background-color: #ffffff;
}
svg.railroad-diagram path {
  stroke-width: 2;
  stroke: #5a6872;
  fill: none;
}
svg.railroad-diagram text {
  font-size: 14px;
  font-family: 'ibm-plex-mono', 'Menlo', 'DejaVu Sans Mono', 'Bitstream Vera Sans Mono', Courier, monospace;
  color: #152935;
  text-anchor: middle;
  cursor: pointer;
}
svg.railroad-diagram text.label {
  text-anchor: start;
}
svg.railroad-diagram text.comment {
  font-size: 12px;
}
svg.railroad-diagram rect {
  stroke-width: 2;
  stroke:  #5a6872;
  fill: #5aaafa;
}
 ]]></style></defs>

<g transform="translate(.5 .5)">
<path d="M 20 31 v 20 m 10 -20 v 20 m -10 -10 h 20.5"></path>
<g>
<path d="M40 41h0"></path>
<path d="M384 41h0"></path>
<path d="M40 41h10"></path>
<g>
<path d="M50 41h0"></path>
<path d="M150 41h0"></path>
<rect x="50" y="30" width="100" height="22"></rect>
<text x="100" y="45">identifier</text>
</g>
<path d="M150 41h10"></path>
<g>
<path d="M160 41h0"></path>
<path d="M384 41h0"></path>
<path d="M160 41a10 10 0 0 0 10 -10v0a10 10 0 0 1 10 -10"></path>
<g>
<path d="M180 21h184"></path>
</g>
<path d="M364 21a10 10 0 0 1 10 10v0a10 10 0 0 0 10 10"></path>
<path d="M160 41h20"></path>
<g>
<path d="M180 41h0"></path>
<path d="M364 41h0"></path>
<path d="M180 41h10"></path>
<g>
<path d="M190 41h0"></path>
<path d="M266 41h0"></path>
<rect x="190" y="30" width="76" height="22" rx="10" ry="10"></rect>
<text x="228" y="45">COMMENT</text>
</g>
<path d="M266 41h10"></path>
<path d="M276 41h10"></path>
<g>
<path d="M286 41h0"></path>
<path d="M354 41h0"></path>
<rect x="286" y="30" width="68" height="22"></rect>
<text x="320" y="45">STRING</text>
</g>
<path d="M354 41h10"></path>
</g>
<path d="M364 41h20"></path>
</g>
</g>
<path d="M 384 41 h 20 m -10 -10 v 20 m 10 -20 v 20"></path>
</g>
</svg>
