<?xml version="1.0" standalone="no"?>
<!DOCTYPE svg PUBLIC "-//W3C//DTD SVG 1.1//EN"
  "http://www.w3.org/Graphics/SVG/1.1/DTD/svg11.dtd">

<svg xmlns="http://www.w3.org/2000/svg" version="1.1" class="railroad-diagram" width="633" height="162" viewBox="0 0 633 162">

<defs><style type="text/css"><![CDATA[ svg.railroad-diagram {
  background-color: #ffffff;
}
svg.railroad-diagram path {
  stroke-width: 2;
  stroke: #5a6872;
  fill: none;
}
svg.railroad-diagram text {
  font-size: 14px;
  font-family: 'ibm-plex-mono', 'Menlo', 'DejaVu Sans Mono', 'Bitstream Vera Sans Mono', Courier, monospace;
  color: #152935;
  text-anchor: middle;
  cursor: pointer;
}
svg.railroad-diagram text.label {
  text-anchor: start;
}
svg.railroad-diagram text.comment {
  font-size: 12px;
}
svg.railroad-diagram rect {
  stroke-width: 2;
  stroke:  #5a6872;
  fill: #5aaafa;
}
 ]]></style></defs>

<g transform="translate(.5 .5)">
<path d="M 20 31 v 20 m 10 -20 v 20 m -10 -10 h 20.5"></path>
<g>
<path d="M40 41h0"></path>
<path d="M592 41h0"></path>
<path d="M40 41h20"></path>
<g>
<path d="M60 41h0"></path>
<path d="M572 41h0"></path>
<path d="M60 41h10"></path>
<g>
<path d="M70 41h0"></path>
<path d="M154 41h0"></path>
<rect x="70" y="30" width="84" height="22" rx="10" ry="10"></rect>
<text x="112" y="45">INTERVAL</text>
</g>
<path d="M154 41h10"></path>
<g>
<path d="M164 41h0"></path>
<path d="M436 41h0"></path>
<g>
<path d="M164 41h0"></path>
<path d="M272 41h0"></path>
<path d="M164 41a10 10 0 0 0 10 -10v0a10 10 0 0 1 10 -10"></path>
<g>
<path d="M184 21h68"></path>
</g>
<path d="M252 21a10 10 0 0 1 10 10v0a10 10 0 0 0 10 10"></path>
<path d="M164 41h20"></path>
<g>
<path d="M184 41h0"></path>
<path d="M252 41h0"></path>
<path d="M184 41h20"></path>
<g>
<path d="M204 41h0"></path>
<path d="M232 41h0"></path>
<rect x="204" y="30" width="28" height="22" rx="10" ry="10"></rect>
<text x="218" y="45">+</text>
</g>
<path d="M232 41h20"></path>
<path d="M184 41a10 10 0 0 1 10 10v10a10 10 0 0 0 10 10"></path>
<g>
<path d="M204 71h0"></path>
<path d="M232 71h0"></path>
<rect x="204" y="60" width="28" height="22" rx="10" ry="10"></rect>
<text x="218" y="75">-</text>
</g>
<path d="M232 71a10 10 0 0 0 10 -10v-10a10 10 0 0 1 10 -10"></path>
</g>
<path d="M252 41h20"></path>
</g>
<g>
<path d="M272 41h0"></path>
<path d="M436 41h0"></path>
<path d="M272 41h20"></path>
<g>
<path d="M292 41h0"></path>
<path d="M416 41h0"></path>
<rect x="292" y="30" width="124" height="22"></rect>
<text x="354" y="45">INTEGER&#95;VALUE</text>
</g>
<path d="M416 41h20"></path>
<path d="M272 41a10 10 0 0 1 10 10v10a10 10 0 0 0 10 10"></path>
<g>
<path d="M292 71h0"></path>
<path d="M416 71h0"></path>
<rect x="292" y="60" width="124" height="22"></rect>
<text x="354" y="75">DECIMAL&#95;VALUE</text>
</g>
<path d="M416 71a10 10 0 0 0 10 -10v-10a10 10 0 0 1 10 -10"></path>
</g>
</g>
<path d="M436 41h10"></path>
<g>
<path d="M446 41h0"></path>
<path d="M562 41h0"></path>
<rect x="446" y="30" width="116" height="22"></rect>
<text x="504" y="45">timeUnitSpec</text>
</g>
<path d="M562 41h10"></path>
</g>
<path d="M572 41h20"></path>
<path d="M40 41a10 10 0 0 1 10 10v40a10 10 0 0 0 10 10"></path>
<g>
<path d="M60 101h36"></path>
<path d="M536 101h36"></path>
<path d="M96 101h10"></path>
<g>
<path d="M106 101h0"></path>
<path d="M190 101h0"></path>
<rect x="106" y="90" width="84" height="22" rx="10" ry="10"></rect>
<text x="148" y="105">INTERVAL</text>
</g>
<path d="M190 101h10"></path>
<path d="M200 101h10"></path>
<g>
<path d="M210 101h0"></path>
<path d="M278 101h0"></path>
<rect x="210" y="90" width="68" height="22"></rect>
<text x="244" y="105">STRING</text>
</g>
<path d="M278 101h10"></path>
<g>
<path d="M288 101h0"></path>
<path d="M536 101h0"></path>
<path d="M288 101h20"></path>
<g>
<path d="M308 101h0"></path>
<path d="M516 101h0"></path>
<path d="M308 101h10"></path>
<g>
<path d="M318 101h0"></path>
<path d="M370 101h0"></path>
<rect x="318" y="90" width="52" height="22" rx="10" ry="10"></rect>
<text x="344" y="105">YEAR</text>
</g>
<path d="M370 101h10"></path>
<path d="M380 101h10"></path>
<g>
<path d="M390 101h0"></path>
<path d="M426 101h0"></path>
<rect x="390" y="90" width="36" height="22" rx="10" ry="10"></rect>
<text x="408" y="105">TO</text>
</g>
<path d="M426 101h10"></path>
<path d="M436 101h10"></path>
<g>
<path d="M446 101h0"></path>
<path d="M506 101h0"></path>
<rect x="446" y="90" width="60" height="22" rx="10" ry="10"></rect>
<text x="476" y="105">MONTH</text>
</g>
<path d="M506 101h10"></path>
</g>
<path d="M516 101h20"></path>
<path d="M288 101a10 10 0 0 1 10 10v10a10 10 0 0 0 10 10"></path>
<g>
<path d="M308 131h0"></path>
<path d="M516 131h0"></path>
<path d="M308 131h10"></path>
<g>
<path d="M318 131h0"></path>
<path d="M362 131h0"></path>
<rect x="318" y="120" width="44" height="22" rx="10" ry="10"></rect>
<text x="340" y="135">DAY</text>
</g>
<path d="M362 131h10"></path>
<path d="M372 131h10"></path>
<g>
<path d="M382 131h0"></path>
<path d="M418 131h0"></path>
<rect x="382" y="120" width="36" height="22" rx="10" ry="10"></rect>
<text x="400" y="135">TO</text>
</g>
<path d="M418 131h10"></path>
<path d="M428 131h10"></path>
<g>
<path d="M438 131h0"></path>
<path d="M506 131h0"></path>
<rect x="438" y="120" width="68" height="22" rx="10" ry="10"></rect>
<text x="472" y="135">SECOND</text>
</g>
<path d="M506 131h10"></path>
</g>
<path d="M516 131a10 10 0 0 0 10 -10v-10a10 10 0 0 1 10 -10"></path>
</g>
</g>
<path d="M572 101a10 10 0 0 0 10 -10v-40a10 10 0 0 1 10 -10"></path>
</g>
<path d="M 592 41 h 20 m -10 -10 v 20 m 10 -20 v 20"></path>
</g>
</svg>
