<?xml version="1.0" standalone="no"?>
<!DOCTYPE svg PUBLIC "-//W3C//DTD SVG 1.1//EN"
  "http://www.w3.org/Graphics/SVG/1.1/DTD/svg11.dtd">

<svg xmlns="http://www.w3.org/2000/svg" version="1.1" class="railroad-diagram"  width="537" height="340" viewBox="0 0 537 340" >
<defs><style type="text/css"><![CDATA[ svg.railroad-diagram {
  background-color: #ffffff;
}
svg.railroad-diagram path {
  stroke-width: 2;
  stroke: #5a6872;
  fill: none;
}
svg.railroad-diagram text {
  font-size: 14px;
  font-family: 'ibm-plex-mono', 'Menlo', 'DejaVu Sans Mono', 'Bitstream Vera Sans Mono', Courier, monospace;
  color: #152935;
  text-anchor: middle;
  cursor: pointer;
}
svg.railroad-diagram text.label {
  text-anchor: start;
}
svg.railroad-diagram text.comment {
  font-size: 12px;
}
svg.railroad-diagram rect {
  stroke-width: 2;
  stroke:  #5a6872;
  fill: #5aaafa;
}
 ]]></style></defs>

<g transform="translate(.5 .5)">
<path d="M20 41  v 20 m 10 -20 v 20 m -10 -10 h 20.5"></path>
<g>
<path d="M40 51 h0"></path>
<path d="M1336 51 h0"></path>
<path d="M40 51 h10"></path>
<g>
<path d="M50 51 h0"></path>
<path d="M126 51 h0"></path>
<rect x="50" y="40" width="76" height="22"  rx="10" ry="10"></rect>
<text x="88" y="55">LATERAL</text>
</g>
<path d="M126 51 h10"></path>
<path d="M136 51 h10"></path>
<g>
<path d="M146 51 h0"></path>
<path d="M198 51 h0"></path>
<rect x="146" y="40" width="52" height="22"  rx="10" ry="10"></rect>
<text x="172" y="55">VIEW</text>
</g>
<path d="M198 51 h10"></path>
<g>
<path d="M208 51 h0"></path>
<path d="M308 51 h0"></path>
<path d="M208 51 a10 10 0 0 0 10 -10v0a10 10 0 0 1 10 -10"></path>
<g>
<path d="M228 31 h60"></path>
</g>
<path d="M288 31 a10 10 0 0 1 10 10v0a10 10 0 0 0 10 10"></path>
<path d="M208 51 h20"></path>
<g>
<path d="M228 51 h0"></path>
<path d="M288 51 h0"></path>
<rect x="228" y="40" width="60" height="22"  rx="10" ry="10"></rect>
<text x="258" y="55">OUTER</text>
</g>
<path d="M288 51 h20"></path>
</g>
<path d="M308 51 h10"></path>
<g>
<path d="M318 51 h0"></path>
<path d="M442 51 h0"></path>
<rect x="318" y="40" width="124" height="22" ></rect>
<text x="380" y="55">qualifiedName</text>
</g>
<path d="M442 51 h10"></path>
<path d="M452 51 h10"></path>
<g id="eol">
<path d="M462 51 h0"></path>
<path d="M462 51 a 10 10 0 0 1 10 10 V 70 a 10 10 0 0 1 -10 10 h -431 a 10 10 0 0 0 -10 10 V 124 a 10 10 0 0 0 10 10"></path>
<path d="M462 51 h0"></path>
<path d="M462 51 h0"></path>
</g>
<path d="M31 134 h10"></path>
<path d="M41 134 h10"></path>
<g>
<path d="M51 134 h0"></path>
<path d="M79 134 h0"></path>
<rect x="51" y="123" width="28" height="22"  rx="10" ry="10"></rect>
<text x="65" y="138">(</text>
</g>
<path d="M79 134 h10"></path>
<g>
<path d="M89 134 h0"></path>
<path d="M289 134 h0"></path>
<path d="M89 134 a10 10 0 0 0 10 -10v0a10 10 0 0 1 10 -10"></path>
<g>
<path d="M109 114 h160"></path>
</g>
<path d="M269 114 a10 10 0 0 1 10 10v0a10 10 0 0 0 10 10"></path>
<path d="M89 134 h20"></path>
<g>
<path d="M109 134 h0"></path>
<path d="M269 134 h0"></path>
<path d="M109 134 h10"></path>
<g>
<path d="M119 134 h0"></path>
<path d="M259 134 h0"></path>
<path d="M119 134 h10"></path>
<g>
<path d="M129 134 h0"></path>
<path d="M249 134 h0"></path>
<path d="M129 134 h10"></path>
<g>
<path d="M139 134 h0"></path>
<path d="M239 134 h0"></path>
<rect x="139" y="123" width="100" height="22" ></rect>
<text x="189" y="138">expression</text>
</g>
<path d="M239 134 h10"></path>
</g>
<path d="M249 134 h10"></path>
<path d="M129 134 a10 10 0 0 0 -10 10v10a10 10 0 0 0 10 10"></path>
<g>
<path d="M129 164 h36"></path>
<path d="M213 164 h36"></path>
<path d="M165 164 h10"></path>
<g>
<path d="M175 164 h0"></path>
<path d="M203 164 h0"></path>
<rect x="175" y="153" width="28" height="22"  rx="10" ry="10"></rect>
<text x="189" y="168">,</text>
</g>
<path d="M203 164 h10"></path>
</g>
<path d="M249 164 a10 10 0 0 0 10 -10v-10a10 10 0 0 0 -10 -10"></path>
</g>
<path d="M259 134 h10"></path>
</g>
<path d="M269 134 h20"></path>
</g>
<path d="M289 134 h10"></path>
<g>
<path d="M299 134 h0"></path>
<path d="M327 134 h0"></path>
<rect x="299" y="123" width="28" height="22"  rx="10" ry="10"></rect>
<text x="313" y="138">)</text>
</g>
<path d="M327 134 h10"></path>
<path d="M337 134 h10"></path>
<g id="eol">
<path d="M347 134 h0"></path>
<path d="M347 134 a 10 10 0 0 1 10 10 V 183 a 10 10 0 0 1 -10 10 h -316 a 10 10 0 0 0 -10 10 V 237 a 10 10 0 0 0 10 10"></path>
<path d="M347 134 h0"></path>
<path d="M347 134 h0"></path>
</g>
<path d="M31 247 h10"></path>
<path d="M41 247 h10"></path>
<g>
<path d="M51 247 h0"></path>
<path d="M151 247 h0"></path>
<rect x="51" y="236" width="100" height="22" ></rect>
<text x="101" y="251">identifier</text>
</g>
<path d="M151 247 h10"></path>
<g>
<path d="M161 247 h0"></path>
<path d="M437 247 h0"></path>
<path d="M161 247 a10 10 0 0 0 10 -10v-9a10 10 0 0 1 10 -10"></path>
<g>
<path d="M181 218 h236"></path>
</g>
<path d="M417 218 a10 10 0 0 1 10 10v9a10 10 0 0 0 10 10"></path>
<path d="M161 247 h20"></path>
<g>
<path d="M181 247 h0"></path>
<path d="M417 247 h0"></path>
<g>
<path d="M181 247 h0"></path>
<path d="M257 247 h0"></path>
<path d="M181 247 a10 10 0 0 0 10 -10v0a10 10 0 0 1 10 -10"></path>
<g>
<path d="M201 227 h36"></path>
</g>
<path d="M237 227 a10 10 0 0 1 10 10v0a10 10 0 0 0 10 10"></path>
<path d="M181 247 h20"></path>
<g>
<path d="M201 247 h0"></path>
<path d="M237 247 h0"></path>
<rect x="201" y="236" width="36" height="22"  rx="10" ry="10"></rect>
<text x="219" y="251">AS</text>
</g>
<path d="M237 247 h20"></path>
</g>
<path d="M257 247 h10"></path>
<g>
<path d="M267 247 h0"></path>
<path d="M407 247 h0"></path>
<path d="M267 247 h10"></path>
<g>
<path d="M277 247 h0"></path>
<path d="M397 247 h0"></path>
<path d="M277 247 h10"></path>
<g>
<path d="M287 247 h0"></path>
<path d="M387 247 h0"></path>
<rect x="287" y="236" width="100" height="22" ></rect>
<text x="337" y="251">identifier</text>
</g>
<path d="M387 247 h10"></path>
</g>
<path d="M397 247 h10"></path>
<path d="M277 247 a10 10 0 0 0 -10 10v10a10 10 0 0 0 10 10"></path>
<g>
<path d="M277 277 h36"></path>
<path d="M361 277 h36"></path>
<path d="M313 277 h10"></path>
<g>
<path d="M323 277 h0"></path>
<path d="M351 277 h0"></path>
<rect x="323" y="266" width="28" height="22"  rx="10" ry="10"></rect>
<text x="337" y="281">,</text>
</g>
<path d="M351 277 h10"></path>
</g>
<path d="M397 277 a10 10 0 0 0 10 -10v-10a10 10 0 0 0 -10 -10"></path>
</g>
<path d="M407 247 h10"></path>
</g>
<path d="M417 247 h20"></path>
</g>
</g>
<path d="M437 247  h 20 m -10 -10 v 20 m 10 -20 v 20"></path>
</g>
</svg>
