<?xml version="1.0" standalone="no"?>
<!DOCTYPE svg PUBLIC "-//W3C//DTD SVG 1.1//EN"
  "http://www.w3.org/Graphics/SVG/1.1/DTD/svg11.dtd">

<svg xmlns="http://www.w3.org/2000/svg" version="1.1" class="railroad-diagram"  width="462" height="62" viewBox="0 0 462 62" >
<defs><style type="text/css"><![CDATA[ svg.railroad-diagram {
  background-color: #ffffff;
}
svg.railroad-diagram path {
  stroke-width: 2;
  stroke: #5a6872;
  fill: none;
}
svg.railroad-diagram text {
  font-size: 14px;
  font-family: 'ibm-plex-mono', 'Menlo', 'DejaVu Sans Mono', 'Bitstream Vera Sans Mono', Courier, monospace;
  color: #152935;
  text-anchor: middle;
  cursor: pointer;
}
svg.railroad-diagram text.label {
  text-anchor: start;
}
svg.railroad-diagram text.comment {
  font-size: 12px;
}
svg.railroad-diagram rect {
  stroke-width: 2;
  stroke:  #5a6872;
  fill: #5aaafa;
}
 ]]></style></defs>

<g transform="translate(.5 .5)">
<path d="M 20 21 v 20 m 10 -20 v 20 m -10 -10 h 20.5"></path>
<g>
<path d="M40 31h0"></path>
<path d="M432 31h0"></path>
<path d="M40 31h10"></path>
<g>
<path d="M50 31h0"></path>
<path d="M102 31h0"></path>
<rect x="50" y="20" width="52" height="22" rx="10" ry="10"></rect>
<text x="76" y="35">DROP</text>
</g>
<path d="M102 31h10"></path>
<path d="M112 31h10"></path>
<g>
<path d="M122 31h0"></path>
<path d="M214 31h0"></path>
<rect x="122" y="20" width="92" height="22" rx="10" ry="10"></rect>
<text x="168" y="35">METAINDEX</text>
</g>
<path d="M214 31h10"></path>
<path d="M224 31h10"></path>
<g>
<path d="M234 31h0"></path>
<path d="M270 31h0"></path>
<rect x="234" y="20" width="36" height="22" rx="10" ry="10"></rect>
<text x="252" y="35">ON</text>
</g>
<path d="M270 31h10"></path>
<path d="M280 31h10"></path>
<g>
<path d="M290 31h0"></path>
<path d="M422 31h0"></path>
<rect x="290" y="20" width="132" height="22"></rect>
<text x="356" y="35">metaindexAsset</text>
</g>
<path d="M422 31h10"></path>
</g>
<path d="M 432 31 h 20 m -10 -10 v 20 m 10 -20 v 20"></path>
</g>
</svg>
