<?xml version="1.0" standalone="no"?>
<!DOCTYPE svg PUBLIC "-//W3C//DTD SVG 1.1//EN"
  "http://www.w3.org/Graphics/SVG/1.1/DTD/svg11.dtd">

<svg xmlns="http://www.w3.org/2000/svg" version="1.1" class="railroad-diagram"  width="1062" height="252" viewBox="0 0 1062 252" >
<defs><style type="text/css"><![CDATA[ svg.railroad-diagram {
  background-color: #ffffff;
}
svg.railroad-diagram path {
  stroke-width: 2;
  stroke: #5a6872;
  fill: none;
}
svg.railroad-diagram text {
  font-size: 14px;
  font-family: 'ibm-plex-mono', 'Menlo', 'DejaVu Sans Mono', 'Bitstream Vera Sans Mono', Courier, monospace;
  color: #152935;
  text-anchor: middle;
  cursor: pointer;
}
svg.railroad-diagram text.label {
  text-anchor: start;
}
svg.railroad-diagram text.comment {
  font-size: 12px;
}
svg.railroad-diagram rect {
  stroke-width: 2;
  stroke:  #5a6872;
  fill: #5aaafa;
}
 ]]></style></defs>

<g transform="translate(.5 .5)">
<path d="M 20 41 v 20 m 10 -20 v 20 m -10 -10 h 20.5"></path>
<g>
<path d="M40 51h0"></path>
<path d="M1032 51h0"></path>
<path d="M40 51h20"></path>
<g>
<path d="M60 51h0"></path>
<path d="M1012 51h0"></path>
<path d="M60 51h10"></path>
<g>
<path d="M70 51h0"></path>
<path d="M138 51h0"></path>
<rect x="70" y="40" width="68" height="22"></rect>
<text x="104" y="55">COSURI</text>
</g>
<path d="M138 51h10"></path>
<g>
<path d="M148 51h0"></path>
<path d="M1012 51h0"></path>
<path d="M148 51a10 10 0 0 0 10 -10v-9a10 10 0 0 1 10 -10"></path>
<g>
<path d="M168 22h824"></path>
</g>
<path d="M992 22a10 10 0 0 1 10 10v9a10 10 0 0 0 10 10"></path>
<path d="M148 51h20"></path>
<g>
<path d="M168 51h0"></path>
<path d="M992 51h0"></path>
<path d="M168 51h10"></path>
<g>
<path d="M178 51h0"></path>
<path d="M246 51h0"></path>
<rect x="178" y="40" width="68" height="22" rx="10" ry="10"></rect>
<text x="212" y="55">STORED</text>
</g>
<path d="M246 51h10"></path>
<path d="M256 51h10"></path>
<g>
<path d="M266 51h0"></path>
<path d="M302 51h0"></path>
<rect x="266" y="40" width="36" height="22" rx="10" ry="10"></rect>
<text x="284" y="55">AS</text>
</g>
<path d="M302 51h10"></path>
<g>
<path d="M312 51h0"></path>
<path d="M992 51h0"></path>
<path d="M312 51h20"></path>
<g>
<path d="M332 51h0"></path>
<path d="M972 51h0"></path>
<g>
<path d="M332 51h0"></path>
<path d="M456 51h0"></path>
<path d="M332 51h20"></path>
<g>
<path d="M352 51h20"></path>
<path d="M416 51h20"></path>
<rect x="372" y="40" width="44" height="22" rx="10" ry="10"></rect>
<text x="394" y="55">CSV</text>
</g>
<path d="M436 51h20"></path>
<path d="M332 51a10 10 0 0 1 10 10v10a10 10 0 0 0 10 10"></path>
<g>
<path d="M352 81h0"></path>
<path d="M436 81h0"></path>
<rect x="352" y="70" width="84" height="22" rx="10" ry="10"></rect>
<text x="394" y="85">TEXTFILE</text>
</g>
<path d="M436 81a10 10 0 0 0 10 -10v-10a10 10 0 0 1 10 -10"></path>
</g>
<g>
<path d="M456 51h0"></path>
<path d="M848 51h0"></path>
<path d="M456 51a10 10 0 0 0 10 -10v0a10 10 0 0 1 10 -10"></path>
<g>
<path d="M476 31h352"></path>
</g>
<path d="M828 31a10 10 0 0 1 10 10v0a10 10 0 0 0 10 10"></path>
<path d="M456 51h20"></path>
<g>
<path d="M476 51h0"></path>
<path d="M828 51h0"></path>
<path d="M476 51h10"></path>
<g>
<path d="M486 51h0"></path>
<path d="M554 51h0"></path>
<rect x="486" y="40" width="68" height="22" rx="10" ry="10"></rect>
<text x="520" y="55">FIELDS</text>
</g>
<path d="M554 51h10"></path>
<path d="M564 51h10"></path>
<g>
<path d="M574 51h0"></path>
<path d="M674 51h0"></path>
<rect x="574" y="40" width="100" height="22" rx="10" ry="10"></rect>
<text x="624" y="55">TERMINATED</text>
</g>
<path d="M674 51h10"></path>
<path d="M684 51h10"></path>
<g>
<path d="M694 51h0"></path>
<path d="M730 51h0"></path>
<rect x="694" y="40" width="36" height="22" rx="10" ry="10"></rect>
<text x="712" y="55">BY</text>
</g>
<path d="M730 51h10"></path>
<path d="M740 51h10"></path>
<g>
<path d="M750 51h0"></path>
<path d="M818 51h0"></path>
<rect x="750" y="40" width="68" height="22"></rect>
<text x="784" y="55">STRING</text>
</g>
<path d="M818 51h10"></path>
</g>
<path d="M828 51h20"></path>
</g>
<g>
<path d="M848 51h0"></path>
<path d="M972 51h0"></path>
<path d="M848 51a10 10 0 0 0 10 -10v0a10 10 0 0 1 10 -10"></path>
<g>
<path d="M868 31h84"></path>
</g>
<path d="M952 31a10 10 0 0 1 10 10v0a10 10 0 0 0 10 10"></path>
<path d="M848 51h20"></path>
<g>
<path d="M868 51h0"></path>
<path d="M952 51h0"></path>
<rect x="868" y="40" width="84" height="22" rx="10" ry="10"></rect>
<text x="910" y="55">NOHEADER</text>
</g>
<path d="M952 51h20"></path>
</g>
</g>
<path d="M972 51h20"></path>
<path d="M312 51a10 10 0 0 1 10 10v50a10 10 0 0 0 10 10"></path>
<g>
<path d="M332 121h218"></path>
<path d="M754 121h218"></path>
<path d="M550 121h10"></path>
<g>
<path d="M560 121h0"></path>
<path d="M612 121h0"></path>
<rect x="560" y="110" width="52" height="22" rx="10" ry="10"></rect>
<text x="586" y="125">JSON</text>
</g>
<path d="M612 121h10"></path>
<g>
<path d="M622 121h0"></path>
<path d="M754 121h0"></path>
<path d="M622 121a10 10 0 0 0 10 -10v0a10 10 0 0 1 10 -10"></path>
<g>
<path d="M642 101h92"></path>
</g>
<path d="M734 101a10 10 0 0 1 10 10v0a10 10 0 0 0 10 10"></path>
<path d="M622 121h20"></path>
<g>
<path d="M642 121h0"></path>
<path d="M734 121h0"></path>
<rect x="642" y="110" width="92" height="22" rx="10" ry="10"></rect>
<text x="688" y="125">MULTILINE</text>
</g>
<path d="M734 121h20"></path>
</g>
</g>
<path d="M972 121a10 10 0 0 0 10 -10v-50a10 10 0 0 1 10 -10"></path>
<path d="M312 51a10 10 0 0 1 10 10v80a10 10 0 0 0 10 10"></path>
<g>
<path d="M332 151h298"></path>
<path d="M674 151h298"></path>
<rect x="630" y="140" width="44" height="22" rx="10" ry="10"></rect>
<text x="652" y="155">ORC</text>
</g>
<path d="M972 151a10 10 0 0 0 10 -10v-80a10 10 0 0 1 10 -10"></path>
<path d="M312 51a10 10 0 0 1 10 10v120a10 10 0 0 0 10 10"></path>
<g>
<path d="M332 191h168"></path>
<path d="M804 191h168"></path>
<path d="M500 191h10"></path>
<g>
<path d="M510 191h0"></path>
<path d="M586 191h0"></path>
<rect x="510" y="180" width="76" height="22" rx="10" ry="10"></rect>
<text x="548" y="195">PARQUET</text>
</g>
<path d="M586 191h10"></path>
<g>
<path d="M596 191h0"></path>
<path d="M804 191h0"></path>
<path d="M596 191a10 10 0 0 0 10 -10v0a10 10 0 0 1 10 -10"></path>
<g>
<path d="M616 171h168"></path>
</g>
<path d="M784 171a10 10 0 0 1 10 10v0a10 10 0 0 0 10 10"></path>
<path d="M596 191h20"></path>
<g>
<path d="M616 191h0"></path>
<path d="M784 191h0"></path>
<path d="M616 191h10"></path>
<g>
<path d="M626 191h0"></path>
<path d="M686 191h0"></path>
<rect x="626" y="180" width="60" height="22" rx="10" ry="10"></rect>
<text x="656" y="195">MERGE</text>
</g>
<path d="M686 191h10"></path>
<path d="M696 191h10"></path>
<g>
<path d="M706 191h0"></path>
<path d="M774 191h0"></path>
<rect x="706" y="180" width="68" height="22" rx="10" ry="10"></rect>
<text x="740" y="195">SCHEMA</text>
</g>
<path d="M774 191h10"></path>
</g>
<path d="M784 191h20"></path>
</g>
</g>
<path d="M972 191a10 10 0 0 0 10 -10v-120a10 10 0 0 1 10 -10"></path>
</g>
</g>
<path d="M992 51h20"></path>
</g>
</g>
<path d="M1012 51h20"></path>
<path d="M40 51a10 10 0 0 1 10 10v150a10 10 0 0 0 10 10"></path>
<g>
<path d="M60 221h356"></path>
<path d="M656 221h356"></path>
<path d="M416 221h10"></path>
<g>
<path d="M426 221h0"></path>
<path d="M486 221h0"></path>
<rect x="426" y="210" width="60" height="22" rx="10" ry="10"></rect>
<text x="456" y="225">TABLE</text>
</g>
<path d="M486 221h10"></path>
<path d="M496 221h10"></path>
<g>
<path d="M506 221h0"></path>
<path d="M646 221h0"></path>
<rect x="506" y="210" width="140" height="22"></rect>
<text x="576" y="225">tableIdentifier</text>
</g>
<path d="M646 221h10"></path>
</g>
<path d="M1012 221a10 10 0 0 0 10 -10v-150a10 10 0 0 1 10 -10"></path>
</g>
<path d="M 1032 51 h 20 m -10 -10 v 20 m 10 -20 v 20"></path>
</g>
</svg>
