<?xml version="1.0" standalone="no"?>
<!DOCTYPE svg PUBLIC "-//W3C//DTD SVG 1.1//EN"
  "http://www.w3.org/Graphics/SVG/1.1/DTD/svg11.dtd">

<svg xmlns="http://www.w3.org/2000/svg" version="1.1" class="railroad-diagram"  width="702" height="92" viewBox="0 0 702 92" >
<defs><style type="text/css"><![CDATA[ svg.railroad-diagram {
  background-color: #ffffff;
}
svg.railroad-diagram path {
  stroke-width: 2;
  stroke: #5a6872;
  fill: none;
}
svg.railroad-diagram text {
  font-size: 14px;
  font-family: 'ibm-plex-mono', 'Menlo', 'DejaVu Sans Mono', 'Bitstream Vera Sans Mono', Courier, monospace;
  color: #152935;
  text-anchor: middle;
  cursor: pointer;
}
svg.railroad-diagram text.label {
  text-anchor: start;
}
svg.railroad-diagram text.comment {
  font-size: 12px;
}
svg.railroad-diagram rect {
  stroke-width: 2;
  stroke:  #5a6872;
  fill: #5aaafa;
}
 ]]></style></defs>

<g transform="translate(.5 .5)">
<path d="M 20 21 v 20 m 10 -20 v 20 m -10 -10 h 20.5"></path>
<g>
<path d="M40 31h0"></path>
<path d="M672 31h0"></path>
<path d="M40 31h10"></path>
<g>
<path d="M50 31h0"></path>
<path d="M118 31h0"></path>
<rect x="50" y="20" width="68" height="22" rx="10" ry="10"></rect>
<text x="84" y="35">CREATE</text>
</g>
<path d="M118 31h10"></path>
<path d="M128 31h10"></path>
<g>
<path d="M138 31h0"></path>
<path d="M230 31h0"></path>
<rect x="138" y="20" width="92" height="22" rx="10" ry="10"></rect>
<text x="184" y="35">METAINDEX</text>
</g>
<path d="M230 31h10"></path>
<path d="M240 31h10"></path>
<g>
<path d="M250 31h0"></path>
<path d="M454 31h0"></path>
<path d="M250 31h10"></path>
<g>
<path d="M260 31h0"></path>
<path d="M444 31h0"></path>
<path d="M260 31h10"></path>
<g>
<path d="M270 31h0"></path>
<path d="M434 31h0"></path>
<rect x="270" y="20" width="164" height="22"></rect>
<text x="352" y="35">metaindexIndextype</text>
</g>
<path d="M434 31h10"></path>
</g>
<path d="M444 31h10"></path>
<path d="M260 31a10 10 0 0 0 -10 10v10a10 10 0 0 0 10 10"></path>
<g>
<path d="M260 61h68"></path>
<path d="M376 61h68"></path>
<path d="M328 61h10"></path>
<g>
<path d="M338 61h0"></path>
<path d="M366 61h0"></path>
<rect x="338" y="50" width="28" height="22" rx="10" ry="10"></rect>
<text x="352" y="65">,</text>
</g>
<path d="M366 61h10"></path>
</g>
<path d="M444 61a10 10 0 0 0 10 -10v-10a10 10 0 0 0 -10 -10"></path>
</g>
<path d="M454 31h10"></path>
<path d="M464 31h10"></path>
<g>
<path d="M474 31h0"></path>
<path d="M510 31h0"></path>
<rect x="474" y="20" width="36" height="22" rx="10" ry="10"></rect>
<text x="492" y="35">ON</text>
</g>
<path d="M510 31h10"></path>
<path d="M520 31h10"></path>
<g>
<path d="M530 31h0"></path>
<path d="M662 31h0"></path>
<rect x="530" y="20" width="132" height="22"></rect>
<text x="596" y="35">metaindexAsset</text>
</g>
<path d="M662 31h10"></path>
</g>
<path d="M 672 31 h 20 m -10 -10 v 20 m 10 -20 v 20"></path>
</g>
</svg>
