<?xml version="1.0" standalone="no"?>
<!DOCTYPE svg PUBLIC "-//W3C//DTD SVG 1.1//EN"
  "http://www.w3.org/Graphics/SVG/1.1/DTD/svg11.dtd">

<svg xmlns="http://www.w3.org/2000/svg" version="1.1" class="railroad-diagram"  width="1097" height="547" viewBox="0 0 1097 547" >
<defs><style type="text/css"><![CDATA[ svg.railroad-diagram {
  background-color: #ffffff;
}
svg.railroad-diagram path {
  stroke-width: 2;
  stroke: #5a6872;
  fill: none;
}
svg.railroad-diagram text {
  font-size: 14px;
  font-family: 'ibm-plex-mono', 'Menlo', 'DejaVu Sans Mono', 'Bitstream Vera Sans Mono', Courier, monospace;
  color: #152935;
  text-anchor: middle;
  cursor: pointer;
}
svg.railroad-diagram text.label {
  text-anchor: start;
}
svg.railroad-diagram text.comment {
  font-size: 12px;
}
svg.railroad-diagram rect {
  stroke-width: 2;
  stroke:  #5a6872;
  fill: #5aaafa;
}
 ]]></style></defs>

<g transform="translate(.5 .5)">
<path d="M20 31  v 20 m 10 -20 v 20 m -10 -10 h 20.5"></path>
<g>
<path d="M40 41 h0"></path>
<path d="M1128 41 h0"></path>
<path d="M40 41 h20"></path>
<g>
<path d="M60 41 h0"></path>
<path d="M1108 41 h0"></path>
<path d="M60 41 h10"></path>
<g>
<path d="M70 41 h0"></path>
<path d="M138 41 h0"></path>
<rect x="70" y="30" width="68" height="22" ></rect>
<text x="104" y="45">COSURI</text>
</g>
<path d="M138 41 h10"></path>
<g>
<path d="M148 41 h0"></path>
<path d="M1012 41 h0"></path>
<path d="M148 41 a10 10 0 0 0 10 -10v0a10 10 0 0 1 10 -10"></path>
<g>
<path d="M168 21 h824"></path>
</g>
<path d="M992 21 a10 10 0 0 1 10 10v0a10 10 0 0 0 10 10"></path>
<path d="M148 41 h20"></path>
<g>
<path d="M168 41 h0"></path>
<path d="M992 41 h0"></path>
<path d="M168 41 h10"></path>
<g>
<path d="M178 41 h0"></path>
<path d="M246 41 h0"></path>
<rect x="178" y="30" width="68" height="22"  rx="10" ry="10"></rect>
<text x="212" y="45">STORED</text>
</g>
<path d="M246 41 h10"></path>
<path d="M256 41 h10"></path>
<g>
<path d="M266 41 h0"></path>
<path d="M302 41 h0"></path>
<rect x="266" y="30" width="36" height="22"  rx="10" ry="10"></rect>
<text x="284" y="45">AS</text>
</g>
<path d="M302 41 h10"></path>
<g>
<path d="M312 41 h0"></path>
<path d="M992 41 h0"></path>
<path d="M312 41 h20"></path>
<g>
<path d="M332 41 h294"></path>
<path d="M678 41 h294"></path>
<rect x="626" y="30" width="52" height="22"  rx="10" ry="10"></rect>
<text x="652" y="45">AVRO</text>
</g>
<path d="M972 41 h20"></path>
<path d="M312 41 a10 10 0 0 1 10 10v20a10 10 0 0 0 10 10"></path>
<g>
<path d="M332 81 h0"></path>
<path d="M972 81 h0"></path>
<g>
<path d="M332 81 h0"></path>
<path d="M456 81 h0"></path>
<path d="M332 81 h20"></path>
<g>
<path d="M352 81 h20"></path>
<path d="M416 81 h20"></path>
<rect x="372" y="70" width="44" height="22"  rx="10" ry="10"></rect>
<text x="394" y="85">CSV</text>
</g>
<path d="M436 81 h20"></path>
<path d="M332 81 a10 10 0 0 1 10 10v10a10 10 0 0 0 10 10"></path>
<g>
<path d="M352 111 h0"></path>
<path d="M436 111 h0"></path>
<rect x="352" y="100" width="84" height="22"  rx="10" ry="10"></rect>
<text x="394" y="115">TEXTFILE</text>
</g>
<path d="M436 111 a10 10 0 0 0 10 -10v-10a10 10 0 0 1 10 -10"></path>
</g>
<g>
<path d="M456 81 h0"></path>
<path d="M848 81 h0"></path>
<path d="M456 81 a10 10 0 0 0 10 -10v0a10 10 0 0 1 10 -10"></path>
<g>
<path d="M476 61 h352"></path>
</g>
<path d="M828 61 a10 10 0 0 1 10 10v0a10 10 0 0 0 10 10"></path>
<path d="M456 81 h20"></path>
<g>
<path d="M476 81 h0"></path>
<path d="M828 81 h0"></path>
<path d="M476 81 h10"></path>
<g>
<path d="M486 81 h0"></path>
<path d="M554 81 h0"></path>
<rect x="486" y="70" width="68" height="22"  rx="10" ry="10"></rect>
<text x="520" y="85">FIELDS</text>
</g>
<path d="M554 81 h10"></path>
<path d="M564 81 h10"></path>
<g>
<path d="M574 81 h0"></path>
<path d="M674 81 h0"></path>
<rect x="574" y="70" width="100" height="22"  rx="10" ry="10"></rect>
<text x="624" y="85">TERMINATED</text>
</g>
<path d="M674 81 h10"></path>
<path d="M684 81 h10"></path>
<g>
<path d="M694 81 h0"></path>
<path d="M730 81 h0"></path>
<rect x="694" y="70" width="36" height="22"  rx="10" ry="10"></rect>
<text x="712" y="85">BY</text>
</g>
<path d="M730 81 h10"></path>
<path d="M740 81 h10"></path>
<g>
<path d="M750 81 h0"></path>
<path d="M818 81 h0"></path>
<rect x="750" y="70" width="68" height="22" ></rect>
<text x="784" y="85">STRING</text>
</g>
<path d="M818 81 h10"></path>
</g>
<path d="M828 81 h20"></path>
</g>
<g>
<path d="M848 81 h0"></path>
<path d="M972 81 h0"></path>
<path d="M848 81 a10 10 0 0 0 10 -10v0a10 10 0 0 1 10 -10"></path>
<g>
<path d="M868 61 h84"></path>
</g>
<path d="M952 61 a10 10 0 0 1 10 10v0a10 10 0 0 0 10 10"></path>
<path d="M848 81 h20"></path>
<g>
<path d="M868 81 h0"></path>
<path d="M952 81 h0"></path>
<rect x="868" y="70" width="84" height="22"  rx="10" ry="10"></rect>
<text x="910" y="85">NOHEADER</text>
</g>
<path d="M952 81 h20"></path>
</g>
</g>
<path d="M972 81 a10 10 0 0 0 10 -10v-20a10 10 0 0 1 10 -10"></path>
<path d="M312 41 a10 10 0 0 1 10 10v90a10 10 0 0 0 10 10"></path>
<g>
<path d="M332 151 h218"></path>
<path d="M754 151 h218"></path>
<path d="M550 151 h10"></path>
<g>
<path d="M560 151 h0"></path>
<path d="M612 151 h0"></path>
<rect x="560" y="140" width="52" height="22"  rx="10" ry="10"></rect>
<text x="586" y="155">JSON</text>
</g>
<path d="M612 151 h10"></path>
<g>
<path d="M622 151 h0"></path>
<path d="M754 151 h0"></path>
<path d="M622 151 a10 10 0 0 0 10 -10v0a10 10 0 0 1 10 -10"></path>
<g>
<path d="M642 131 h92"></path>
</g>
<path d="M734 131 a10 10 0 0 1 10 10v0a10 10 0 0 0 10 10"></path>
<path d="M622 151 h20"></path>
<g>
<path d="M642 151 h0"></path>
<path d="M734 151 h0"></path>
<rect x="642" y="140" width="92" height="22"  rx="10" ry="10"></rect>
<text x="688" y="155">MULTILINE</text>
</g>
<path d="M734 151 h20"></path>
</g>
</g>
<path d="M972 151 a10 10 0 0 0 10 -10v-90a10 10 0 0 1 10 -10"></path>
<path d="M312 41 a10 10 0 0 1 10 10v120a10 10 0 0 0 10 10"></path>
<g>
<path d="M332 181 h298"></path>
<path d="M674 181 h298"></path>
<rect x="630" y="170" width="44" height="22"  rx="10" ry="10"></rect>
<text x="652" y="185">ORC</text>
</g>
<path d="M972 181 a10 10 0 0 0 10 -10v-120a10 10 0 0 1 10 -10"></path>
<path d="M312 41 a10 10 0 0 1 10 10v160a10 10 0 0 0 10 10"></path>
<g>
<path d="M332 221 h168"></path>
<path d="M804 221 h168"></path>
<path d="M500 221 h10"></path>
<g>
<path d="M510 221 h0"></path>
<path d="M586 221 h0"></path>
<rect x="510" y="210" width="76" height="22"  rx="10" ry="10"></rect>
<text x="548" y="225">PARQUET</text>
</g>
<path d="M586 221 h10"></path>
<g>
<path d="M596 221 h0"></path>
<path d="M804 221 h0"></path>
<path d="M596 221 a10 10 0 0 0 10 -10v0a10 10 0 0 1 10 -10"></path>
<g>
<path d="M616 201 h168"></path>
</g>
<path d="M784 201 a10 10 0 0 1 10 10v0a10 10 0 0 0 10 10"></path>
<path d="M596 221 h20"></path>
<g>
<path d="M616 221 h0"></path>
<path d="M784 221 h0"></path>
<path d="M616 221 h10"></path>
<g>
<path d="M626 221 h0"></path>
<path d="M686 221 h0"></path>
<rect x="626" y="210" width="60" height="22"  rx="10" ry="10"></rect>
<text x="656" y="225">MERGE</text>
</g>
<path d="M686 221 h10"></path>
<path d="M696 221 h10"></path>
<g>
<path d="M706 221 h0"></path>
<path d="M774 221 h0"></path>
<rect x="706" y="210" width="68" height="22"  rx="10" ry="10"></rect>
<text x="740" y="225">SCHEMA</text>
</g>
<path d="M774 221 h10"></path>
</g>
<path d="M784 221 h20"></path>
</g>
</g>
<path d="M972 221 a10 10 0 0 0 10 -10v-160a10 10 0 0 1 10 -10"></path>
</g>
</g>
<path d="M992 41 h20"></path>
</g>
<path d="M1012 41 h10"></path>
<g id="eol">
<path d="M1022 41 h0"></path>
<path d="M1022 41 a 10 10 0 0 1 10 10 V 240 a 10 10 0 0 1 -10 10 h -991 a 10 10 0 0 0 -10 10 V 265 a 10 10 0 0 0 10 10"></path>
<path d="M1022 41 h0"></path>
<path d="M1022 41 h0"></path>
</g>
<path d="M31 275 h10"></path>
</g>
<path d="M41 275 h20"></path>
<path d="M40 41 a10 10 0 0 1 10 10v190a10 10 0 0 0 10 10"></path>
<g>
<path d="M60 251 h404"></path>
<path d="M704 251 h404"></path>
<path d="M464 251 h10"></path>
<g>
<path d="M474 251 h0"></path>
<path d="M534 251 h0"></path>
<rect x="474" y="240" width="60" height="22"  rx="10" ry="10"></rect>
<text x="504" y="255">TABLE</text>
</g>
<path d="M534 251 h10"></path>
<path d="M544 251 h10"></path>
<g>
<path d="M554 251 h0"></path>
<path d="M694 251 h0"></path>
<rect x="554" y="240" width="140" height="22" ></rect>
<text x="624" y="255">tableIdentifier</text>
</g>
<path d="M694 251 h10"></path>
</g>
<path d="M41 485 a10 10 0 0 0 10 -10v-190a10 10 0 0 1 10 -10"></path>
</g>
<path d="M61 275  h 20 m -10 -10 v 20 m 10 -20 v 20"></path>
</g>
</svg>
