<?xml version="1.0" standalone="no"?>
<!DOCTYPE svg PUBLIC "-//W3C//DTD SVG 1.1//EN"
  "http://www.w3.org/Graphics/SVG/1.1/DTD/svg11.dtd">

<svg xmlns="http://www.w3.org/2000/svg" version="1.1" class="railroad-diagram"  width="582" height="182" viewBox="0 0 582 182" >
<defs><style type="text/css"><![CDATA[ svg.railroad-diagram {
  background-color: #ffffff;
}
svg.railroad-diagram path {
  stroke-width: 2;
  stroke: #5a6872;
  fill: none;
}
svg.railroad-diagram text {
  font-size: 14px;
  font-family: 'ibm-plex-mono', 'Menlo', 'DejaVu Sans Mono', 'Bitstream Vera Sans Mono', Courier, monospace;
  color: #152935;
  text-anchor: middle;
  cursor: pointer;
}
svg.railroad-diagram text.label {
  text-anchor: start;
}
svg.railroad-diagram text.comment {
  font-size: 12px;
}
svg.railroad-diagram rect {
  stroke-width: 2;
  stroke:  #5a6872;
  fill: #5aaafa;
}
 ]]></style></defs>

<g transform="translate(.5 .5)">
<path d="M 20 21 v 20 m 10 -20 v 20 m -10 -10 h 20.5"></path>
<g>
<path d="M40 31h0"></path>
<path d="M552 31h0"></path>
<path d="M40 31h20"></path>
<g>
<path d="M60 31h100"></path>
<path d="M432 31h100"></path>
<path d="M160 31h10"></path>
<g>
<path d="M170 31h0"></path>
<path d="M238 31h0"></path>
<rect x="170" y="20" width="68" height="22" rx="10" ry="10"></rect>
<text x="204" y="35">MINMAX</text>
</g>
<path d="M238 31h10"></path>
<path d="M248 31h10"></path>
<g>
<path d="M258 31h0"></path>
<path d="M302 31h0"></path>
<rect x="258" y="20" width="44" height="22" rx="10" ry="10"></rect>
<text x="280" y="35">FOR</text>
</g>
<path d="M302 31h10"></path>
<path d="M312 31h10"></path>
<g>
<path d="M322 31h0"></path>
<path d="M422 31h0"></path>
<rect x="322" y="20" width="100" height="22"></rect>
<text x="372" y="35">identifier</text>
</g>
<path d="M422 31h10"></path>
</g>
<path d="M532 31h20"></path>
<path d="M40 31a10 10 0 0 1 10 10v10a10 10 0 0 0 10 10"></path>
<g>
<path d="M60 61h84"></path>
<path d="M448 61h84"></path>
<path d="M144 61h10"></path>
<g>
<path d="M154 61h0"></path>
<path d="M254 61h0"></path>
<rect x="154" y="50" width="100" height="22" rx="10" ry="10"></rect>
<text x="204" y="65">GEOSPATIAL</text>
</g>
<path d="M254 61h10"></path>
<path d="M264 61h10"></path>
<g>
<path d="M274 61h0"></path>
<path d="M318 61h0"></path>
<rect x="274" y="50" width="44" height="22" rx="10" ry="10"></rect>
<text x="296" y="65">FOR</text>
</g>
<path d="M318 61h10"></path>
<path d="M328 61h10"></path>
<g>
<path d="M338 61h0"></path>
<path d="M438 61h0"></path>
<rect x="338" y="50" width="100" height="22"></rect>
<text x="388" y="65">identifier</text>
</g>
<path d="M438 61h10"></path>
</g>
<path d="M532 61a10 10 0 0 0 10 -10v-10a10 10 0 0 1 10 -10"></path>
<path d="M40 31a10 10 0 0 1 10 10v40a10 10 0 0 0 10 10"></path>
<g>
<path d="M60 91h0"></path>
<path d="M532 91h0"></path>
<path d="M60 91h10"></path>
<g>
<path d="M70 91h0"></path>
<path d="M170 91h0"></path>
<rect x="70" y="80" width="100" height="22" rx="10" ry="10"></rect>
<text x="120" y="95">GEOSPATIAL</text>
</g>
<path d="M170 91h10"></path>
<path d="M180 91h10"></path>
<g>
<path d="M190 91h0"></path>
<path d="M234 91h0"></path>
<rect x="190" y="80" width="44" height="22" rx="10" ry="10"></rect>
<text x="212" y="95">FOR</text>
</g>
<path d="M234 91h10"></path>
<path d="M244 91h10"></path>
<g>
<path d="M254 91h0"></path>
<path d="M354 91h0"></path>
<rect x="254" y="80" width="100" height="22"></rect>
<text x="304" y="95">identifier</text>
</g>
<path d="M354 91h10"></path>
<path d="M364 91h10"></path>
<g>
<path d="M374 91h0"></path>
<path d="M402 91h0"></path>
<rect x="374" y="80" width="28" height="22" rx="10" ry="10"></rect>
<text x="388" y="95">,</text>
</g>
<path d="M402 91h10"></path>
<path d="M412 91h10"></path>
<g>
<path d="M422 91h0"></path>
<path d="M522 91h0"></path>
<rect x="422" y="80" width="100" height="22"></rect>
<text x="472" y="95">identifier</text>
</g>
<path d="M522 91h10"></path>
</g>
<path d="M532 91a10 10 0 0 0 10 -10v-40a10 10 0 0 1 10 -10"></path>
<path d="M40 31a10 10 0 0 1 10 10v70a10 10 0 0 0 10 10"></path>
<g>
<path d="M60 121h88"></path>
<path d="M444 121h88"></path>
<path d="M148 121h10"></path>
<g>
<path d="M158 121h0"></path>
<path d="M250 121h0"></path>
<rect x="158" y="110" width="92" height="22" rx="10" ry="10"></rect>
<text x="204" y="125">VALUELIST</text>
</g>
<path d="M250 121h10"></path>
<path d="M260 121h10"></path>
<g>
<path d="M270 121h0"></path>
<path d="M314 121h0"></path>
<rect x="270" y="110" width="44" height="22" rx="10" ry="10"></rect>
<text x="292" y="125">FOR</text>
</g>
<path d="M314 121h10"></path>
<path d="M324 121h10"></path>
<g>
<path d="M334 121h0"></path>
<path d="M434 121h0"></path>
<rect x="334" y="110" width="100" height="22"></rect>
<text x="384" y="125">identifier</text>
</g>
<path d="M434 121h10"></path>
</g>
<path d="M532 121a10 10 0 0 0 10 -10v-70a10 10 0 0 1 10 -10"></path>
<path d="M40 31a10 10 0 0 1 10 10v100a10 10 0 0 0 10 10"></path>
<g>
<path d="M60 151h80"></path>
<path d="M452 151h80"></path>
<path d="M140 151h10"></path>
<g>
<path d="M150 151h0"></path>
<path d="M258 151h0"></path>
<rect x="150" y="140" width="108" height="22" rx="10" ry="10"></rect>
<text x="204" y="155">BLOOMFILTER</text>
</g>
<path d="M258 151h10"></path>
<path d="M268 151h10"></path>
<g>
<path d="M278 151h0"></path>
<path d="M322 151h0"></path>
<rect x="278" y="140" width="44" height="22" rx="10" ry="10"></rect>
<text x="300" y="155">FOR</text>
</g>
<path d="M322 151h10"></path>
<path d="M332 151h10"></path>
<g>
<path d="M342 151h0"></path>
<path d="M442 151h0"></path>
<rect x="342" y="140" width="100" height="22"></rect>
<text x="392" y="155">identifier</text>
</g>
<path d="M442 151h10"></path>
</g>
<path d="M532 151a10 10 0 0 0 10 -10v-100a10 10 0 0 1 10 -10"></path>
</g>
<path d="M 552 31 h 20 m -10 -10 v 20 m 10 -20 v 20"></path>
</g>
</svg>
