<?xml version="1.0" standalone="no"?>
<!DOCTYPE svg PUBLIC "-//W3C//DTD SVG 1.1//EN"
  "http://www.w3.org/Graphics/SVG/1.1/DTD/svg11.dtd">

<svg xmlns="http://www.w3.org/2000/svg" version="1.1" class="railroad-diagram"  width="1022" height="252" viewBox="0 0 1022 252" >
<defs><style type="text/css"><![CDATA[ svg.railroad-diagram {
  background-color: #ffffff;
}
svg.railroad-diagram path {
  stroke-width: 2;
  stroke: #5a6872;
  fill: none;
}
svg.railroad-diagram text {
  font-size: 14px;
  font-family: 'ibm-plex-mono', 'Menlo', 'DejaVu Sans Mono', 'Bitstream Vera Sans Mono', Courier, monospace;
  color: #152935;
  text-anchor: middle;
  cursor: pointer;
}
svg.railroad-diagram text.label {
  text-anchor: start;
}
svg.railroad-diagram text.comment {
  font-size: 12px;
}
svg.railroad-diagram rect {
  stroke-width: 2;
  stroke:  #5a6872;
  fill: #5aaafa;
}
 ]]></style></defs>

<g transform="translate(.5 .5)">
<path d="M 20 31 v 20 m 10 -20 v 20 m -10 -10 h 20.5"></path>
<g>
<path d="M40 41h0"></path>
<path d="M992 41h0"></path>
<path d="M40 41h10"></path>
<g>
<path d="M50 41h0"></path>
<path d="M118 41h0"></path>
<rect x="50" y="30" width="68" height="22"></rect>
<text x="84" y="45">COSURI</text>
</g>
<path d="M118 41h10"></path>
<g>
<path d="M128 41h0"></path>
<path d="M992 41h0"></path>
<path d="M128 41a10 10 0 0 0 10 -10v0a10 10 0 0 1 10 -10"></path>
<g>
<path d="M148 21h824"></path>
</g>
<path d="M972 21a10 10 0 0 1 10 10v0a10 10 0 0 0 10 10"></path>
<path d="M128 41h20"></path>
<g>
<path d="M148 41h0"></path>
<path d="M972 41h0"></path>
<path d="M148 41h10"></path>
<g>
<path d="M158 41h0"></path>
<path d="M226 41h0"></path>
<rect x="158" y="30" width="68" height="22" rx="10" ry="10"></rect>
<text x="192" y="45">STORED</text>
</g>
<path d="M226 41h10"></path>
<path d="M236 41h10"></path>
<g>
<path d="M246 41h0"></path>
<path d="M282 41h0"></path>
<rect x="246" y="30" width="36" height="22" rx="10" ry="10"></rect>
<text x="264" y="45">AS</text>
</g>
<path d="M282 41h10"></path>
<g>
<path d="M292 41h0"></path>
<path d="M972 41h0"></path>
<path d="M292 41h20"></path>
<g>
<path d="M312 41h294"></path>
<path d="M658 41h294"></path>
<rect x="606" y="30" width="52" height="22" rx="10" ry="10"></rect>
<text x="632" y="45">AVRO</text>
</g>
<path d="M952 41h20"></path>
<path d="M292 41a10 10 0 0 1 10 10v20a10 10 0 0 0 10 10"></path>
<g>
<path d="M312 81h0"></path>
<path d="M952 81h0"></path>
<g>
<path d="M312 81h0"></path>
<path d="M436 81h0"></path>
<path d="M312 81h20"></path>
<g>
<path d="M332 81h20"></path>
<path d="M396 81h20"></path>
<rect x="352" y="70" width="44" height="22" rx="10" ry="10"></rect>
<text x="374" y="85">CSV</text>
</g>
<path d="M416 81h20"></path>
<path d="M312 81a10 10 0 0 1 10 10v10a10 10 0 0 0 10 10"></path>
<g>
<path d="M332 111h0"></path>
<path d="M416 111h0"></path>
<rect x="332" y="100" width="84" height="22" rx="10" ry="10"></rect>
<text x="374" y="115">TEXTFILE</text>
</g>
<path d="M416 111a10 10 0 0 0 10 -10v-10a10 10 0 0 1 10 -10"></path>
</g>
<g>
<path d="M436 81h0"></path>
<path d="M828 81h0"></path>
<path d="M436 81a10 10 0 0 0 10 -10v0a10 10 0 0 1 10 -10"></path>
<g>
<path d="M456 61h352"></path>
</g>
<path d="M808 61a10 10 0 0 1 10 10v0a10 10 0 0 0 10 10"></path>
<path d="M436 81h20"></path>
<g>
<path d="M456 81h0"></path>
<path d="M808 81h0"></path>
<path d="M456 81h10"></path>
<g>
<path d="M466 81h0"></path>
<path d="M534 81h0"></path>
<rect x="466" y="70" width="68" height="22" rx="10" ry="10"></rect>
<text x="500" y="85">FIELDS</text>
</g>
<path d="M534 81h10"></path>
<path d="M544 81h10"></path>
<g>
<path d="M554 81h0"></path>
<path d="M654 81h0"></path>
<rect x="554" y="70" width="100" height="22" rx="10" ry="10"></rect>
<text x="604" y="85">TERMINATED</text>
</g>
<path d="M654 81h10"></path>
<path d="M664 81h10"></path>
<g>
<path d="M674 81h0"></path>
<path d="M710 81h0"></path>
<rect x="674" y="70" width="36" height="22" rx="10" ry="10"></rect>
<text x="692" y="85">BY</text>
</g>
<path d="M710 81h10"></path>
<path d="M720 81h10"></path>
<g>
<path d="M730 81h0"></path>
<path d="M798 81h0"></path>
<rect x="730" y="70" width="68" height="22"></rect>
<text x="764" y="85">STRING</text>
</g>
<path d="M798 81h10"></path>
</g>
<path d="M808 81h20"></path>
</g>
<g>
<path d="M828 81h0"></path>
<path d="M952 81h0"></path>
<path d="M828 81a10 10 0 0 0 10 -10v0a10 10 0 0 1 10 -10"></path>
<g>
<path d="M848 61h84"></path>
</g>
<path d="M932 61a10 10 0 0 1 10 10v0a10 10 0 0 0 10 10"></path>
<path d="M828 81h20"></path>
<g>
<path d="M848 81h0"></path>
<path d="M932 81h0"></path>
<rect x="848" y="70" width="84" height="22" rx="10" ry="10"></rect>
<text x="890" y="85">NOHEADER</text>
</g>
<path d="M932 81h20"></path>
</g>
</g>
<path d="M952 81a10 10 0 0 0 10 -10v-20a10 10 0 0 1 10 -10"></path>
<path d="M292 41a10 10 0 0 1 10 10v90a10 10 0 0 0 10 10"></path>
<g>
<path d="M312 151h218"></path>
<path d="M734 151h218"></path>
<path d="M530 151h10"></path>
<g>
<path d="M540 151h0"></path>
<path d="M592 151h0"></path>
<rect x="540" y="140" width="52" height="22" rx="10" ry="10"></rect>
<text x="566" y="155">JSON</text>
</g>
<path d="M592 151h10"></path>
<g>
<path d="M602 151h0"></path>
<path d="M734 151h0"></path>
<path d="M602 151a10 10 0 0 0 10 -10v0a10 10 0 0 1 10 -10"></path>
<g>
<path d="M622 131h92"></path>
</g>
<path d="M714 131a10 10 0 0 1 10 10v0a10 10 0 0 0 10 10"></path>
<path d="M602 151h20"></path>
<g>
<path d="M622 151h0"></path>
<path d="M714 151h0"></path>
<rect x="622" y="140" width="92" height="22" rx="10" ry="10"></rect>
<text x="668" y="155">MULTILINE</text>
</g>
<path d="M714 151h20"></path>
</g>
</g>
<path d="M952 151a10 10 0 0 0 10 -10v-90a10 10 0 0 1 10 -10"></path>
<path d="M292 41a10 10 0 0 1 10 10v120a10 10 0 0 0 10 10"></path>
<g>
<path d="M312 181h298"></path>
<path d="M654 181h298"></path>
<rect x="610" y="170" width="44" height="22" rx="10" ry="10"></rect>
<text x="632" y="185">ORC</text>
</g>
<path d="M952 181a10 10 0 0 0 10 -10v-120a10 10 0 0 1 10 -10"></path>
<path d="M292 41a10 10 0 0 1 10 10v160a10 10 0 0 0 10 10"></path>
<g>
<path d="M312 221h168"></path>
<path d="M784 221h168"></path>
<path d="M480 221h10"></path>
<g>
<path d="M490 221h0"></path>
<path d="M566 221h0"></path>
<rect x="490" y="210" width="76" height="22" rx="10" ry="10"></rect>
<text x="528" y="225">PARQUET</text>
</g>
<path d="M566 221h10"></path>
<g>
<path d="M576 221h0"></path>
<path d="M784 221h0"></path>
<path d="M576 221a10 10 0 0 0 10 -10v0a10 10 0 0 1 10 -10"></path>
<g>
<path d="M596 201h168"></path>
</g>
<path d="M764 201a10 10 0 0 1 10 10v0a10 10 0 0 0 10 10"></path>
<path d="M576 221h20"></path>
<g>
<path d="M596 221h0"></path>
<path d="M764 221h0"></path>
<path d="M596 221h10"></path>
<g>
<path d="M606 221h0"></path>
<path d="M666 221h0"></path>
<rect x="606" y="210" width="60" height="22" rx="10" ry="10"></rect>
<text x="636" y="225">MERGE</text>
</g>
<path d="M666 221h10"></path>
<path d="M676 221h10"></path>
<g>
<path d="M686 221h0"></path>
<path d="M754 221h0"></path>
<rect x="686" y="210" width="68" height="22" rx="10" ry="10"></rect>
<text x="720" y="225">SCHEMA</text>
</g>
<path d="M754 221h10"></path>
</g>
<path d="M764 221h20"></path>
</g>
</g>
<path d="M952 221a10 10 0 0 0 10 -10v-160a10 10 0 0 1 10 -10"></path>
</g>
</g>
<path d="M972 41h20"></path>
</g>
</g>
<path d="M 992 41 h 20 m -10 -10 v 20 m 10 -20 v 20"></path>
</g>
</svg>
