<?xml version="1.0" standalone="no"?>
<!DOCTYPE svg PUBLIC "-//W3C//DTD SVG 1.1//EN"
  "http://www.w3.org/Graphics/SVG/1.1/DTD/svg11.dtd">

<svg xmlns="http://www.w3.org/2000/svg" version="1.1" class="railroad-diagram"  width="646" height="62" viewBox="0 0 646 62" >
<defs><style type="text/css"><![CDATA[ svg.railroad-diagram {
  background-color: #ffffff;
}
svg.railroad-diagram path {
  stroke-width: 2;
  stroke: #5a6872;
  fill: none;
}
svg.railroad-diagram text {
  font-size: 14px;
  font-family: 'ibm-plex-mono', 'Menlo', 'DejaVu Sans Mono', 'Bitstream Vera Sans Mono', Courier, monospace;
  color: #152935;
  text-anchor: middle;
  cursor: pointer;
}
svg.railroad-diagram text.label {
  text-anchor: start;
}
svg.railroad-diagram text.comment {
  font-size: 12px;
}
svg.railroad-diagram rect {
  stroke-width: 2;
  stroke:  #5a6872;
  fill: #5aaafa;
}
 ]]></style></defs>

<g transform="translate(.5 .5)">
<path d="M 20 21 v 20 m 10 -20 v 20 m -10 -10 h 20.5"></path>
<g>
<path d="M40 31h0"></path>
<path d="M616 31h0"></path>
<path d="M40 31h10"></path>
<g>
<path d="M50 31h0"></path>
<path d="M110 31h0"></path>
<rect x="50" y="20" width="60" height="22" rx="10" ry="10"></rect>
<text x="80" y="35">ALTER</text>
</g>
<path d="M110 31h10"></path>
<path d="M120 31h10"></path>
<g>
<path d="M130 31h0"></path>
<path d="M222 31h0"></path>
<rect x="130" y="20" width="92" height="22" rx="10" ry="10"></rect>
<text x="176" y="35">METAINDEX</text>
</g>
<path d="M222 31h10"></path>
<path d="M232 31h10"></path>
<g>
<path d="M242 31h0"></path>
<path d="M286 31h0"></path>
<rect x="242" y="20" width="44" height="22" rx="10" ry="10"></rect>
<text x="264" y="35">SET</text>
</g>
<path d="M286 31h10"></path>
<path d="M296 31h10"></path>
<g>
<path d="M306 31h0"></path>
<path d="M390 31h0"></path>
<rect x="306" y="20" width="84" height="22" rx="10" ry="10"></rect>
<text x="348" y="35">LOCATION</text>
</g>
<path d="M390 31h10"></path>
<path d="M400 31h10"></path>
<g>
<path d="M410 31h0"></path>
<path d="M606 31h0"></path>
<rect x="410" y="20" width="196" height="22"></rect>
<text x="508" y="35">metaindexAssetLocation</text>
</g>
<path d="M606 31h10"></path>
</g>
<path d="M 616 31 h 20 m -10 -10 v 20 m 10 -20 v 20"></path>
</g>
</svg>
