<?xml version="1.0" standalone="no"?>
<!DOCTYPE svg PUBLIC "-//W3C//DTD SVG 1.1//EN"
  "http://www.w3.org/Graphics/SVG/1.1/DTD/svg11.dtd">

<svg xmlns="http://www.w3.org/2000/svg" version="1.1" class="railroad-diagram"  width="422" height="152" viewBox="0 0 422 152" >
<defs><style type="text/css"><![CDATA[ svg.railroad-diagram {
  background-color: #ffffff;
}
svg.railroad-diagram path {
  stroke-width: 2;
  stroke: #5a6872;
  fill: none;
}
svg.railroad-diagram text {
  font-size: 14px;
  font-family: 'ibm-plex-mono', 'Menlo', 'DejaVu Sans Mono', 'Bitstream Vera Sans Mono', Courier, monospace;
  color: #152935;
  text-anchor: middle;
  cursor: pointer;
}
svg.railroad-diagram text.label {
  text-anchor: start;
}
svg.railroad-diagram text.comment {
  font-size: 12px;
}
svg.railroad-diagram rect {
  stroke-width: 2;
  stroke:  #5a6872;
  fill: #5aaafa;
}
 ]]></style></defs>

<g transform="translate(.5 .5)">
<path d="M 20 21 v 20 m 10 -20 v 20 m -10 -10 h 20.5"></path>
<g>
<path d="M40 31h0"></path>
<path d="M392 31h0"></path>
<path d="M40 31h20"></path>
<g>
<path d="M60 31h20"></path>
<path d="M352 31h20"></path>
<path d="M80 31h10"></path>
<g>
<path d="M90 31h0"></path>
<path d="M158 31h0"></path>
<rect x="90" y="20" width="68" height="22" rx="10" ry="10"></rect>
<text x="124" y="35">MINMAX</text>
</g>
<path d="M158 31h10"></path>
<path d="M168 31h10"></path>
<g>
<path d="M178 31h0"></path>
<path d="M222 31h0"></path>
<rect x="178" y="20" width="44" height="22" rx="10" ry="10"></rect>
<text x="200" y="35">FOR</text>
</g>
<path d="M222 31h10"></path>
<path d="M232 31h10"></path>
<g>
<path d="M242 31h0"></path>
<path d="M342 31h0"></path>
<rect x="242" y="20" width="100" height="22"></rect>
<text x="292" y="35">identifier</text>
</g>
<path d="M342 31h10"></path>
</g>
<path d="M372 31h20"></path>
<path d="M40 31a10 10 0 0 1 10 10v10a10 10 0 0 0 10 10"></path>
<g>
<path d="M60 61h4"></path>
<path d="M368 61h4"></path>
<path d="M64 61h10"></path>
<g>
<path d="M74 61h0"></path>
<path d="M174 61h0"></path>
<rect x="74" y="50" width="100" height="22" rx="10" ry="10"></rect>
<text x="124" y="65">GEOSPATIAL</text>
</g>
<path d="M174 61h10"></path>
<path d="M184 61h10"></path>
<g>
<path d="M194 61h0"></path>
<path d="M238 61h0"></path>
<rect x="194" y="50" width="44" height="22" rx="10" ry="10"></rect>
<text x="216" y="65">FOR</text>
</g>
<path d="M238 61h10"></path>
<path d="M248 61h10"></path>
<g>
<path d="M258 61h0"></path>
<path d="M358 61h0"></path>
<rect x="258" y="50" width="100" height="22"></rect>
<text x="308" y="65">identifier</text>
</g>
<path d="M358 61h10"></path>
</g>
<path d="M372 61a10 10 0 0 0 10 -10v-10a10 10 0 0 1 10 -10"></path>
<path d="M40 31a10 10 0 0 1 10 10v40a10 10 0 0 0 10 10"></path>
<g>
<path d="M60 91h8"></path>
<path d="M364 91h8"></path>
<path d="M68 91h10"></path>
<g>
<path d="M78 91h0"></path>
<path d="M170 91h0"></path>
<rect x="78" y="80" width="92" height="22" rx="10" ry="10"></rect>
<text x="124" y="95">VALUELIST</text>
</g>
<path d="M170 91h10"></path>
<path d="M180 91h10"></path>
<g>
<path d="M190 91h0"></path>
<path d="M234 91h0"></path>
<rect x="190" y="80" width="44" height="22" rx="10" ry="10"></rect>
<text x="212" y="95">FOR</text>
</g>
<path d="M234 91h10"></path>
<path d="M244 91h10"></path>
<g>
<path d="M254 91h0"></path>
<path d="M354 91h0"></path>
<rect x="254" y="80" width="100" height="22"></rect>
<text x="304" y="95">identifier</text>
</g>
<path d="M354 91h10"></path>
</g>
<path d="M372 91a10 10 0 0 0 10 -10v-40a10 10 0 0 1 10 -10"></path>
<path d="M40 31a10 10 0 0 1 10 10v70a10 10 0 0 0 10 10"></path>
<g>
<path d="M60 121h0"></path>
<path d="M372 121h0"></path>
<path d="M60 121h10"></path>
<g>
<path d="M70 121h0"></path>
<path d="M178 121h0"></path>
<rect x="70" y="110" width="108" height="22" rx="10" ry="10"></rect>
<text x="124" y="125">BLOOMFILTER</text>
</g>
<path d="M178 121h10"></path>
<path d="M188 121h10"></path>
<g>
<path d="M198 121h0"></path>
<path d="M242 121h0"></path>
<rect x="198" y="110" width="44" height="22" rx="10" ry="10"></rect>
<text x="220" y="125">FOR</text>
</g>
<path d="M242 121h10"></path>
<path d="M252 121h10"></path>
<g>
<path d="M262 121h0"></path>
<path d="M362 121h0"></path>
<rect x="262" y="110" width="100" height="22"></rect>
<text x="312" y="125">identifier</text>
</g>
<path d="M362 121h10"></path>
</g>
<path d="M372 121a10 10 0 0 0 10 -10v-70a10 10 0 0 1 10 -10"></path>
</g>
<path d="M 392 31 h 20 m -10 -10 v 20 m 10 -20 v 20"></path>
</g>
</svg>
