<?xml version="1.0" standalone="no"?>
<!DOCTYPE svg PUBLIC "-//W3C//DTD SVG 1.1//EN"
  "http://www.w3.org/Graphics/SVG/1.1/DTD/svg11.dtd">

<svg xmlns="http://www.w3.org/2000/svg" version="1.1" class="railroad-diagram" width="453" height="72" viewBox="0 0 453 72">

<defs><style type="text/css"><![CDATA[ svg.railroad-diagram {
  background-color: #ffffff;
}
svg.railroad-diagram path {
  stroke-width: 2;
  stroke: #5a6872;
  fill: none;
}
svg.railroad-diagram text {
  font-size: 14px;
  font-family: 'ibm-plex-mono', 'Menlo', 'DejaVu Sans Mono', 'Bitstream Vera Sans Mono', Courier, monospace;
  color: #152935;
  text-anchor: middle;
  cursor: pointer;
}
svg.railroad-diagram text.label {
  text-anchor: start;
}
svg.railroad-diagram text.comment {
  font-size: 12px;
}
svg.railroad-diagram rect {
  stroke-width: 2;
  stroke:  #5a6872;
  fill: #5aaafa;
}
 ]]></style></defs>

<g transform="translate(.5 .5)">
<path d="M 20 31 v 20 m 10 -20 v 20 m -10 -10 h 20.5"></path>
<g>
<path d="M40 41h0"></path>
<path d="M412 41h0"></path>
<path d="M40 41h10"></path>
<g>
<path d="M50 41h0"></path>
<path d="M150 41h0"></path>
<rect x="50" y="30" width="100" height="22"></rect>
<text x="100" y="45">identifier</text>
</g>
<path d="M150 41h10"></path>
<g>
<path d="M160 41h0"></path>
<path d="M236 41h0"></path>
<path d="M160 41a10 10 0 0 0 10 -10v0a10 10 0 0 1 10 -10"></path>
<g>
<path d="M180 21h36"></path>
</g>
<path d="M216 21a10 10 0 0 1 10 10v0a10 10 0 0 0 10 10"></path>
<path d="M160 41h20"></path>
<g>
<path d="M180 41h0"></path>
<path d="M216 41h0"></path>
<rect x="180" y="30" width="36" height="22" rx="10" ry="10"></rect>
<text x="198" y="45">AS</text>
</g>
<path d="M216 41h20"></path>
</g>
<path d="M236 41h10"></path>
<g>
<path d="M246 41h0"></path>
<path d="M274 41h0"></path>
<rect x="246" y="30" width="28" height="22" rx="10" ry="10"></rect>
<text x="260" y="45">(</text>
</g>
<path d="M274 41h10"></path>
<path d="M284 41h10"></path>
<g>
<path d="M294 41h0"></path>
<path d="M354 41h0"></path>
<rect x="294" y="30" width="60" height="22"></rect>
<text x="324" y="45">query</text>
</g>
<path d="M354 41h10"></path>
<path d="M364 41h10"></path>
<g>
<path d="M374 41h0"></path>
<path d="M402 41h0"></path>
<rect x="374" y="30" width="28" height="22" rx="10" ry="10"></rect>
<text x="388" y="45">)</text>
</g>
<path d="M402 41h10"></path>
</g>
<path d="M 412 41 h 20 m -10 -10 v 20 m 10 -20 v 20"></path>
</g>
</svg>
