<?xml version="1.0" standalone="no"?>
<!DOCTYPE svg PUBLIC "-//W3C//DTD SVG 1.1//EN"
  "http://www.w3.org/Graphics/SVG/1.1/DTD/svg11.dtd">

<svg xmlns="http://www.w3.org/2000/svg" version="1.1" class="railroad-diagram" width="685" height="332" viewBox="0 0 685 332">

<defs><style type="text/css"><![CDATA[ svg.railroad-diagram {
  background-color: #ffffff;
}
svg.railroad-diagram path {
  stroke-width: 2;
  stroke: #5a6872;
  fill: none;
}
svg.railroad-diagram text {
  font-size: 14px;
  font-family: 'ibm-plex-mono', 'Menlo', 'DejaVu Sans Mono', 'Bitstream Vera Sans Mono', Courier, monospace;
  color: #152935;
  text-anchor: middle;
  cursor: pointer;
}
svg.railroad-diagram text.label {
  text-anchor: start;
}
svg.railroad-diagram text.comment {
  font-size: 12px;
}
svg.railroad-diagram rect {
  stroke-width: 2;
  stroke:  #5a6872;
  fill: #5aaafa;
}
 ]]></style></defs>

<g transform="translate(.5 .5)">
<path d="M 20 31 v 20 m 10 -20 v 20 m -10 -10 h 20.5"></path>
<g>
<path d="M40 41h0"></path>
<path d="M644 41h0"></path>
<path d="M40 41h20"></path>
<g>
<path d="M60 41h0"></path>
<path d="M624 41h0"></path>
<g>
<path d="M60 41h0"></path>
<path d="M144 41h0"></path>
<path d="M60 41a10 10 0 0 0 10 -10v0a10 10 0 0 1 10 -10"></path>
<g>
<path d="M80 21h44"></path>
</g>
<path d="M124 21a10 10 0 0 1 10 10v0a10 10 0 0 0 10 10"></path>
<path d="M60 41h20"></path>
<g>
<path d="M80 41h0"></path>
<path d="M124 41h0"></path>
<rect x="80" y="30" width="44" height="22" rx="10" ry="10"></rect>
<text x="102" y="45">NOT</text>
</g>
<path d="M124 41h20"></path>
</g>
<path d="M144 41h10"></path>
<g>
<path d="M154 41h0"></path>
<path d="M230 41h0"></path>
<rect x="154" y="30" width="76" height="22" rx="10" ry="10"></rect>
<text x="192" y="45">BETWEEN</text>
</g>
<path d="M230 41h10"></path>
<path d="M240 41h10"></path>
<g>
<path d="M250 41h0"></path>
<path d="M390 41h0"></path>
<rect x="250" y="30" width="140" height="22"></rect>
<text x="320" y="45">valueExpression</text>
</g>
<path d="M390 41h10"></path>
<path d="M400 41h10"></path>
<g>
<path d="M410 41h0"></path>
<path d="M454 41h0"></path>
<rect x="410" y="30" width="44" height="22" rx="10" ry="10"></rect>
<text x="432" y="45">AND</text>
</g>
<path d="M454 41h10"></path>
<path d="M464 41h10"></path>
<g>
<path d="M474 41h0"></path>
<path d="M614 41h0"></path>
<rect x="474" y="30" width="140" height="22"></rect>
<text x="544" y="45">valueExpression</text>
</g>
<path d="M614 41h10"></path>
</g>
<path d="M624 41h20"></path>
<path d="M40 41a10 10 0 0 1 10 10v20a10 10 0 0 0 10 10"></path>
<g>
<path d="M60 81h84"></path>
<path d="M540 81h84"></path>
<g>
<path d="M144 81h0"></path>
<path d="M228 81h0"></path>
<path d="M144 81a10 10 0 0 0 10 -10v0a10 10 0 0 1 10 -10"></path>
<g>
<path d="M164 61h44"></path>
</g>
<path d="M208 61a10 10 0 0 1 10 10v0a10 10 0 0 0 10 10"></path>
<path d="M144 81h20"></path>
<g>
<path d="M164 81h0"></path>
<path d="M208 81h0"></path>
<rect x="164" y="70" width="44" height="22" rx="10" ry="10"></rect>
<text x="186" y="85">NOT</text>
</g>
<path d="M208 81h20"></path>
</g>
<path d="M228 81h10"></path>
<g>
<path d="M238 81h0"></path>
<path d="M274 81h0"></path>
<rect x="238" y="70" width="36" height="22" rx="10" ry="10"></rect>
<text x="256" y="85">IN</text>
</g>
<path d="M274 81h10"></path>
<path d="M284 81h10"></path>
<g>
<path d="M294 81h0"></path>
<path d="M322 81h0"></path>
<rect x="294" y="70" width="28" height="22" rx="10" ry="10"></rect>
<text x="308" y="85">(</text>
</g>
<path d="M322 81h10"></path>
<path d="M332 81h10"></path>
<g>
<path d="M342 81h0"></path>
<path d="M482 81h0"></path>
<path d="M342 81h10"></path>
<g>
<path d="M352 81h0"></path>
<path d="M472 81h0"></path>
<path d="M352 81h10"></path>
<g>
<path d="M362 81h0"></path>
<path d="M462 81h0"></path>
<rect x="362" y="70" width="100" height="22"></rect>
<text x="412" y="85">expression</text>
</g>
<path d="M462 81h10"></path>
</g>
<path d="M472 81h10"></path>
<path d="M352 81a10 10 0 0 0 -10 10v10a10 10 0 0 0 10 10"></path>
<g>
<path d="M352 111h36"></path>
<path d="M436 111h36"></path>
<path d="M388 111h10"></path>
<g>
<path d="M398 111h0"></path>
<path d="M426 111h0"></path>
<rect x="398" y="100" width="28" height="22" rx="10" ry="10"></rect>
<text x="412" y="115">,</text>
</g>
<path d="M426 111h10"></path>
</g>
<path d="M472 111a10 10 0 0 0 10 -10v-10a10 10 0 0 0 -10 -10"></path>
</g>
<path d="M482 81h10"></path>
<path d="M492 81h10"></path>
<g>
<path d="M502 81h0"></path>
<path d="M530 81h0"></path>
<rect x="502" y="70" width="28" height="22" rx="10" ry="10"></rect>
<text x="516" y="85">)</text>
</g>
<path d="M530 81h10"></path>
</g>
<path d="M624 81a10 10 0 0 0 10 -10v-20a10 10 0 0 1 10 -10"></path>
<path d="M40 41a10 10 0 0 1 10 10v90a10 10 0 0 0 10 10"></path>
<g>
<path d="M60 151h124"></path>
<path d="M500 151h124"></path>
<g>
<path d="M184 151h0"></path>
<path d="M268 151h0"></path>
<path d="M184 151a10 10 0 0 0 10 -10v0a10 10 0 0 1 10 -10"></path>
<g>
<path d="M204 131h44"></path>
</g>
<path d="M248 131a10 10 0 0 1 10 10v0a10 10 0 0 0 10 10"></path>
<path d="M184 151h20"></path>
<g>
<path d="M204 151h0"></path>
<path d="M248 151h0"></path>
<rect x="204" y="140" width="44" height="22" rx="10" ry="10"></rect>
<text x="226" y="155">NOT</text>
</g>
<path d="M248 151h20"></path>
</g>
<path d="M268 151h10"></path>
<g>
<path d="M278 151h0"></path>
<path d="M314 151h0"></path>
<rect x="278" y="140" width="36" height="22" rx="10" ry="10"></rect>
<text x="296" y="155">IN</text>
</g>
<path d="M314 151h10"></path>
<path d="M324 151h10"></path>
<g>
<path d="M334 151h0"></path>
<path d="M362 151h0"></path>
<rect x="334" y="140" width="28" height="22" rx="10" ry="10"></rect>
<text x="348" y="155">(</text>
</g>
<path d="M362 151h10"></path>
<path d="M372 151h10"></path>
<g>
<path d="M382 151h0"></path>
<path d="M442 151h0"></path>
<rect x="382" y="140" width="60" height="22"></rect>
<text x="412" y="155">query</text>
</g>
<path d="M442 151h10"></path>
<path d="M452 151h10"></path>
<g>
<path d="M462 151h0"></path>
<path d="M490 151h0"></path>
<rect x="462" y="140" width="28" height="22" rx="10" ry="10"></rect>
<text x="476" y="155">)</text>
</g>
<path d="M490 151h10"></path>
</g>
<path d="M624 151a10 10 0 0 0 10 -10v-90a10 10 0 0 1 10 -10"></path>
<path d="M40 41a10 10 0 0 1 10 10v130a10 10 0 0 0 10 10"></path>
<g>
<path d="M60 191h110"></path>
<path d="M514 191h110"></path>
<g>
<path d="M170 191h0"></path>
<path d="M254 191h0"></path>
<path d="M170 191a10 10 0 0 0 10 -10v0a10 10 0 0 1 10 -10"></path>
<g>
<path d="M190 171h44"></path>
</g>
<path d="M234 171a10 10 0 0 1 10 10v0a10 10 0 0 0 10 10"></path>
<path d="M170 191h20"></path>
<g>
<path d="M190 191h0"></path>
<path d="M234 191h0"></path>
<rect x="190" y="180" width="44" height="22" rx="10" ry="10"></rect>
<text x="212" y="195">NOT</text>
</g>
<path d="M234 191h20"></path>
</g>
<g>
<path d="M254 191h0"></path>
<path d="M354 191h0"></path>
<path d="M254 191h20"></path>
<g>
<path d="M274 191h0"></path>
<path d="M334 191h0"></path>
<rect x="274" y="180" width="60" height="22" rx="10" ry="10"></rect>
<text x="304" y="195">RLIKE</text>
</g>
<path d="M334 191h20"></path>
<path d="M254 191a10 10 0 0 1 10 10v10a10 10 0 0 0 10 10"></path>
<g>
<path d="M274 221h4"></path>
<path d="M330 221h4"></path>
<rect x="278" y="210" width="52" height="22" rx="10" ry="10"></rect>
<text x="304" y="225">LIKE</text>
</g>
<path d="M334 221a10 10 0 0 0 10 -10v-10a10 10 0 0 1 10 -10"></path>
</g>
<path d="M354 191h10"></path>
<g>
<path d="M364 191h0"></path>
<path d="M504 191h0"></path>
<rect x="364" y="180" width="140" height="22"></rect>
<text x="434" y="195">valueExpression</text>
</g>
<path d="M504 191h10"></path>
</g>
<path d="M624 191a10 10 0 0 0 10 -10v-130a10 10 0 0 1 10 -10"></path>
<path d="M40 41a10 10 0 0 1 10 10v200a10 10 0 0 0 10 10"></path>
<g>
<path d="M60 261h176"></path>
<path d="M448 261h176"></path>
<path d="M236 261h10"></path>
<g>
<path d="M246 261h0"></path>
<path d="M282 261h0"></path>
<rect x="246" y="250" width="36" height="22" rx="10" ry="10"></rect>
<text x="264" y="265">IS</text>
</g>
<path d="M282 261h10"></path>
<g>
<path d="M292 261h0"></path>
<path d="M376 261h0"></path>
<path d="M292 261a10 10 0 0 0 10 -10v0a10 10 0 0 1 10 -10"></path>
<g>
<path d="M312 241h44"></path>
</g>
<path d="M356 241a10 10 0 0 1 10 10v0a10 10 0 0 0 10 10"></path>
<path d="M292 261h20"></path>
<g>
<path d="M312 261h0"></path>
<path d="M356 261h0"></path>
<rect x="312" y="250" width="44" height="22" rx="10" ry="10"></rect>
<text x="334" y="265">NOT</text>
</g>
<path d="M356 261h20"></path>
</g>
<path d="M376 261h10"></path>
<g>
<path d="M386 261h0"></path>
<path d="M438 261h0"></path>
<rect x="386" y="250" width="52" height="22" rx="10" ry="10"></rect>
<text x="412" y="265">NULL</text>
</g>
<path d="M438 261h10"></path>
</g>
<path d="M624 261a10 10 0 0 0 10 -10v-200a10 10 0 0 1 10 -10"></path>
<path d="M40 41a10 10 0 0 1 10 10v240a10 10 0 0 0 10 10"></path>
<g>
<path d="M60 301h44"></path>
<path d="M580 301h44"></path>
<path d="M104 301h10"></path>
<g>
<path d="M114 301h0"></path>
<path d="M150 301h0"></path>
<rect x="114" y="290" width="36" height="22" rx="10" ry="10"></rect>
<text x="132" y="305">IS</text>
</g>
<path d="M150 301h10"></path>
<g>
<path d="M160 301h0"></path>
<path d="M244 301h0"></path>
<path d="M160 301a10 10 0 0 0 10 -10v0a10 10 0 0 1 10 -10"></path>
<g>
<path d="M180 281h44"></path>
</g>
<path d="M224 281a10 10 0 0 1 10 10v0a10 10 0 0 0 10 10"></path>
<path d="M160 301h20"></path>
<g>
<path d="M180 301h0"></path>
<path d="M224 301h0"></path>
<rect x="180" y="290" width="44" height="22" rx="10" ry="10"></rect>
<text x="202" y="305">NOT</text>
</g>
<path d="M224 301h20"></path>
</g>
<path d="M244 301h10"></path>
<g>
<path d="M254 301h0"></path>
<path d="M338 301h0"></path>
<rect x="254" y="290" width="84" height="22" rx="10" ry="10"></rect>
<text x="296" y="305">DISTINCT</text>
</g>
<path d="M338 301h10"></path>
<path d="M348 301h10"></path>
<g>
<path d="M358 301h0"></path>
<path d="M410 301h0"></path>
<rect x="358" y="290" width="52" height="22" rx="10" ry="10"></rect>
<text x="384" y="305">FROM</text>
</g>
<path d="M410 301h10"></path>
<path d="M420 301h10"></path>
<g>
<path d="M430 301h0"></path>
<path d="M570 301h0"></path>
<rect x="430" y="290" width="140" height="22"></rect>
<text x="500" y="305">valueExpression</text>
</g>
<path d="M570 301h10"></path>
</g>
<path d="M624 301a10 10 0 0 0 10 -10v-240a10 10 0 0 1 10 -10"></path>
</g>
<path d="M 644 41 h 20 m -10 -10 v 20 m 10 -20 v 20"></path>
</g>
</svg>
