<?xml version="1.0" standalone="no"?>
<!DOCTYPE svg PUBLIC "-//W3C//DTD SVG 1.1//EN"
  "http://www.w3.org/Graphics/SVG/1.1/DTD/svg11.dtd">

<svg xmlns="http://www.w3.org/2000/svg" version="1.1" class="railroad-diagram" width="833" height="242" viewBox="0 0 833 242">

<defs><style type="text/css"><![CDATA[ svg.railroad-diagram {
  background-color: #ffffff;
}
svg.railroad-diagram path {
  stroke-width: 2;
  stroke: #5a6872;
  fill: none;
}
svg.railroad-diagram text {
  font-size: 14px;
  font-family: 'ibm-plex-mono', 'Menlo', 'DejaVu Sans Mono', 'Bitstream Vera Sans Mono', Courier, monospace;
  color: #152935;
  text-anchor: middle;
  cursor: pointer;
}
svg.railroad-diagram text.label {
  text-anchor: start;
}
svg.railroad-diagram text.comment {
  font-size: 12px;
}
svg.railroad-diagram rect {
  stroke-width: 2;
  stroke:  #5a6872;
  fill: #5aaafa;
}
 ]]></style></defs>

<g transform="translate(.5 .5)">
<path d="M 20 41 v 20 m 10 -20 v 20 m -10 -10 h 20.5"></path>
<g>
<path d="M40 51h0"></path>
<path d="M792 51h0"></path>
<path d="M40 51h20"></path>
<g>
<path d="M60 51h0"></path>
<path d="M772 51h0"></path>
<g>
<path d="M60 51h0"></path>
<path d="M428 51h0"></path>
<path d="M60 51h20"></path>
<g>
<path d="M80 51h86"></path>
<path d="M322 51h86"></path>
<rect x="166" y="40" width="156" height="22"></rect>
<text x="244" y="55">externalTableSpec</text>
</g>
<path d="M408 51h20"></path>
<path d="M60 51a10 10 0 0 1 10 10v20a10 10 0 0 0 10 10"></path>
<g>
<path d="M80 91h0"></path>
<path d="M408 91h0"></path>
<g>
<path d="M80 91h0"></path>
<path d="M288 91h0"></path>
<path d="M80 91a10 10 0 0 0 10 -10v0a10 10 0 0 1 10 -10"></path>
<g>
<path d="M100 71h168"></path>
</g>
<path d="M268 71a10 10 0 0 1 10 10v0a10 10 0 0 0 10 10"></path>
<path d="M80 91h20"></path>
<g>
<path d="M100 91h0"></path>
<path d="M268 91h0"></path>
<path d="M100 91h10"></path>
<g>
<path d="M110 91h0"></path>
<path d="M210 91h0"></path>
<rect x="110" y="80" width="100" height="22"></rect>
<text x="160" y="95">identifier</text>
</g>
<path d="M210 91h10"></path>
<path d="M220 91h10"></path>
<g>
<path d="M230 91h0"></path>
<path d="M258 91h0"></path>
<rect x="230" y="80" width="28" height="22" rx="10" ry="10"></rect>
<text x="244" y="95">.</text>
</g>
<path d="M258 91h10"></path>
</g>
<path d="M268 91h20"></path>
</g>
<path d="M288 91h10"></path>
<g>
<path d="M298 91h0"></path>
<path d="M398 91h0"></path>
<rect x="298" y="80" width="100" height="22"></rect>
<text x="348" y="95">identifier</text>
</g>
<path d="M398 91h10"></path>
</g>
<path d="M408 91a10 10 0 0 0 10 -10v-20a10 10 0 0 1 10 -10"></path>
<path d="M60 51a10 10 0 0 1 10 10v50a10 10 0 0 0 10 10"></path>
<g>
<path d="M80 121h56"></path>
<path d="M352 121h56"></path>
<path d="M136 121h10"></path>
<g>
<path d="M146 121h0"></path>
<path d="M174 121h0"></path>
<rect x="146" y="110" width="28" height="22" rx="10" ry="10"></rect>
<text x="160" y="125">(</text>
</g>
<path d="M174 121h10"></path>
<path d="M184 121h10"></path>
<g>
<path d="M194 121h0"></path>
<path d="M294 121h0"></path>
<rect x="194" y="110" width="100" height="22"></rect>
<text x="244" y="125">fullselect</text>
</g>
<path d="M294 121h10"></path>
<path d="M304 121h10"></path>
<g>
<path d="M314 121h0"></path>
<path d="M342 121h0"></path>
<rect x="314" y="110" width="28" height="22" rx="10" ry="10"></rect>
<text x="328" y="125">)</text>
</g>
<path d="M342 121h10"></path>
</g>
<path d="M408 121a10 10 0 0 0 10 -10v-50a10 10 0 0 1 10 -10"></path>
<path d="M60 51a10 10 0 0 1 10 10v80a10 10 0 0 0 10 10"></path>
<g>
<path d="M80 151h64"></path>
<path d="M344 151h64"></path>
<path d="M144 151h10"></path>
<g>
<path d="M154 151h0"></path>
<path d="M182 151h0"></path>
<rect x="154" y="140" width="28" height="22" rx="10" ry="10"></rect>
<text x="168" y="155">(</text>
</g>
<path d="M182 151h10"></path>
<path d="M192 151h10"></path>
<g>
<path d="M202 151h0"></path>
<path d="M286 151h0"></path>
<rect x="202" y="140" width="84" height="22"></rect>
<text x="244" y="155">relation</text>
</g>
<path d="M286 151h10"></path>
<path d="M296 151h10"></path>
<g>
<path d="M306 151h0"></path>
<path d="M334 151h0"></path>
<rect x="306" y="140" width="28" height="22" rx="10" ry="10"></rect>
<text x="320" y="155">)</text>
</g>
<path d="M334 151h10"></path>
</g>
<path d="M408 151a10 10 0 0 0 10 -10v-80a10 10 0 0 1 10 -10"></path>
</g>
<g>
<path d="M428 51h0"></path>
<path d="M536 51h0"></path>
<path d="M428 51a10 10 0 0 0 10 -10v0a10 10 0 0 1 10 -10"></path>
<g>
<path d="M448 31h68"></path>
</g>
<path d="M516 31a10 10 0 0 1 10 10v0a10 10 0 0 0 10 10"></path>
<path d="M428 51h20"></path>
<g>
<path d="M448 51h0"></path>
<path d="M516 51h0"></path>
<rect x="448" y="40" width="68" height="22"></rect>
<text x="482" y="55">sample</text>
</g>
<path d="M516 51h20"></path>
</g>
<g>
<path d="M536 51h0"></path>
<path d="M772 51h0"></path>
<path d="M536 51a10 10 0 0 0 10 -10v-9a10 10 0 0 1 10 -10"></path>
<g>
<path d="M556 22h196"></path>
</g>
<path d="M752 22a10 10 0 0 1 10 10v9a10 10 0 0 0 10 10"></path>
<path d="M536 51h20"></path>
<g>
<path d="M556 51h0"></path>
<path d="M752 51h0"></path>
<g>
<path d="M556 51h0"></path>
<path d="M632 51h0"></path>
<path d="M556 51a10 10 0 0 0 10 -10v0a10 10 0 0 1 10 -10"></path>
<g>
<path d="M576 31h36"></path>
</g>
<path d="M612 31a10 10 0 0 1 10 10v0a10 10 0 0 0 10 10"></path>
<path d="M556 51h20"></path>
<g>
<path d="M576 51h0"></path>
<path d="M612 51h0"></path>
<rect x="576" y="40" width="36" height="22" rx="10" ry="10"></rect>
<text x="594" y="55">AS</text>
</g>
<path d="M612 51h20"></path>
</g>
<path d="M632 51h10"></path>
<g>
<path d="M642 51h0"></path>
<path d="M742 51h0"></path>
<rect x="642" y="40" width="100" height="22"></rect>
<text x="692" y="55">identifier</text>
</g>
<path d="M742 51h10"></path>
</g>
<path d="M752 51h20"></path>
</g>
</g>
<path d="M772 51h20"></path>
<path d="M40 51a10 10 0 0 1 10 10v110a10 10 0 0 0 10 10"></path>
<g>
<path d="M60 181h298"></path>
<path d="M474 181h298"></path>
<rect x="358" y="170" width="116" height="22"></rect>
<text x="416" y="185">valuesClause</text>
</g>
<path d="M772 181a10 10 0 0 0 10 -10v-110a10 10 0 0 1 10 -10"></path>
<path d="M40 51a10 10 0 0 1 10 10v140a10 10 0 0 0 10 10"></path>
<g>
<path d="M60 211h270"></path>
<path d="M502 211h270"></path>
<rect x="330" y="200" width="172" height="22"></rect>
<text x="416" y="215">tableValuedFunction</text>
</g>
<path d="M772 211a10 10 0 0 0 10 -10v-140a10 10 0 0 1 10 -10"></path>
</g>
<path d="M 792 51 h 20 m -10 -10 v 20 m 10 -20 v 20"></path>
</g>
</svg>
