<?xml version="1.0" standalone="no"?>
<!DOCTYPE svg PUBLIC "-//W3C//DTD SVG 1.1//EN"
  "http://www.w3.org/Graphics/SVG/1.1/DTD/svg11.dtd">

<svg xmlns="http://www.w3.org/2000/svg" version="1.1" class="railroad-diagram" width="497" height="110" viewBox="0 0 497 110">

<defs><style type="text/css"><![CDATA[ svg.railroad-diagram {
  background-color: #ffffff;
}
svg.railroad-diagram path {
  stroke-width: 2;
  stroke: #5a6872;
  fill: none;
}
svg.railroad-diagram text {
  font-size: 14px;
  font-family: 'ibm-plex-mono', 'Menlo', 'DejaVu Sans Mono', 'Bitstream Vera Sans Mono', Courier, monospace;
  color: #152935;
  text-anchor: middle;
  cursor: pointer;
}
svg.railroad-diagram text.label {
  text-anchor: start;
}
svg.railroad-diagram text.comment {
  font-size: 12px;
}
svg.railroad-diagram rect {
  stroke-width: 2;
  stroke:  #5a6872;
  fill: #5aaafa;
}
 ]]></style></defs>

<g transform="translate(.5 .5)">
<path d="M 20 31 v 20 m 10 -20 v 20 m -10 -10 h 20.5"></path>
<g>
<path d="M40 41h0"></path>
<path d="M456 41h0"></path>
<path d="M40 41h10"></path>
<g>
<path d="M50 41h0"></path>
<path d="M190 41h0"></path>
<rect x="50" y="30" width="140" height="22"></rect>
<text x="120" y="45">relationPrimary</text>
</g>
<path d="M190 41h10"></path>
<g>
<path d="M200 41h0"></path>
<path d="M456 41h0"></path>
<path d="M200 41a10 10 0 0 0 10 -10v0a10 10 0 0 1 10 -10"></path>
<g>
<path d="M220 21h216"></path>
</g>
<path d="M436 21a10 10 0 0 1 10 10v0a10 10 0 0 0 10 10"></path>
<path d="M200 41h20"></path>
<g>
<path d="M220 41h0"></path>
<path d="M436 41h0"></path>
<path d="M220 41h10"></path>
<g>
<path d="M230 41h0"></path>
<path d="M426 41h0"></path>
<path d="M230 41h20"></path>
<g>
<path d="M250 41h28"></path>
<path d="M378 41h28"></path>
<rect x="278" y="30" width="100" height="22"></rect>
<text x="328" y="45">joinClause</text>
</g>
<path d="M406 41h20"></path>
<path d="M230 41a10 10 0 0 1 10 10v10a10 10 0 0 0 10 10"></path>
<g>
<path d="M250 71h0"></path>
<path d="M406 71h0"></path>
<rect x="250" y="60" width="156" height="22"></rect>
<text x="328" y="75">naturalJoinClause</text>
</g>
<path d="M406 71a10 10 0 0 0 10 -10v-10a10 10 0 0 1 10 -10"></path>
</g>
<path d="M426 41h10"></path>
<path d="M230 41a10 10 0 0 0 -10 10v29a10 10 0 0 0 10 10"></path>
<g>
<path d="M230 90h196"></path>
</g>
<path d="M426 90a10 10 0 0 0 10 -10v-29a10 10 0 0 0 -10 -10"></path>
</g>
<path d="M436 41h20"></path>
</g>
</g>
<path d="M 456 41 h 20 m -10 -10 v 20 m 10 -20 v 20"></path>
</g>
</svg>
