<?xml version="1.0" standalone="no"?>
<!DOCTYPE svg PUBLIC "-//W3C//DTD SVG 1.1//EN"
  "http://www.w3.org/Graphics/SVG/1.1/DTD/svg11.dtd">

<svg xmlns="http://www.w3.org/2000/svg" version="1.1" class="railroad-diagram" width="793" height="292" viewBox="0 0 793 292">

<defs><style type="text/css"><![CDATA[ svg.railroad-diagram {
  background-color: #ffffff;
}
svg.railroad-diagram path {
  stroke-width: 2;
  stroke: #5a6872;
  fill: none;
}
svg.railroad-diagram text {
  font-size: 14px;
  font-family: 'ibm-plex-mono', 'Menlo', 'DejaVu Sans Mono', 'Bitstream Vera Sans Mono', Courier, monospace;
  color: #152935;
  text-anchor: middle;
  cursor: pointer;
}
svg.railroad-diagram text.label {
  text-anchor: start;
}
svg.railroad-diagram text.comment {
  font-size: 12px;
}
svg.railroad-diagram rect {
  stroke-width: 2;
  stroke:  #5a6872;
  fill: #5aaafa;
}
 ]]></style></defs>

<g transform="translate(.5 .5)">
<path d="M 20 41 v 20 m 10 -20 v 20 m -10 -10 h 20.5"></path>
<g>
<path d="M40 51h0"></path>
<path d="M752 51h0"></path>
<path d="M40 51h20"></path>
<g>
<path d="M60 51h76"></path>
<path d="M656 51h76"></path>
<path d="M136 51h10"></path>
<g>
<path d="M146 51h0"></path>
<path d="M302 51h0"></path>
<rect x="146" y="40" width="156" height="22"></rect>
<text x="224" y="55">externalTableSpec</text>
</g>
<path d="M302 51h10"></path>
<g>
<path d="M312 51h0"></path>
<path d="M420 51h0"></path>
<path d="M312 51a10 10 0 0 0 10 -10v0a10 10 0 0 1 10 -10"></path>
<g>
<path d="M332 31h68"></path>
</g>
<path d="M400 31a10 10 0 0 1 10 10v0a10 10 0 0 0 10 10"></path>
<path d="M312 51h20"></path>
<g>
<path d="M332 51h0"></path>
<path d="M400 51h0"></path>
<rect x="332" y="40" width="68" height="22"></rect>
<text x="366" y="55">sample</text>
</g>
<path d="M400 51h20"></path>
</g>
<g>
<path d="M420 51h0"></path>
<path d="M656 51h0"></path>
<path d="M420 51a10 10 0 0 0 10 -10v-9a10 10 0 0 1 10 -10"></path>
<g>
<path d="M440 22h196"></path>
</g>
<path d="M636 22a10 10 0 0 1 10 10v9a10 10 0 0 0 10 10"></path>
<path d="M420 51h20"></path>
<g>
<path d="M440 51h0"></path>
<path d="M636 51h0"></path>
<g>
<path d="M440 51h0"></path>
<path d="M516 51h0"></path>
<path d="M440 51a10 10 0 0 0 10 -10v0a10 10 0 0 1 10 -10"></path>
<g>
<path d="M460 31h36"></path>
</g>
<path d="M496 31a10 10 0 0 1 10 10v0a10 10 0 0 0 10 10"></path>
<path d="M440 51h20"></path>
<g>
<path d="M460 51h0"></path>
<path d="M496 51h0"></path>
<rect x="460" y="40" width="36" height="22" rx="10" ry="10"></rect>
<text x="478" y="55">AS</text>
</g>
<path d="M496 51h20"></path>
</g>
<path d="M516 51h10"></path>
<g>
<path d="M526 51h0"></path>
<path d="M626 51h0"></path>
<rect x="526" y="40" width="100" height="22"></rect>
<text x="576" y="55">identifier</text>
</g>
<path d="M626 51h10"></path>
</g>
<path d="M636 51h20"></path>
</g>
</g>
<path d="M732 51h20"></path>
<path d="M40 51a10 10 0 0 1 10 10v30a10 10 0 0 0 10 10"></path>
<g>
<path d="M60 101h0"></path>
<path d="M732 101h0"></path>
<g>
<path d="M60 101h0"></path>
<path d="M268 101h0"></path>
<path d="M60 101a10 10 0 0 0 10 -10v0a10 10 0 0 1 10 -10"></path>
<g>
<path d="M80 81h168"></path>
</g>
<path d="M248 81a10 10 0 0 1 10 10v0a10 10 0 0 0 10 10"></path>
<path d="M60 101h20"></path>
<g>
<path d="M80 101h0"></path>
<path d="M248 101h0"></path>
<path d="M80 101h10"></path>
<g>
<path d="M90 101h0"></path>
<path d="M190 101h0"></path>
<rect x="90" y="90" width="100" height="22"></rect>
<text x="140" y="105">identifier</text>
</g>
<path d="M190 101h10"></path>
<path d="M200 101h10"></path>
<g>
<path d="M210 101h0"></path>
<path d="M238 101h0"></path>
<rect x="210" y="90" width="28" height="22" rx="10" ry="10"></rect>
<text x="224" y="105">.</text>
</g>
<path d="M238 101h10"></path>
</g>
<path d="M248 101h20"></path>
</g>
<path d="M268 101h10"></path>
<g>
<path d="M278 101h0"></path>
<path d="M378 101h0"></path>
<rect x="278" y="90" width="100" height="22"></rect>
<text x="328" y="105">identifier</text>
</g>
<path d="M378 101h10"></path>
<g>
<path d="M388 101h0"></path>
<path d="M496 101h0"></path>
<path d="M388 101a10 10 0 0 0 10 -10v0a10 10 0 0 1 10 -10"></path>
<g>
<path d="M408 81h68"></path>
</g>
<path d="M476 81a10 10 0 0 1 10 10v0a10 10 0 0 0 10 10"></path>
<path d="M388 101h20"></path>
<g>
<path d="M408 101h0"></path>
<path d="M476 101h0"></path>
<rect x="408" y="90" width="68" height="22"></rect>
<text x="442" y="105">sample</text>
</g>
<path d="M476 101h20"></path>
</g>
<g>
<path d="M496 101h0"></path>
<path d="M732 101h0"></path>
<path d="M496 101a10 10 0 0 0 10 -10v-9a10 10 0 0 1 10 -10"></path>
<g>
<path d="M516 72h196"></path>
</g>
<path d="M712 72a10 10 0 0 1 10 10v9a10 10 0 0 0 10 10"></path>
<path d="M496 101h20"></path>
<g>
<path d="M516 101h0"></path>
<path d="M712 101h0"></path>
<g>
<path d="M516 101h0"></path>
<path d="M592 101h0"></path>
<path d="M516 101a10 10 0 0 0 10 -10v0a10 10 0 0 1 10 -10"></path>
<g>
<path d="M536 81h36"></path>
</g>
<path d="M572 81a10 10 0 0 1 10 10v0a10 10 0 0 0 10 10"></path>
<path d="M516 101h20"></path>
<g>
<path d="M536 101h0"></path>
<path d="M572 101h0"></path>
<rect x="536" y="90" width="36" height="22" rx="10" ry="10"></rect>
<text x="554" y="105">AS</text>
</g>
<path d="M572 101h20"></path>
</g>
<path d="M592 101h10"></path>
<g>
<path d="M602 101h0"></path>
<path d="M702 101h0"></path>
<rect x="602" y="90" width="100" height="22"></rect>
<text x="652" y="105">identifier</text>
</g>
<path d="M702 101h10"></path>
</g>
<path d="M712 101h20"></path>
</g>
</g>
<path d="M732 101a10 10 0 0 0 10 -10v-30a10 10 0 0 1 10 -10"></path>
<path d="M40 51a10 10 0 0 1 10 10v80a10 10 0 0 0 10 10"></path>
<g>
<path d="M60 151h56"></path>
<path d="M676 151h56"></path>
<path d="M116 151h10"></path>
<g>
<path d="M126 151h0"></path>
<path d="M154 151h0"></path>
<rect x="126" y="140" width="28" height="22" rx="10" ry="10"></rect>
<text x="140" y="155">(</text>
</g>
<path d="M154 151h10"></path>
<path d="M164 151h10"></path>
<g>
<path d="M174 151h0"></path>
<path d="M274 151h0"></path>
<rect x="174" y="140" width="100" height="22"></rect>
<text x="224" y="155">fullselect</text>
</g>
<path d="M274 151h10"></path>
<path d="M284 151h10"></path>
<g>
<path d="M294 151h0"></path>
<path d="M322 151h0"></path>
<rect x="294" y="140" width="28" height="22" rx="10" ry="10"></rect>
<text x="308" y="155">)</text>
</g>
<path d="M322 151h10"></path>
<g>
<path d="M332 151h0"></path>
<path d="M440 151h0"></path>
<path d="M332 151a10 10 0 0 0 10 -10v0a10 10 0 0 1 10 -10"></path>
<g>
<path d="M352 131h68"></path>
</g>
<path d="M420 131a10 10 0 0 1 10 10v0a10 10 0 0 0 10 10"></path>
<path d="M332 151h20"></path>
<g>
<path d="M352 151h0"></path>
<path d="M420 151h0"></path>
<rect x="352" y="140" width="68" height="22"></rect>
<text x="386" y="155">sample</text>
</g>
<path d="M420 151h20"></path>
</g>
<g>
<path d="M440 151h0"></path>
<path d="M676 151h0"></path>
<path d="M440 151a10 10 0 0 0 10 -10v-9a10 10 0 0 1 10 -10"></path>
<g>
<path d="M460 122h196"></path>
</g>
<path d="M656 122a10 10 0 0 1 10 10v9a10 10 0 0 0 10 10"></path>
<path d="M440 151h20"></path>
<g>
<path d="M460 151h0"></path>
<path d="M656 151h0"></path>
<g>
<path d="M460 151h0"></path>
<path d="M536 151h0"></path>
<path d="M460 151a10 10 0 0 0 10 -10v0a10 10 0 0 1 10 -10"></path>
<g>
<path d="M480 131h36"></path>
</g>
<path d="M516 131a10 10 0 0 1 10 10v0a10 10 0 0 0 10 10"></path>
<path d="M460 151h20"></path>
<g>
<path d="M480 151h0"></path>
<path d="M516 151h0"></path>
<rect x="480" y="140" width="36" height="22" rx="10" ry="10"></rect>
<text x="498" y="155">AS</text>
</g>
<path d="M516 151h20"></path>
</g>
<path d="M536 151h10"></path>
<g>
<path d="M546 151h0"></path>
<path d="M646 151h0"></path>
<rect x="546" y="140" width="100" height="22"></rect>
<text x="596" y="155">identifier</text>
</g>
<path d="M646 151h10"></path>
</g>
<path d="M656 151h20"></path>
</g>
</g>
<path d="M732 151a10 10 0 0 0 10 -10v-80a10 10 0 0 1 10 -10"></path>
<path d="M40 51a10 10 0 0 1 10 10v130a10 10 0 0 0 10 10"></path>
<g>
<path d="M60 201h64"></path>
<path d="M668 201h64"></path>
<path d="M124 201h10"></path>
<g>
<path d="M134 201h0"></path>
<path d="M162 201h0"></path>
<rect x="134" y="190" width="28" height="22" rx="10" ry="10"></rect>
<text x="148" y="205">(</text>
</g>
<path d="M162 201h10"></path>
<path d="M172 201h10"></path>
<g>
<path d="M182 201h0"></path>
<path d="M266 201h0"></path>
<rect x="182" y="190" width="84" height="22"></rect>
<text x="224" y="205">relation</text>
</g>
<path d="M266 201h10"></path>
<path d="M276 201h10"></path>
<g>
<path d="M286 201h0"></path>
<path d="M314 201h0"></path>
<rect x="286" y="190" width="28" height="22" rx="10" ry="10"></rect>
<text x="300" y="205">)</text>
</g>
<path d="M314 201h10"></path>
<g>
<path d="M324 201h0"></path>
<path d="M432 201h0"></path>
<path d="M324 201a10 10 0 0 0 10 -10v0a10 10 0 0 1 10 -10"></path>
<g>
<path d="M344 181h68"></path>
</g>
<path d="M412 181a10 10 0 0 1 10 10v0a10 10 0 0 0 10 10"></path>
<path d="M324 201h20"></path>
<g>
<path d="M344 201h0"></path>
<path d="M412 201h0"></path>
<rect x="344" y="190" width="68" height="22"></rect>
<text x="378" y="205">sample</text>
</g>
<path d="M412 201h20"></path>
</g>
<g>
<path d="M432 201h0"></path>
<path d="M668 201h0"></path>
<path d="M432 201a10 10 0 0 0 10 -10v-9a10 10 0 0 1 10 -10"></path>
<g>
<path d="M452 172h196"></path>
</g>
<path d="M648 172a10 10 0 0 1 10 10v9a10 10 0 0 0 10 10"></path>
<path d="M432 201h20"></path>
<g>
<path d="M452 201h0"></path>
<path d="M648 201h0"></path>
<g>
<path d="M452 201h0"></path>
<path d="M528 201h0"></path>
<path d="M452 201a10 10 0 0 0 10 -10v0a10 10 0 0 1 10 -10"></path>
<g>
<path d="M472 181h36"></path>
</g>
<path d="M508 181a10 10 0 0 1 10 10v0a10 10 0 0 0 10 10"></path>
<path d="M452 201h20"></path>
<g>
<path d="M472 201h0"></path>
<path d="M508 201h0"></path>
<rect x="472" y="190" width="36" height="22" rx="10" ry="10"></rect>
<text x="490" y="205">AS</text>
</g>
<path d="M508 201h20"></path>
</g>
<path d="M528 201h10"></path>
<g>
<path d="M538 201h0"></path>
<path d="M638 201h0"></path>
<rect x="538" y="190" width="100" height="22"></rect>
<text x="588" y="205">identifier</text>
</g>
<path d="M638 201h10"></path>
</g>
<path d="M648 201h20"></path>
</g>
</g>
<path d="M732 201a10 10 0 0 0 10 -10v-130a10 10 0 0 1 10 -10"></path>
<path d="M40 51a10 10 0 0 1 10 10v160a10 10 0 0 0 10 10"></path>
<g>
<path d="M60 231h278"></path>
<path d="M454 231h278"></path>
<rect x="338" y="220" width="116" height="22"></rect>
<text x="396" y="235">valuesClause</text>
</g>
<path d="M732 231a10 10 0 0 0 10 -10v-160a10 10 0 0 1 10 -10"></path>
<path d="M40 51a10 10 0 0 1 10 10v190a10 10 0 0 0 10 10"></path>
<g>
<path d="M60 261h250"></path>
<path d="M482 261h250"></path>
<rect x="310" y="250" width="172" height="22"></rect>
<text x="396" y="265">tableValuedFunction</text>
</g>
<path d="M732 261a10 10 0 0 0 10 -10v-190a10 10 0 0 1 10 -10"></path>
</g>
<path d="M 752 51 h 20 m -10 -10 v 20 m 10 -20 v 20"></path>
</g>
</svg>
