<?xml version="1.0" standalone="no"?>
<!DOCTYPE svg PUBLIC "-//W3C//DTD SVG 1.1//EN"
  "http://www.w3.org/Graphics/SVG/1.1/DTD/svg11.dtd">

<svg xmlns="http://www.w3.org/2000/svg" version="1.1" class="railroad-diagram"  width="707" height="387" viewBox="0 0 707 387" >
<defs><style type="text/css"><![CDATA[ svg.railroad-diagram {
  background-color: #ffffff;
}
svg.railroad-diagram path {
  stroke-width: 2;
  stroke: #5a6872;
  fill: none;
}
svg.railroad-diagram text {
  font-size: 14px;
  font-family: 'ibm-plex-mono', 'Menlo', 'DejaVu Sans Mono', 'Bitstream Vera Sans Mono', Courier, monospace;
  color: #152935;
  text-anchor: middle;
  cursor: pointer;
}
svg.railroad-diagram text.label {
  text-anchor: start;
}
svg.railroad-diagram text.comment {
  font-size: 12px;
}
svg.railroad-diagram rect {
  stroke-width: 2;
  stroke:  #5a6872;
  fill: #5aaafa;
}
 ]]></style></defs>

<g transform="translate(.5 .5)">
<path d="M20 31  v 20 m 10 -20 v 20 m -10 -10 h 20.5"></path>
<g>
<path d="M40 41 h0"></path>
<path d="M1184 41 h0"></path>
<path d="M40 41 h10"></path>
<g>
<path d="M50 41 h0"></path>
<path d="M102 41 h0"></path>
<rect x="50" y="30" width="52" height="22"  rx="10" ry="10"></rect>
<text x="76" y="45">INTO</text>
</g>
<path d="M102 41 h10"></path>
<path d="M112 41 h10"></path>
<g>
<path d="M122 41 h0"></path>
<path d="M190 41 h0"></path>
<rect x="122" y="30" width="68" height="22" ></rect>
<text x="156" y="45">COSURI</text>
</g>
<path d="M190 41 h10"></path>
<g>
<path d="M200 41 h0"></path>
<path d="M452 41 h0"></path>
<path d="M200 41 a10 10 0 0 0 10 -10v0a10 10 0 0 1 10 -10"></path>
<g>
<path d="M220 21 h212"></path>
</g>
<path d="M432 21 a10 10 0 0 1 10 10v0a10 10 0 0 0 10 10"></path>
<path d="M200 41 h20"></path>
<g>
<path d="M220 41 h0"></path>
<path d="M432 41 h0"></path>
<path d="M220 41 h10"></path>
<g>
<path d="M230 41 h0"></path>
<path d="M322 41 h0"></path>
<rect x="230" y="30" width="92" height="22"  rx="10" ry="10"></rect>
<text x="276" y="45">JOBPREFIX</text>
</g>
<path d="M322 41 h10"></path>
<g>
<path d="M332 41 h0"></path>
<path d="M432 41 h0"></path>
<path d="M332 41 h20"></path>
<g>
<path d="M352 41 h0"></path>
<path d="M412 41 h0"></path>
<rect x="352" y="30" width="60" height="22"  rx="10" ry="10"></rect>
<text x="382" y="45">JOBID</text>
</g>
<path d="M412 41 h20"></path>
<path d="M332 41 a10 10 0 0 1 10 10v10a10 10 0 0 0 10 10"></path>
<g>
<path d="M352 71 h4"></path>
<path d="M408 71 h4"></path>
<rect x="356" y="60" width="52" height="22"  rx="10" ry="10"></rect>
<text x="382" y="75">NONE</text>
</g>
<path d="M412 71 a10 10 0 0 0 10 -10v-10a10 10 0 0 1 10 -10"></path>
</g>
</g>
<path d="M432 41 h20"></path>
</g>
<path d="M452 41 h10"></path>
<g id="eol">
<path d="M462 41 h0"></path>
<path d="M462 41 a 10 10 0 0 1 10 10 V 90 a 10 10 0 0 1 -10 10 h -431 a 10 10 0 0 0 -10 10 V 135 a 10 10 0 0 0 10 10"></path>
<path d="M462 41 h0"></path>
<path d="M462 41 h0"></path>
</g>
<path d="M31 145 h10"></path>
<g>
<path d="M41 145 h0"></path>
<path d="M341 145 h0"></path>
<path d="M41 145 a10 10 0 0 0 10 -10v0a10 10 0 0 1 10 -10"></path>
<g>
<path d="M61 125 h260"></path>
</g>
<path d="M321 125 a10 10 0 0 1 10 10v0a10 10 0 0 0 10 10"></path>
<path d="M41 145 h20"></path>
<g>
<path d="M61 145 h0"></path>
<path d="M321 145 h0"></path>
<path d="M61 145 h10"></path>
<g>
<path d="M71 145 h0"></path>
<path d="M139 145 h0"></path>
<rect x="71" y="134" width="68" height="22"  rx="10" ry="10"></rect>
<text x="105" y="149">STORED</text>
</g>
<path d="M139 145 h10"></path>
<path d="M149 145 h10"></path>
<g>
<path d="M159 145 h0"></path>
<path d="M195 145 h0"></path>
<rect x="159" y="134" width="36" height="22"  rx="10" ry="10"></rect>
<text x="177" y="149">AS</text>
</g>
<path d="M195 145 h10"></path>
<g>
<path d="M205 145 h0"></path>
<path d="M321 145 h0"></path>
<path d="M205 145 h20"></path>
<g>
<path d="M225 145 h12"></path>
<path d="M289 145 h12"></path>
<rect x="237" y="134" width="52" height="22"  rx="10" ry="10"></rect>
<text x="263" y="149">AVRO</text>
</g>
<path d="M301 145 h20"></path>
<path d="M205 145 a10 10 0 0 1 10 10v10a10 10 0 0 0 10 10"></path>
<g>
<path d="M225 175 h16"></path>
<path d="M285 175 h16"></path>
<rect x="241" y="164" width="44" height="22"  rx="10" ry="10"></rect>
<text x="263" y="179">CSV</text>
</g>
<path d="M301 175 a10 10 0 0 0 10 -10v-10a10 10 0 0 1 10 -10"></path>
<path d="M205 145 a10 10 0 0 1 10 10v40a10 10 0 0 0 10 10"></path>
<g>
<path d="M225 205 h12"></path>
<path d="M289 205 h12"></path>
<rect x="237" y="194" width="52" height="22"  rx="10" ry="10"></rect>
<text x="263" y="209">JSON</text>
</g>
<path d="M301 205 a10 10 0 0 0 10 -10v-40a10 10 0 0 1 10 -10"></path>
<path d="M205 145 a10 10 0 0 1 10 10v70a10 10 0 0 0 10 10"></path>
<g>
<path d="M225 235 h16"></path>
<path d="M285 235 h16"></path>
<rect x="241" y="224" width="44" height="22"  rx="10" ry="10"></rect>
<text x="263" y="239">ORC</text>
</g>
<path d="M301 235 a10 10 0 0 0 10 -10v-70a10 10 0 0 1 10 -10"></path>
<path d="M205 145 a10 10 0 0 1 10 10v100a10 10 0 0 0 10 10"></path>
<g>
<path d="M225 265 h0"></path>
<path d="M301 265 h0"></path>
<rect x="225" y="254" width="76" height="22"  rx="10" ry="10"></rect>
<text x="263" y="269">PARQUET</text>
</g>
<path d="M301 265 a10 10 0 0 0 10 -10v-100a10 10 0 0 1 10 -10"></path>
</g>
</g>
<path d="M321 145 h20"></path>
</g>
<g>
<path d="M341 145 h0"></path>
<path d="M537 145 h0"></path>
<path d="M341 145 a10 10 0 0 0 10 -10v0a10 10 0 0 1 10 -10"></path>
<g>
<path d="M361 125 h156"></path>
</g>
<path d="M517 125 a10 10 0 0 1 10 10v0a10 10 0 0 0 10 10"></path>
<path d="M341 145 h20"></path>
<g>
<path d="M361 145 h0"></path>
<path d="M517 145 h0"></path>
<rect x="361" y="134" width="156" height="22" ></rect>
<text x="439" y="149">partitionedClause</text>
</g>
<path d="M517 145 h20"></path>
</g>
<g>
<path d="M537 145 h0"></path>
<path d="M677 145 h0"></path>
<path d="M537 145 a10 10 0 0 0 10 -10v0a10 10 0 0 1 10 -10"></path>
<g>
<path d="M557 125 h100"></path>
</g>
<path d="M657 125 a10 10 0 0 1 10 10v0a10 10 0 0 0 10 10"></path>
<path d="M537 145 h20"></path>
<g>
<path d="M557 145 h0"></path>
<path d="M657 145 h0"></path>
<rect x="557" y="134" width="100" height="22" ></rect>
<text x="607" y="149">sortClause</text>
</g>
<path d="M657 145 h20"></path>
</g>
</g>
<path d="M677 145  h 20 m -10 -10 v 20 m 10 -20 v 20"></path>
</g>
</svg>
