<?xml version="1.0" standalone="no"?>
<!DOCTYPE svg PUBLIC "-//W3C//DTD SVG 1.1//EN"
  "http://www.w3.org/Graphics/SVG/1.1/DTD/svg11.dtd">

<svg xmlns="http://www.w3.org/2000/svg" version="1.1" class="railroad-diagram" width="785" height="192" viewBox="0 0 785 192">

<defs><style type="text/css"><![CDATA[ svg.railroad-diagram {
  background-color: #ffffff;
}
svg.railroad-diagram path {
  stroke-width: 2;
  stroke: #5a6872;
  fill: none;
}
svg.railroad-diagram text {
  font-size: 14px;
  font-family: 'ibm-plex-mono', 'Menlo', 'DejaVu Sans Mono', 'Bitstream Vera Sans Mono', Courier, monospace;
  color: #152935;
  text-anchor: middle;
  cursor: pointer;
}
svg.railroad-diagram text.label {
  text-anchor: start;
}
svg.railroad-diagram text.comment {
  font-size: 12px;
}
svg.railroad-diagram rect {
  stroke-width: 2;
  stroke:  #5a6872;
  fill: #5aaafa;
}
 ]]></style></defs>

<g transform="translate(.5 .5)">
<path d="M 20 31 v 20 m 10 -20 v 20 m -10 -10 h 20.5"></path>
<g>
<path d="M40 41h0"></path>
<path d="M744 41h0"></path>
<path d="M40 41h10"></path>
<g>
<path d="M50 41h0"></path>
<path d="M102 41h0"></path>
<rect x="50" y="30" width="52" height="22" rx="10" ry="10"></rect>
<text x="76" y="45">INTO</text>
</g>
<path d="M102 41h10"></path>
<path d="M112 41h10"></path>
<g>
<path d="M122 41h0"></path>
<path d="M190 41h0"></path>
<rect x="122" y="30" width="68" height="22"></rect>
<text x="156" y="45">COSURI</text>
</g>
<path d="M190 41h10"></path>
<g>
<path d="M200 41h0"></path>
<path d="M500 41h0"></path>
<path d="M200 41a10 10 0 0 0 10 -10v0a10 10 0 0 1 10 -10"></path>
<g>
<path d="M220 21h260"></path>
</g>
<path d="M480 21a10 10 0 0 1 10 10v0a10 10 0 0 0 10 10"></path>
<path d="M200 41h20"></path>
<g>
<path d="M220 41h0"></path>
<path d="M480 41h0"></path>
<path d="M220 41h10"></path>
<g>
<path d="M230 41h0"></path>
<path d="M298 41h0"></path>
<rect x="230" y="30" width="68" height="22" rx="10" ry="10"></rect>
<text x="264" y="45">STORED</text>
</g>
<path d="M298 41h10"></path>
<path d="M308 41h10"></path>
<g>
<path d="M318 41h0"></path>
<path d="M354 41h0"></path>
<rect x="318" y="30" width="36" height="22" rx="10" ry="10"></rect>
<text x="336" y="45">AS</text>
</g>
<path d="M354 41h10"></path>
<g>
<path d="M364 41h0"></path>
<path d="M480 41h0"></path>
<path d="M364 41h20"></path>
<g>
<path d="M384 41h12"></path>
<path d="M448 41h12"></path>
<rect x="396" y="30" width="52" height="22" rx="10" ry="10"></rect>
<text x="422" y="45">AVRO</text>
</g>
<path d="M460 41h20"></path>
<path d="M364 41a10 10 0 0 1 10 10v10a10 10 0 0 0 10 10"></path>
<g>
<path d="M384 71h16"></path>
<path d="M444 71h16"></path>
<rect x="400" y="60" width="44" height="22" rx="10" ry="10"></rect>
<text x="422" y="75">CSV</text>
</g>
<path d="M460 71a10 10 0 0 0 10 -10v-10a10 10 0 0 1 10 -10"></path>
<path d="M364 41a10 10 0 0 1 10 10v40a10 10 0 0 0 10 10"></path>
<g>
<path d="M384 101h12"></path>
<path d="M448 101h12"></path>
<rect x="396" y="90" width="52" height="22" rx="10" ry="10"></rect>
<text x="422" y="105">JSON</text>
</g>
<path d="M460 101a10 10 0 0 0 10 -10v-40a10 10 0 0 1 10 -10"></path>
<path d="M364 41a10 10 0 0 1 10 10v70a10 10 0 0 0 10 10"></path>
<g>
<path d="M384 131h16"></path>
<path d="M444 131h16"></path>
<rect x="400" y="120" width="44" height="22" rx="10" ry="10"></rect>
<text x="422" y="135">ORC</text>
</g>
<path d="M460 131a10 10 0 0 0 10 -10v-70a10 10 0 0 1 10 -10"></path>
<path d="M364 41a10 10 0 0 1 10 10v100a10 10 0 0 0 10 10"></path>
<g>
<path d="M384 161h0"></path>
<path d="M460 161h0"></path>
<rect x="384" y="150" width="76" height="22" rx="10" ry="10"></rect>
<text x="422" y="165">PARQUET</text>
</g>
<path d="M460 161a10 10 0 0 0 10 -10v-100a10 10 0 0 1 10 -10"></path>
</g>
</g>
<path d="M480 41h20"></path>
</g>
<g>
<path d="M500 41h0"></path>
<path d="M744 41h0"></path>
<path d="M500 41a10 10 0 0 0 10 -10v0a10 10 0 0 1 10 -10"></path>
<g>
<path d="M520 21h204"></path>
</g>
<path d="M724 21a10 10 0 0 1 10 10v0a10 10 0 0 0 10 10"></path>
<path d="M500 41h20"></path>
<g>
<path d="M520 41h0"></path>
<path d="M724 41h0"></path>
<rect x="520" y="30" width="204" height="22"></rect>
<text x="622" y="45">resultPartitionedClause</text>
</g>
<path d="M724 41h20"></path>
</g>
</g>
<path d="M 744 41 h 20 m -10 -10 v 20 m 10 -20 v 20"></path>
</g>
</svg>
