<?xml version="1.0" standalone="no"?>
<!DOCTYPE svg PUBLIC "-//W3C//DTD SVG 1.1//EN"
  "http://www.w3.org/Graphics/SVG/1.1/DTD/svg11.dtd">

<svg xmlns="http://www.w3.org/2000/svg" version="1.1" class="railroad-diagram" width="613" height="72" viewBox="0 0 613 72">

<defs><style type="text/css"><![CDATA[ svg.railroad-diagram {
  background-color: #ffffff;
}
svg.railroad-diagram path {
  stroke-width: 2;
  stroke: #5a6872;
  fill: none;
}
svg.railroad-diagram text {
  font-size: 14px;
  font-family: 'ibm-plex-mono', 'Menlo', 'DejaVu Sans Mono', 'Bitstream Vera Sans Mono', Courier, monospace;
  color: #152935;
  text-anchor: middle;
  cursor: pointer;
}
svg.railroad-diagram text.label {
  text-anchor: start;
}
svg.railroad-diagram text.comment {
  font-size: 12px;
}
svg.railroad-diagram rect {
  stroke-width: 2;
  stroke:  #5a6872;
  fill: #5aaafa;
}
 ]]></style></defs>

<g transform="translate(.5 .5)">
<path d="M 20 31 v 20 m 10 -20 v 20 m -10 -10 h 20.5"></path>
<g>
<path d="M40 41h0"></path>
<path d="M572 41h0"></path>
<path d="M40 41h10"></path>
<g>
<path d="M50 41h0"></path>
<path d="M294 41h0"></path>
<rect x="50" y="30" width="244" height="22"></rect>
<text x="172" y="45">resultPartitionedIntoBuckets</text>
</g>
<path d="M294 41h10"></path>
<g>
<path d="M304 41h0"></path>
<path d="M572 41h0"></path>
<path d="M304 41a10 10 0 0 0 10 -10v0a10 10 0 0 1 10 -10"></path>
<g>
<path d="M324 21h228"></path>
</g>
<path d="M552 21a10 10 0 0 1 10 10v0a10 10 0 0 0 10 10"></path>
<path d="M304 41h20"></path>
<g>
<path d="M324 41h0"></path>
<path d="M552 41h0"></path>
<rect x="324" y="30" width="228" height="22"></rect>
<text x="438" y="45">resultPartitionedEveryRows</text>
</g>
<path d="M552 41h20"></path>
</g>
</g>
<path d="M 572 41 h 20 m -10 -10 v 20 m 10 -20 v 20"></path>
</g>
</svg>
