<?xml version="1.0" standalone="no"?>
<!DOCTYPE svg PUBLIC "-//W3C//DTD SVG 1.1//EN"
  "http://www.w3.org/Graphics/SVG/1.1/DTD/svg11.dtd">

<svg xmlns="http://www.w3.org/2000/svg" version="1.1" class="railroad-diagram" width="501" height="122" viewBox="0 0 501 122">

<defs><style type="text/css"><![CDATA[ svg.railroad-diagram {
  background-color: #ffffff;
}
svg.railroad-diagram path {
  stroke-width: 2;
  stroke: #5a6872;
  fill: none;
}
svg.railroad-diagram text {
  font-size: 14px;
  font-family: 'ibm-plex-mono', 'Menlo', 'DejaVu Sans Mono', 'Bitstream Vera Sans Mono', Courier, monospace;
  color: #152935;
  text-anchor: middle;
  cursor: pointer;
}
svg.railroad-diagram text.label {
  text-anchor: start;
}
svg.railroad-diagram text.comment {
  font-size: 12px;
}
svg.railroad-diagram rect {
  stroke-width: 2;
  stroke:  #5a6872;
  fill: #5aaafa;
}
 ]]></style></defs>

<g transform="translate(.5 .5)">
<path d="M 20 21 v 20 m 10 -20 v 20 m -10 -10 h 20.5"></path>
<g>
<path d="M40 31h0"></path>
<path d="M460 31h0"></path>
<path d="M40 31h10"></path>
<g>
<path d="M50 31h0"></path>
<path d="M158 31h0"></path>
<rect x="50" y="20" width="108" height="22" rx="10" ry="10"></rect>
<text x="104" y="35">PARTITIONED</text>
</g>
<path d="M158 31h10"></path>
<g>
<path d="M168 31h0"></path>
<path d="M460 31h0"></path>
<path d="M168 31h20"></path>
<g>
<path d="M188 31h0"></path>
<path d="M440 31h0"></path>
<rect x="188" y="20" width="252" height="22"></rect>
<text x="314" y="35">resultPartitionedColumnClause</text>
</g>
<path d="M440 31h20"></path>
<path d="M168 31a10 10 0 0 1 10 10v10a10 10 0 0 0 10 10"></path>
<g>
<path d="M188 61h0"></path>
<path d="M440 61h0"></path>
<rect x="188" y="50" width="252" height="22"></rect>
<text x="314" y="65">resultPartitionedBucketClause</text>
</g>
<path d="M440 61a10 10 0 0 0 10 -10v-10a10 10 0 0 1 10 -10"></path>
<path d="M168 31a10 10 0 0 1 10 10v40a10 10 0 0 0 10 10"></path>
<g>
<path d="M188 91h12"></path>
<path d="M428 91h12"></path>
<rect x="200" y="80" width="228" height="22"></rect>
<text x="314" y="95">resultPartitionedEveryRows</text>
</g>
<path d="M440 91a10 10 0 0 0 10 -10v-40a10 10 0 0 1 10 -10"></path>
</g>
</g>
<path d="M 460 31 h 20 m -10 -10 v 20 m 10 -20 v 20"></path>
</g>
</svg>
