<?xml version="1.0" standalone="no"?>
<!DOCTYPE svg PUBLIC "-//W3C//DTD SVG 1.1//EN"
  "http://www.w3.org/Graphics/SVG/1.1/DTD/svg11.dtd">

<svg xmlns="http://www.w3.org/2000/svg" version="1.1" class="railroad-diagram" width="593" height="132" viewBox="0 0 593 132">

<defs><style type="text/css"><![CDATA[ svg.railroad-diagram {
  background-color: #ffffff;
}
svg.railroad-diagram path {
  stroke-width: 2;
  stroke: #5a6872;
  fill: none;
}
svg.railroad-diagram text {
  font-size: 14px;
  font-family: 'ibm-plex-mono', 'Menlo', 'DejaVu Sans Mono', 'Bitstream Vera Sans Mono', Courier, monospace;
  color: #152935;
  text-anchor: middle;
  cursor: pointer;
}
svg.railroad-diagram text.label {
  text-anchor: start;
}
svg.railroad-diagram text.comment {
  font-size: 12px;
}
svg.railroad-diagram rect {
  stroke-width: 2;
  stroke:  #5a6872;
  fill: #5aaafa;
}
 ]]></style></defs>

<g transform="translate(.5 .5)">
<path d="M 20 21 v 20 m 10 -20 v 20 m -10 -10 h 20.5"></path>
<g>
<path d="M40 31h0"></path>
<path d="M552 31h0"></path>
<path d="M40 31h10"></path>
<g>
<path d="M50 31h0"></path>
<path d="M158 31h0"></path>
<rect x="50" y="20" width="108" height="22" rx="10" ry="10"></rect>
<text x="104" y="35">TABLESAMPLE</text>
</g>
<path d="M158 31h10"></path>
<path d="M168 31h10"></path>
<g>
<path d="M178 31h0"></path>
<path d="M206 31h0"></path>
<rect x="178" y="20" width="28" height="22" rx="10" ry="10"></rect>
<text x="192" y="35">(</text>
</g>
<path d="M206 31h10"></path>
<g>
<path d="M216 31h0"></path>
<path d="M504 31h0"></path>
<path d="M216 31h20"></path>
<g>
<path d="M236 31h0"></path>
<path d="M484 31h0"></path>
<path d="M236 31h10"></path>
<g>
<path d="M246 31h0"></path>
<path d="M378 31h0"></path>
<rect x="246" y="20" width="132" height="22"></rect>
<text x="312" y="35">unsignedNumber</text>
</g>
<path d="M378 31h10"></path>
<path d="M388 31h10"></path>
<g>
<path d="M398 31h0"></path>
<path d="M474 31h0"></path>
<rect x="398" y="20" width="76" height="22" rx="10" ry="10"></rect>
<text x="436" y="35">PERCENT</text>
</g>
<path d="M474 31h10"></path>
</g>
<path d="M484 31h20"></path>
<path d="M216 31a10 10 0 0 1 10 10v20a10 10 0 0 0 10 10"></path>
<g>
<path d="M236 71h18"></path>
<path d="M466 71h18"></path>
<path d="M254 71h10"></path>
<g>
<path d="M264 71h0"></path>
<path d="M364 71h0"></path>
<rect x="264" y="60" width="100" height="22"></rect>
<text x="314" y="75">expression</text>
</g>
<path d="M364 71h10"></path>
<g>
<path d="M374 71h0"></path>
<path d="M466 71h0"></path>
<path d="M374 71a10 10 0 0 0 10 -10v0a10 10 0 0 1 10 -10"></path>
<g>
<path d="M394 51h52"></path>
</g>
<path d="M446 51a10 10 0 0 1 10 10v0a10 10 0 0 0 10 10"></path>
<path d="M374 71h20"></path>
<g>
<path d="M394 71h0"></path>
<path d="M446 71h0"></path>
<rect x="394" y="60" width="52" height="22" rx="10" ry="10"></rect>
<text x="420" y="75">ROWS</text>
</g>
<path d="M446 71h20"></path>
</g>
</g>
<path d="M484 71a10 10 0 0 0 10 -10v-20a10 10 0 0 1 10 -10"></path>
<path d="M216 31a10 10 0 0 1 10 10v50a10 10 0 0 0 10 10"></path>
<g>
<path d="M236 101h42"></path>
<path d="M442 101h42"></path>
<rect x="278" y="90" width="164" height="22"></rect>
<text x="360" y="105">bucketSampleClause</text>
</g>
<path d="M484 101a10 10 0 0 0 10 -10v-50a10 10 0 0 1 10 -10"></path>
</g>
<path d="M504 31h10"></path>
<g>
<path d="M514 31h0"></path>
<path d="M542 31h0"></path>
<rect x="514" y="20" width="28" height="22" rx="10" ry="10"></rect>
<text x="528" y="35">)</text>
</g>
<path d="M542 31h10"></path>
</g>
<path d="M 552 31 h 20 m -10 -10 v 20 m 10 -20 v 20"></path>
</g>
</svg>
