<?xml version="1.0" standalone="no"?>
<!DOCTYPE svg PUBLIC "-//W3C//DTD SVG 1.1//EN"
  "http://www.w3.org/Graphics/SVG/1.1/DTD/svg11.dtd">

<svg xmlns="http://www.w3.org/2000/svg" version="1.1" class="railroad-diagram" width="605" height="162" viewBox="0 0 605 162">

<defs><style type="text/css"><![CDATA[ svg.railroad-diagram {
  background-color: #ffffff;
}
svg.railroad-diagram path {
  stroke-width: 2;
  stroke: #5a6872;
  fill: none;
}
svg.railroad-diagram text {
  font-size: 14px;
  font-family: 'ibm-plex-mono', 'Menlo', 'DejaVu Sans Mono', 'Bitstream Vera Sans Mono', Courier, monospace;
  color: #152935;
  text-anchor: middle;
  cursor: pointer;
}
svg.railroad-diagram text.label {
  text-anchor: start;
}
svg.railroad-diagram text.comment {
  font-size: 12px;
}
svg.railroad-diagram rect {
  stroke-width: 2;
  stroke:  #5a6872;
  fill: #5aaafa;
}
 ]]></style></defs>

<g transform="translate(.5 .5)">
<path d="M 20 21 v 20 m 10 -20 v 20 m -10 -10 h 20.5"></path>
<g>
<path d="M40 31h0"></path>
<path d="M564 31h0"></path>
<path d="M40 31h10"></path>
<g>
<path d="M50 31h0"></path>
<path d="M158 31h0"></path>
<rect x="50" y="20" width="108" height="22" rx="10" ry="10"></rect>
<text x="104" y="35">TABLESAMPLE</text>
</g>
<path d="M158 31h10"></path>
<path d="M168 31h10"></path>
<g>
<path d="M178 31h0"></path>
<path d="M206 31h0"></path>
<rect x="178" y="20" width="28" height="22" rx="10" ry="10"></rect>
<text x="192" y="35">(</text>
</g>
<path d="M206 31h10"></path>
<g>
<path d="M216 31h0"></path>
<path d="M516 31h0"></path>
<path d="M216 31h20"></path>
<g>
<path d="M236 31h0"></path>
<path d="M496 31h0"></path>
<g>
<path d="M236 31h0"></path>
<path d="M400 31h0"></path>
<path d="M236 31h20"></path>
<g>
<path d="M256 31h0"></path>
<path d="M380 31h0"></path>
<rect x="256" y="20" width="124" height="22"></rect>
<text x="318" y="35">INTEGER&#95;VALUE</text>
</g>
<path d="M380 31h20"></path>
<path d="M236 31a10 10 0 0 1 10 10v10a10 10 0 0 0 10 10"></path>
<g>
<path d="M256 61h0"></path>
<path d="M380 61h0"></path>
<rect x="256" y="50" width="124" height="22"></rect>
<text x="318" y="65">DECIMAL&#95;VALUE</text>
</g>
<path d="M380 61a10 10 0 0 0 10 -10v-10a10 10 0 0 1 10 -10"></path>
</g>
<path d="M400 31h10"></path>
<g>
<path d="M410 31h0"></path>
<path d="M486 31h0"></path>
<rect x="410" y="20" width="76" height="22" rx="10" ry="10"></rect>
<text x="448" y="35">PERCENT</text>
</g>
<path d="M486 31h10"></path>
</g>
<path d="M496 31h20"></path>
<path d="M216 31a10 10 0 0 1 10 10v50a10 10 0 0 0 10 10"></path>
<g>
<path d="M236 101h24"></path>
<path d="M472 101h24"></path>
<path d="M260 101h10"></path>
<g>
<path d="M270 101h0"></path>
<path d="M370 101h0"></path>
<rect x="270" y="90" width="100" height="22"></rect>
<text x="320" y="105">expression</text>
</g>
<path d="M370 101h10"></path>
<g>
<path d="M380 101h0"></path>
<path d="M472 101h0"></path>
<path d="M380 101a10 10 0 0 0 10 -10v0a10 10 0 0 1 10 -10"></path>
<g>
<path d="M400 81h52"></path>
</g>
<path d="M452 81a10 10 0 0 1 10 10v0a10 10 0 0 0 10 10"></path>
<path d="M380 101h20"></path>
<g>
<path d="M400 101h0"></path>
<path d="M452 101h0"></path>
<rect x="400" y="90" width="52" height="22" rx="10" ry="10"></rect>
<text x="426" y="105">ROWS</text>
</g>
<path d="M452 101h20"></path>
</g>
</g>
<path d="M496 101a10 10 0 0 0 10 -10v-50a10 10 0 0 1 10 -10"></path>
<path d="M216 31a10 10 0 0 1 10 10v80a10 10 0 0 0 10 10"></path>
<g>
<path d="M236 131h48"></path>
<path d="M448 131h48"></path>
<rect x="284" y="120" width="164" height="22"></rect>
<text x="366" y="135">bucketSampleClause</text>
</g>
<path d="M496 131a10 10 0 0 0 10 -10v-80a10 10 0 0 1 10 -10"></path>
</g>
<path d="M516 31h10"></path>
<g>
<path d="M526 31h0"></path>
<path d="M554 31h0"></path>
<rect x="526" y="20" width="28" height="22" rx="10" ry="10"></rect>
<text x="540" y="35">)</text>
</g>
<path d="M554 31h10"></path>
</g>
<path d="M 564 31 h 20 m -10 -10 v 20 m 10 -20 v 20"></path>
</g>
</svg>
