<?xml version="1.0" standalone="no"?>
<!DOCTYPE svg PUBLIC "-//W3C//DTD SVG 1.1//EN"
  "http://www.w3.org/Graphics/SVG/1.1/DTD/svg11.dtd">

<svg xmlns="http://www.w3.org/2000/svg" version="1.1" class="railroad-diagram" width="557" height="132" viewBox="0 0 557 132">

<defs><style type="text/css"><![CDATA[ svg.railroad-diagram {
  background-color: #ffffff;
}
svg.railroad-diagram path {
  stroke-width: 2;
  stroke: #5a6872;
  fill: none;
}
svg.railroad-diagram text {
  font-size: 14px;
  font-family: 'ibm-plex-mono', 'Menlo', 'DejaVu Sans Mono', 'Bitstream Vera Sans Mono', Courier, monospace;
  color: #152935;
  text-anchor: middle;
  cursor: pointer;
}
svg.railroad-diagram text.label {
  text-anchor: start;
}
svg.railroad-diagram text.comment {
  font-size: 12px;
}
svg.railroad-diagram rect {
  stroke-width: 2;
  stroke:  #5a6872;
  fill: #5aaafa;
}
 ]]></style></defs>

<g transform="translate(.5 .5)">
<path d="M 20 21 v 20 m 10 -20 v 20 m -10 -10 h 20.5"></path>
<g>
<path d="M40 31h0"></path>
<path d="M516 31h0"></path>
<path d="M40 31h10"></path>
<g>
<path d="M50 31h0"></path>
<path d="M158 31h0"></path>
<rect x="50" y="20" width="108" height="22" rx="10" ry="10"></rect>
<text x="104" y="35">TABLESAMPLE</text>
</g>
<path d="M158 31h10"></path>
<path d="M168 31h10"></path>
<g>
<path d="M178 31h0"></path>
<path d="M206 31h0"></path>
<rect x="178" y="20" width="28" height="22" rx="10" ry="10"></rect>
<text x="192" y="35">(</text>
</g>
<path d="M206 31h10"></path>
<g>
<path d="M216 31h0"></path>
<path d="M468 31h0"></path>
<path d="M216 31h20"></path>
<g>
<path d="M236 31h14"></path>
<path d="M434 31h14"></path>
<path d="M250 31h10"></path>
<g>
<path d="M260 31h0"></path>
<path d="M328 31h0"></path>
<rect x="260" y="20" width="68" height="22"></rect>
<text x="294" y="35">number</text>
</g>
<path d="M328 31h10"></path>
<path d="M338 31h10"></path>
<g>
<path d="M348 31h0"></path>
<path d="M424 31h0"></path>
<rect x="348" y="20" width="76" height="22" rx="10" ry="10"></rect>
<text x="386" y="35">PERCENT</text>
</g>
<path d="M424 31h10"></path>
</g>
<path d="M448 31h20"></path>
<path d="M216 31a10 10 0 0 1 10 10v20a10 10 0 0 0 10 10"></path>
<g>
<path d="M236 71h0"></path>
<path d="M448 71h0"></path>
<path d="M236 71h10"></path>
<g>
<path d="M246 71h0"></path>
<path d="M346 71h0"></path>
<rect x="246" y="60" width="100" height="22"></rect>
<text x="296" y="75">expression</text>
</g>
<path d="M346 71h10"></path>
<g>
<path d="M356 71h0"></path>
<path d="M448 71h0"></path>
<path d="M356 71a10 10 0 0 0 10 -10v0a10 10 0 0 1 10 -10"></path>
<g>
<path d="M376 51h52"></path>
</g>
<path d="M428 51a10 10 0 0 1 10 10v0a10 10 0 0 0 10 10"></path>
<path d="M356 71h20"></path>
<g>
<path d="M376 71h0"></path>
<path d="M428 71h0"></path>
<rect x="376" y="60" width="52" height="22" rx="10" ry="10"></rect>
<text x="402" y="75">ROWS</text>
</g>
<path d="M428 71h20"></path>
</g>
</g>
<path d="M448 71a10 10 0 0 0 10 -10v-20a10 10 0 0 1 10 -10"></path>
<path d="M216 31a10 10 0 0 1 10 10v50a10 10 0 0 0 10 10"></path>
<g>
<path d="M236 101h24"></path>
<path d="M424 101h24"></path>
<rect x="260" y="90" width="164" height="22"></rect>
<text x="342" y="105">bucketSampleClause</text>
</g>
<path d="M448 101a10 10 0 0 0 10 -10v-50a10 10 0 0 1 10 -10"></path>
</g>
<path d="M468 31h10"></path>
<g>
<path d="M478 31h0"></path>
<path d="M506 31h0"></path>
<rect x="478" y="20" width="28" height="22" rx="10" ry="10"></rect>
<text x="492" y="35">)</text>
</g>
<path d="M506 31h10"></path>
</g>
<path d="M 516 31 h 20 m -10 -10 v 20 m 10 -20 v 20"></path>
</g>
</svg>
