<?xml version="1.0" standalone="no"?>
<!DOCTYPE svg PUBLIC "-//W3C//DTD SVG 1.1//EN"
  "http://www.w3.org/Graphics/SVG/1.1/DTD/svg11.dtd">

<svg xmlns="http://www.w3.org/2000/svg" version="1.1" class="railroad-diagram"  width="586" height="132" viewBox="0 0 586 132" >
<defs><style type="text/css"><![CDATA[ svg.railroad-diagram {
  background-color: #ffffff;
}
svg.railroad-diagram path {
  stroke-width: 2;
  stroke: #5a6872;
  fill: none;
}
svg.railroad-diagram text {
  font-size: 14px;
  font-family: 'ibm-plex-mono', 'Menlo', 'DejaVu Sans Mono', 'Bitstream Vera Sans Mono', Courier, monospace;
  color: #152935;
  text-anchor: middle;
  cursor: pointer;
}
svg.railroad-diagram text.label {
  text-anchor: start;
}
svg.railroad-diagram text.comment {
  font-size: 12px;
}
svg.railroad-diagram rect {
  stroke-width: 2;
  stroke:  #5a6872;
  fill: #5aaafa;
}
 ]]></style></defs>

<g transform="translate(.5 .5)">
<path d="M 20 31 v 20 m 10 -20 v 20 m -10 -10 h 20.5"></path>
<g>
<path d="M40 41h0"></path>
<path d="M556 41h0"></path>
<path d="M40 41h10"></path>
<g>
<path d="M50 41h0"></path>
<path d="M102 41h0"></path>
<rect x="50" y="30" width="52" height="22" rx="10" ry="10"></rect>
<text x="76" y="45">SORT</text>
</g>
<path d="M102 41h10"></path>
<path d="M112 41h10"></path>
<g>
<path d="M122 41h0"></path>
<path d="M158 41h0"></path>
<rect x="122" y="30" width="36" height="22" rx="10" ry="10"></rect>
<text x="140" y="45">BY</text>
</g>
<path d="M158 41h10"></path>
<path d="M168 41h10"></path>
<g>
<path d="M178 41h0"></path>
<path d="M206 41h0"></path>
<rect x="178" y="30" width="28" height="22" rx="10" ry="10"></rect>
<text x="192" y="45">(</text>
</g>
<path d="M206 41h10"></path>
<path d="M216 41h10"></path>
<g>
<path d="M226 41h0"></path>
<path d="M498 41h0"></path>
<path d="M226 41h10"></path>
<g>
<path d="M236 41h0"></path>
<path d="M488 41h0"></path>
<path d="M236 41h10"></path>
<g>
<path d="M246 41h0"></path>
<path d="M346 41h0"></path>
<rect x="246" y="30" width="100" height="22"></rect>
<text x="296" y="45">expression</text>
</g>
<path d="M346 41h10"></path>
<g>
<path d="M356 41h0"></path>
<path d="M488 41h0"></path>
<path d="M356 41a10 10 0 0 0 10 -10v0a10 10 0 0 1 10 -10"></path>
<g>
<path d="M376 21h92"></path>
</g>
<path d="M468 21a10 10 0 0 1 10 10v0a10 10 0 0 0 10 10"></path>
<path d="M356 41h20"></path>
<g>
<path d="M376 41h0"></path>
<path d="M468 41h0"></path>
<path d="M376 41h20"></path>
<g>
<path d="M396 41h4"></path>
<path d="M444 41h4"></path>
<rect x="400" y="30" width="44" height="22" rx="10" ry="10"></rect>
<text x="422" y="45">ASC</text>
</g>
<path d="M448 41h20"></path>
<path d="M376 41a10 10 0 0 1 10 10v10a10 10 0 0 0 10 10"></path>
<g>
<path d="M396 71h0"></path>
<path d="M448 71h0"></path>
<rect x="396" y="60" width="52" height="22" rx="10" ry="10"></rect>
<text x="422" y="75">DESC</text>
</g>
<path d="M448 71a10 10 0 0 0 10 -10v-10a10 10 0 0 1 10 -10"></path>
</g>
<path d="M468 41h20"></path>
</g>
</g>
<path d="M488 41h10"></path>
<path d="M236 41a10 10 0 0 0 -10 10v40a10 10 0 0 0 10 10"></path>
<g>
<path d="M236 101h102"></path>
<path d="M386 101h102"></path>
<path d="M338 101h10"></path>
<g>
<path d="M348 101h0"></path>
<path d="M376 101h0"></path>
<rect x="348" y="90" width="28" height="22" rx="10" ry="10"></rect>
<text x="362" y="105">,</text>
</g>
<path d="M376 101h10"></path>
</g>
<path d="M488 101a10 10 0 0 0 10 -10v-40a10 10 0 0 0 -10 -10"></path>
</g>
<path d="M498 41h10"></path>
<path d="M508 41h10"></path>
<g>
<path d="M518 41h0"></path>
<path d="M546 41h0"></path>
<rect x="518" y="30" width="28" height="22" rx="10" ry="10"></rect>
<text x="532" y="45">)</text>
</g>
<path d="M546 41h10"></path>
</g>
<path d="M 556 41 h 20 m -10 -10 v 20 m 10 -20 v 20"></path>
</g>
</svg>
