<?xml version="1.0" standalone="no"?>
<!DOCTYPE svg PUBLIC "-//W3C//DTD SVG 1.1//EN"
  "http://www.w3.org/Graphics/SVG/1.1/DTD/svg11.dtd">

<svg xmlns="http://www.w3.org/2000/svg" version="1.1" class="railroad-diagram"  width="554" height="132" viewBox="0 0 554 132" >
<defs><style type="text/css"><![CDATA[ svg.railroad-diagram {
  background-color: #ffffff;
}
svg.railroad-diagram path {
  stroke-width: 2;
  stroke: #5a6872;
  fill: none;
}
svg.railroad-diagram text {
  font-size: 14px;
  font-family: 'ibm-plex-mono', 'Menlo', 'DejaVu Sans Mono', 'Bitstream Vera Sans Mono', Courier, monospace;
  color: #152935;
  text-anchor: middle;
  cursor: pointer;
}
svg.railroad-diagram text.label {
  text-anchor: start;
}
svg.railroad-diagram text.comment {
  font-size: 12px;
}
svg.railroad-diagram rect {
  stroke-width: 2;
  stroke:  #5a6872;
  fill: #5aaafa;
}
 ]]></style></defs>

<g transform="translate(.5 .5)">
<path d="M 20 31 v 20 m 10 -20 v 20 m -10 -10 h 20.5"></path>
<g>
<path d="M40 41h0"></path>
<path d="M524 41h0"></path>
<path d="M40 41h10"></path>
<g>
<path d="M50 41h0"></path>
<path d="M126 41h0"></path>
<rect x="50" y="30" width="76" height="22" rx="10" ry="10"></rect>
<text x="88" y="45">SORT BY</text>
</g>
<path d="M126 41h10"></path>
<path d="M136 41h10"></path>
<g>
<path d="M146 41h0"></path>
<path d="M174 41h0"></path>
<rect x="146" y="30" width="28" height="22" rx="10" ry="10"></rect>
<text x="160" y="45">(</text>
</g>
<path d="M174 41h10"></path>
<path d="M184 41h10"></path>
<g>
<path d="M194 41h0"></path>
<path d="M466 41h0"></path>
<path d="M194 41h10"></path>
<g>
<path d="M204 41h0"></path>
<path d="M456 41h0"></path>
<g>
<path d="M204 41h0"></path>
<path d="M456 41h0"></path>
<path d="M204 41h10"></path>
<g>
<path d="M214 41h0"></path>
<path d="M314 41h0"></path>
<rect x="214" y="30" width="100" height="22"></rect>
<text x="264" y="45">expression</text>
</g>
<path d="M314 41h10"></path>
<g>
<path d="M324 41h0"></path>
<path d="M456 41h0"></path>
<path d="M324 41a10 10 0 0 0 10 -10v0a10 10 0 0 1 10 -10"></path>
<g>
<path d="M344 21h92"></path>
</g>
<path d="M436 21a10 10 0 0 1 10 10v0a10 10 0 0 0 10 10"></path>
<path d="M324 41h20"></path>
<g>
<path d="M344 41h0"></path>
<path d="M436 41h0"></path>
<path d="M344 41h20"></path>
<g>
<path d="M364 41h4"></path>
<path d="M412 41h4"></path>
<rect x="368" y="30" width="44" height="22" rx="10" ry="10"></rect>
<text x="390" y="45">ASC</text>
</g>
<path d="M416 41h20"></path>
<path d="M344 41a10 10 0 0 1 10 10v10a10 10 0 0 0 10 10"></path>
<g>
<path d="M364 71h0"></path>
<path d="M416 71h0"></path>
<rect x="364" y="60" width="52" height="22" rx="10" ry="10"></rect>
<text x="390" y="75">DESC</text>
</g>
<path d="M416 71a10 10 0 0 0 10 -10v-10a10 10 0 0 1 10 -10"></path>
</g>
<path d="M436 41h20"></path>
</g>
</g>
</g>
<path d="M456 41h10"></path>
<path d="M204 41a10 10 0 0 0 -10 10v40a10 10 0 0 0 10 10"></path>
<g>
<path d="M204 101h102"></path>
<path d="M354 101h102"></path>
<path d="M306 101h10"></path>
<g>
<path d="M316 101h0"></path>
<path d="M344 101h0"></path>
<rect x="316" y="90" width="28" height="22" rx="10" ry="10"></rect>
<text x="330" y="105">,</text>
</g>
<path d="M344 101h10"></path>
</g>
<path d="M456 101a10 10 0 0 0 10 -10v-40a10 10 0 0 0 -10 -10"></path>
</g>
<path d="M466 41h10"></path>
<path d="M476 41h10"></path>
<g>
<path d="M486 41h0"></path>
<path d="M514 41h0"></path>
<rect x="486" y="30" width="28" height="22" rx="10" ry="10"></rect>
<text x="500" y="45">)</text>
</g>
<path d="M514 41h10"></path>
</g>
<path d="M 524 41 h 20 m -10 -10 v 20 m 10 -20 v 20"></path>
</g>
</svg>
