<?xml version="1.0" standalone="no"?>
<!DOCTYPE svg PUBLIC "-//W3C//DTD SVG 1.1//EN"
  "http://www.w3.org/Graphics/SVG/1.1/DTD/svg11.dtd">

<svg xmlns="http://www.w3.org/2000/svg" version="1.1" class="railroad-diagram" width="905" height="182" viewBox="0 0 905 182">

<defs><style type="text/css"><![CDATA[ svg.railroad-diagram {
  background-color: #ffffff;
}
svg.railroad-diagram path {
  stroke-width: 2;
  stroke: #5a6872;
  fill: none;
}
svg.railroad-diagram text {
  font-size: 14px;
  font-family: 'ibm-plex-mono', 'Menlo', 'DejaVu Sans Mono', 'Bitstream Vera Sans Mono', Courier, monospace;
  color: #152935;
  text-anchor: middle;
  cursor: pointer;
}
svg.railroad-diagram text.label {
  text-anchor: start;
}
svg.railroad-diagram text.comment {
  font-size: 12px;
}
svg.railroad-diagram rect {
  stroke-width: 2;
  stroke:  #5a6872;
  fill: #5aaafa;
}
 ]]></style></defs>

<g transform="translate(.5 .5)">
<path d="M 20 21 v 20 m 10 -20 v 20 m -10 -10 h 20.5"></path>
<g>
<path d="M40 31h0"></path>
<path d="M864 31h0"></path>
<path d="M40 31h20"></path>
<g>
<path d="M60 31h248"></path>
<path d="M596 31h248"></path>
<path d="M308 31h10"></path>
<g>
<path d="M318 31h0"></path>
<path d="M490 31h0"></path>
<rect x="318" y="20" width="172" height="22" rx="10" ry="10"></rect>
<text x="404" y="35">TS&#95;EXP&#95;ID&#95;TO&#95;STRING</text>
</g>
<path d="M490 31h10"></path>
<path d="M500 31h10"></path>
<g>
<path d="M510 31h0"></path>
<path d="M538 31h0"></path>
<rect x="510" y="20" width="28" height="22" rx="10" ry="10"></rect>
<text x="524" y="35">(</text>
</g>
<path d="M538 31h10"></path>
<path d="M548 31h10"></path>
<g>
<path d="M558 31h0"></path>
<path d="M586 31h0"></path>
<rect x="558" y="20" width="28" height="22" rx="10" ry="10"></rect>
<text x="572" y="35">)</text>
</g>
<path d="M586 31h10"></path>
</g>
<path d="M844 31h20"></path>
<path d="M40 31a10 10 0 0 1 10 10v10a10 10 0 0 0 10 10"></path>
<g>
<path d="M60 61h0"></path>
<path d="M844 61h0"></path>
<path d="M60 61h10"></path>
<g>
<path d="M70 61h0"></path>
<path d="M194 61h0"></path>
<rect x="70" y="50" width="124" height="22" rx="10" ry="10"></rect>
<text x="132" y="65">TS&#95;EXP&#95;CONCAT</text>
</g>
<path d="M194 61h10"></path>
<path d="M204 61h10"></path>
<g>
<path d="M214 61h0"></path>
<path d="M242 61h0"></path>
<rect x="214" y="50" width="28" height="22" rx="10" ry="10"></rect>
<text x="228" y="65">(</text>
</g>
<path d="M242 61h10"></path>
<path d="M252 61h10"></path>
<g>
<path d="M262 61h0"></path>
<path d="M490 61h0"></path>
<rect x="262" y="50" width="228" height="22"></rect>
<text x="376" y="65">stringTimeSeriesExpression</text>
</g>
<path d="M490 61h10"></path>
<path d="M500 61h10"></path>
<g>
<path d="M510 61h0"></path>
<path d="M538 61h0"></path>
<rect x="510" y="50" width="28" height="22" rx="10" ry="10"></rect>
<text x="524" y="65">,</text>
</g>
<path d="M538 61h10"></path>
<path d="M548 61h10"></path>
<g>
<path d="M558 61h0"></path>
<path d="M786 61h0"></path>
<rect x="558" y="50" width="228" height="22"></rect>
<text x="672" y="65">stringTimeSeriesExpression</text>
</g>
<path d="M786 61h10"></path>
<path d="M796 61h10"></path>
<g>
<path d="M806 61h0"></path>
<path d="M834 61h0"></path>
<rect x="806" y="50" width="28" height="22" rx="10" ry="10"></rect>
<text x="820" y="65">)</text>
</g>
<path d="M834 61h10"></path>
</g>
<path d="M844 61a10 10 0 0 0 10 -10v-10a10 10 0 0 1 10 -10"></path>
<path d="M40 31a10 10 0 0 1 10 10v40a10 10 0 0 0 10 10"></path>
<g>
<path d="M60 91h274"></path>
<path d="M570 91h274"></path>
<rect x="334" y="80" width="236" height="22"></rect>
<text x="452" y="95">stringConditionalExpression</text>
</g>
<path d="M844 91a10 10 0 0 0 10 -10v-40a10 10 0 0 1 10 -10"></path>
<path d="M40 31a10 10 0 0 1 10 10v70a10 10 0 0 0 10 10"></path>
<g>
<path d="M60 121h358"></path>
<path d="M486 121h358"></path>
<rect x="418" y="110" width="68" height="22"></rect>
<text x="452" y="125">STRING</text>
</g>
<path d="M844 121a10 10 0 0 0 10 -10v-70a10 10 0 0 1 10 -10"></path>
<path d="M40 31a10 10 0 0 1 10 10v100a10 10 0 0 0 10 10"></path>
<g>
<path d="M60 151h270"></path>
<path d="M574 151h270"></path>
<rect x="330" y="140" width="244" height="22"></rect>
<text x="452" y="155">identityTimeSeriesExpression</text>
</g>
<path d="M844 151a10 10 0 0 0 10 -10v-100a10 10 0 0 1 10 -10"></path>
</g>
<path d="M 864 31 h 20 m -10 -10 v 20 m 10 -20 v 20"></path>
</g>
</svg>
