<?xml version="1.0" standalone="no"?>
<!DOCTYPE svg PUBLIC "-//W3C//DTD SVG 1.1//EN"
  "http://www.w3.org/Graphics/SVG/1.1/DTD/svg11.dtd">

<svg xmlns="http://www.w3.org/2000/svg" version="1.1" class="railroad-diagram" width="485" height="92" viewBox="0 0 485 92">

<defs><style type="text/css"><![CDATA[ svg.railroad-diagram {
  background-color: #ffffff;
}
svg.railroad-diagram path {
  stroke-width: 2;
  stroke: #5a6872;
  fill: none;
}
svg.railroad-diagram text {
  font-size: 14px;
  font-family: 'ibm-plex-mono', 'Menlo', 'DejaVu Sans Mono', 'Bitstream Vera Sans Mono', Courier, monospace;
  color: #152935;
  text-anchor: middle;
  cursor: pointer;
}
svg.railroad-diagram text.label {
  text-anchor: start;
}
svg.railroad-diagram text.comment {
  font-size: 12px;
}
svg.railroad-diagram rect {
  stroke-width: 2;
  stroke:  #5a6872;
  fill: #5aaafa;
}
 ]]></style></defs>

<g transform="translate(.5 .5)">
<path d="M 20 21 v 20 m 10 -20 v 20 m -10 -10 h 20.5"></path>
<g>
<path d="M40 31h0"></path>
<path d="M444 31h0"></path>
<g>
<path d="M40 31h0"></path>
<path d="M172 31h0"></path>
<path d="M40 31h20"></path>
<g>
<path d="M60 31h8"></path>
<path d="M144 31h8"></path>
<rect x="68" y="20" width="76" height="22" rx="10" ry="10"></rect>
<text x="106" y="35">FLATTEN</text>
</g>
<path d="M152 31h20"></path>
<path d="M40 31a10 10 0 0 1 10 10v10a10 10 0 0 0 10 10"></path>
<g>
<path d="M60 61h0"></path>
<path d="M152 61h0"></path>
<rect x="60" y="50" width="92" height="22" rx="10" ry="10"></rect>
<text x="106" y="65">CLEANCOLS</text>
</g>
<path d="M152 61a10 10 0 0 0 10 -10v-10a10 10 0 0 1 10 -10"></path>
</g>
<path d="M172 31h10"></path>
<g>
<path d="M182 31h0"></path>
<path d="M210 31h0"></path>
<rect x="182" y="20" width="28" height="22" rx="10" ry="10"></rect>
<text x="196" y="35">(</text>
</g>
<path d="M210 31h10"></path>
<path d="M220 31h10"></path>
<g>
<path d="M230 31h0"></path>
<path d="M386 31h0"></path>
<rect x="230" y="20" width="156" height="22"></rect>
<text x="308" y="35">externalTableSpec</text>
</g>
<path d="M386 31h10"></path>
<path d="M396 31h10"></path>
<g>
<path d="M406 31h0"></path>
<path d="M434 31h0"></path>
<rect x="406" y="20" width="28" height="22" rx="10" ry="10"></rect>
<text x="420" y="35">)</text>
</g>
<path d="M434 31h10"></path>
</g>
<path d="M 444 31 h 20 m -10 -10 v 20 m 10 -20 v 20"></path>
</g>
</svg>
