<?xml version="1.0" standalone="no"?>
<!DOCTYPE svg PUBLIC "-//W3C//DTD SVG 1.1//EN"
  "http://www.w3.org/Graphics/SVG/1.1/DTD/svg11.dtd">

<svg xmlns="http://www.w3.org/2000/svg" version="1.1" class="railroad-diagram" width="237" height="332" viewBox="0 0 237 332">

<defs><style type="text/css"><![CDATA[ svg.railroad-diagram {
  background-color: #ffffff;
}
svg.railroad-diagram path {
  stroke-width: 2;
  stroke: #5a6872;
  fill: none;
}
svg.railroad-diagram text {
  font-size: 14px;
  font-family: 'ibm-plex-mono', 'Menlo', 'DejaVu Sans Mono', 'Bitstream Vera Sans Mono', Courier, monospace;
  color: #152935;
  text-anchor: middle;
  cursor: pointer;
}
svg.railroad-diagram text.label {
  text-anchor: start;
}
svg.railroad-diagram text.comment {
  font-size: 12px;
}
svg.railroad-diagram rect {
  stroke-width: 2;
  stroke:  #5a6872;
  fill: #5aaafa;
}
 ]]></style></defs>

<g transform="translate(.5 .5)">
<path d="M 20 21 v 20 m 10 -20 v 20 m -10 -10 h 20.5"></path>
<g>
<path d="M40 31h0"></path>
<path d="M196 31h0"></path>
<path d="M40 31h20"></path>
<g>
<path d="M60 31h0"></path>
<path d="M176 31h0"></path>
<path d="M60 31h20"></path>
<g>
<path d="M80 31h4"></path>
<path d="M152 31h4"></path>
<rect x="84" y="20" width="68" height="22" rx="10" ry="10"></rect>
<text x="118" y="35">SECOND</text>
</g>
<path d="M156 31h20"></path>
<path d="M60 31a10 10 0 0 1 10 10v10a10 10 0 0 0 10 10"></path>
<g>
<path d="M80 61h0"></path>
<path d="M156 61h0"></path>
<rect x="80" y="50" width="76" height="22" rx="10" ry="10"></rect>
<text x="118" y="65">SECONDS</text>
</g>
<path d="M156 61a10 10 0 0 0 10 -10v-10a10 10 0 0 1 10 -10"></path>
</g>
<path d="M176 31h20"></path>
<path d="M40 31a10 10 0 0 1 10 10v40a10 10 0 0 0 10 10"></path>
<g>
<path d="M60 91h0"></path>
<path d="M176 91h0"></path>
<path d="M60 91h20"></path>
<g>
<path d="M80 91h4"></path>
<path d="M152 91h4"></path>
<rect x="84" y="80" width="68" height="22" rx="10" ry="10"></rect>
<text x="118" y="95">MINUTE</text>
</g>
<path d="M156 91h20"></path>
<path d="M60 91a10 10 0 0 1 10 10v10a10 10 0 0 0 10 10"></path>
<g>
<path d="M80 121h0"></path>
<path d="M156 121h0"></path>
<rect x="80" y="110" width="76" height="22" rx="10" ry="10"></rect>
<text x="118" y="125">MINUTES</text>
</g>
<path d="M156 121a10 10 0 0 0 10 -10v-10a10 10 0 0 1 10 -10"></path>
</g>
<path d="M176 91a10 10 0 0 0 10 -10v-40a10 10 0 0 1 10 -10"></path>
<path d="M40 31a10 10 0 0 1 10 10v100a10 10 0 0 0 10 10"></path>
<g>
<path d="M60 151h12"></path>
<path d="M164 151h12"></path>
<path d="M72 151h20"></path>
<g>
<path d="M92 151h4"></path>
<path d="M140 151h4"></path>
<rect x="96" y="140" width="44" height="22" rx="10" ry="10"></rect>
<text x="118" y="155">DAY</text>
</g>
<path d="M144 151h20"></path>
<path d="M72 151a10 10 0 0 1 10 10v10a10 10 0 0 0 10 10"></path>
<g>
<path d="M92 181h0"></path>
<path d="M144 181h0"></path>
<rect x="92" y="170" width="52" height="22" rx="10" ry="10"></rect>
<text x="118" y="185">DAYS</text>
</g>
<path d="M144 181a10 10 0 0 0 10 -10v-10a10 10 0 0 1 10 -10"></path>
</g>
<path d="M176 151a10 10 0 0 0 10 -10v-100a10 10 0 0 1 10 -10"></path>
<path d="M40 31a10 10 0 0 1 10 10v160a10 10 0 0 0 10 10"></path>
<g>
<path d="M60 211h4"></path>
<path d="M172 211h4"></path>
<path d="M64 211h20"></path>
<g>
<path d="M84 211h4"></path>
<path d="M148 211h4"></path>
<rect x="88" y="200" width="60" height="22" rx="10" ry="10"></rect>
<text x="118" y="215">MONTH</text>
</g>
<path d="M152 211h20"></path>
<path d="M64 211a10 10 0 0 1 10 10v10a10 10 0 0 0 10 10"></path>
<g>
<path d="M84 241h0"></path>
<path d="M152 241h0"></path>
<rect x="84" y="230" width="68" height="22" rx="10" ry="10"></rect>
<text x="118" y="245">MONTHS</text>
</g>
<path d="M152 241a10 10 0 0 0 10 -10v-10a10 10 0 0 1 10 -10"></path>
</g>
<path d="M176 211a10 10 0 0 0 10 -10v-160a10 10 0 0 1 10 -10"></path>
<path d="M40 31a10 10 0 0 1 10 10v220a10 10 0 0 0 10 10"></path>
<g>
<path d="M60 271h8"></path>
<path d="M168 271h8"></path>
<path d="M68 271h20"></path>
<g>
<path d="M88 271h4"></path>
<path d="M144 271h4"></path>
<rect x="92" y="260" width="52" height="22" rx="10" ry="10"></rect>
<text x="118" y="275">YEAR</text>
</g>
<path d="M148 271h20"></path>
<path d="M68 271a10 10 0 0 1 10 10v10a10 10 0 0 0 10 10"></path>
<g>
<path d="M88 301h0"></path>
<path d="M148 301h0"></path>
<rect x="88" y="290" width="60" height="22" rx="10" ry="10"></rect>
<text x="118" y="305">YEARS</text>
</g>
<path d="M148 301a10 10 0 0 0 10 -10v-10a10 10 0 0 1 10 -10"></path>
</g>
<path d="M176 271a10 10 0 0 0 10 -10v-220a10 10 0 0 1 10 -10"></path>
</g>
<path d="M 196 31 h 20 m -10 -10 v 20 m 10 -20 v 20"></path>
</g>
</svg>
