<?xml version="1.0" standalone="no"?>
<!DOCTYPE svg PUBLIC "-//W3C//DTD SVG 1.1//EN"
  "http://www.w3.org/Graphics/SVG/1.1/DTD/svg11.dtd">

<svg xmlns="http://www.w3.org/2000/svg" version="1.1" class="railroad-diagram" width="601" height="152" viewBox="0 0 601 152">

<defs><style type="text/css"><![CDATA[ svg.railroad-diagram {
  background-color: #ffffff;
}
svg.railroad-diagram path {
  stroke-width: 2;
  stroke: #5a6872;
  fill: none;
}
svg.railroad-diagram text {
  font-size: 14px;
  font-family: 'ibm-plex-mono', 'Menlo', 'DejaVu Sans Mono', 'Bitstream Vera Sans Mono', Courier, monospace;
  color: #152935;
  text-anchor: middle;
  cursor: pointer;
}
svg.railroad-diagram text.label {
  text-anchor: start;
}
svg.railroad-diagram text.comment {
  font-size: 12px;
}
svg.railroad-diagram rect {
  stroke-width: 2;
  stroke:  #5a6872;
  fill: #5aaafa;
}
 ]]></style></defs>

<g transform="translate(.5 .5)">
<path d="M 20 21 v 20 m 10 -20 v 20 m -10 -10 h 20.5"></path>
<g>
<path d="M40 31h0"></path>
<path d="M560 31h0"></path>
<path d="M40 31h20"></path>
<g>
<path d="M60 31h140"></path>
<path d="M400 31h140"></path>
<path d="M200 31h10"></path>
<g>
<path d="M210 31h0"></path>
<path d="M270 31h0"></path>
<rect x="210" y="20" width="60" height="22" rx="10" ry="10"></rect>
<text x="240" y="35">RANGE</text>
</g>
<path d="M270 31h10"></path>
<path d="M280 31h10"></path>
<g>
<path d="M290 31h0"></path>
<path d="M390 31h0"></path>
<rect x="290" y="20" width="100" height="22"></rect>
<text x="340" y="35">frameBound</text>
</g>
<path d="M390 31h10"></path>
</g>
<path d="M540 31h20"></path>
<path d="M40 31a10 10 0 0 1 10 10v10a10 10 0 0 0 10 10"></path>
<g>
<path d="M60 61h144"></path>
<path d="M396 61h144"></path>
<path d="M204 61h10"></path>
<g>
<path d="M214 61h0"></path>
<path d="M266 61h0"></path>
<rect x="214" y="50" width="52" height="22" rx="10" ry="10"></rect>
<text x="240" y="65">ROWS</text>
</g>
<path d="M266 61h10"></path>
<path d="M276 61h10"></path>
<g>
<path d="M286 61h0"></path>
<path d="M386 61h0"></path>
<rect x="286" y="50" width="100" height="22"></rect>
<text x="336" y="65">frameBound</text>
</g>
<path d="M386 61h10"></path>
</g>
<path d="M540 61a10 10 0 0 0 10 -10v-10a10 10 0 0 1 10 -10"></path>
<path d="M40 31a10 10 0 0 1 10 10v40a10 10 0 0 0 10 10"></path>
<g>
<path d="M60 91h0"></path>
<path d="M540 91h0"></path>
<path d="M60 91h10"></path>
<g>
<path d="M70 91h0"></path>
<path d="M130 91h0"></path>
<rect x="70" y="80" width="60" height="22" rx="10" ry="10"></rect>
<text x="100" y="95">RANGE</text>
</g>
<path d="M130 91h10"></path>
<path d="M140 91h10"></path>
<g>
<path d="M150 91h0"></path>
<path d="M226 91h0"></path>
<rect x="150" y="80" width="76" height="22" rx="10" ry="10"></rect>
<text x="188" y="95">BETWEEN</text>
</g>
<path d="M226 91h10"></path>
<path d="M236 91h10"></path>
<g>
<path d="M246 91h0"></path>
<path d="M346 91h0"></path>
<rect x="246" y="80" width="100" height="22"></rect>
<text x="296" y="95">frameBound</text>
</g>
<path d="M346 91h10"></path>
<path d="M356 91h10"></path>
<g>
<path d="M366 91h0"></path>
<path d="M410 91h0"></path>
<rect x="366" y="80" width="44" height="22" rx="10" ry="10"></rect>
<text x="388" y="95">AND</text>
</g>
<path d="M410 91h10"></path>
<path d="M420 91h10"></path>
<g>
<path d="M430 91h0"></path>
<path d="M530 91h0"></path>
<rect x="430" y="80" width="100" height="22"></rect>
<text x="480" y="95">frameBound</text>
</g>
<path d="M530 91h10"></path>
</g>
<path d="M540 91a10 10 0 0 0 10 -10v-40a10 10 0 0 1 10 -10"></path>
<path d="M40 31a10 10 0 0 1 10 10v70a10 10 0 0 0 10 10"></path>
<g>
<path d="M60 121h4"></path>
<path d="M536 121h4"></path>
<path d="M64 121h10"></path>
<g>
<path d="M74 121h0"></path>
<path d="M126 121h0"></path>
<rect x="74" y="110" width="52" height="22" rx="10" ry="10"></rect>
<text x="100" y="125">ROWS</text>
</g>
<path d="M126 121h10"></path>
<path d="M136 121h10"></path>
<g>
<path d="M146 121h0"></path>
<path d="M222 121h0"></path>
<rect x="146" y="110" width="76" height="22" rx="10" ry="10"></rect>
<text x="184" y="125">BETWEEN</text>
</g>
<path d="M222 121h10"></path>
<path d="M232 121h10"></path>
<g>
<path d="M242 121h0"></path>
<path d="M342 121h0"></path>
<rect x="242" y="110" width="100" height="22"></rect>
<text x="292" y="125">frameBound</text>
</g>
<path d="M342 121h10"></path>
<path d="M352 121h10"></path>
<g>
<path d="M362 121h0"></path>
<path d="M406 121h0"></path>
<rect x="362" y="110" width="44" height="22" rx="10" ry="10"></rect>
<text x="384" y="125">AND</text>
</g>
<path d="M406 121h10"></path>
<path d="M416 121h10"></path>
<g>
<path d="M426 121h0"></path>
<path d="M526 121h0"></path>
<rect x="426" y="110" width="100" height="22"></rect>
<text x="476" y="125">frameBound</text>
</g>
<path d="M526 121h10"></path>
</g>
<path d="M540 121a10 10 0 0 0 10 -10v-70a10 10 0 0 1 10 -10"></path>
</g>
<path d="M 560 31 h 20 m -10 -10 v 20 m 10 -20 v 20"></path>
</g>
</svg>
