<?xml version="1.0" encoding="UTF-8"?>
<svg width="1199px" height="492px" viewBox="0 0 1199 492" version="1.1" xmlns="http://www.w3.org/2000/svg" xmlns:xlink="http://www.w3.org/1999/xlink">
    <title>Access Secrets</title>
    <g id="Access-Secrets" stroke="none" stroke-width="1" fill="none" fill-rule="evenodd">
        <rect fill="#FFFFFF" x="0" y="0" width="1199" height="492"></rect>
        <rect id="Rectangle" stroke="#2D0402" stroke-width="5" fill="#F6C143" x="8.5" y="48.5" width="236" height="128" rx="22"></rect>
        <rect id="Rectangle-Copy" stroke="#2D0402" stroke-width="5" fill="#F6C143" x="481.5" y="350.5" width="236" height="128" rx="22"></rect>
        <rect id="Rectangle-Copy-3" stroke="#2D0402" stroke-width="5" fill="#F6C143" x="954.5" y="48.5" width="236" height="128" rx="22"></rect>
        <path id="Line" d="M1068.91474,178.220733 L1058.46065,196.71295 L1053.992,190.077 L720.3378,414.744223 L719.093578,415.582023 L717.417977,413.093578 L718.6622,412.255777 L1052.316,187.588 L1047.84852,180.952795 L1068.91474,178.220733 Z" fill="#2D0402" fill-rule="nonzero"></path>
        <path id="Line-2" d="M126.084338,178.222107 L147.159485,180.884466 L142.713,187.534 L480.33368,413.253013 L481.580667,414.086693 L479.913307,416.580667 L478.66632,415.746987 L141.045,190.029 L136.599539,196.67964 L126.084338,178.222107 Z" fill="#2D0402" fill-rule="nonzero"></path>
        <text id="User" font-family="IBMPlexSans, IBM Plex Sans" font-size="36" font-weight="normal" fill="#000000">
            <tspan x="562" y="126">User</tspan>
        </text>
        <path id="Line-3" d="M933,103 L952,112.5 L933,122 L933,114 L661,114 L661,111 L933,111 L933,103 Z" fill="#2D0300" fill-rule="nonzero"></path>
        <path id="Line-4" d="M265,103 L265,111 L537,111 L537,114 L265,114 L265,122 L246,112.5 L265,103 Z" fill="#2D0402" fill-rule="nonzero"></path>
        <text id="1.-Create-user/passw" font-family="IBMPlexSans, IBM Plex Sans" font-size="18" font-weight="normal" fill="#000000">
            <tspan x="286.573" y="79">1. </tspan>
            <tspan x="306.517" y="79" font-family="IBMPlexSans-Bold, IBM Plex Sans" font-weight="bold">Create user/password </tspan>
            <tspan x="294.898" y="102">combination or </tspan>
            <tspan x="420.826" y="102" font-family="IBMPlexSans-Bold, IBM Plex Sans" font-weight="bold">API key</tspan>
        </text>
        <text id="2.-Store-password-or" font-family="IBMPlexSans, IBM Plex Sans" font-size="18" font-weight="normal" fill="#000000">
            <tspan x="678.591" y="79">2. </tspan>
            <tspan x="698.535" y="79" font-family="IBMPlexSans-Bold, IBM Plex Sans" font-weight="bold">Store </tspan>
            <tspan x="748.449" y="79">password or API key</tspan>
            <tspan x="914.409" y="79" font-family="IBMPlexSans-Bold, IBM Plex Sans" font-weight="bold"> </tspan>
            <tspan x="665.181" y="102" font-family="IBMPlexSans-Bold, IBM Plex Sans" font-weight="bold">base64</tspan>
            <tspan x="727.155" y="102">-encoded as </tspan>
            <tspan x="831.213" y="102" font-family="IBMPlexSans-Bold, IBM Plex Sans" font-weight="bold">custom key</tspan>
        </text>
        <path id="Line-5" d="M601,137 L601,330 L609,330 L599.5,349 L590,330 L598,330 L598,137 L601,137 Z" fill="#2D0402" fill-rule="nonzero"></path>
        <text id="3.-Submit-SQL-statem" font-family="IBMPlexSans, IBM Plex Sans" font-size="18" font-weight="normal" fill="#000000">
            <tspan x="608" y="193">3. Submit SQL statement </tspan>
            <tspan x="608" y="216">referencing password or API </tspan>
            <tspan x="608" y="239">key via </tspan>
            <tspan x="667.814" y="239" font-family="IBMPlexSans-Bold, IBM Plex Sans" font-weight="bold">Key Protect CRN</tspan>
        </text>
        <text id="4.-Securely-retrieve" font-family="IBMPlexSans, IBM Plex Sans" font-size="18" font-weight="normal" fill="#000000">
            <tspan x="843.677" y="366">4. </tspan>
            <tspan x="863.621" y="366" font-family="IBMPlexSans-Bold, IBM Plex Sans" font-weight="bold">Securely retrieve</tspan>
            <tspan x="1008.323" y="366"> </tspan>
            <tspan x="843.02" y="389">password or API key</tspan>
        </text>
        <text id="5.-Connect-with-retr" font-family="IBMPlexSans, IBM Plex Sans" font-size="18" font-weight="normal" fill="#000000">
            <tspan x="123.04" y="371">5. </tspan>
            <tspan x="142.984" y="371" font-family="IBMPlexSans-Bold, IBM Plex Sans" font-weight="bold">Connect </tspan>
            <tspan x="216.874" y="371">with retrieved </tspan>
            <tspan x="69.337" y="394">user/password combination or API key </tspan>
        </text>
        <text id="Data-sources" font-family="IBMPlexSans-Bold, IBM Plex Sans" font-size="24" font-weight="bold" fill="#000000">
            <tspan x="51" y="93">Data sources</tspan>
        </text>
        <text id="Query" font-family="IBMPlexSans-Bold, IBM Plex Sans" font-size="24" font-weight="bold" fill="#000000">
            <tspan x="608" y="424">Query</tspan>
        </text>
        <text id="IBM-Key-Protect" font-family="IBMPlexSans-Bold, IBM Plex Sans" font-size="24" font-weight="bold" fill="#000000">
            <tspan x="1094.984" y="107">IBM                   </tspan>
            <tspan x="1052.036" y="139">Key Protect</tspan>
        </text>
        <line x1="72.5" y1="134.5" x2="84.5" y2="134.5" id="Line-17" stroke="#979797" stroke-linecap="square"></line>
        <line x1="79.5" y1="121.5" x2="79.5" y2="128.5" id="Line-16" stroke="#70ACF4" stroke-linecap="square"></line>
        <line x1="72.5" y1="128.5" x2="84.5" y2="128.5" id="Line-9" stroke="#979797" stroke-linecap="square"></line>
        <line x1="84.5" y1="128.5" x2="84.5" y2="133.5" id="Line-10" stroke="#979797" stroke-linecap="square"></line>
        <line x1="84.5" y1="134.5" x2="91.5" y2="134.5" id="Line-11" stroke="#70ACF4" stroke-linecap="square"></line>
        <line x1="73.5" y1="133.5" x2="73.5" y2="139.5" id="Line-12" stroke="#979797" stroke-linecap="square"></line>
        <line x1="73.5" y1="139.5" x2="84.5" y2="139.5" id="Line-13" stroke="#979797" stroke-linecap="square"></line>
        <line x1="79.5" y1="139.5" x2="79.5" y2="146.5" id="Line-14" stroke="#70ACF4" stroke-linecap="square"></line>
        <line x1="66.5" y1="134.5" x2="74.5" y2="134.5" id="Line-15" stroke="#70ACF4" stroke-linecap="square"></line>
        <path d="M79.0980762,108.056624 L101.480762,120.979274 L101.480762,146.824574 L79.0980762,159.747223 L56.7153903,146.824574 L56.7153903,120.979274 L79.0980762,108.056624 Z" id="Polygon" stroke="#70ACF4" stroke-width="2" transform="translate(79.098076, 133.901924) rotate(30.000000) translate(-79.098076, -133.901924) "></path>
        <circle id="Oval" fill="#6EABF5" cx="79" cy="122" r="2"></circle>
        <circle id="Oval-Copy-14" fill="#3B5B7C" cx="79" cy="128" r="2"></circle>
        <circle id="Oval-Copy-15" fill="#3B5B7C" cx="85" cy="128" r="2"></circle>
        <circle id="Oval-Copy-16" fill="#3B5B7C" cx="85" cy="134" r="2"></circle>
        <circle id="Oval-Copy-17" fill="#6EABF5" cx="90" cy="134" r="2"></circle>
        <circle id="Oval-Copy-18" fill="#3B5B7C" cx="85" cy="140" r="2"></circle>
        <circle id="Oval-Copy-19" fill="#3B5B7C" cx="79" cy="140" r="2"></circle>
        <circle id="Oval-Copy-20" fill="#6EABF5" cx="79" cy="146" r="2"></circle>
        <circle id="Oval-Copy-21" fill="#3B5B7C" cx="73" cy="140" r="2"></circle>
        <circle id="Oval-Copy-22" fill="#3B5B7C" cx="73" cy="134" r="2"></circle>
        <circle id="Oval-Copy-23" fill="#3B5B7C" cx="73" cy="128" r="2"></circle>
        <circle id="Oval-Copy-24" fill="#6EABF5" cx="67" cy="134" r="2"></circle>
        <text id="*" font-family="Arial-BoldMT, Arial" font-size="28" font-weight="bold" fill="#22354B">
            <tspan x="588.551758" y="431">*</tspan>
        </text>
        <path d="M542.287671,439 L529.246575,439 L529.246575,438.917404 C523.474644,438.230265 519,433.339857 519,427.409091 C519,422.627603 521.908459,418.522335 526.060347,416.750747 C526.018979,416.673708 525.979134,416.594998 525.940627,416.514686 C525.523555,415.644832 524.211735,418.54878 524.350571,417.06813 C524.385366,416.697054 525.354652,416.082656 525.346904,415.414663 C525.338327,414.675206 525.006959,413.214214 525.006959,410.254545 C525.006959,404.621241 529.343394,400.054545 535.002421,400.054545 C535.678703,400.054545 537.828363,399.3175 538.685048,399.328466 L538.862405,399.04326 C542.891395,392.913812 550.253383,388 558.123288,388 C565.526574,388 572.591933,392.309108 576.193336,398.165655 C576.578025,398.791231 576.906173,399.422668 577.184924,400.064192 C582.643206,400.287906 587,404.764747 587,410.254545 M594.605346,424 C595.255623,424.205199 596.601641,425.392354 596.909299,427.520542 C597.887518,434.287259 590.783761,440 583.772421,440 L581,440" id="Shape" stroke="#22354A" stroke-width="5"></path>
        <text id="SQL" font-family="IBMPlexSansCond-Bold, IBM Plex Sans Condensed" font-size="30" font-style="condensed" font-weight="bold" fill="#22354B">
            <tspan x="532.33" y="429">SQL</tspan>
        </text>
        <path d="M183.068118,112.5 L199.034752,120.878554 L198.999023,120.902 L199,145.155504 L193,147.878554 L192.999023,123.549 L177.895023,115.430719 L183.068118,112.5 Z" id="Combined-Shape" fill="#6AA7F6"></path>
        <path d="M177,157.436368 L155.480598,144.491753 L155.480598,137.64213 L177,150.199616 L177,149.773888 L192,141.669222 L192,148.878554 L177,157.344205 L177,157.436368 Z" id="Combined-Shape" fill="#9FD741"></path>
        <path d="M177.215537,108.504859 L181.937555,111.921045 L161,123.67538 L161,139.052929 L156,136.492646 L155.999555,120.938859 L155.937555,120.905548 L177.215537,108.504859 Z" id="Combined-Shape" fill="#22323D"></path>
        <polygon id="Rectangle-Copy-15" fill="#9BD140" points="177 132.345941 192 123.878554 192 140.156961 177 147.878554"></polygon>
        <polygon id="Rectangle-Copy-17" fill="#24343D" points="162.033287 139.69974 175.96614 147.878554 176 132.054079 162.033287 123.878554"></polygon>
        <polygon id="Rectangle" fill="#69A7F4" transform="translate(177.587404, 123.472207) rotate(45.000000) translate(-177.587404, -123.472207) " points="172.363112 119.07863 186.695515 114.364095 182.259831 128.975348 168.479292 132.580319"></polygon>
        <line x1="984.5" y1="104.5" x2="993.5" y2="99.5" id="Line-27" stroke="#1D4067" stroke-width="6" stroke-linecap="square"></line>
        <line x1="1000.5" y1="94.5" x2="1002.5" y2="93.5" id="Line-28" stroke="#1D4067" stroke-width="4" stroke-linecap="square"></line>
        <line x1="1037.5" y1="103.5" x2="1029.5" y2="99.5" id="Line-29" stroke="#1D4067" stroke-width="6" stroke-linecap="square"></line>
        <line x1="1020.5" y1="94.5" x2="1018.5" y2="93.5" id="Line-30" stroke="#1D4067" stroke-width="4" stroke-linecap="square"></line>
        <line x1="983.5" y1="105.5" x2="983.5" y2="135.5" id="Line-26" stroke="#1D4067" stroke-width="5" stroke-linecap="square"></line>
        <line x1="1010.5" y1="151.5" x2="984.5" y2="136.5" id="Line-24" stroke="#1D4067" stroke-width="5" stroke-linecap="square"></line>
        <line x1="985.5" y1="104.5" x2="1010.5" y2="118.5" id="Line-20" stroke="#1D4067" stroke-width="5" stroke-linecap="square"></line>
        <line x1="1011.5" y1="118.5" x2="1036.5" y2="103.5" id="Line-21" stroke="#1D4067" stroke-width="5" stroke-linecap="square"></line>
        <line x1="1012.5" y1="151.5" x2="1037.5" y2="136.5" id="Line-23" stroke="#1D4067" stroke-width="5" stroke-linecap="square"></line>
        <line x1="1011.5" y1="119.5" x2="1011.5" y2="147.5" id="Line-22" stroke="#1D4067" stroke-width="5" stroke-linecap="square"></line>
        <line x1="1038.5" y1="105.5" x2="1038.5" y2="135.5" id="Line-25" stroke="#1D4067" stroke-width="5" stroke-linecap="square"></line>
        <circle id="Oval-Copy-10" fill="#4EACCD" cx="1010.5" cy="112.5" r="5.5"></circle>
        <circle id="Oval-Copy-11" fill="#4EACCD" cx="1028.5" cy="76.5" r="5.5"></circle>
        <circle id="Oval-Copy-12" fill="#4EACCD" cx="993.5" cy="76.5" r="5.5"></circle>
        <circle id="Oval" fill="#95C34B" cx="1010.5" cy="90.5" r="5.5"></circle>
        <circle id="Oval-Copy-13" fill="#95C34B" cx="1010.5" cy="67.5" r="5.5"></circle>
        <circle id="Oval-Copy-8" fill="#95C34B" cx="1026.5" cy="99.5" r="5.5"></circle>
        <circle id="Oval-Copy-9" fill="#95C34B" cx="994.5" cy="99.5" r="5.5"></circle>
    </g>
</svg>