<?xml version="1.0" encoding="UTF-8"?>
<svg width="592px" height="472px" viewBox="0 0 592 472" version="1.1" xmlns="http://www.w3.org/2000/svg" xmlns:xlink="http://www.w3.org/1999/xlink">
    <title>Deployment Model</title>
    <g id="Deployment-Model" stroke="none" stroke-width="1" fill="none" fill-rule="evenodd">
        <rect fill="#FFFFFF" x="0" y="0" width="592" height="472"></rect>
        <path id="Line-8" d="M492,192 L498.753347,206.120634 L492.754,206.015 L492.499846,220.517541 L492.482305,221.517387 L490.482613,221.482305 L490.500154,220.482459 L490.754,205.98 L484.755501,205.875058 L492,192 Z" fill="#CC0000" fill-rule="nonzero"></path>
        <line x1="262.5" y1="141.5" x2="262" y2="288" id="Line-2" stroke="#4376BB" stroke-width="2" stroke-linecap="square"></line>
        <rect id="Rectangle" stroke="#4376BB" stroke-width="2.5" x="21.25" y="69.25" width="180.5" height="141.5"></rect>
        <rect id="Rectangle-Copy" stroke="#4376BB" stroke-width="2.5" x="21.25" y="309.25" width="180.5" height="141.5"></rect>
        <rect id="Rectangle" fill="#C2952D" x="0" y="-1" width="32" height="32"></rect>
        <rect id="Rectangle-Copy-7" fill="#C2952D" x="322" y="0" width="32" height="32"></rect>
        <rect id="Rectangle-Copy-3" fill="#4376BB" x="340" y="69" width="27" height="27"></rect>
        <rect id="Rectangle" stroke="#D9BB61" fill="#FFF2CC" x="386.5" y="99.5" width="140" height="81" rx="14"></rect>
        <rect id="Rectangle-Copy-4" stroke="#D9BB61" fill="#FFF2CC" x="386.5" y="220.5" width="140" height="205" rx="23"></rect>
        <line x1="139.5" y1="140.5" x2="263" y2="140" id="Line" stroke="#4376BB" stroke-width="2" stroke-linecap="square"></line>
        <rect id="Rectangle" stroke="#4376BB" stroke-width="2.5" x="341.25" y="70.25" width="230.5" height="380.5"></rect>
        <rect id="Rectangle-Copy-2" fill="#C2952D" x="0" y="239" width="32" height="32"></rect>
        <rect id="Rectangle" stroke="#B8981F" stroke-width="2.5" x="1.25" y="0.25" width="220.5" height="230.5"></rect>
        <rect id="Rectangle-Copy" stroke="#B8981F" stroke-width="2.5" x="1.25" y="240.25" width="220.5" height="230.5"></rect>
        <rect id="Rectangle" stroke="#B8981F" stroke-width="2.5" x="322.25" y="0.25" width="268.5" height="469.5"></rect>
        <path id="Line-6" d="M372.5,280.5 L386.5,287.5 L372.5,294.5 L372.5,288.5 L261.5,288.5 L261.5,286.5 L372.5,286.5 L372.5,280.5 Z" fill="#4376BB" fill-rule="nonzero"></path>
        <line x1="139.5" y1="380.5" x2="262.5" y2="380.5" id="Line-3" stroke="#4376BB" stroke-width="2" stroke-linecap="square"></line>
        <line x1="262" y1="354" x2="261.5" y2="379.5" id="Line-4" stroke="#4376BB" stroke-width="2" stroke-linecap="square"></line>
        <path id="Line-5" d="M372.5,347.5 L386.5,354.5 L372.5,361.5 L372.5,355.5 L261.5,355.5 L261.5,353.5 L372.5,353.5 L372.5,347.5 Z" fill="#4376BB" fill-rule="nonzero"></path>
        <circle id="Oval" fill="#8DC53F" cx="107.5" cy="139.5" r="31.5"></circle>
        <circle id="Oval-Copy" fill="#8DC53F" cx="107.5" cy="379.5" r="31.5"></circle>
        <circle id="Oval" fill="#4376BB" cx="387" cy="140" r="15"></circle>
        <circle id="Oval-Copy-2" fill="#FF0000" cx="422" cy="220" r="15"></circle>
        <circle id="Oval-Copy-3" fill="#FF0000" cx="492" cy="177" r="15"></circle>
        <path id="Line-7" d="M423,180 L423,191 L429,191 L422,205 L415,191 L421,191 L421,180 L423,180 Z" fill="#CC0000" fill-rule="nonzero"></path>
        <rect id="Rectangle-Copy-5" fill="#4376BB" x="20" y="68" width="27" height="27"></rect>
        <rect id="Rectangle-Copy-6" fill="#4376BB" x="20" y="310" width="27" height="27"></rect>
        <g id="Brand-/-IBM-/-ibm-cloud-/-20" transform="translate(344.000000, 72.000000)" fill="#FFFFFF">
            <path d="M15.2261905,8.53125 C14.0105764,6.14063077 11.4354536,4.88266372 8.91089027,5.44617788 C6.38632693,6.00969205 4.52124149,8.25876922 4.33690476,10.961875 C2.21533949,11.2023576 0.642898012,13.1422712 0.755925276,15.3797124 C0.868952539,17.6171536 2.62801548,19.3715216 4.76190476,19.3750039 L14.2857143,19.3750039 C16.9803143,19.3783696 19.2320373,17.2221661 19.4764135,14.4044936 C19.7207896,11.586821 17.8770447,9.03901053 15.2261905,8.53125 L15.2261905,8.53125 Z M14.2857143,18.437532 L4.76190476,18.437532 C3.11606462,18.445073 1.74819172,17.107856 1.63797952,15.3835862 C1.52776733,13.6593164 2.71319443,12.1421688 4.3452381,11.91875 C4.40817377,12.7461295 4.63181584,13.5512106 5.00238095,14.284375 C5.07787457,14.4319704 5.22262516,14.5260649 5.38210656,14.5312143 C5.54158796,14.5363636 5.69157117,14.4517853 5.77555895,14.3093393 C5.85954673,14.1668932 5.86477934,13.9882203 5.78928571,13.840625 C4.5658551,11.4365512 5.33579425,8.44793818 7.54662436,7.01929995 C9.75745447,5.59066172 12.645362,6.21557457 14.1380952,8.445625 C12.6960728,8.48737199 11.335059,9.15494763 10.3791667,10.289375 C10.2671878,10.4138692 10.2287737,10.5925714 10.2789677,10.7554998 C10.3291618,10.9184281 10.4599754,11.0396518 10.6201804,11.0716982 C10.7803854,11.1037446 10.9444844,11.0415134 11.0482143,10.909375 C12.362201,9.3447121 14.5237726,8.92417247 16.2844184,9.89065727 C18.0450642,10.8571421 18.9497879,12.9608868 18.4760266,14.9867811 C18.0022654,17.0126754 16.2724511,18.437176 14.2857143,18.437532 L14.2857143,18.437532 Z M19.5821429,6.409375 C19.5223652,6.3004097 19.4237812,6.22086929 19.3081114,6.18827853 C19.1924415,6.15568777 19.0691771,6.17272086 18.9654762,6.235625 L17.1678571,7.325625 C17.0216202,7.40677242 16.9293058,7.56534164 16.9272021,7.73900008 C16.9250984,7.91265852 17.0135418,8.07364186 17.1577658,8.15866853 C17.3019897,8.24369521 17.4789358,8.23917125 17.6190476,8.146875 L19.4166667,7.056875 C19.6325025,6.92593411 19.706552,6.63618221 19.5821429,6.409375 L19.5821429,6.409375 Z M14.0928571,4.91875 C14.1966115,4.98185282 14.3200201,4.99899712 14.4358337,4.96639733 C14.5516473,4.93379755 14.6503397,4.85413511 14.710119,4.745 L15.7482143,2.8575 C15.8617545,2.63191468 15.7850164,2.3524384 15.574528,2.22494395 C15.3640396,2.09744951 15.095211,2.16761328 14.9660714,2.38375 L13.9279762,4.27125 C13.803467,4.4978937 13.8772373,4.78759522 14.0928571,4.91875 L14.0928571,4.91875 Z M10.1190476,3.800625 C10.2388686,3.800625 10.3537821,3.75064635 10.4385084,3.66168378 C10.5232346,3.57272121 10.5708333,3.45206207 10.5708333,3.32625 L10.5708333,1.146875 C10.5708333,0.884884922 10.368562,0.6725 10.1190476,0.6725 C9.86953326,0.6725 9.66726151,0.884884922 9.66726151,1.146875 L9.66726151,3.32625 C9.6671039,3.45217033 9.71463286,3.57299009 9.79937624,3.66208788 C9.88411963,3.75118567 9.99912339,3.80125 10.1190476,3.80125 L10.1190476,3.800625 Z M5.52797619,4.745 C5.65604851,4.96406873 5.92699363,5.03617361 6.13897991,4.90760247 C6.3509662,4.77903133 6.42685659,4.49656835 6.31011905,4.270625 L5.27202381,2.383125 C5.19185859,2.23505809 5.04224745,2.14348102 4.88003794,2.14318951 C4.71782842,2.14289939 4.56792031,2.23393947 4.48727401,2.38171807 C4.4066277,2.52949667 4.4076227,2.7113292 4.48988095,2.858125 L5.52797619,4.745 Z M3.07083333,7.325625 L1.27321429,6.235625 C1.13340877,6.14925384 0.96023492,6.14820908 0.819493399,6.23288771 C0.678751879,6.31756633 0.592047036,6.47496985 0.592323342,6.64528983 C0.592600971,6.81560982 0.679817233,6.97270152 0.820833333,7.056875 L2.61904762,8.146875 C2.75906058,8.2371197 2.93469419,8.24044538 3.07771499,8.15556002 C3.22073579,8.07067466 3.30859828,7.9109594 3.30718518,7.73846346 C3.30573768,7.56596752 3.21524005,7.40788278 3.07083333,7.325625 Z" id="Fill"></path>
        </g>
        <g id="Brand-/-IBM-/-ibm-cloud-/-20" transform="translate(23.000000, 72.000000)" fill="#FFFFFF">
            <path d="M15.2261905,8.53125 C14.0105764,6.14063077 11.4354536,4.88266372 8.91089027,5.44617788 C6.38632693,6.00969205 4.52124149,8.25876922 4.33690476,10.961875 C2.21533949,11.2023576 0.642898012,13.1422712 0.755925276,15.3797124 C0.868952539,17.6171536 2.62801548,19.3715216 4.76190476,19.3750039 L14.2857143,19.3750039 C16.9803143,19.3783696 19.2320373,17.2221661 19.4764135,14.4044936 C19.7207896,11.586821 17.8770447,9.03901053 15.2261905,8.53125 L15.2261905,8.53125 Z M14.2857143,18.437532 L4.76190476,18.437532 C3.11606462,18.445073 1.74819172,17.107856 1.63797952,15.3835862 C1.52776733,13.6593164 2.71319443,12.1421688 4.3452381,11.91875 C4.40817377,12.7461295 4.63181584,13.5512106 5.00238095,14.284375 C5.07787457,14.4319704 5.22262516,14.5260649 5.38210656,14.5312143 C5.54158796,14.5363636 5.69157117,14.4517853 5.77555895,14.3093393 C5.85954673,14.1668932 5.86477934,13.9882203 5.78928571,13.840625 C4.5658551,11.4365512 5.33579425,8.44793818 7.54662436,7.01929995 C9.75745447,5.59066172 12.645362,6.21557457 14.1380952,8.445625 C12.6960728,8.48737199 11.335059,9.15494763 10.3791667,10.289375 C10.2671878,10.4138692 10.2287737,10.5925714 10.2789677,10.7554998 C10.3291618,10.9184281 10.4599754,11.0396518 10.6201804,11.0716982 C10.7803854,11.1037446 10.9444844,11.0415134 11.0482143,10.909375 C12.362201,9.3447121 14.5237726,8.92417247 16.2844184,9.89065727 C18.0450642,10.8571421 18.9497879,12.9608868 18.4760266,14.9867811 C18.0022654,17.0126754 16.2724511,18.437176 14.2857143,18.437532 L14.2857143,18.437532 Z M19.5821429,6.409375 C19.5223652,6.3004097 19.4237812,6.22086929 19.3081114,6.18827853 C19.1924415,6.15568777 19.0691771,6.17272086 18.9654762,6.235625 L17.1678571,7.325625 C17.0216202,7.40677242 16.9293058,7.56534164 16.9272021,7.73900008 C16.9250984,7.91265852 17.0135418,8.07364186 17.1577658,8.15866853 C17.3019897,8.24369521 17.4789358,8.23917125 17.6190476,8.146875 L19.4166667,7.056875 C19.6325025,6.92593411 19.706552,6.63618221 19.5821429,6.409375 L19.5821429,6.409375 Z M14.0928571,4.91875 C14.1966115,4.98185282 14.3200201,4.99899712 14.4358337,4.96639733 C14.5516473,4.93379755 14.6503397,4.85413511 14.710119,4.745 L15.7482143,2.8575 C15.8617545,2.63191468 15.7850164,2.3524384 15.574528,2.22494395 C15.3640396,2.09744951 15.095211,2.16761328 14.9660714,2.38375 L13.9279762,4.27125 C13.803467,4.4978937 13.8772373,4.78759522 14.0928571,4.91875 L14.0928571,4.91875 Z M10.1190476,3.800625 C10.2388686,3.800625 10.3537821,3.75064635 10.4385084,3.66168378 C10.5232346,3.57272121 10.5708333,3.45206207 10.5708333,3.32625 L10.5708333,1.146875 C10.5708333,0.884884922 10.368562,0.6725 10.1190476,0.6725 C9.86953326,0.6725 9.66726151,0.884884922 9.66726151,1.146875 L9.66726151,3.32625 C9.6671039,3.45217033 9.71463286,3.57299009 9.79937624,3.66208788 C9.88411963,3.75118567 9.99912339,3.80125 10.1190476,3.80125 L10.1190476,3.800625 Z M5.52797619,4.745 C5.65604851,4.96406873 5.92699363,5.03617361 6.13897991,4.90760247 C6.3509662,4.77903133 6.42685659,4.49656835 6.31011905,4.270625 L5.27202381,2.383125 C5.19185859,2.23505809 5.04224745,2.14348102 4.88003794,2.14318951 C4.71782842,2.14289939 4.56792031,2.23393947 4.48727401,2.38171807 C4.4066277,2.52949667 4.4076227,2.7113292 4.48988095,2.858125 L5.52797619,4.745 Z M3.07083333,7.325625 L1.27321429,6.235625 C1.13340877,6.14925384 0.96023492,6.14820908 0.819493399,6.23288771 C0.678751879,6.31756633 0.592047036,6.47496985 0.592323342,6.64528983 C0.592600971,6.81560982 0.679817233,6.97270152 0.820833333,7.056875 L2.61904762,8.146875 C2.75906058,8.2371197 2.93469419,8.24044538 3.07771499,8.15556002 C3.22073579,8.07067466 3.30859828,7.9109594 3.30718518,7.73846346 C3.30573768,7.56596752 3.21524005,7.40788278 3.07083333,7.325625 Z" id="Fill"></path>
        </g>
        <g id="Brand-/-IBM-/-ibm-cloud-/-20" transform="translate(24.000000, 313.000000)" fill="#FFFFFF">
            <path d="M15.2261905,8.53125 C14.0105764,6.14063077 11.4354536,4.88266372 8.91089027,5.44617788 C6.38632693,6.00969205 4.52124149,8.25876922 4.33690476,10.961875 C2.21533949,11.2023576 0.642898012,13.1422712 0.755925276,15.3797124 C0.868952539,17.6171536 2.62801548,19.3715216 4.76190476,19.3750039 L14.2857143,19.3750039 C16.9803143,19.3783696 19.2320373,17.2221661 19.4764135,14.4044936 C19.7207896,11.586821 17.8770447,9.03901053 15.2261905,8.53125 L15.2261905,8.53125 Z M14.2857143,18.437532 L4.76190476,18.437532 C3.11606462,18.445073 1.74819172,17.107856 1.63797952,15.3835862 C1.52776733,13.6593164 2.71319443,12.1421688 4.3452381,11.91875 C4.40817377,12.7461295 4.63181584,13.5512106 5.00238095,14.284375 C5.07787457,14.4319704 5.22262516,14.5260649 5.38210656,14.5312143 C5.54158796,14.5363636 5.69157117,14.4517853 5.77555895,14.3093393 C5.85954673,14.1668932 5.86477934,13.9882203 5.78928571,13.840625 C4.5658551,11.4365512 5.33579425,8.44793818 7.54662436,7.01929995 C9.75745447,5.59066172 12.645362,6.21557457 14.1380952,8.445625 C12.6960728,8.48737199 11.335059,9.15494763 10.3791667,10.289375 C10.2671878,10.4138692 10.2287737,10.5925714 10.2789677,10.7554998 C10.3291618,10.9184281 10.4599754,11.0396518 10.6201804,11.0716982 C10.7803854,11.1037446 10.9444844,11.0415134 11.0482143,10.909375 C12.362201,9.3447121 14.5237726,8.92417247 16.2844184,9.89065727 C18.0450642,10.8571421 18.9497879,12.9608868 18.4760266,14.9867811 C18.0022654,17.0126754 16.2724511,18.437176 14.2857143,18.437532 L14.2857143,18.437532 Z M19.5821429,6.409375 C19.5223652,6.3004097 19.4237812,6.22086929 19.3081114,6.18827853 C19.1924415,6.15568777 19.0691771,6.17272086 18.9654762,6.235625 L17.1678571,7.325625 C17.0216202,7.40677242 16.9293058,7.56534164 16.9272021,7.73900008 C16.9250984,7.91265852 17.0135418,8.07364186 17.1577658,8.15866853 C17.3019897,8.24369521 17.4789358,8.23917125 17.6190476,8.146875 L19.4166667,7.056875 C19.6325025,6.92593411 19.706552,6.63618221 19.5821429,6.409375 L19.5821429,6.409375 Z M14.0928571,4.91875 C14.1966115,4.98185282 14.3200201,4.99899712 14.4358337,4.96639733 C14.5516473,4.93379755 14.6503397,4.85413511 14.710119,4.745 L15.7482143,2.8575 C15.8617545,2.63191468 15.7850164,2.3524384 15.574528,2.22494395 C15.3640396,2.09744951 15.095211,2.16761328 14.9660714,2.38375 L13.9279762,4.27125 C13.803467,4.4978937 13.8772373,4.78759522 14.0928571,4.91875 L14.0928571,4.91875 Z M10.1190476,3.800625 C10.2388686,3.800625 10.3537821,3.75064635 10.4385084,3.66168378 C10.5232346,3.57272121 10.5708333,3.45206207 10.5708333,3.32625 L10.5708333,1.146875 C10.5708333,0.884884922 10.368562,0.6725 10.1190476,0.6725 C9.86953326,0.6725 9.66726151,0.884884922 9.66726151,1.146875 L9.66726151,3.32625 C9.6671039,3.45217033 9.71463286,3.57299009 9.79937624,3.66208788 C9.88411963,3.75118567 9.99912339,3.80125 10.1190476,3.80125 L10.1190476,3.800625 Z M5.52797619,4.745 C5.65604851,4.96406873 5.92699363,5.03617361 6.13897991,4.90760247 C6.3509662,4.77903133 6.42685659,4.49656835 6.31011905,4.270625 L5.27202381,2.383125 C5.19185859,2.23505809 5.04224745,2.14348102 4.88003794,2.14318951 C4.71782842,2.14289939 4.56792031,2.23393947 4.48727401,2.38171807 C4.4066277,2.52949667 4.4076227,2.7113292 4.48988095,2.858125 L5.52797619,4.745 Z M3.07083333,7.325625 L1.27321429,6.235625 C1.13340877,6.14925384 0.96023492,6.14820908 0.819493399,6.23288771 C0.678751879,6.31756633 0.592047036,6.47496985 0.592323342,6.64528983 C0.592600971,6.81560982 0.679817233,6.97270152 0.820833333,7.056875 L2.61904762,8.146875 C2.75906058,8.2371197 2.93469419,8.24044538 3.07771499,8.15556002 C3.22073579,8.07067466 3.30859828,7.9109594 3.30718518,7.73846346 C3.30573768,7.56596752 3.21524005,7.40788278 3.07083333,7.325625 Z" id="Fill"></path>
        </g>
        <g id="Organization-/-Status-/-checkmark--filled-/-16" transform="translate(349.000000, 82.000000)">
            <path d="M4,0.5 C2.05,0.5 0.5,2.05 0.5,4 C0.5,5.95 2.05,7.5 4,7.5 C5.95,7.5 7.5,5.95 7.5,4 C7.5,2.05 5.95,0.5 4,0.5 Z M3.5,5.5 L2.15,4.15 L2.6,3.75 L3.5,4.65 L5.5,2.7 L5.95,3.1 L3.5,5.5 Z" id="Fill" fill="#FFFFFF"></path>
            <polygon id="Inner-Fill" fill="#000000" opacity="0" points="3.5 5.5 2.15 4.15 2.6 3.75 3.5 4.65 5.5 2.7 5.95 3.1"></polygon>
        </g>
        <g id="Organization-/-Status-/-checkmark--filled-/-16" transform="translate(28.000000, 82.000000)">
            <path d="M4,0.5 C2.05,0.5 0.5,2.05 0.5,4 C0.5,5.95 2.05,7.5 4,7.5 C5.95,7.5 7.5,5.95 7.5,4 C7.5,2.05 5.95,0.5 4,0.5 Z M3.5,5.5 L2.15,4.15 L2.6,3.75 L3.5,4.65 L5.5,2.7 L5.95,3.1 L3.5,5.5 Z" id="Fill" fill="#FFFFFF"></path>
            <polygon id="Inner-Fill" fill="#000000" opacity="0" points="3.5 5.5 2.15 4.15 2.6 3.75 3.5 4.65 5.5 2.7 5.95 3.1"></polygon>
        </g>
        <g id="Organization-/-Status-/-checkmark--filled-/-16" transform="translate(29.000000, 323.000000)">
            <path d="M4,0.5 C2.05,0.5 0.5,2.05 0.5,4 C0.5,5.95 2.05,7.5 4,7.5 C5.95,7.5 7.5,5.95 7.5,4 C7.5,2.05 5.95,0.5 4,0.5 Z M3.5,5.5 L2.15,4.15 L2.6,3.75 L3.5,4.65 L5.5,2.7 L5.95,3.1 L3.5,5.5 Z" id="Fill" fill="#FFFFFF"></path>
            <polygon id="Inner-Fill" fill="#000000" opacity="0" points="3.5 5.5 2.15 4.15 2.6 3.75 3.5 4.65 5.5 2.7 5.95 3.1"></polygon>
        </g>
        <rect id="Rectangle" stroke="#D6B656" stroke-width="3" x="401.5" y="255.5" width="110" height="60" rx="10"></rect>
        <rect id="Rectangle-Copy-8" stroke="#D6B656" stroke-width="3" x="401.5" y="324.5" width="110" height="60" rx="10"></rect>
        <circle id="Oval-Copy-4" fill="#4376BB" cx="402" cy="288" r="15"></circle>
        <circle id="Oval-Copy-5" fill="#4376BB" cx="402" cy="355" r="15"></circle>
        <circle id="Oval" stroke="#FFFFFF" cx="16" cy="12" r="5.5"></circle>
        <circle id="Oval-Copy-6" stroke="#FFFFFF" cx="16" cy="252" r="5.5"></circle>
        <circle id="Oval-Copy-7" stroke="#FFFFFF" cx="338" cy="13" r="5.5"></circle>
        <path d="M12,19 L20,19 C21.6568542,19 23,20.3431458 23,22 L23,24 L23,24 L9,24 L9,22 C9,20.3431458 10.3431458,19 12,19 Z" id="Rectangle" fill="#FFFFFF"></path>
        <path d="M12,259 L20,259 C21.6568542,259 23,260.343146 23,262 L23,264 L23,264 L9,264 L9,262 C9,260.343146 10.3431458,259 12,259 Z" id="Rectangle-Copy-9" fill="#FFFFFF"></path>
        <path d="M334,20 L342,20 C343.656854,20 345,21.3431458 345,23 L345,25 L345,25 L331,25 L331,23 C331,21.3431458 332.343146,20 334,20 Z" id="Rectangle-Copy-10" fill="#FFFFFF"></path>
        <path d="M128,145 L128,160 L88,160 L88,145 L128,145 Z M100.5,150 C98.5670034,150 97,151.567003 97,153.5 C97,155.432997 98.5670034,157 100.5,157 C102.432997,157 104,155.432997 104,153.5 C104,151.567003 102.432997,150 100.5,150 Z" id="Combined-Shape" fill="#FFFFFF"></path>
        <path d="M128,385 L128,400 L88,400 L88,385 L128,385 Z M100.5,390 C98.5670034,390 97,391.567003 97,393.5 C97,395.432997 98.5670034,397 100.5,397 C102.432997,397 104,395.432997 104,393.5 C104,391.567003 102.432997,390 100.5,390 Z" id="Combined-Shape-Copy" fill="#FFFFFF"></path>
        <path d="M110,114 C116.224691,114 121.342419,118.739474 121.941408,124.806647 C125.503944,126.335543 128,129.876279 128,134 C128,139.522847 123.522847,144 118,144 L118,144 L97,144 L96.9998991,143.950615 C91.9466248,143.448844 88,139.185314 88,134 C88,128.477153 92.4771525,124 98,124 C98.0556948,124 98.1112833,124.000455 98.166762,124.001362 C99.116809,118.325681 104.053246,114 110,114 Z" id="Combined-Shape" fill="#FFFFFF"></path>
        <path d="M110,354 C116.224691,354 121.342419,358.739474 121.941408,364.806647 C125.503944,366.335543 128,369.876279 128,374 C128,379.522847 123.522847,384 118,384 L118,384 L97,384 L96.9998991,383.950615 C91.9466248,383.448844 88,379.185314 88,374 C88,368.477153 92.4771525,364 98,364 C98.0556948,364 98.1112833,364.000455 98.166762,364.001362 C99.116809,358.325681 104.053246,354 110,354 Z" id="Combined-Shape-Copy-2" fill="#FFFFFF"></path>
        <polygon id="Fill" stroke="#8DC53F" stroke-width="1.5" points="103.7 135.885714 107.5 132.628571 107.5 143 108.5 143 108.5 132.628571 112.3 135.885714 113 135.285714 108 131 103 135.285714"></polygon>
        <polygon id="Fill-Copy" stroke="#8DC53F" stroke-width="1.5" points="103.7 375.885714 107.5 372.628571 107.5 383 108.5 383 108.5 372.628571 112.3 375.885714 113 375.285714 108 371 103 375.285714"></polygon>
        <text id="IE" font-family="IBMPlexSans-Bold, IBM Plex Sans" font-size="12" font-weight="bold" fill="#FFFFFF">
            <tspan x="381.266" y="145">IE</tspan>
        </text>
        <text id="IE-Copy" font-family="IBMPlexSans-Bold, IBM Plex Sans" font-size="12" font-weight="bold" fill="#FFFFFF">
            <tspan x="396.266" y="292">IE</tspan>
        </text>
        <text id="IE-Copy-2" font-family="IBMPlexSans-Bold, IBM Plex Sans" font-size="12" font-weight="bold" fill="#FFFFFF">
            <tspan x="396.266" y="359">IE</tspan>
        </text>
        <text id="PE" font-family="IBMPlexSans-Bold, IBM Plex Sans" font-size="12" font-weight="bold" fill="#FFFFFF">
            <tspan x="414.922" y="225">PE</tspan>
        </text>
        <text id="PE-Copy" font-family="IBMPlexSans-Bold, IBM Plex Sans" font-size="12" font-weight="bold" fill="#FFFFFF">
            <tspan x="483.922" y="181">PE</tspan>
        </text>
        <text id="Control-Plane" font-family="IBMPlexSans-Medium, IBM Plex Sans" font-size="12" font-weight="400" fill="#000000">
            <tspan x="419.752" y="142">Control Plane</tspan>
        </text>
        <text id="Account" font-family="IBMPlexSans-Medium, IBM Plex Sans" font-size="12" font-weight="400" fill="#000000">
            <tspan x="357" y="20">Account</tspan>
        </text>
        <text id="Account-Copy" font-family="IBMPlexSans-Medium, IBM Plex Sans" font-size="12" font-weight="400" fill="#000000">
            <tspan x="35" y="20">Account</tspan>
        </text>
        <text id="VPC" font-family="IBMPlexSans-Medium, IBM Plex Sans" font-size="12" font-weight="400" fill="#000000">
            <tspan x="50" y="87">VPC</tspan>
        </text>
        <text id="VPC-Copy" font-family="IBMPlexSans-Medium, IBM Plex Sans" font-size="12" font-weight="400" fill="#000000">
            <tspan x="50" y="328">VPC</tspan>
        </text>
        <text id="VPC-Copy-2" font-family="IBMPlexSans-Medium, IBM Plex Sans" font-size="12" font-weight="400" fill="#000000">
            <tspan x="370" y="87">VPC</tspan>
        </text>
        <text id="TENANT-A-ACCOUNT" font-family="IBMPlexSans-Medium, IBM Plex Sans" font-size="12" font-weight="400" fill="#000000">
            <tspan x="83.59" y="45">TENANT A </tspan>
            <tspan x="84.286" y="60">ACCOUNT</tspan>
        </text>
        <text id="HTTPS-TCP/IP" font-family="IBMPlexSans-Medium, IBM Plex Sans" font-size="12" font-weight="400" fill="#000000">
            <tspan x="254.442" y="118">HTTPS </tspan>
            <tspan x="253.212" y="133">TCP/IP</tspan>
        </text>
        <text id="HTTPS-TCP/IP-Copy" font-family="IBMPlexSans-Medium, IBM Plex Sans" font-size="12" font-weight="400" fill="#000000">
            <tspan x="508.442" y="198">HTTPS </tspan>
            <tspan x="507.212" y="213">TCP/IP</tspan>
        </text>
        <text id="SERVICE-ACCOUNT" font-family="IBMPlexSans-Medium, IBM Plex Sans" font-size="12" font-weight="400" fill="#000000">
            <tspan x="432.298" y="42">SERVICE </tspan>
            <tspan x="429.286" y="57">ACCOUNT</tspan>
        </text>
        <text id="TENANT-B-ACCOUNT" font-family="IBMPlexSans-Medium, IBM Plex Sans" font-size="12" font-weight="400" fill="#000000">
            <tspan x="83.608" y="285">TENANT B </tspan>
            <tspan x="84.286" y="300">ACCOUNT</tspan>
        </text>
        <text id="Account-Copy-2" font-family="IBMPlexSans-Medium, IBM Plex Sans" font-size="12" font-weight="400" fill="#000000">
            <tspan x="35" y="261">Account</tspan>
        </text>
        <text id="Data-Plane" font-family="IBMPlexSans-Medium, IBM Plex Sans" font-size="12" font-weight="400" fill="#000000">
            <tspan x="426.126" y="246">Data Plane</tspan>
        </text>
        <text id="Service-Instance-Ten" font-family="IBMPlexSans-Bold, IBM Plex Sans" font-size="10" font-weight="bold" fill="#000000">
            <tspan x="422.5" y="276">Service Instance </tspan>
            <tspan x="422.5" y="289">Tenant A         </tspan>
            <tspan x="422.5" y="302" font-family="IBMPlexSans, IBM Plex Sans" font-weight="normal">[Service Instance]</tspan>
        </text>
        <text id="Service-Instance-Ten" font-family="IBMPlexSans-Bold, IBM Plex Sans" font-size="10" font-weight="bold" fill="#000000">
            <tspan x="422.5" y="345">Service Instance </tspan>
            <tspan x="422.5" y="358">Tenant B         </tspan>
            <tspan x="422.5" y="371" font-family="IBMPlexSans, IBM Plex Sans" font-weight="normal">[Service Instance]</tspan>
        </text>
    </g>
</svg>
