<?xml version="1.0" standalone="no"?>
<!DOCTYPE svg PUBLIC "-//W3C//DTD SVG 1.1//EN"
  "http://www.w3.org/Graphics/SVG/1.1/DTD/svg11.dtd">
<svg xmlns="http://www.w3.org/2000/svg" version="1.1" class="railroad-diagram" width="473" height="102" viewBox="0 0 473 102">
<defs><style type="text/css"><![CDATA[ svg.railroad-diagram {
  background-color: #ffffff;
}
svg.railroad-diagram path {
  stroke-width: 2;
  stroke: #5a6872;
  fill: none;
}
svg.railroad-diagram text {
  font-size: 14px;
  font-family: 'ibm-plex-mono', 'Menlo', 'DejaVu Sans Mono', 'Bitstream Vera Sans Mono', Courier, monospace;
  color: #152935;
  text-anchor: middle;
  cursor: pointer;
}
svg.railroad-diagram text.label {
  text-anchor: start;
}
svg.railroad-diagram text.comment {
  font-size: 12px;
}
svg.railroad-diagram rect {
  stroke-width: 2;
  stroke:  #5a6872;
  fill: #5aaafa;
}
 ]]></style></defs>
<g transform="translate(.5 .5)">
<path d="M 20 31 v 20 m 10 -20 v 20 m -10 -10 h 20.5"></path>
<g>
<path d="M40 41h0"></path>
<path d="M432 41h0"></path>
<g>
<path d="M40 41h0"></path>
<path d="M312 41h0"></path>
<path d="M40 41a10 10 0 0 0 10 -10v0a10 10 0 0 1 10 -10"></path>
<g>
<path d="M60 21h232"></path>
</g>
<path d="M292 21a10 10 0 0 1 10 10v0a10 10 0 0 0 10 10"></path>
<path d="M40 41h20"></path>
<g>
<path d="M60 41h0"></path>
<path d="M292 41h0"></path>
<path d="M60 41h10"></path>
<g>
<path d="M70 41h0"></path>
<path d="M122 41h0"></path>
<rect x="70" y="30" width="52" height="22" rx="10" ry="10"></rect>
<text x="96" y="45">WITH</text>
</g>
<path d="M122 41h10"></path>
<path d="M132 41h10"></path>
<g>
<path d="M142 41h0"></path>
<path d="M282 41h0"></path>
<path d="M142 41h10"></path>
<g>
<path d="M152 41h0"></path>
<path d="M272 41h0"></path>
<path d="M152 41h10"></path>
<g>
<path d="M162 41h0"></path>
<path d="M262 41h0"></path>
<rect x="162" y="30" width="100" height="22"></rect>
<text x="212" y="45">namedQuery</text>
</g>
<path d="M262 41h10"></path>
</g>
<path d="M272 41h10"></path>
<path d="M152 41a10 10 0 0 0 -10 10v10a10 10 0 0 0 10 10"></path>
<g>
<path d="M152 71h36"></path>
<path d="M236 71h36"></path>
<path d="M188 71h10"></path>
<g>
<path d="M198 71h0"></path>
<path d="M226 71h0"></path>
<rect x="198" y="60" width="28" height="22" rx="10" ry="10"></rect>
<text x="212" y="75">,</text>
</g>
<path d="M226 71h10"></path>
</g>
<path d="M272 71a10 10 0 0 0 10 -10v-10a10 10 0 0 0 -10 -10"></path>
</g>
<path d="M282 41h10"></path>
</g>
<path d="M292 41h20"></path>
</g>
<path d="M312 41h10"></path>
<g>
<path d="M322 41h0"></path>
<path d="M422 41h0"></path>
<rect x="322" y="30" width="100" height="22"></rect>
<text x="372" y="45">fullselect</text>
</g>
<path d="M422 41h10"></path>
</g>
<path d="M 432 41 h 20 m -10 -10 v 20 m 10 -20 v 20"></path>
</g>
</svg>
