<?xml version="1.0" standalone="no"?>
<!DOCTYPE svg PUBLIC "-//W3C//DTD SVG 1.1//EN"
  "http://www.w3.org/Graphics/SVG/1.1/DTD/svg11.dtd">
<svg xmlns="http://www.w3.org/2000/svg" version="1.1" class="railroad-diagram" width="981" height="221" viewBox="0 0 981 221">
<defs><style type="text/css"><![CDATA[ svg.railroad-diagram {
  background-color: #ffffff;
}
svg.railroad-diagram path {
  stroke-width: 2;
  stroke: #5a6872;
  fill: none;
}
svg.railroad-diagram text {
  font-size: 14px;
  font-family: 'ibm-plex-mono', 'Menlo', 'DejaVu Sans Mono', 'Bitstream Vera Sans Mono', Courier, monospace;
  color: #152935;
  text-anchor: middle;
  cursor: pointer;
}
svg.railroad-diagram text.label {
  text-anchor: start;
}
svg.railroad-diagram text.comment {
  font-size: 12px;
}
svg.railroad-diagram rect {
  stroke-width: 2;
  stroke:  #5a6872;
  fill: #5aaafa;
}
 ]]></style></defs>
<g transform="translate(.5 .5)">
<path d="M 20 21 v 20 m 10 -20 v 20 m -10 -10 h 20.5"></path>
<g>
<path d="M40 31h0"></path>
<path d="M940 31h0"></path>
<path d="M40 31h10"></path>
<g>
<path d="M50 31h0"></path>
<path d="M110 31h0"></path>
<rect x="50" y="20" width="60" height="22" rx="10" ry="10"></rect>
<text x="80" y="35">ALTER</text>
</g>
<path d="M110 31h10"></path>
<path d="M120 31h10"></path>
<g>
<path d="M130 31h0"></path>
<path d="M190 31h0"></path>
<rect x="130" y="20" width="60" height="22" rx="10" ry="10"></rect>
<text x="160" y="35">TABLE</text>
</g>
<path d="M190 31h10"></path>
<path d="M200 31h10"></path>
<g>
<path d="M210 31h0"></path>
<path d="M350 31h0"></path>
<rect x="210" y="20" width="140" height="22"></rect>
<text x="280" y="35">tableIdentifier</text>
</g>
<path d="M350 31h10"></path>
<g>
<path d="M360 31h0"></path>
<path d="M940 31h0"></path>
<path d="M360 31h20"></path>
<g>
<path d="M380 31h162"></path>
<path d="M758 31h162"></path>
<path d="M542 31h10"></path>
<g>
<path d="M552 31h0"></path>
<path d="M628 31h0"></path>
<rect x="552" y="20" width="76" height="22" rx="10" ry="10"></rect>
<text x="590" y="35">RECOVER</text>
</g>
<path d="M628 31h10"></path>
<path d="M638 31h10"></path>
<g>
<path d="M648 31h0"></path>
<path d="M748 31h0"></path>
<rect x="648" y="20" width="100" height="22" rx="10" ry="10"></rect>
<text x="698" y="35">PARTITIONS</text>
</g>
<path d="M748 31h10"></path>
</g>
<path d="M920 31h20"></path>
<path d="M360 31a10 10 0 0 1 10 10v20a10 10 0 0 0 10 10"></path>
<g>
<path d="M380 71h0"></path>
<path d="M920 71h0"></path>
<path d="M380 71h10"></path>
<g>
<path d="M390 71h0"></path>
<path d="M434 71h0"></path>
<rect x="390" y="60" width="44" height="22" rx="10" ry="10"></rect>
<text x="412" y="75">ADD</text>
</g>
<path d="M434 71h10"></path>
<g>
<path d="M444 71h0"></path>
<path d="M692 71h0"></path>
<path d="M444 71a10 10 0 0 0 10 -10v0a10 10 0 0 1 10 -10"></path>
<g>
<path d="M464 51h208"></path>
</g>
<path d="M672 51a10 10 0 0 1 10 10v0a10 10 0 0 0 10 10"></path>
<path d="M444 71h20"></path>
<g>
<path d="M464 71h0"></path>
<path d="M672 71h0"></path>
<path d="M464 71h10"></path>
<g>
<path d="M474 71h0"></path>
<path d="M510 71h0"></path>
<rect x="474" y="60" width="36" height="22" rx="10" ry="10"></rect>
<text x="492" y="75">IF</text>
</g>
<path d="M510 71h10"></path>
<path d="M520 71h10"></path>
<g>
<path d="M530 71h0"></path>
<path d="M574 71h0"></path>
<rect x="530" y="60" width="44" height="22" rx="10" ry="10"></rect>
<text x="552" y="75">NOT</text>
</g>
<path d="M574 71h10"></path>
<path d="M584 71h10"></path>
<g>
<path d="M594 71h0"></path>
<path d="M662 71h0"></path>
<rect x="594" y="60" width="68" height="22" rx="10" ry="10"></rect>
<text x="628" y="75">EXISTS</text>
</g>
<path d="M662 71h10"></path>
</g>
<path d="M672 71h20"></path>
</g>
<path d="M692 71h10"></path>
<g>
<path d="M702 71h0"></path>
<path d="M910 71h0"></path>
<path d="M702 71h10"></path>
<g>
<path d="M712 71h0"></path>
<path d="M900 71h0"></path>
<rect x="712" y="60" width="188" height="22"></rect>
<text x="806" y="75">partitionSpecLocation</text>
</g>
<path d="M900 71h10"></path>
<path d="M712 71a10 10 0 0 0 -10 10v0a10 10 0 0 0 10 10"></path>
<g>
<path d="M712 91h188"></path>
</g>
<path d="M900 91a10 10 0 0 0 10 -10v0a10 10 0 0 0 -10 -10"></path>
</g>
<path d="M910 71h10"></path>
</g>
<path d="M920 71a10 10 0 0 0 10 -10v-20a10 10 0 0 1 10 -10"></path>
<path d="M360 31a10 10 0 0 1 10 10v69a10 10 0 0 0 10 10"></path>
<g>
<path d="M380 120h50"></path>
<path d="M870 120h50"></path>
<path d="M430 120h10"></path>
<g>
<path d="M440 120h0"></path>
<path d="M492 120h0"></path>
<rect x="440" y="109" width="52" height="22" rx="10" ry="10"></rect>
<text x="466" y="124">DROP</text>
</g>
<path d="M492 120h10"></path>
<g>
<path d="M502 120h0"></path>
<path d="M686 120h0"></path>
<path d="M502 120a10 10 0 0 0 10 -10v0a10 10 0 0 1 10 -10"></path>
<g>
<path d="M522 100h144"></path>
</g>
<path d="M666 100a10 10 0 0 1 10 10v0a10 10 0 0 0 10 10"></path>
<path d="M502 120h20"></path>
<g>
<path d="M522 120h0"></path>
<path d="M666 120h0"></path>
<path d="M522 120h10"></path>
<g>
<path d="M532 120h0"></path>
<path d="M568 120h0"></path>
<rect x="532" y="109" width="36" height="22" rx="10" ry="10"></rect>
<text x="550" y="124">IF</text>
</g>
<path d="M568 120h10"></path>
<path d="M578 120h10"></path>
<g>
<path d="M588 120h0"></path>
<path d="M656 120h0"></path>
<rect x="588" y="109" width="68" height="22" rx="10" ry="10"></rect>
<text x="622" y="124">EXISTS</text>
</g>
<path d="M656 120h10"></path>
</g>
<path d="M666 120h20"></path>
</g>
<path d="M686 120h10"></path>
<g>
<path d="M696 120h0"></path>
<path d="M860 120h0"></path>
<path d="M696 120h10"></path>
<g>
<path d="M706 120h0"></path>
<path d="M850 120h0"></path>
<path d="M706 120h10"></path>
<g>
<path d="M716 120h0"></path>
<path d="M840 120h0"></path>
<rect x="716" y="109" width="124" height="22"></rect>
<text x="778" y="124">partitionSpec</text>
</g>
<path d="M840 120h10"></path>
</g>
<path d="M850 120h10"></path>
<path d="M706 120a10 10 0 0 0 -10 10v10a10 10 0 0 0 10 10"></path>
<g>
<path d="M706 150h48"></path>
<path d="M802 150h48"></path>
<path d="M754 150h10"></path>
<g>
<path d="M764 150h0"></path>
<path d="M792 150h0"></path>
<rect x="764" y="139" width="28" height="22" rx="10" ry="10"></rect>
<text x="778" y="154">,</text>
</g>
<path d="M792 150h10"></path>
</g>
<path d="M850 150a10 10 0 0 0 10 -10v-10a10 10 0 0 0 -10 -10"></path>
</g>
<path d="M860 120h10"></path>
</g>
<path d="M920 120a10 10 0 0 0 10 -10v-69a10 10 0 0 1 10 -10"></path>
<path d="M360 31a10 10 0 0 1 10 10v139a10 10 0 0 0 10 10"></path>
<g>
<path d="M380 190h52"></path>
<path d="M868 190h52"></path>
<g>
<path d="M432 190h0"></path>
<path d="M596 190h0"></path>
<path d="M432 190a10 10 0 0 0 10 -10v0a10 10 0 0 1 10 -10"></path>
<g>
<path d="M452 170h124"></path>
</g>
<path d="M576 170a10 10 0 0 1 10 10v0a10 10 0 0 0 10 10"></path>
<path d="M432 190h20"></path>
<g>
<path d="M452 190h0"></path>
<path d="M576 190h0"></path>
<rect x="452" y="179" width="124" height="22"></rect>
<text x="514" y="194">partitionSpec</text>
</g>
<path d="M576 190h20"></path>
</g>
<path d="M596 190h10"></path>
<g>
<path d="M606 190h0"></path>
<path d="M650 190h0"></path>
<rect x="606" y="179" width="44" height="22" rx="10" ry="10"></rect>
<text x="628" y="194">SET</text>
</g>
<path d="M650 190h10"></path>
<path d="M660 190h10"></path>
<g>
<path d="M670 190h0"></path>
<path d="M858 190h0"></path>
<rect x="670" y="179" width="188" height="22"></rect>
<text x="764" y="194">partitionSpecLocation</text>
</g>
<path d="M858 190h10"></path>
</g>
<path d="M920 190a10 10 0 0 0 10 -10v-139a10 10 0 0 1 10 -10"></path>
</g>
</g>
<path d="M 940 31 h 20 m -10 -10 v 20 m 10 -20 v 20"></path>
</g>
</svg>
