<?xml version="1.0" standalone="no"?>
<!DOCTYPE svg PUBLIC "-//W3C//DTD SVG 1.1//EN"
  "http://www.w3.org/Graphics/SVG/1.1/DTD/svg11.dtd">
<svg xmlns="http://www.w3.org/2000/svg" version="1.1" class="railroad-diagram" width="165" height="362" viewBox="0 0 165 362">
<defs><style type="text/css"><![CDATA[ svg.railroad-diagram {
  background-color: #ffffff;
}
svg.railroad-diagram path {
  stroke-width: 2;
  stroke: #5a6872;
  fill: none;
}
svg.railroad-diagram text {
  font-size: 14px;
  font-family: 'ibm-plex-mono', 'Menlo', 'DejaVu Sans Mono', 'Bitstream Vera Sans Mono', Courier, monospace;
  color: #152935;
  text-anchor: middle;
  cursor: pointer;
}
svg.railroad-diagram text.label {
  text-anchor: start;
}
svg.railroad-diagram text.comment {
  font-size: 12px;
}
svg.railroad-diagram rect {
  stroke-width: 2;
  stroke:  #5a6872;
  fill: #5aaafa;
}
 ]]></style></defs>
<g transform="translate(.5 .5)">
<path d="M 20 21 v 20 m 10 -20 v 20 m -10 -10 h 20.5"></path>
<g>
<path d="M40 31h0"></path>
<path d="M124 31h0"></path>
<path d="M40 31h20"></path>
<g>
<path d="M60 31h8"></path>
<path d="M96 31h8"></path>
<rect x="68" y="20" width="28" height="22" rx="10" ry="10"></rect>
<text x="82" y="35">+</text>
</g>
<path d="M104 31h20"></path>
<path d="M40 31a10 10 0 0 1 10 10v10a10 10 0 0 0 10 10"></path>
<g>
<path d="M60 61h8"></path>
<path d="M96 61h8"></path>
<rect x="68" y="50" width="28" height="22" rx="10" ry="10"></rect>
<text x="82" y="65">-</text>
</g>
<path d="M104 61a10 10 0 0 0 10 -10v-10a10 10 0 0 1 10 -10"></path>
<path d="M40 31a10 10 0 0 1 10 10v40a10 10 0 0 0 10 10"></path>
<g>
<path d="M60 91h8"></path>
<path d="M96 91h8"></path>
<rect x="68" y="80" width="28" height="22" rx="10" ry="10"></rect>
<text x="82" y="95">&#42;</text>
</g>
<path d="M104 91a10 10 0 0 0 10 -10v-40a10 10 0 0 1 10 -10"></path>
<path d="M40 31a10 10 0 0 1 10 10v70a10 10 0 0 0 10 10"></path>
<g>
<path d="M60 121h8"></path>
<path d="M96 121h8"></path>
<rect x="68" y="110" width="28" height="22" rx="10" ry="10"></rect>
<text x="82" y="125">/</text>
</g>
<path d="M104 121a10 10 0 0 0 10 -10v-70a10 10 0 0 1 10 -10"></path>
<path d="M40 31a10 10 0 0 1 10 10v100a10 10 0 0 0 10 10"></path>
<g>
<path d="M60 151h8"></path>
<path d="M96 151h8"></path>
<rect x="68" y="140" width="28" height="22" rx="10" ry="10"></rect>
<text x="82" y="155">%</text>
</g>
<path d="M104 151a10 10 0 0 0 10 -10v-100a10 10 0 0 1 10 -10"></path>
<path d="M40 31a10 10 0 0 1 10 10v130a10 10 0 0 0 10 10"></path>
<g>
<path d="M60 181h0"></path>
<path d="M104 181h0"></path>
<rect x="60" y="170" width="44" height="22" rx="10" ry="10"></rect>
<text x="82" y="185">DIV</text>
</g>
<path d="M104 181a10 10 0 0 0 10 -10v-130a10 10 0 0 1 10 -10"></path>
<path d="M40 31a10 10 0 0 1 10 10v160a10 10 0 0 0 10 10"></path>
<g>
<path d="M60 211h8"></path>
<path d="M96 211h8"></path>
<rect x="68" y="200" width="28" height="22" rx="10" ry="10"></rect>
<text x="82" y="215">~</text>
</g>
<path d="M104 211a10 10 0 0 0 10 -10v-160a10 10 0 0 1 10 -10"></path>
<path d="M40 31a10 10 0 0 1 10 10v190a10 10 0 0 0 10 10"></path>
<g>
<path d="M60 241h8"></path>
<path d="M96 241h8"></path>
<rect x="68" y="230" width="28" height="22" rx="10" ry="10"></rect>
<text x="82" y="245">&#38;</text>
</g>
<path d="M104 241a10 10 0 0 0 10 -10v-190a10 10 0 0 1 10 -10"></path>
<path d="M40 31a10 10 0 0 1 10 10v220a10 10 0 0 0 10 10"></path>
<g>
<path d="M60 271h8"></path>
<path d="M96 271h8"></path>
<rect x="68" y="260" width="28" height="22" rx="10" ry="10"></rect>
<text x="82" y="275">|</text>
</g>
<path d="M104 271a10 10 0 0 0 10 -10v-220a10 10 0 0 1 10 -10"></path>
<path d="M40 31a10 10 0 0 1 10 10v250a10 10 0 0 0 10 10"></path>
<g>
<path d="M60 301h8"></path>
<path d="M96 301h8"></path>
<rect x="68" y="290" width="28" height="22" rx="10" ry="10"></rect>
<text x="82" y="305">^</text>
</g>
<path d="M104 301a10 10 0 0 0 10 -10v-250a10 10 0 0 1 10 -10"></path>
<path d="M40 31a10 10 0 0 1 10 10v280a10 10 0 0 0 10 10"></path>
<g>
<path d="M60 331h4"></path>
<path d="M100 331h4"></path>
<rect x="64" y="320" width="36" height="22" rx="10" ry="10"></rect>
<text x="82" y="335">||</text>
</g>
<path d="M104 331a10 10 0 0 0 10 -10v-280a10 10 0 0 1 10 -10"></path>
</g>
<path d="M 124 31 h 20 m -10 -10 v 20 m 10 -20 v 20"></path>
</g>
</svg>
