<?xml version="1.0" standalone="no"?>
<!DOCTYPE svg PUBLIC "-//W3C//DTD SVG 1.1//EN"
  "http://www.w3.org/Graphics/SVG/1.1/DTD/svg11.dtd">
<svg xmlns="http://www.w3.org/2000/svg" version="1.1" class="railroad-diagram" width="537" height="192" viewBox="0 0 537 192">
<defs><style type="text/css"><![CDATA[ svg.railroad-diagram {
  background-color: #ffffff;
}
svg.railroad-diagram path {
  stroke-width: 2;
  stroke: #5a6872;
  fill: none;
}
svg.railroad-diagram text {
  font-size: 14px;
  font-family: 'ibm-plex-mono', 'Menlo', 'DejaVu Sans Mono', 'Bitstream Vera Sans Mono', Courier, monospace;
  color: #152935;
  text-anchor: middle;
  cursor: pointer;
}
svg.railroad-diagram text.label {
  text-anchor: start;
}
svg.railroad-diagram text.comment {
  font-size: 12px;
}
svg.railroad-diagram rect {
  stroke-width: 2;
  stroke:  #5a6872;
  fill: #5aaafa;
}
 ]]></style></defs>
<g transform="translate(.5 .5)">
<path d="M 20 21 v 20 m 10 -20 v 20 m -10 -10 h 20.5"></path>
<g>
<path d="M40 31h0"></path>
<path d="M496 31h0"></path>
<path d="M40 31h20"></path>
<g>
<path d="M60 31h88"></path>
<path d="M388 31h88"></path>
<path d="M148 31h10"></path>
<g>
<path d="M158 31h0"></path>
<path d="M202 31h0"></path>
<rect x="158" y="20" width="44" height="22" rx="10" ry="10"></rect>
<text x="180" y="35">NOT</text>
</g>
<path d="M202 31h10"></path>
<path d="M212 31h10"></path>
<g>
<path d="M222 31h0"></path>
<path d="M378 31h0"></path>
<rect x="222" y="20" width="156" height="22"></rect>
<text x="300" y="35">booleanExpression</text>
</g>
<path d="M378 31h10"></path>
</g>
<path d="M476 31h20"></path>
<path d="M40 31a10 10 0 0 1 10 10v20a10 10 0 0 0 10 10"></path>
<g>
<path d="M60 71h62"></path>
<path d="M414 71h62"></path>
<path d="M122 71h10"></path>
<g>
<path d="M132 71h0"></path>
<path d="M272 71h0"></path>
<rect x="132" y="60" width="140" height="22"></rect>
<text x="202" y="75">valueExpression</text>
</g>
<path d="M272 71h10"></path>
<g>
<path d="M282 71h0"></path>
<path d="M414 71h0"></path>
<path d="M282 71a10 10 0 0 0 10 -10v0a10 10 0 0 1 10 -10"></path>
<g>
<path d="M302 51h92"></path>
</g>
<path d="M394 51a10 10 0 0 1 10 10v0a10 10 0 0 0 10 10"></path>
<path d="M282 71h20"></path>
<g>
<path d="M302 71h0"></path>
<path d="M394 71h0"></path>
<rect x="302" y="60" width="92" height="22"></rect>
<text x="348" y="75">predicate</text>
</g>
<path d="M394 71h20"></path>
</g>
</g>
<path d="M476 71a10 10 0 0 0 10 -10v-20a10 10 0 0 1 10 -10"></path>
<path d="M40 31a10 10 0 0 1 10 10v50a10 10 0 0 0 10 10"></path>
<g>
<path d="M60 101h0"></path>
<path d="M476 101h0"></path>
<path d="M60 101h10"></path>
<g>
<path d="M70 101h0"></path>
<path d="M226 101h0"></path>
<rect x="70" y="90" width="156" height="22"></rect>
<text x="148" y="105">booleanExpression</text>
</g>
<path d="M226 101h10"></path>
<path d="M236 101h10"></path>
<g>
<path d="M246 101h0"></path>
<path d="M290 101h0"></path>
<rect x="246" y="90" width="44" height="22" rx="10" ry="10"></rect>
<text x="268" y="105">AND</text>
</g>
<path d="M290 101h10"></path>
<path d="M300 101h10"></path>
<g>
<path d="M310 101h0"></path>
<path d="M466 101h0"></path>
<rect x="310" y="90" width="156" height="22"></rect>
<text x="388" y="105">booleanExpression</text>
</g>
<path d="M466 101h10"></path>
</g>
<path d="M476 101a10 10 0 0 0 10 -10v-50a10 10 0 0 1 10 -10"></path>
<path d="M40 31a10 10 0 0 1 10 10v80a10 10 0 0 0 10 10"></path>
<g>
<path d="M60 131h4"></path>
<path d="M472 131h4"></path>
<path d="M64 131h10"></path>
<g>
<path d="M74 131h0"></path>
<path d="M230 131h0"></path>
<rect x="74" y="120" width="156" height="22"></rect>
<text x="152" y="135">booleanExpression</text>
</g>
<path d="M230 131h10"></path>
<path d="M240 131h10"></path>
<g>
<path d="M250 131h0"></path>
<path d="M286 131h0"></path>
<rect x="250" y="120" width="36" height="22" rx="10" ry="10"></rect>
<text x="268" y="135">OR</text>
</g>
<path d="M286 131h10"></path>
<path d="M296 131h10"></path>
<g>
<path d="M306 131h0"></path>
<path d="M462 131h0"></path>
<rect x="306" y="120" width="156" height="22"></rect>
<text x="384" y="135">booleanExpression</text>
</g>
<path d="M462 131h10"></path>
</g>
<path d="M476 131a10 10 0 0 0 10 -10v-80a10 10 0 0 1 10 -10"></path>
<path d="M40 31a10 10 0 0 1 10 10v110a10 10 0 0 0 10 10"></path>
<g>
<path d="M60 161h76"></path>
<path d="M400 161h76"></path>
<path d="M136 161h10"></path>
<g>
<path d="M146 161h0"></path>
<path d="M214 161h0"></path>
<rect x="146" y="150" width="68" height="22" rx="10" ry="10"></rect>
<text x="180" y="165">EXISTS</text>
</g>
<path d="M214 161h10"></path>
<path d="M224 161h10"></path>
<g>
<path d="M234 161h0"></path>
<path d="M262 161h0"></path>
<rect x="234" y="150" width="28" height="22" rx="10" ry="10"></rect>
<text x="248" y="165">(</text>
</g>
<path d="M262 161h10"></path>
<path d="M272 161h10"></path>
<g>
<path d="M282 161h0"></path>
<path d="M342 161h0"></path>
<rect x="282" y="150" width="60" height="22"></rect>
<text x="312" y="165">query</text>
</g>
<path d="M342 161h10"></path>
<path d="M352 161h10"></path>
<g>
<path d="M362 161h0"></path>
<path d="M390 161h0"></path>
<rect x="362" y="150" width="28" height="22" rx="10" ry="10"></rect>
<text x="376" y="165">)</text>
</g>
<path d="M390 161h10"></path>
</g>
<path d="M476 161a10 10 0 0 0 10 -10v-110a10 10 0 0 1 10 -10"></path>
</g>
<path d="M 496 31 h 20 m -10 -10 v 20 m 10 -20 v 20"></path>
</g>
</svg>
