<?xml version="1.0" standalone="no"?>
<!DOCTYPE svg PUBLIC "-//W3C//DTD SVG 1.1//EN"
  "http://www.w3.org/Graphics/SVG/1.1/DTD/svg11.dtd">
<svg xmlns="http://www.w3.org/2000/svg" version="1.1" class="railroad-diagram" width="953" height="482" viewBox="0 0 953 482">
<defs><style type="text/css"><![CDATA[ svg.railroad-diagram {
  background-color: #ffffff;
}
svg.railroad-diagram path {
  stroke-width: 2;
  stroke: #5a6872;
  fill: none;
}
svg.railroad-diagram text {
  font-size: 14px;
  font-family: 'ibm-plex-mono', 'Menlo', 'DejaVu Sans Mono', 'Bitstream Vera Sans Mono', Courier, monospace;
  color: #152935;
  text-anchor: middle;
  cursor: pointer;
}
svg.railroad-diagram text.label {
  text-anchor: start;
}
svg.railroad-diagram text.comment {
  font-size: 12px;
}
svg.railroad-diagram rect {
  stroke-width: 2;
  stroke:  #5a6872;
  fill: #5aaafa;
}
 ]]></style></defs>
<g transform="translate(.5 .5)">
<path d="M 20 21 v 20 m 10 -20 v 20 m -10 -10 h 20.5"></path>
<g>
<path d="M40 31h0"></path>
<path d="M912 31h0"></path>
<path d="M40 31h20"></path>
<g>
<path d="M60 31h180"></path>
<path d="M712 31h180"></path>
<path d="M240 31h10"></path>
<g>
<path d="M250 31h0"></path>
<path d="M350 31h0"></path>
<rect x="250" y="20" width="100" height="22" rx="10" ry="10"></rect>
<text x="300" y="35">TS&#95;EXP&#95;NOT</text>
</g>
<path d="M350 31h10"></path>
<path d="M360 31h10"></path>
<g>
<path d="M370 31h0"></path>
<path d="M398 31h0"></path>
<rect x="370" y="20" width="28" height="22" rx="10" ry="10"></rect>
<text x="384" y="35">(</text>
</g>
<path d="M398 31h10"></path>
<path d="M408 31h10"></path>
<g>
<path d="M418 31h0"></path>
<path d="M654 31h0"></path>
<rect x="418" y="20" width="236" height="22"></rect>
<text x="536" y="35">booleanTimeSeriesExpression</text>
</g>
<path d="M654 31h10"></path>
<path d="M664 31h10"></path>
<g>
<path d="M674 31h0"></path>
<path d="M702 31h0"></path>
<rect x="674" y="20" width="28" height="22" rx="10" ry="10"></rect>
<text x="688" y="35">)</text>
</g>
<path d="M702 31h10"></path>
</g>
<path d="M892 31h20"></path>
<path d="M40 31a10 10 0 0 1 10 10v10a10 10 0 0 0 10 10"></path>
<g>
<path d="M60 61h28"></path>
<path d="M864 61h28"></path>
<path d="M88 61h10"></path>
<g>
<path d="M98 61h0"></path>
<path d="M198 61h0"></path>
<rect x="98" y="50" width="100" height="22" rx="10" ry="10"></rect>
<text x="148" y="65">TS&#95;EXP&#95;AND</text>
</g>
<path d="M198 61h10"></path>
<path d="M208 61h10"></path>
<g>
<path d="M218 61h0"></path>
<path d="M246 61h0"></path>
<rect x="218" y="50" width="28" height="22" rx="10" ry="10"></rect>
<text x="232" y="65">(</text>
</g>
<path d="M246 61h10"></path>
<path d="M256 61h10"></path>
<g>
<path d="M266 61h0"></path>
<path d="M502 61h0"></path>
<rect x="266" y="50" width="236" height="22"></rect>
<text x="384" y="65">booleanTimeSeriesExpression</text>
</g>
<path d="M502 61h10"></path>
<path d="M512 61h10"></path>
<g>
<path d="M522 61h0"></path>
<path d="M550 61h0"></path>
<rect x="522" y="50" width="28" height="22" rx="10" ry="10"></rect>
<text x="536" y="65">,</text>
</g>
<path d="M550 61h10"></path>
<path d="M560 61h10"></path>
<g>
<path d="M570 61h0"></path>
<path d="M806 61h0"></path>
<rect x="570" y="50" width="236" height="22"></rect>
<text x="688" y="65">booleanTimeSeriesExpression</text>
</g>
<path d="M806 61h10"></path>
<path d="M816 61h10"></path>
<g>
<path d="M826 61h0"></path>
<path d="M854 61h0"></path>
<rect x="826" y="50" width="28" height="22" rx="10" ry="10"></rect>
<text x="840" y="65">)</text>
</g>
<path d="M854 61h10"></path>
</g>
<path d="M892 61a10 10 0 0 0 10 -10v-10a10 10 0 0 1 10 -10"></path>
<path d="M40 31a10 10 0 0 1 10 10v40a10 10 0 0 0 10 10"></path>
<g>
<path d="M60 91h32"></path>
<path d="M860 91h32"></path>
<path d="M92 91h10"></path>
<g>
<path d="M102 91h0"></path>
<path d="M194 91h0"></path>
<rect x="102" y="80" width="92" height="22" rx="10" ry="10"></rect>
<text x="148" y="95">TS&#95;EXP&#95;OR</text>
</g>
<path d="M194 91h10"></path>
<path d="M204 91h10"></path>
<g>
<path d="M214 91h0"></path>
<path d="M242 91h0"></path>
<rect x="214" y="80" width="28" height="22" rx="10" ry="10"></rect>
<text x="228" y="95">(</text>
</g>
<path d="M242 91h10"></path>
<path d="M252 91h10"></path>
<g>
<path d="M262 91h0"></path>
<path d="M498 91h0"></path>
<rect x="262" y="80" width="236" height="22"></rect>
<text x="380" y="95">booleanTimeSeriesExpression</text>
</g>
<path d="M498 91h10"></path>
<path d="M508 91h10"></path>
<g>
<path d="M518 91h0"></path>
<path d="M546 91h0"></path>
<rect x="518" y="80" width="28" height="22" rx="10" ry="10"></rect>
<text x="532" y="95">,</text>
</g>
<path d="M546 91h10"></path>
<path d="M556 91h10"></path>
<g>
<path d="M566 91h0"></path>
<path d="M802 91h0"></path>
<rect x="566" y="80" width="236" height="22"></rect>
<text x="684" y="95">booleanTimeSeriesExpression</text>
</g>
<path d="M802 91h10"></path>
<path d="M812 91h10"></path>
<g>
<path d="M822 91h0"></path>
<path d="M850 91h0"></path>
<rect x="822" y="80" width="28" height="22" rx="10" ry="10"></rect>
<text x="836" y="95">)</text>
</g>
<path d="M850 91h10"></path>
</g>
<path d="M892 91a10 10 0 0 0 10 -10v-40a10 10 0 0 1 10 -10"></path>
<path d="M40 31a10 10 0 0 1 10 10v70a10 10 0 0 0 10 10"></path>
<g>
<path d="M60 121h40"></path>
<path d="M852 121h40"></path>
<path d="M100 121h10"></path>
<g>
<path d="M110 121h0"></path>
<path d="M202 121h0"></path>
<rect x="110" y="110" width="92" height="22" rx="10" ry="10"></rect>
<text x="156" y="125">TS&#95;EXP&#95;LT</text>
</g>
<path d="M202 121h10"></path>
<path d="M212 121h10"></path>
<g>
<path d="M222 121h0"></path>
<path d="M250 121h0"></path>
<rect x="222" y="110" width="28" height="22" rx="10" ry="10"></rect>
<text x="236" y="125">(</text>
</g>
<path d="M250 121h10"></path>
<path d="M260 121h10"></path>
<g>
<path d="M270 121h0"></path>
<path d="M498 121h0"></path>
<rect x="270" y="110" width="228" height="22"></rect>
<text x="384" y="125">doubleTimeSeriesExpression</text>
</g>
<path d="M498 121h10"></path>
<path d="M508 121h10"></path>
<g>
<path d="M518 121h0"></path>
<path d="M546 121h0"></path>
<rect x="518" y="110" width="28" height="22" rx="10" ry="10"></rect>
<text x="532" y="125">,</text>
</g>
<path d="M546 121h10"></path>
<path d="M556 121h10"></path>
<g>
<path d="M566 121h0"></path>
<path d="M794 121h0"></path>
<rect x="566" y="110" width="228" height="22"></rect>
<text x="680" y="125">doubleTimeSeriesExpression</text>
</g>
<path d="M794 121h10"></path>
<path d="M804 121h10"></path>
<g>
<path d="M814 121h0"></path>
<path d="M842 121h0"></path>
<rect x="814" y="110" width="28" height="22" rx="10" ry="10"></rect>
<text x="828" y="125">)</text>
</g>
<path d="M842 121h10"></path>
</g>
<path d="M892 121a10 10 0 0 0 10 -10v-70a10 10 0 0 1 10 -10"></path>
<path d="M40 31a10 10 0 0 1 10 10v100a10 10 0 0 0 10 10"></path>
<g>
<path d="M60 151h36"></path>
<path d="M856 151h36"></path>
<path d="M96 151h10"></path>
<g>
<path d="M106 151h0"></path>
<path d="M206 151h0"></path>
<rect x="106" y="140" width="100" height="22" rx="10" ry="10"></rect>
<text x="156" y="155">TS&#95;EXP&#95;LTE</text>
</g>
<path d="M206 151h10"></path>
<path d="M216 151h10"></path>
<g>
<path d="M226 151h0"></path>
<path d="M254 151h0"></path>
<rect x="226" y="140" width="28" height="22" rx="10" ry="10"></rect>
<text x="240" y="155">(</text>
</g>
<path d="M254 151h10"></path>
<path d="M264 151h10"></path>
<g>
<path d="M274 151h0"></path>
<path d="M502 151h0"></path>
<rect x="274" y="140" width="228" height="22"></rect>
<text x="388" y="155">doubleTimeSeriesExpression</text>
</g>
<path d="M502 151h10"></path>
<path d="M512 151h10"></path>
<g>
<path d="M522 151h0"></path>
<path d="M550 151h0"></path>
<rect x="522" y="140" width="28" height="22" rx="10" ry="10"></rect>
<text x="536" y="155">,</text>
</g>
<path d="M550 151h10"></path>
<path d="M560 151h10"></path>
<g>
<path d="M570 151h0"></path>
<path d="M798 151h0"></path>
<rect x="570" y="140" width="228" height="22"></rect>
<text x="684" y="155">doubleTimeSeriesExpression</text>
</g>
<path d="M798 151h10"></path>
<path d="M808 151h10"></path>
<g>
<path d="M818 151h0"></path>
<path d="M846 151h0"></path>
<rect x="818" y="140" width="28" height="22" rx="10" ry="10"></rect>
<text x="832" y="155">)</text>
</g>
<path d="M846 151h10"></path>
</g>
<path d="M892 151a10 10 0 0 0 10 -10v-100a10 10 0 0 1 10 -10"></path>
<path d="M40 31a10 10 0 0 1 10 10v130a10 10 0 0 0 10 10"></path>
<g>
<path d="M60 181h40"></path>
<path d="M852 181h40"></path>
<path d="M100 181h10"></path>
<g>
<path d="M110 181h0"></path>
<path d="M202 181h0"></path>
<rect x="110" y="170" width="92" height="22" rx="10" ry="10"></rect>
<text x="156" y="185">TS&#95;EXP&#95;GT</text>
</g>
<path d="M202 181h10"></path>
<path d="M212 181h10"></path>
<g>
<path d="M222 181h0"></path>
<path d="M250 181h0"></path>
<rect x="222" y="170" width="28" height="22" rx="10" ry="10"></rect>
<text x="236" y="185">(</text>
</g>
<path d="M250 181h10"></path>
<path d="M260 181h10"></path>
<g>
<path d="M270 181h0"></path>
<path d="M498 181h0"></path>
<rect x="270" y="170" width="228" height="22"></rect>
<text x="384" y="185">doubleTimeSeriesExpression</text>
</g>
<path d="M498 181h10"></path>
<path d="M508 181h10"></path>
<g>
<path d="M518 181h0"></path>
<path d="M546 181h0"></path>
<rect x="518" y="170" width="28" height="22" rx="10" ry="10"></rect>
<text x="532" y="185">,</text>
</g>
<path d="M546 181h10"></path>
<path d="M556 181h10"></path>
<g>
<path d="M566 181h0"></path>
<path d="M794 181h0"></path>
<rect x="566" y="170" width="228" height="22"></rect>
<text x="680" y="185">doubleTimeSeriesExpression</text>
</g>
<path d="M794 181h10"></path>
<path d="M804 181h10"></path>
<g>
<path d="M814 181h0"></path>
<path d="M842 181h0"></path>
<rect x="814" y="170" width="28" height="22" rx="10" ry="10"></rect>
<text x="828" y="185">)</text>
</g>
<path d="M842 181h10"></path>
</g>
<path d="M892 181a10 10 0 0 0 10 -10v-130a10 10 0 0 1 10 -10"></path>
<path d="M40 31a10 10 0 0 1 10 10v160a10 10 0 0 0 10 10"></path>
<g>
<path d="M60 211h36"></path>
<path d="M856 211h36"></path>
<path d="M96 211h10"></path>
<g>
<path d="M106 211h0"></path>
<path d="M206 211h0"></path>
<rect x="106" y="200" width="100" height="22" rx="10" ry="10"></rect>
<text x="156" y="215">TS&#95;EXP&#95;GTE</text>
</g>
<path d="M206 211h10"></path>
<path d="M216 211h10"></path>
<g>
<path d="M226 211h0"></path>
<path d="M254 211h0"></path>
<rect x="226" y="200" width="28" height="22" rx="10" ry="10"></rect>
<text x="240" y="215">(</text>
</g>
<path d="M254 211h10"></path>
<path d="M264 211h10"></path>
<g>
<path d="M274 211h0"></path>
<path d="M502 211h0"></path>
<rect x="274" y="200" width="228" height="22"></rect>
<text x="388" y="215">doubleTimeSeriesExpression</text>
</g>
<path d="M502 211h10"></path>
<path d="M512 211h10"></path>
<g>
<path d="M522 211h0"></path>
<path d="M550 211h0"></path>
<rect x="522" y="200" width="28" height="22" rx="10" ry="10"></rect>
<text x="536" y="215">,</text>
</g>
<path d="M550 211h10"></path>
<path d="M560 211h10"></path>
<g>
<path d="M570 211h0"></path>
<path d="M798 211h0"></path>
<rect x="570" y="200" width="228" height="22"></rect>
<text x="684" y="215">doubleTimeSeriesExpression</text>
</g>
<path d="M798 211h10"></path>
<path d="M808 211h10"></path>
<g>
<path d="M818 211h0"></path>
<path d="M846 211h0"></path>
<rect x="818" y="200" width="28" height="22" rx="10" ry="10"></rect>
<text x="832" y="215">)</text>
</g>
<path d="M846 211h10"></path>
</g>
<path d="M892 211a10 10 0 0 0 10 -10v-160a10 10 0 0 1 10 -10"></path>
<path d="M40 31a10 10 0 0 1 10 10v190a10 10 0 0 0 10 10"></path>
<g>
<path d="M60 241h0"></path>
<path d="M892 241h0"></path>
<path d="M60 241h10"></path>
<g>
<path d="M70 241h0"></path>
<path d="M242 241h0"></path>
<rect x="70" y="230" width="172" height="22" rx="10" ry="10"></rect>
<text x="156" y="245">TS&#95;EXP&#95;DIVISIBLE&#95;BY</text>
</g>
<path d="M242 241h10"></path>
<path d="M252 241h10"></path>
<g>
<path d="M262 241h0"></path>
<path d="M290 241h0"></path>
<rect x="262" y="230" width="28" height="22" rx="10" ry="10"></rect>
<text x="276" y="245">(</text>
</g>
<path d="M290 241h10"></path>
<path d="M300 241h10"></path>
<g>
<path d="M310 241h0"></path>
<path d="M538 241h0"></path>
<rect x="310" y="230" width="228" height="22"></rect>
<text x="424" y="245">doubleTimeSeriesExpression</text>
</g>
<path d="M538 241h10"></path>
<path d="M548 241h10"></path>
<g>
<path d="M558 241h0"></path>
<path d="M586 241h0"></path>
<rect x="558" y="230" width="28" height="22" rx="10" ry="10"></rect>
<text x="572" y="245">,</text>
</g>
<path d="M586 241h10"></path>
<path d="M596 241h10"></path>
<g>
<path d="M606 241h0"></path>
<path d="M834 241h0"></path>
<rect x="606" y="230" width="228" height="22"></rect>
<text x="720" y="245">doubleTimeSeriesExpression</text>
</g>
<path d="M834 241h10"></path>
<path d="M844 241h10"></path>
<g>
<path d="M854 241h0"></path>
<path d="M882 241h0"></path>
<rect x="854" y="230" width="28" height="22" rx="10" ry="10"></rect>
<text x="868" y="245">)</text>
</g>
<path d="M882 241h10"></path>
</g>
<path d="M892 241a10 10 0 0 0 10 -10v-190a10 10 0 0 1 10 -10"></path>
<path d="M40 31a10 10 0 0 1 10 10v220a10 10 0 0 0 10 10"></path>
<g>
<path d="M60 271h16"></path>
<path d="M876 271h16"></path>
<path d="M76 271h10"></path>
<g>
<path d="M86 271h0"></path>
<path d="M226 271h0"></path>
<rect x="86" y="260" width="140" height="22" rx="10" ry="10"></rect>
<text x="156" y="275">TS&#95;EXP&#95;CONTAINS</text>
</g>
<path d="M226 271h10"></path>
<path d="M236 271h10"></path>
<g>
<path d="M246 271h0"></path>
<path d="M274 271h0"></path>
<rect x="246" y="260" width="28" height="22" rx="10" ry="10"></rect>
<text x="260" y="275">(</text>
</g>
<path d="M274 271h10"></path>
<path d="M284 271h10"></path>
<g>
<path d="M294 271h0"></path>
<path d="M522 271h0"></path>
<rect x="294" y="260" width="228" height="22"></rect>
<text x="408" y="275">stringTimeSeriesExpression</text>
</g>
<path d="M522 271h10"></path>
<path d="M532 271h10"></path>
<g>
<path d="M542 271h0"></path>
<path d="M570 271h0"></path>
<rect x="542" y="260" width="28" height="22" rx="10" ry="10"></rect>
<text x="556" y="275">,</text>
</g>
<path d="M570 271h10"></path>
<path d="M580 271h10"></path>
<g>
<path d="M590 271h0"></path>
<path d="M818 271h0"></path>
<rect x="590" y="260" width="228" height="22"></rect>
<text x="704" y="275">stringTimeSeriesExpression</text>
</g>
<path d="M818 271h10"></path>
<path d="M828 271h10"></path>
<g>
<path d="M838 271h0"></path>
<path d="M866 271h0"></path>
<rect x="838" y="260" width="28" height="22" rx="10" ry="10"></rect>
<text x="852" y="275">)</text>
</g>
<path d="M866 271h10"></path>
</g>
<path d="M892 271a10 10 0 0 0 10 -10v-220a10 10 0 0 1 10 -10"></path>
<path d="M40 31a10 10 0 0 1 10 10v250a10 10 0 0 0 10 10"></path>
<g>
<path d="M60 301h0"></path>
<path d="M892 301h0"></path>
<path d="M60 301h10"></path>
<g>
<path d="M70 301h0"></path>
<path d="M242 301h0"></path>
<rect x="70" y="290" width="172" height="22" rx="10" ry="10"></rect>
<text x="156" y="305">TS&#95;EXP&#95;CONTAINED&#95;IN</text>
</g>
<path d="M242 301h10"></path>
<path d="M252 301h10"></path>
<g>
<path d="M262 301h0"></path>
<path d="M290 301h0"></path>
<rect x="262" y="290" width="28" height="22" rx="10" ry="10"></rect>
<text x="276" y="305">(</text>
</g>
<path d="M290 301h10"></path>
<path d="M300 301h10"></path>
<g>
<path d="M310 301h0"></path>
<path d="M538 301h0"></path>
<rect x="310" y="290" width="228" height="22"></rect>
<text x="424" y="305">stringTimeSeriesExpression</text>
</g>
<path d="M538 301h10"></path>
<path d="M548 301h10"></path>
<g>
<path d="M558 301h0"></path>
<path d="M586 301h0"></path>
<rect x="558" y="290" width="28" height="22" rx="10" ry="10"></rect>
<text x="572" y="305">,</text>
</g>
<path d="M586 301h10"></path>
<path d="M596 301h10"></path>
<g>
<path d="M606 301h0"></path>
<path d="M834 301h0"></path>
<rect x="606" y="290" width="228" height="22"></rect>
<text x="720" y="305">stringTimeSeriesExpression</text>
</g>
<path d="M834 301h10"></path>
<path d="M844 301h10"></path>
<g>
<path d="M854 301h0"></path>
<path d="M882 301h0"></path>
<rect x="854" y="290" width="28" height="22" rx="10" ry="10"></rect>
<text x="868" y="305">)</text>
</g>
<path d="M882 301h10"></path>
</g>
<path d="M892 301a10 10 0 0 0 10 -10v-250a10 10 0 0 1 10 -10"></path>
<path d="M40 31a10 10 0 0 1 10 10v280a10 10 0 0 0 10 10"></path>
<g>
<path d="M60 331h4"></path>
<path d="M888 331h4"></path>
<path d="M64 331h10"></path>
<g>
<path d="M74 331h0"></path>
<path d="M238 331h0"></path>
<rect x="74" y="320" width="164" height="22" rx="10" ry="10"></rect>
<text x="156" y="335">TS&#95;EXP&#95;STARTS&#95;WITH</text>
</g>
<path d="M238 331h10"></path>
<path d="M248 331h10"></path>
<g>
<path d="M258 331h0"></path>
<path d="M286 331h0"></path>
<rect x="258" y="320" width="28" height="22" rx="10" ry="10"></rect>
<text x="272" y="335">(</text>
</g>
<path d="M286 331h10"></path>
<path d="M296 331h10"></path>
<g>
<path d="M306 331h0"></path>
<path d="M534 331h0"></path>
<rect x="306" y="320" width="228" height="22"></rect>
<text x="420" y="335">stringTimeSeriesExpression</text>
</g>
<path d="M534 331h10"></path>
<path d="M544 331h10"></path>
<g>
<path d="M554 331h0"></path>
<path d="M582 331h0"></path>
<rect x="554" y="320" width="28" height="22" rx="10" ry="10"></rect>
<text x="568" y="335">,</text>
</g>
<path d="M582 331h10"></path>
<path d="M592 331h10"></path>
<g>
<path d="M602 331h0"></path>
<path d="M830 331h0"></path>
<rect x="602" y="320" width="228" height="22"></rect>
<text x="716" y="335">stringTimeSeriesExpression</text>
</g>
<path d="M830 331h10"></path>
<path d="M840 331h10"></path>
<g>
<path d="M850 331h0"></path>
<path d="M878 331h0"></path>
<rect x="850" y="320" width="28" height="22" rx="10" ry="10"></rect>
<text x="864" y="335">)</text>
</g>
<path d="M878 331h10"></path>
</g>
<path d="M892 331a10 10 0 0 0 10 -10v-280a10 10 0 0 1 10 -10"></path>
<path d="M40 31a10 10 0 0 1 10 10v310a10 10 0 0 0 10 10"></path>
<g>
<path d="M60 361h12"></path>
<path d="M880 361h12"></path>
<path d="M72 361h10"></path>
<g>
<path d="M82 361h0"></path>
<path d="M230 361h0"></path>
<rect x="82" y="350" width="148" height="22" rx="10" ry="10"></rect>
<text x="156" y="365">TS&#95;EXP&#95;ENDS&#95;WITH</text>
</g>
<path d="M230 361h10"></path>
<path d="M240 361h10"></path>
<g>
<path d="M250 361h0"></path>
<path d="M278 361h0"></path>
<rect x="250" y="350" width="28" height="22" rx="10" ry="10"></rect>
<text x="264" y="365">(</text>
</g>
<path d="M278 361h10"></path>
<path d="M288 361h10"></path>
<g>
<path d="M298 361h0"></path>
<path d="M526 361h0"></path>
<rect x="298" y="350" width="228" height="22"></rect>
<text x="412" y="365">stringTimeSeriesExpression</text>
</g>
<path d="M526 361h10"></path>
<path d="M536 361h10"></path>
<g>
<path d="M546 361h0"></path>
<path d="M574 361h0"></path>
<rect x="546" y="350" width="28" height="22" rx="10" ry="10"></rect>
<text x="560" y="365">,</text>
</g>
<path d="M574 361h10"></path>
<path d="M584 361h10"></path>
<g>
<path d="M594 361h0"></path>
<path d="M822 361h0"></path>
<rect x="594" y="350" width="228" height="22"></rect>
<text x="708" y="365">stringTimeSeriesExpression</text>
</g>
<path d="M822 361h10"></path>
<path d="M832 361h10"></path>
<g>
<path d="M842 361h0"></path>
<path d="M870 361h0"></path>
<rect x="842" y="350" width="28" height="22" rx="10" ry="10"></rect>
<text x="856" y="365">)</text>
</g>
<path d="M870 361h10"></path>
</g>
<path d="M892 361a10 10 0 0 0 10 -10v-310a10 10 0 0 1 10 -10"></path>
<path d="M40 31a10 10 0 0 1 10 10v340a10 10 0 0 0 10 10"></path>
<g>
<path d="M60 391h4"></path>
<path d="M888 391h4"></path>
<path d="M64 391h10"></path>
<g>
<path d="M74 391h0"></path>
<path d="M198 391h0"></path>
<rect x="74" y="380" width="124" height="22" rx="10" ry="10"></rect>
<text x="136" y="395">TS&#95;EXP&#95;EQUALS</text>
</g>
<path d="M198 391h10"></path>
<g>
<path d="M208 391h0"></path>
<path d="M888 391h0"></path>
<path d="M208 391h20"></path>
<g>
<path d="M228 391h0"></path>
<path d="M868 391h0"></path>
<path d="M228 391h10"></path>
<g>
<path d="M238 391h0"></path>
<path d="M266 391h0"></path>
<rect x="238" y="380" width="28" height="22" rx="10" ry="10"></rect>
<text x="252" y="395">(</text>
</g>
<path d="M266 391h10"></path>
<path d="M276 391h10"></path>
<g>
<path d="M286 391h0"></path>
<path d="M514 391h0"></path>
<rect x="286" y="380" width="228" height="22"></rect>
<text x="400" y="395">doubleTimeSeriesExpression</text>
</g>
<path d="M514 391h10"></path>
<path d="M524 391h10"></path>
<g>
<path d="M534 391h0"></path>
<path d="M562 391h0"></path>
<rect x="534" y="380" width="28" height="22" rx="10" ry="10"></rect>
<text x="548" y="395">,</text>
</g>
<path d="M562 391h10"></path>
<path d="M572 391h10"></path>
<g>
<path d="M582 391h0"></path>
<path d="M810 391h0"></path>
<rect x="582" y="380" width="228" height="22"></rect>
<text x="696" y="395">doubleTimeSeriesExpression</text>
</g>
<path d="M810 391h10"></path>
<path d="M820 391h10"></path>
<g>
<path d="M830 391h0"></path>
<path d="M858 391h0"></path>
<rect x="830" y="380" width="28" height="22" rx="10" ry="10"></rect>
<text x="844" y="395">)</text>
</g>
<path d="M858 391h10"></path>
</g>
<path d="M868 391h20"></path>
<path d="M208 391a10 10 0 0 1 10 10v10a10 10 0 0 0 10 10"></path>
<g>
<path d="M228 421h0"></path>
<path d="M868 421h0"></path>
<path d="M228 421h10"></path>
<g>
<path d="M238 421h0"></path>
<path d="M266 421h0"></path>
<rect x="238" y="410" width="28" height="22" rx="10" ry="10"></rect>
<text x="252" y="425">(</text>
</g>
<path d="M266 421h10"></path>
<path d="M276 421h10"></path>
<g>
<path d="M286 421h0"></path>
<path d="M514 421h0"></path>
<rect x="286" y="410" width="228" height="22"></rect>
<text x="400" y="425">stringTimeSeriesExpression</text>
</g>
<path d="M514 421h10"></path>
<path d="M524 421h10"></path>
<g>
<path d="M534 421h0"></path>
<path d="M562 421h0"></path>
<rect x="534" y="410" width="28" height="22" rx="10" ry="10"></rect>
<text x="548" y="425">,</text>
</g>
<path d="M562 421h10"></path>
<path d="M572 421h10"></path>
<g>
<path d="M582 421h0"></path>
<path d="M810 421h0"></path>
<rect x="582" y="410" width="228" height="22"></rect>
<text x="696" y="425">stringTimeSeriesExpression</text>
</g>
<path d="M810 421h10"></path>
<path d="M820 421h10"></path>
<g>
<path d="M830 421h0"></path>
<path d="M858 421h0"></path>
<rect x="830" y="410" width="28" height="22" rx="10" ry="10"></rect>
<text x="844" y="425">)</text>
</g>
<path d="M858 421h10"></path>
</g>
<path d="M868 421a10 10 0 0 0 10 -10v-10a10 10 0 0 1 10 -10"></path>
</g>
</g>
<path d="M892 391a10 10 0 0 0 10 -10v-340a10 10 0 0 1 10 -10"></path>
<path d="M40 31a10 10 0 0 1 10 10v400a10 10 0 0 0 10 10"></path>
<g>
<path d="M60 451h262"></path>
<path d="M630 451h262"></path>
<rect x="322" y="440" width="308" height="22"></rect>
<text x="476" y="455">deprecatedAnchorTimeSeriesExpression</text>
</g>
<path d="M892 451a10 10 0 0 0 10 -10v-400a10 10 0 0 1 10 -10"></path>
</g>
<path d="M 912 31 h 20 m -10 -10 v 20 m 10 -20 v 20"></path>
</g>
</svg>
