<?xml version="1.0" standalone="no"?>
<!DOCTYPE svg PUBLIC "-//W3C//DTD SVG 1.1//EN"
  "http://www.w3.org/Graphics/SVG/1.1/DTD/svg11.dtd">
<svg xmlns="http://www.w3.org/2000/svg" version="1.1" class="railroad-diagram" width="749" height="130" viewBox="0 0 749 130">
<defs><style type="text/css"><![CDATA[ svg.railroad-diagram {
  background-color: #ffffff;
}
svg.railroad-diagram path {
  stroke-width: 2;
  stroke: #5a6872;
  fill: none;
}
svg.railroad-diagram text {
  font-size: 14px;
  font-family: 'ibm-plex-mono', 'Menlo', 'DejaVu Sans Mono', 'Bitstream Vera Sans Mono', Courier, monospace;
  color: #152935;
  text-anchor: middle;
  cursor: pointer;
}
svg.railroad-diagram text.label {
  text-anchor: start;
}
svg.railroad-diagram text.comment {
  font-size: 12px;
}
svg.railroad-diagram rect {
  stroke-width: 2;
  stroke:  #5a6872;
  fill: #5aaafa;
}
 ]]></style></defs>
<g transform="translate(.5 .5)">
<path d="M 20 31 v 20 m 10 -20 v 20 m -10 -10 h 20.5"></path>
<g>
<path d="M40 41h0"></path>
<path d="M708 41h0"></path>
<path d="M40 41h20"></path>
<g>
<path d="M60 41h60"></path>
<path d="M628 41h60"></path>
<path d="M120 41h10"></path>
<g>
<path d="M130 41h0"></path>
<path d="M182 41h0"></path>
<rect x="130" y="30" width="52" height="22" rx="10" ry="10"></rect>
<text x="156" y="45">CASE</text>
</g>
<path d="M182 41h10"></path>
<path d="M192 41h10"></path>
<g>
<path d="M202 41h0"></path>
<path d="M322 41h0"></path>
<path d="M202 41h10"></path>
<g>
<path d="M212 41h0"></path>
<path d="M312 41h0"></path>
<rect x="212" y="30" width="100" height="22"></rect>
<text x="262" y="45">whenClause</text>
</g>
<path d="M312 41h10"></path>
<path d="M212 41a10 10 0 0 0 -10 10v0a10 10 0 0 0 10 10"></path>
<g>
<path d="M212 61h100"></path>
</g>
<path d="M312 61a10 10 0 0 0 10 -10v0a10 10 0 0 0 -10 -10"></path>
</g>
<path d="M322 41h10"></path>
<g>
<path d="M332 41h0"></path>
<path d="M564 41h0"></path>
<path d="M332 41a10 10 0 0 0 10 -10v0a10 10 0 0 1 10 -10"></path>
<g>
<path d="M352 21h192"></path>
</g>
<path d="M544 21a10 10 0 0 1 10 10v0a10 10 0 0 0 10 10"></path>
<path d="M332 41h20"></path>
<g>
<path d="M352 41h0"></path>
<path d="M544 41h0"></path>
<path d="M352 41h10"></path>
<g>
<path d="M362 41h0"></path>
<path d="M414 41h0"></path>
<rect x="362" y="30" width="52" height="22" rx="10" ry="10"></rect>
<text x="388" y="45">ELSE</text>
</g>
<path d="M414 41h10"></path>
<path d="M424 41h10"></path>
<g>
<path d="M434 41h0"></path>
<path d="M534 41h0"></path>
<rect x="434" y="30" width="100" height="22"></rect>
<text x="484" y="45">expression</text>
</g>
<path d="M534 41h10"></path>
</g>
<path d="M544 41h20"></path>
</g>
<path d="M564 41h10"></path>
<g>
<path d="M574 41h0"></path>
<path d="M618 41h0"></path>
<rect x="574" y="30" width="44" height="22" rx="10" ry="10"></rect>
<text x="596" y="45">END</text>
</g>
<path d="M618 41h10"></path>
</g>
<path d="M688 41h20"></path>
<path d="M40 41a10 10 0 0 1 10 10v29a10 10 0 0 0 10 10"></path>
<g>
<path d="M60 90h0"></path>
<path d="M688 90h0"></path>
<path d="M60 90h10"></path>
<g>
<path d="M70 90h0"></path>
<path d="M122 90h0"></path>
<rect x="70" y="79" width="52" height="22" rx="10" ry="10"></rect>
<text x="96" y="94">CASE</text>
</g>
<path d="M122 90h10"></path>
<path d="M132 90h10"></path>
<g>
<path d="M142 90h0"></path>
<path d="M242 90h0"></path>
<rect x="142" y="79" width="100" height="22"></rect>
<text x="192" y="94">expression</text>
</g>
<path d="M242 90h10"></path>
<path d="M252 90h10"></path>
<g>
<path d="M262 90h0"></path>
<path d="M382 90h0"></path>
<path d="M262 90h10"></path>
<g>
<path d="M272 90h0"></path>
<path d="M372 90h0"></path>
<rect x="272" y="79" width="100" height="22"></rect>
<text x="322" y="94">whenClause</text>
</g>
<path d="M372 90h10"></path>
<path d="M272 90a10 10 0 0 0 -10 10v0a10 10 0 0 0 10 10"></path>
<g>
<path d="M272 110h100"></path>
</g>
<path d="M372 110a10 10 0 0 0 10 -10v0a10 10 0 0 0 -10 -10"></path>
</g>
<path d="M382 90h10"></path>
<g>
<path d="M392 90h0"></path>
<path d="M624 90h0"></path>
<path d="M392 90a10 10 0 0 0 10 -10v0a10 10 0 0 1 10 -10"></path>
<g>
<path d="M412 70h192"></path>
</g>
<path d="M604 70a10 10 0 0 1 10 10v0a10 10 0 0 0 10 10"></path>
<path d="M392 90h20"></path>
<g>
<path d="M412 90h0"></path>
<path d="M604 90h0"></path>
<path d="M412 90h10"></path>
<g>
<path d="M422 90h0"></path>
<path d="M474 90h0"></path>
<rect x="422" y="79" width="52" height="22" rx="10" ry="10"></rect>
<text x="448" y="94">ELSE</text>
</g>
<path d="M474 90h10"></path>
<path d="M484 90h10"></path>
<g>
<path d="M494 90h0"></path>
<path d="M594 90h0"></path>
<rect x="494" y="79" width="100" height="22"></rect>
<text x="544" y="94">expression</text>
</g>
<path d="M594 90h10"></path>
</g>
<path d="M604 90h20"></path>
</g>
<path d="M624 90h10"></path>
<g>
<path d="M634 90h0"></path>
<path d="M678 90h0"></path>
<rect x="634" y="79" width="44" height="22" rx="10" ry="10"></rect>
<text x="656" y="94">END</text>
</g>
<path d="M678 90h10"></path>
</g>
<path d="M688 90a10 10 0 0 0 10 -10v-29a10 10 0 0 1 10 -10"></path>
</g>
<path d="M 708 41 h 20 m -10 -10 v 20 m 10 -20 v 20"></path>
</g>
</svg>
