<?xml version="1.0" standalone="no"?>
<!DOCTYPE svg PUBLIC "-//W3C//DTD SVG 1.1//EN"
  "http://www.w3.org/Graphics/SVG/1.1/DTD/svg11.dtd">
<svg xmlns="http://www.w3.org/2000/svg" version="1.1" class="railroad-diagram" width="2853" height="192" viewBox="0 0 2853 192">
<defs><style type="text/css"><![CDATA[ svg.railroad-diagram {
  background-color: #ffffff;
}
svg.railroad-diagram path {
  stroke-width: 2;
  stroke: #5a6872;
  fill: none;
}
svg.railroad-diagram text {
  font-size: 14px;
  font-family: 'ibm-plex-mono', 'Menlo', 'DejaVu Sans Mono', 'Bitstream Vera Sans Mono', Courier, monospace;
  color: #152935;
  text-anchor: middle;
  cursor: pointer;
}
svg.railroad-diagram text.label {
  text-anchor: start;
}
svg.railroad-diagram text.comment {
  font-size: 12px;
}
svg.railroad-diagram rect {
  stroke-width: 2;
  stroke:  #5a6872;
  fill: #5aaafa;
}
 ]]></style></defs>
<g transform="translate(.5 .5)">
<path d="M 20 31 v 20 m 10 -20 v 20 m -10 -10 h 20.5"></path>
<g>
<path d="M40 41h0"></path>
<path d="M2812 41h0"></path>
<path d="M40 41h10"></path>
<g>
<path d="M50 41h0"></path>
<path d="M118 41h0"></path>
<rect x="50" y="30" width="68" height="22" rx="10" ry="10"></rect>
<text x="84" y="45">CREATE</text>
</g>
<path d="M118 41h10"></path>
<path d="M128 41h10"></path>
<g>
<path d="M138 41h0"></path>
<path d="M198 41h0"></path>
<rect x="138" y="30" width="60" height="22" rx="10" ry="10"></rect>
<text x="168" y="45">TABLE</text>
</g>
<path d="M198 41h10"></path>
<g>
<path d="M208 41h0"></path>
<path d="M456 41h0"></path>
<path d="M208 41a10 10 0 0 0 10 -10v0a10 10 0 0 1 10 -10"></path>
<g>
<path d="M228 21h208"></path>
</g>
<path d="M436 21a10 10 0 0 1 10 10v0a10 10 0 0 0 10 10"></path>
<path d="M208 41h20"></path>
<g>
<path d="M228 41h0"></path>
<path d="M436 41h0"></path>
<path d="M228 41h10"></path>
<g>
<path d="M238 41h0"></path>
<path d="M274 41h0"></path>
<rect x="238" y="30" width="36" height="22" rx="10" ry="10"></rect>
<text x="256" y="45">IF</text>
</g>
<path d="M274 41h10"></path>
<path d="M284 41h10"></path>
<g>
<path d="M294 41h0"></path>
<path d="M338 41h0"></path>
<rect x="294" y="30" width="44" height="22" rx="10" ry="10"></rect>
<text x="316" y="45">NOT</text>
</g>
<path d="M338 41h10"></path>
<path d="M348 41h10"></path>
<g>
<path d="M358 41h0"></path>
<path d="M426 41h0"></path>
<rect x="358" y="30" width="68" height="22" rx="10" ry="10"></rect>
<text x="392" y="45">EXISTS</text>
</g>
<path d="M426 41h10"></path>
</g>
<path d="M436 41h20"></path>
</g>
<path d="M456 41h10"></path>
<g>
<path d="M466 41h0"></path>
<path d="M542 41h0"></path>
<rect x="466" y="30" width="76" height="22" rx="10" ry="10"></rect>
<text x="504" y="45">@break@</text>
</g>
<path d="M542 41h10"></path>
<path d="M552 41h10"></path>
<g>
<path d="M562 41h0"></path>
<path d="M702 41h0"></path>
<rect x="562" y="30" width="140" height="22"></rect>
<text x="632" y="45">tableIdentifier</text>
</g>
<path d="M702 41h10"></path>
<path d="M712 41h10"></path>
<g>
<path d="M722 41h0"></path>
<path d="M750 41h0"></path>
<rect x="722" y="30" width="28" height="22" rx="10" ry="10"></rect>
<text x="736" y="45">(</text>
</g>
<path d="M750 41h10"></path>
<path d="M760 41h10"></path>
<g>
<path d="M770 41h0"></path>
<path d="M958 41h0"></path>
<path d="M770 41h10"></path>
<g>
<path d="M780 41h0"></path>
<path d="M948 41h0"></path>
<path d="M780 41h10"></path>
<g>
<path d="M790 41h0"></path>
<path d="M938 41h0"></path>
<rect x="790" y="30" width="148" height="22"></rect>
<text x="864" y="45">columnDefinition</text>
</g>
<path d="M938 41h10"></path>
</g>
<path d="M948 41h10"></path>
<path d="M780 41a10 10 0 0 0 -10 10v10a10 10 0 0 0 10 10"></path>
<g>
<path d="M780 71h60"></path>
<path d="M888 71h60"></path>
<path d="M840 71h10"></path>
<g>
<path d="M850 71h0"></path>
<path d="M878 71h0"></path>
<rect x="850" y="60" width="28" height="22" rx="10" ry="10"></rect>
<text x="864" y="75">,</text>
</g>
<path d="M878 71h10"></path>
</g>
<path d="M948 71a10 10 0 0 0 10 -10v-10a10 10 0 0 0 -10 -10"></path>
</g>
<path d="M958 41h10"></path>
<path d="M968 41h10"></path>
<g>
<path d="M978 41h0"></path>
<path d="M1006 41h0"></path>
<rect x="978" y="30" width="28" height="22" rx="10" ry="10"></rect>
<text x="992" y="45">)</text>
</g>
<path d="M1006 41h10"></path>
<path d="M1016 41h10"></path>
<g>
<path d="M1026 41h0"></path>
<path d="M1102 41h0"></path>
<rect x="1026" y="30" width="76" height="22" rx="10" ry="10"></rect>
<text x="1064" y="45">@break@</text>
</g>
<path d="M1102 41h10"></path>
<path d="M1112 41h10"></path>
<g>
<path d="M1122 41h0"></path>
<path d="M1182 41h0"></path>
<rect x="1122" y="30" width="60" height="22" rx="10" ry="10"></rect>
<text x="1152" y="45">USING</text>
</g>
<path d="M1182 41h10"></path>
<g>
<path d="M1192 41h0"></path>
<path d="M1308 41h0"></path>
<path d="M1192 41h20"></path>
<g>
<path d="M1212 41h12"></path>
<path d="M1276 41h12"></path>
<rect x="1224" y="30" width="52" height="22" rx="10" ry="10"></rect>
<text x="1250" y="45">AVRO</text>
</g>
<path d="M1288 41h20"></path>
<path d="M1192 41a10 10 0 0 1 10 10v10a10 10 0 0 0 10 10"></path>
<g>
<path d="M1212 71h16"></path>
<path d="M1272 71h16"></path>
<rect x="1228" y="60" width="44" height="22" rx="10" ry="10"></rect>
<text x="1250" y="75">CSV</text>
</g>
<path d="M1288 71a10 10 0 0 0 10 -10v-10a10 10 0 0 1 10 -10"></path>
<path d="M1192 41a10 10 0 0 1 10 10v40a10 10 0 0 0 10 10"></path>
<g>
<path d="M1212 101h12"></path>
<path d="M1276 101h12"></path>
<rect x="1224" y="90" width="52" height="22" rx="10" ry="10"></rect>
<text x="1250" y="105">JSON</text>
</g>
<path d="M1288 101a10 10 0 0 0 10 -10v-40a10 10 0 0 1 10 -10"></path>
<path d="M1192 41a10 10 0 0 1 10 10v70a10 10 0 0 0 10 10"></path>
<g>
<path d="M1212 131h16"></path>
<path d="M1272 131h16"></path>
<rect x="1228" y="120" width="44" height="22" rx="10" ry="10"></rect>
<text x="1250" y="135">ORC</text>
</g>
<path d="M1288 131a10 10 0 0 0 10 -10v-70a10 10 0 0 1 10 -10"></path>
<path d="M1192 41a10 10 0 0 1 10 10v100a10 10 0 0 0 10 10"></path>
<g>
<path d="M1212 161h0"></path>
<path d="M1288 161h0"></path>
<rect x="1212" y="150" width="76" height="22" rx="10" ry="10"></rect>
<text x="1250" y="165">PARQUET</text>
</g>
<path d="M1288 161a10 10 0 0 0 10 -10v-100a10 10 0 0 1 10 -10"></path>
</g>
<g>
<path d="M1308 41h0"></path>
<path d="M1724 41h0"></path>
<path d="M1308 41a10 10 0 0 0 10 -10v0a10 10 0 0 1 10 -10"></path>
<g>
<path d="M1328 21h376"></path>
</g>
<path d="M1704 21a10 10 0 0 1 10 10v0a10 10 0 0 0 10 10"></path>
<path d="M1308 41h20"></path>
<g>
<path d="M1328 41h0"></path>
<path d="M1704 41h0"></path>
<path d="M1328 41h10"></path>
<g>
<path d="M1338 41h0"></path>
<path d="M1414 41h0"></path>
<rect x="1338" y="30" width="76" height="22" rx="10" ry="10"></rect>
<text x="1376" y="45">OPTIONS</text>
</g>
<path d="M1414 41h10"></path>
<path d="M1424 41h10"></path>
<g>
<path d="M1434 41h0"></path>
<path d="M1462 41h0"></path>
<rect x="1434" y="30" width="28" height="22" rx="10" ry="10"></rect>
<text x="1448" y="45">(</text>
</g>
<path d="M1462 41h10"></path>
<path d="M1472 41h10"></path>
<g>
<path d="M1482 41h0"></path>
<path d="M1646 41h0"></path>
<path d="M1482 41h10"></path>
<g>
<path d="M1492 41h0"></path>
<path d="M1636 41h0"></path>
<path d="M1492 41h10"></path>
<g>
<path d="M1502 41h0"></path>
<path d="M1626 41h0"></path>
<rect x="1502" y="30" width="124" height="22"></rect>
<text x="1564" y="45">tableProperty</text>
</g>
<path d="M1626 41h10"></path>
</g>
<path d="M1636 41h10"></path>
<path d="M1492 41a10 10 0 0 0 -10 10v10a10 10 0 0 0 10 10"></path>
<g>
<path d="M1492 71h48"></path>
<path d="M1588 71h48"></path>
<path d="M1540 71h10"></path>
<g>
<path d="M1550 71h0"></path>
<path d="M1578 71h0"></path>
<rect x="1550" y="60" width="28" height="22" rx="10" ry="10"></rect>
<text x="1564" y="75">,</text>
</g>
<path d="M1578 71h10"></path>
</g>
<path d="M1636 71a10 10 0 0 0 10 -10v-10a10 10 0 0 0 -10 -10"></path>
</g>
<path d="M1646 41h10"></path>
<path d="M1656 41h10"></path>
<g>
<path d="M1666 41h0"></path>
<path d="M1694 41h0"></path>
<rect x="1666" y="30" width="28" height="22" rx="10" ry="10"></rect>
<text x="1680" y="45">)</text>
</g>
<path d="M1694 41h10"></path>
</g>
<path d="M1704 41h20"></path>
</g>
<path d="M1724 41h10"></path>
<g>
<path d="M1734 41h0"></path>
<path d="M1810 41h0"></path>
<rect x="1734" y="30" width="76" height="22" rx="10" ry="10"></rect>
<text x="1772" y="45">@break@</text>
</g>
<path d="M1810 41h10"></path>
<g>
<path d="M1820 41h0"></path>
<path d="M2300 41h0"></path>
<path d="M1820 41a10 10 0 0 0 10 -10v0a10 10 0 0 1 10 -10"></path>
<g>
<path d="M1840 21h440"></path>
</g>
<path d="M2280 21a10 10 0 0 1 10 10v0a10 10 0 0 0 10 10"></path>
<path d="M1820 41h20"></path>
<g>
<path d="M1840 41h0"></path>
<path d="M2280 41h0"></path>
<path d="M1840 41h10"></path>
<g>
<path d="M1850 41h0"></path>
<path d="M1958 41h0"></path>
<rect x="1850" y="30" width="108" height="22" rx="10" ry="10"></rect>
<text x="1904" y="45">PARTITIONED</text>
</g>
<path d="M1958 41h10"></path>
<path d="M1968 41h10"></path>
<g>
<path d="M1978 41h0"></path>
<path d="M2014 41h0"></path>
<rect x="1978" y="30" width="36" height="22" rx="10" ry="10"></rect>
<text x="1996" y="45">BY</text>
</g>
<path d="M2014 41h10"></path>
<path d="M2024 41h10"></path>
<g>
<path d="M2034 41h0"></path>
<path d="M2062 41h0"></path>
<rect x="2034" y="30" width="28" height="22" rx="10" ry="10"></rect>
<text x="2048" y="45">(</text>
</g>
<path d="M2062 41h10"></path>
<path d="M2072 41h10"></path>
<g>
<path d="M2082 41h0"></path>
<path d="M2222 41h0"></path>
<path d="M2082 41h10"></path>
<g>
<path d="M2092 41h0"></path>
<path d="M2212 41h0"></path>
<path d="M2092 41h10"></path>
<g>
<path d="M2102 41h0"></path>
<path d="M2202 41h0"></path>
<rect x="2102" y="30" width="100" height="22"></rect>
<text x="2152" y="45">identifier</text>
</g>
<path d="M2202 41h10"></path>
</g>
<path d="M2212 41h10"></path>
<path d="M2092 41a10 10 0 0 0 -10 10v10a10 10 0 0 0 10 10"></path>
<g>
<path d="M2092 71h36"></path>
<path d="M2176 71h36"></path>
<path d="M2128 71h10"></path>
<g>
<path d="M2138 71h0"></path>
<path d="M2166 71h0"></path>
<rect x="2138" y="60" width="28" height="22" rx="10" ry="10"></rect>
<text x="2152" y="75">.</text>
</g>
<path d="M2166 71h10"></path>
</g>
<path d="M2212 71a10 10 0 0 0 10 -10v-10a10 10 0 0 0 -10 -10"></path>
</g>
<path d="M2222 41h10"></path>
<path d="M2232 41h10"></path>
<g>
<path d="M2242 41h0"></path>
<path d="M2270 41h0"></path>
<rect x="2242" y="30" width="28" height="22" rx="10" ry="10"></rect>
<text x="2256" y="45">)</text>
</g>
<path d="M2270 41h10"></path>
</g>
<path d="M2280 41h20"></path>
</g>
<path d="M2300 41h10"></path>
<g>
<path d="M2310 41h0"></path>
<path d="M2386 41h0"></path>
<rect x="2310" y="30" width="76" height="22" rx="10" ry="10"></rect>
<text x="2348" y="45">@break@</text>
</g>
<path d="M2386 41h10"></path>
<path d="M2396 41h10"></path>
<g>
<path d="M2406 41h0"></path>
<path d="M2490 41h0"></path>
<rect x="2406" y="30" width="84" height="22" rx="10" ry="10"></rect>
<text x="2448" y="45">LOCATION</text>
</g>
<path d="M2490 41h10"></path>
<path d="M2500 41h10"></path>
<g>
<path d="M2510 41h0"></path>
<path d="M2578 41h0"></path>
<rect x="2510" y="30" width="68" height="22"></rect>
<text x="2544" y="45">COSURI</text>
</g>
<path d="M2578 41h10"></path>
<g>
<path d="M2588 41h0"></path>
<path d="M2812 41h0"></path>
<path d="M2588 41a10 10 0 0 0 10 -10v0a10 10 0 0 1 10 -10"></path>
<g>
<path d="M2608 21h184"></path>
</g>
<path d="M2792 21a10 10 0 0 1 10 10v0a10 10 0 0 0 10 10"></path>
<path d="M2588 41h20"></path>
<g>
<path d="M2608 41h0"></path>
<path d="M2792 41h0"></path>
<path d="M2608 41h10"></path>
<g>
<path d="M2618 41h0"></path>
<path d="M2694 41h0"></path>
<rect x="2618" y="30" width="76" height="22" rx="10" ry="10"></rect>
<text x="2656" y="45">COMMENT</text>
</g>
<path d="M2694 41h10"></path>
<path d="M2704 41h10"></path>
<g>
<path d="M2714 41h0"></path>
<path d="M2782 41h0"></path>
<rect x="2714" y="30" width="68" height="22"></rect>
<text x="2748" y="45">STRING</text>
</g>
<path d="M2782 41h10"></path>
</g>
<path d="M2792 41h20"></path>
</g>
</g>
<path d="M 2812 41 h 20 m -10 -10 v 20 m 10 -20 v 20"></path>
</g>
</svg>
