<?xml version="1.0" standalone="no"?>
<!DOCTYPE svg PUBLIC "-//W3C//DTD SVG 1.1//EN"
  "http://www.w3.org/Graphics/SVG/1.1/DTD/svg11.dtd">
<svg xmlns="http://www.w3.org/2000/svg" version="1.1" class="railroad-diagram" width="1649" height="102" viewBox="0 0 1649 102">
<defs><style type="text/css"><![CDATA[ svg.railroad-diagram {
  background-color: #ffffff;
}
svg.railroad-diagram path {
  stroke-width: 2;
  stroke: #5a6872;
  fill: none;
}
svg.railroad-diagram text {
  font-size: 14px;
  font-family: 'ibm-plex-mono', 'Menlo', 'DejaVu Sans Mono', 'Bitstream Vera Sans Mono', Courier, monospace;
  color: #152935;
  text-anchor: middle;
  cursor: pointer;
}
svg.railroad-diagram text.label {
  text-anchor: start;
}
svg.railroad-diagram text.comment {
  font-size: 12px;
}
svg.railroad-diagram rect {
  stroke-width: 2;
  stroke:  #5a6872;
  fill: #5aaafa;
}
 ]]></style></defs>
<g transform="translate(.5 .5)">
<path d="M 20 31 v 20 m 10 -20 v 20 m -10 -10 h 20.5"></path>
<g>
<path d="M40 41h0"></path>
<path d="M1608 41h0"></path>
<path d="M40 41h10"></path>
<g>
<path d="M50 41h0"></path>
<path d="M118 41h0"></path>
<rect x="50" y="30" width="68" height="22" rx="10" ry="10"></rect>
<text x="84" y="45">CREATE</text>
</g>
<path d="M118 41h10"></path>
<g>
<path d="M128 41h0"></path>
<path d="M320 41h0"></path>
<path d="M128 41a10 10 0 0 0 10 -10v0a10 10 0 0 1 10 -10"></path>
<g>
<path d="M148 21h152"></path>
</g>
<path d="M300 21a10 10 0 0 1 10 10v0a10 10 0 0 0 10 10"></path>
<path d="M128 41h20"></path>
<g>
<path d="M148 41h0"></path>
<path d="M300 41h0"></path>
<path d="M148 41h10"></path>
<g>
<path d="M158 41h0"></path>
<path d="M194 41h0"></path>
<rect x="158" y="30" width="36" height="22" rx="10" ry="10"></rect>
<text x="176" y="45">OR</text>
</g>
<path d="M194 41h10"></path>
<path d="M204 41h10"></path>
<g>
<path d="M214 41h0"></path>
<path d="M290 41h0"></path>
<rect x="214" y="30" width="76" height="22" rx="10" ry="10"></rect>
<text x="252" y="45">REPLACE</text>
</g>
<path d="M290 41h10"></path>
</g>
<path d="M300 41h20"></path>
</g>
<path d="M320 41h10"></path>
<g>
<path d="M330 41h0"></path>
<path d="M382 41h0"></path>
<rect x="330" y="30" width="52" height="22" rx="10" ry="10"></rect>
<text x="356" y="45">VIEW</text>
</g>
<path d="M382 41h10"></path>
<g>
<path d="M392 41h0"></path>
<path d="M640 41h0"></path>
<path d="M392 41a10 10 0 0 0 10 -10v0a10 10 0 0 1 10 -10"></path>
<g>
<path d="M412 21h208"></path>
</g>
<path d="M620 21a10 10 0 0 1 10 10v0a10 10 0 0 0 10 10"></path>
<path d="M392 41h20"></path>
<g>
<path d="M412 41h0"></path>
<path d="M620 41h0"></path>
<path d="M412 41h10"></path>
<g>
<path d="M422 41h0"></path>
<path d="M458 41h0"></path>
<rect x="422" y="30" width="36" height="22" rx="10" ry="10"></rect>
<text x="440" y="45">IF</text>
</g>
<path d="M458 41h10"></path>
<path d="M468 41h10"></path>
<g>
<path d="M478 41h0"></path>
<path d="M522 41h0"></path>
<rect x="478" y="30" width="44" height="22" rx="10" ry="10"></rect>
<text x="500" y="45">NOT</text>
</g>
<path d="M522 41h10"></path>
<path d="M532 41h10"></path>
<g>
<path d="M542 41h0"></path>
<path d="M610 41h0"></path>
<rect x="542" y="30" width="68" height="22" rx="10" ry="10"></rect>
<text x="576" y="45">EXISTS</text>
</g>
<path d="M610 41h10"></path>
</g>
<path d="M620 41h20"></path>
</g>
<path d="M640 41h10"></path>
<g>
<path d="M650 41h0"></path>
<path d="M790 41h0"></path>
<rect x="650" y="30" width="140" height="22"></rect>
<text x="720" y="45">tableIdentifier</text>
</g>
<path d="M790 41h10"></path>
<path d="M800 41h10"></path>
<g>
<path d="M810 41h0"></path>
<path d="M886 41h0"></path>
<rect x="810" y="30" width="76" height="22" rx="10" ry="10"></rect>
<text x="848" y="45">@break@</text>
</g>
<path d="M886 41h10"></path>
<g>
<path d="M896 41h0"></path>
<path d="M1248 41h0"></path>
<path d="M896 41a10 10 0 0 0 10 -10v0a10 10 0 0 1 10 -10"></path>
<g>
<path d="M916 21h312"></path>
</g>
<path d="M1228 21a10 10 0 0 1 10 10v0a10 10 0 0 0 10 10"></path>
<path d="M896 41h20"></path>
<g>
<path d="M916 41h0"></path>
<path d="M1228 41h0"></path>
<path d="M916 41h10"></path>
<g>
<path d="M926 41h0"></path>
<path d="M954 41h0"></path>
<rect x="926" y="30" width="28" height="22" rx="10" ry="10"></rect>
<text x="940" y="45">(</text>
</g>
<path d="M954 41h10"></path>
<path d="M964 41h10"></path>
<g>
<path d="M974 41h0"></path>
<path d="M1170 41h0"></path>
<path d="M974 41h10"></path>
<g>
<path d="M984 41h0"></path>
<path d="M1160 41h0"></path>
<path d="M984 41h10"></path>
<g>
<path d="M994 41h0"></path>
<path d="M1150 41h0"></path>
<rect x="994" y="30" width="156" height="22"></rect>
<text x="1072" y="45">identifierComment</text>
</g>
<path d="M1150 41h10"></path>
</g>
<path d="M1160 41h10"></path>
<path d="M984 41a10 10 0 0 0 -10 10v10a10 10 0 0 0 10 10"></path>
<g>
<path d="M984 71h64"></path>
<path d="M1096 71h64"></path>
<path d="M1048 71h10"></path>
<g>
<path d="M1058 71h0"></path>
<path d="M1086 71h0"></path>
<rect x="1058" y="60" width="28" height="22" rx="10" ry="10"></rect>
<text x="1072" y="75">,</text>
</g>
<path d="M1086 71h10"></path>
</g>
<path d="M1160 71a10 10 0 0 0 10 -10v-10a10 10 0 0 0 -10 -10"></path>
</g>
<path d="M1170 41h10"></path>
<path d="M1180 41h10"></path>
<g>
<path d="M1190 41h0"></path>
<path d="M1218 41h0"></path>
<rect x="1190" y="30" width="28" height="22" rx="10" ry="10"></rect>
<text x="1204" y="45">)</text>
</g>
<path d="M1218 41h10"></path>
</g>
<path d="M1228 41h20"></path>
</g>
<g>
<path d="M1248 41h0"></path>
<path d="M1472 41h0"></path>
<path d="M1248 41a10 10 0 0 0 10 -10v0a10 10 0 0 1 10 -10"></path>
<g>
<path d="M1268 21h184"></path>
</g>
<path d="M1452 21a10 10 0 0 1 10 10v0a10 10 0 0 0 10 10"></path>
<path d="M1248 41h20"></path>
<g>
<path d="M1268 41h0"></path>
<path d="M1452 41h0"></path>
<path d="M1268 41h10"></path>
<g>
<path d="M1278 41h0"></path>
<path d="M1354 41h0"></path>
<rect x="1278" y="30" width="76" height="22" rx="10" ry="10"></rect>
<text x="1316" y="45">COMMENT</text>
</g>
<path d="M1354 41h10"></path>
<path d="M1364 41h10"></path>
<g>
<path d="M1374 41h0"></path>
<path d="M1442 41h0"></path>
<rect x="1374" y="30" width="68" height="22"></rect>
<text x="1408" y="45">STRING</text>
</g>
<path d="M1442 41h10"></path>
</g>
<path d="M1452 41h20"></path>
</g>
<path d="M1472 41h10"></path>
<g>
<path d="M1482 41h0"></path>
<path d="M1518 41h0"></path>
<rect x="1482" y="30" width="36" height="22" rx="10" ry="10"></rect>
<text x="1500" y="45">AS</text>
</g>
<path d="M1518 41h10"></path>
<path d="M1528 41h10"></path>
<g>
<path d="M1538 41h0"></path>
<path d="M1598 41h0"></path>
<rect x="1538" y="30" width="60" height="22"></rect>
<text x="1568" y="45">query</text>
</g>
<path d="M1598 41h10"></path>
</g>
<path d="M 1608 41 h 20 m -10 -10 v 20 m 10 -20 v 20"></path>
</g>
</svg>
