<?xml version="1.0" standalone="no"?>
<!DOCTYPE svg PUBLIC "-//W3C//DTD SVG 1.1//EN"
  "http://www.w3.org/Graphics/SVG/1.1/DTD/svg11.dtd">
<svg xmlns="http://www.w3.org/2000/svg" version="1.1" class="railroad-diagram" width="549" height="232" viewBox="0 0 549 232">
<defs><style type="text/css"><![CDATA[ svg.railroad-diagram {
  background-color: #ffffff;
}
svg.railroad-diagram path {
  stroke-width: 2;
  stroke: #5a6872;
  fill: none;
}
svg.railroad-diagram text {
  font-size: 14px;
  font-family: 'ibm-plex-mono', 'Menlo', 'DejaVu Sans Mono', 'Bitstream Vera Sans Mono', Courier, monospace;
  color: #152935;
  text-anchor: middle;
  cursor: pointer;
}
svg.railroad-diagram text.label {
  text-anchor: start;
}
svg.railroad-diagram text.comment {
  font-size: 12px;
}
svg.railroad-diagram rect {
  stroke-width: 2;
  stroke:  #5a6872;
  fill: #5aaafa;
}
 ]]></style></defs>
<g transform="translate(.5 .5)">
<path d="M 20 21 v 20 m 10 -20 v 20 m -10 -10 h 20.5"></path>
<g>
<path d="M40 31h0"></path>
<path d="M508 31h0"></path>
<path d="M40 31h20"></path>
<g>
<path d="M60 31h74"></path>
<path d="M414 31h74"></path>
<path d="M134 31h10"></path>
<g>
<path d="M144 31h0"></path>
<path d="M204 31h0"></path>
<rect x="144" y="20" width="60" height="22" rx="10" ry="10"></rect>
<text x="174" y="35">ARRAY</text>
</g>
<path d="M204 31h10"></path>
<path d="M214 31h10"></path>
<g>
<path d="M224 31h0"></path>
<path d="M252 31h0"></path>
<rect x="224" y="20" width="28" height="22" rx="10" ry="10"></rect>
<text x="238" y="35">&#60;</text>
</g>
<path d="M252 31h10"></path>
<path d="M262 31h10"></path>
<g>
<path d="M272 31h0"></path>
<path d="M356 31h0"></path>
<rect x="272" y="20" width="84" height="22"></rect>
<text x="314" y="35">dataType</text>
</g>
<path d="M356 31h10"></path>
<path d="M366 31h10"></path>
<g>
<path d="M376 31h0"></path>
<path d="M404 31h0"></path>
<rect x="376" y="20" width="28" height="22" rx="10" ry="10"></rect>
<text x="390" y="35">></text>
</g>
<path d="M404 31h10"></path>
</g>
<path d="M488 31h20"></path>
<path d="M40 31a10 10 0 0 1 10 10v10a10 10 0 0 0 10 10"></path>
<g>
<path d="M60 61h6"></path>
<path d="M482 61h6"></path>
<path d="M66 61h10"></path>
<g>
<path d="M76 61h0"></path>
<path d="M120 61h0"></path>
<rect x="76" y="50" width="44" height="22" rx="10" ry="10"></rect>
<text x="98" y="65">MAP</text>
</g>
<path d="M120 61h10"></path>
<path d="M130 61h10"></path>
<g>
<path d="M140 61h0"></path>
<path d="M168 61h0"></path>
<rect x="140" y="50" width="28" height="22" rx="10" ry="10"></rect>
<text x="154" y="65">&#60;</text>
</g>
<path d="M168 61h10"></path>
<path d="M178 61h10"></path>
<g>
<path d="M188 61h0"></path>
<path d="M272 61h0"></path>
<rect x="188" y="50" width="84" height="22"></rect>
<text x="230" y="65">dataType</text>
</g>
<path d="M272 61h10"></path>
<path d="M282 61h10"></path>
<g>
<path d="M292 61h0"></path>
<path d="M320 61h0"></path>
<rect x="292" y="50" width="28" height="22" rx="10" ry="10"></rect>
<text x="306" y="65">,</text>
</g>
<path d="M320 61h10"></path>
<path d="M330 61h10"></path>
<g>
<path d="M340 61h0"></path>
<path d="M424 61h0"></path>
<rect x="340" y="50" width="84" height="22"></rect>
<text x="382" y="65">dataType</text>
</g>
<path d="M424 61h10"></path>
<path d="M434 61h10"></path>
<g>
<path d="M444 61h0"></path>
<path d="M472 61h0"></path>
<rect x="444" y="50" width="28" height="22" rx="10" ry="10"></rect>
<text x="458" y="65">></text>
</g>
<path d="M472 61h10"></path>
</g>
<path d="M488 61a10 10 0 0 0 10 -10v-10a10 10 0 0 1 10 -10"></path>
<path d="M40 31a10 10 0 0 1 10 10v50a10 10 0 0 0 10 10"></path>
<g>
<path d="M60 101h0"></path>
<path d="M488 101h0"></path>
<path d="M60 101h10"></path>
<g>
<path d="M70 101h0"></path>
<path d="M138 101h0"></path>
<rect x="70" y="90" width="68" height="22" rx="10" ry="10"></rect>
<text x="104" y="105">STRUCT</text>
</g>
<path d="M138 101h10"></path>
<g>
<path d="M148 101h0"></path>
<path d="M488 101h0"></path>
<path d="M148 101h20"></path>
<g>
<path d="M168 101h0"></path>
<path d="M468 101h0"></path>
<path d="M168 101h10"></path>
<g>
<path d="M178 101h0"></path>
<path d="M206 101h0"></path>
<rect x="178" y="90" width="28" height="22" rx="10" ry="10"></rect>
<text x="192" y="105">&#60;</text>
</g>
<path d="M206 101h10"></path>
<g>
<path d="M216 101h0"></path>
<path d="M420 101h0"></path>
<path d="M216 101a10 10 0 0 0 10 -10v0a10 10 0 0 1 10 -10"></path>
<g>
<path d="M236 81h164"></path>
</g>
<path d="M400 81a10 10 0 0 1 10 10v0a10 10 0 0 0 10 10"></path>
<path d="M216 101h20"></path>
<g>
<path d="M236 101h0"></path>
<path d="M400 101h0"></path>
<rect x="236" y="90" width="164" height="22"></rect>
<text x="318" y="105">complexColTypeList</text>
</g>
<path d="M400 101h20"></path>
</g>
<path d="M420 101h10"></path>
<g>
<path d="M430 101h0"></path>
<path d="M458 101h0"></path>
<rect x="430" y="90" width="28" height="22" rx="10" ry="10"></rect>
<text x="444" y="105">></text>
</g>
<path d="M458 101h10"></path>
</g>
<path d="M468 101h20"></path>
<path d="M148 101a10 10 0 0 1 10 10v10a10 10 0 0 0 10 10"></path>
<g>
<path d="M168 131h132"></path>
<path d="M336 131h132"></path>
<rect x="300" y="120" width="36" height="22" rx="10" ry="10"></rect>
<text x="318" y="135">&#60;></text>
</g>
<path d="M468 131a10 10 0 0 0 10 -10v-10a10 10 0 0 1 10 -10"></path>
</g>
</g>
<path d="M488 101a10 10 0 0 0 10 -10v-50a10 10 0 0 1 10 -10"></path>
<path d="M40 31a10 10 0 0 1 10 10v120a10 10 0 0 0 10 10"></path>
<g>
<path d="M60 171h22"></path>
<path d="M466 171h22"></path>
<path d="M82 171h10"></path>
<g>
<path d="M92 171h0"></path>
<path d="M192 171h0"></path>
<rect x="92" y="160" width="100" height="22"></rect>
<text x="142" y="175">identifier</text>
</g>
<path d="M192 171h10"></path>
<g>
<path d="M202 171h0"></path>
<path d="M466 171h0"></path>
<path d="M202 171a10 10 0 0 0 10 -10v0a10 10 0 0 1 10 -10"></path>
<g>
<path d="M222 151h224"></path>
</g>
<path d="M446 151a10 10 0 0 1 10 10v0a10 10 0 0 0 10 10"></path>
<path d="M202 171h20"></path>
<g>
<path d="M222 171h0"></path>
<path d="M446 171h0"></path>
<path d="M222 171h10"></path>
<g>
<path d="M232 171h0"></path>
<path d="M260 171h0"></path>
<rect x="232" y="160" width="28" height="22" rx="10" ry="10"></rect>
<text x="246" y="175">(</text>
</g>
<path d="M260 171h10"></path>
<path d="M270 171h10"></path>
<g>
<path d="M280 171h0"></path>
<path d="M388 171h0"></path>
<path d="M280 171h10"></path>
<g>
<path d="M290 171h0"></path>
<path d="M378 171h0"></path>
<path d="M290 171h10"></path>
<g>
<path d="M300 171h0"></path>
<path d="M368 171h0"></path>
<rect x="300" y="160" width="68" height="22"></rect>
<text x="334" y="175">number</text>
</g>
<path d="M368 171h10"></path>
</g>
<path d="M378 171h10"></path>
<path d="M290 171a10 10 0 0 0 -10 10v10a10 10 0 0 0 10 10"></path>
<g>
<path d="M290 201h20"></path>
<path d="M358 201h20"></path>
<path d="M310 201h10"></path>
<g>
<path d="M320 201h0"></path>
<path d="M348 201h0"></path>
<rect x="320" y="190" width="28" height="22" rx="10" ry="10"></rect>
<text x="334" y="205">,</text>
</g>
<path d="M348 201h10"></path>
</g>
<path d="M378 201a10 10 0 0 0 10 -10v-10a10 10 0 0 0 -10 -10"></path>
</g>
<path d="M388 171h10"></path>
<path d="M398 171h10"></path>
<g>
<path d="M408 171h0"></path>
<path d="M436 171h0"></path>
<rect x="408" y="160" width="28" height="22" rx="10" ry="10"></rect>
<text x="422" y="175">)</text>
</g>
<path d="M436 171h10"></path>
</g>
<path d="M446 171h20"></path>
</g>
</g>
<path d="M488 171a10 10 0 0 0 10 -10v-120a10 10 0 0 1 10 -10"></path>
</g>
<path d="M 508 31 h 20 m -10 -10 v 20 m 10 -20 v 20"></path>
</g>
</svg>
