<?xml version="1.0" standalone="no"?>
<!DOCTYPE svg PUBLIC "-//W3C//DTD SVG 1.1//EN"
  "http://www.w3.org/Graphics/SVG/1.1/DTD/svg11.dtd">
<svg xmlns="http://www.w3.org/2000/svg" version="1.1" class="railroad-diagram" width="301" height="212" viewBox="0 0 301 212">
<defs><style type="text/css"><![CDATA[ svg.railroad-diagram {
  background-color: #ffffff;
}
svg.railroad-diagram path {
  stroke-width: 2;
  stroke: #5a6872;
  fill: none;
}
svg.railroad-diagram text {
  font-size: 14px;
  font-family: 'ibm-plex-mono', 'Menlo', 'DejaVu Sans Mono', 'Bitstream Vera Sans Mono', Courier, monospace;
  color: #152935;
  text-anchor: middle;
  cursor: pointer;
}
svg.railroad-diagram text.label {
  text-anchor: start;
}
svg.railroad-diagram text.comment {
  font-size: 12px;
}
svg.railroad-diagram rect {
  stroke-width: 2;
  stroke:  #5a6872;
  fill: #5aaafa;
}
 ]]></style></defs>
<g transform="translate(.5 .5)">
<path d="M 20 21 v 20 m 10 -20 v 20 m -10 -10 h 20.5"></path>
<g>
<path d="M40 31h0"></path>
<path d="M260 31h0"></path>
<path d="M40 31h20"></path>
<g>
<path d="M60 31h36"></path>
<path d="M204 31h36"></path>
<rect x="96" y="20" width="108" height="22"></rect>
<text x="150" y="35">createTable</text>
</g>
<path d="M240 31h20"></path>
<path d="M40 31a10 10 0 0 1 10 10v10a10 10 0 0 0 10 10"></path>
<g>
<path d="M60 61h40"></path>
<path d="M200 61h40"></path>
<rect x="100" y="50" width="100" height="22"></rect>
<text x="150" y="65">createView</text>
</g>
<path d="M240 61a10 10 0 0 0 10 -10v-10a10 10 0 0 1 10 -10"></path>
<path d="M40 31a10 10 0 0 1 10 10v40a10 10 0 0 0 10 10"></path>
<g>
<path d="M60 91h32"></path>
<path d="M208 91h32"></path>
<rect x="92" y="80" width="116" height="22"></rect>
<text x="150" y="95">analyzeTable</text>
</g>
<path d="M240 91a10 10 0 0 0 10 -10v-40a10 10 0 0 1 10 -10"></path>
<path d="M40 31a10 10 0 0 1 10 10v70a10 10 0 0 0 10 10"></path>
<g>
<path d="M60 121h0"></path>
<path d="M240 121h0"></path>
<rect x="60" y="110" width="180" height="22"></rect>
<text x="150" y="125">alterTablePartitions</text>
</g>
<path d="M240 121a10 10 0 0 0 10 -10v-70a10 10 0 0 1 10 -10"></path>
<path d="M40 31a10 10 0 0 1 10 10v100a10 10 0 0 0 10 10"></path>
<g>
<path d="M60 151h44"></path>
<path d="M196 151h44"></path>
<rect x="104" y="140" width="92" height="22"></rect>
<text x="150" y="155">dropTable</text>
</g>
<path d="M240 151a10 10 0 0 0 10 -10v-100a10 10 0 0 1 10 -10"></path>
<path d="M40 31a10 10 0 0 1 10 10v130a10 10 0 0 0 10 10"></path>
<g>
<path d="M60 181h48"></path>
<path d="M192 181h48"></path>
<rect x="108" y="170" width="84" height="22"></rect>
<text x="150" y="185">dropView</text>
</g>
<path d="M240 181a10 10 0 0 0 10 -10v-130a10 10 0 0 1 10 -10"></path>
</g>
<path d="M 260 31 h 20 m -10 -10 v 20 m 10 -20 v 20"></path>
</g>
</svg>
