<?xml version="1.0" standalone="no"?>
<!DOCTYPE svg PUBLIC "-//W3C//DTD SVG 1.1//EN"
  "http://www.w3.org/Graphics/SVG/1.1/DTD/svg11.dtd">
<svg xmlns="http://www.w3.org/2000/svg" version="1.1" class="railroad-diagram" width="277" height="152" viewBox="0 0 277 152">
<defs><style type="text/css"><![CDATA[ svg.railroad-diagram {
  background-color: #ffffff;
}
svg.railroad-diagram path {
  stroke-width: 2;
  stroke: #5a6872;
  fill: none;
}
svg.railroad-diagram text {
  font-size: 14px;
  font-family: 'ibm-plex-mono', 'Menlo', 'DejaVu Sans Mono', 'Bitstream Vera Sans Mono', Courier, monospace;
  color: #152935;
  text-anchor: middle;
  cursor: pointer;
}
svg.railroad-diagram text.label {
  text-anchor: start;
}
svg.railroad-diagram text.comment {
  font-size: 12px;
}
svg.railroad-diagram rect {
  stroke-width: 2;
  stroke:  #5a6872;
  fill: #5aaafa;
}
 ]]></style></defs>
<g transform="translate(.5 .5)">
<path d="M 20 21 v 20 m 10 -20 v 20 m -10 -10 h 20.5"></path>
<g>
<path d="M40 31h0"></path>
<path d="M236 31h0"></path>
<path d="M40 31h20"></path>
<g>
<path d="M60 31h28"></path>
<path d="M188 31h28"></path>
<rect x="88" y="20" width="100" height="22"></rect>
<text x="138" y="35">showTables</text>
</g>
<path d="M216 31h20"></path>
<path d="M40 31a10 10 0 0 1 10 10v10a10 10 0 0 0 10 10"></path>
<g>
<path d="M60 61h12"></path>
<path d="M204 61h12"></path>
<rect x="72" y="50" width="132" height="22"></rect>
<text x="138" y="65">showPartitions</text>
</g>
<path d="M216 61a10 10 0 0 0 10 -10v-10a10 10 0 0 1 10 -10"></path>
<path d="M40 31a10 10 0 0 1 10 10v40a10 10 0 0 0 10 10"></path>
<g>
<path d="M60 91h0"></path>
<path d="M216 91h0"></path>
<rect x="60" y="80" width="156" height="22"></rect>
<text x="138" y="95">showTblProperties</text>
</g>
<path d="M216 91a10 10 0 0 0 10 -10v-40a10 10 0 0 1 10 -10"></path>
<path d="M40 31a10 10 0 0 1 10 10v70a10 10 0 0 0 10 10"></path>
<g>
<path d="M60 121h16"></path>
<path d="M200 121h16"></path>
<rect x="76" y="110" width="124" height="22"></rect>
<text x="138" y="125">describeTable</text>
</g>
<path d="M216 121a10 10 0 0 0 10 -10v-70a10 10 0 0 1 10 -10"></path>
</g>
<path d="M 236 31 h 20 m -10 -10 v 20 m 10 -20 v 20"></path>
</g>
</svg>
