<?xml version="1.0" standalone="no"?>
<!DOCTYPE svg PUBLIC "-//W3C//DTD SVG 1.1//EN"
  "http://www.w3.org/Graphics/SVG/1.1/DTD/svg11.dtd">
<svg xmlns="http://www.w3.org/2000/svg" version="1.1" class="railroad-diagram" width="789" height="102" viewBox="0 0 789 102">
<defs><style type="text/css"><![CDATA[ svg.railroad-diagram {
  background-color: #ffffff;
}
svg.railroad-diagram path {
  stroke-width: 2;
  stroke: #5a6872;
  fill: none;
}
svg.railroad-diagram text {
  font-size: 14px;
  font-family: 'ibm-plex-mono', 'Menlo', 'DejaVu Sans Mono', 'Bitstream Vera Sans Mono', Courier, monospace;
  color: #152935;
  text-anchor: middle;
  cursor: pointer;
}
svg.railroad-diagram text.label {
  text-anchor: start;
}
svg.railroad-diagram text.comment {
  font-size: 12px;
}
svg.railroad-diagram rect {
  stroke-width: 2;
  stroke:  #5a6872;
  fill: #5aaafa;
}
 ]]></style></defs>
<g transform="translate(.5 .5)">
<path d="M 20 31 v 20 m 10 -20 v 20 m -10 -10 h 20.5"></path>
<g>
<path d="M40 41h0"></path>
<path d="M748 41h0"></path>
<path d="M40 41h10"></path>
<g>
<path d="M50 41h0"></path>
<path d="M134 41h0"></path>
<rect x="50" y="30" width="84" height="22" rx="10" ry="10"></rect>
<text x="92" y="45">DESCRIBE</text>
</g>
<path d="M134 41h10"></path>
<path d="M144 41h10"></path>
<g>
<path d="M154 41h0"></path>
<path d="M214 41h0"></path>
<rect x="154" y="30" width="60" height="22" rx="10" ry="10"></rect>
<text x="184" y="45">TABLE</text>
</g>
<path d="M214 41h10"></path>
<path d="M224 41h10"></path>
<g>
<path d="M234 41h0"></path>
<path d="M374 41h0"></path>
<rect x="234" y="30" width="140" height="22"></rect>
<text x="304" y="45">tableIdentifier</text>
</g>
<path d="M374 41h10"></path>
<g>
<path d="M384 41h0"></path>
<path d="M548 41h0"></path>
<path d="M384 41a10 10 0 0 0 10 -10v0a10 10 0 0 1 10 -10"></path>
<g>
<path d="M404 21h124"></path>
</g>
<path d="M528 21a10 10 0 0 1 10 10v0a10 10 0 0 0 10 10"></path>
<path d="M384 41h20"></path>
<g>
<path d="M404 41h0"></path>
<path d="M528 41h0"></path>
<rect x="404" y="30" width="124" height="22"></rect>
<text x="466" y="45">partitionSpec</text>
</g>
<path d="M528 41h20"></path>
</g>
<g>
<path d="M548 41h0"></path>
<path d="M748 41h0"></path>
<path d="M548 41a10 10 0 0 0 10 -10v0a10 10 0 0 1 10 -10"></path>
<g>
<path d="M568 21h160"></path>
</g>
<path d="M728 21a10 10 0 0 1 10 10v0a10 10 0 0 0 10 10"></path>
<path d="M548 41h20"></path>
<g>
<path d="M568 41h0"></path>
<path d="M728 41h0"></path>
<path d="M568 41h10"></path>
<g>
<path d="M578 41h0"></path>
<path d="M718 41h0"></path>
<path d="M578 41h10"></path>
<g>
<path d="M588 41h0"></path>
<path d="M708 41h0"></path>
<path d="M588 41h10"></path>
<g>
<path d="M598 41h0"></path>
<path d="M698 41h0"></path>
<rect x="598" y="30" width="100" height="22"></rect>
<text x="648" y="45">identifier</text>
</g>
<path d="M698 41h10"></path>
</g>
<path d="M708 41h10"></path>
<path d="M588 41a10 10 0 0 0 -10 10v10a10 10 0 0 0 10 10"></path>
<g>
<path d="M588 71h36"></path>
<path d="M672 71h36"></path>
<path d="M624 71h10"></path>
<g>
<path d="M634 71h0"></path>
<path d="M662 71h0"></path>
<rect x="634" y="60" width="28" height="22" rx="10" ry="10"></rect>
<text x="648" y="75">.</text>
</g>
<path d="M662 71h10"></path>
</g>
<path d="M708 71a10 10 0 0 0 10 -10v-10a10 10 0 0 0 -10 -10"></path>
</g>
<path d="M718 41h10"></path>
</g>
<path d="M728 41h20"></path>
</g>
</g>
<path d="M 748 41 h 20 m -10 -10 v 20 m 10 -20 v 20"></path>
</g>
</svg>
