<?xml version="1.0" standalone="no"?>
<!DOCTYPE svg PUBLIC "-//W3C//DTD SVG 1.1//EN"
  "http://www.w3.org/Graphics/SVG/1.1/DTD/svg11.dtd">
<svg xmlns="http://www.w3.org/2000/svg" version="1.1" class="railroad-diagram" width="1429" height="112" viewBox="0 0 1429 112">
<defs><style type="text/css"><![CDATA[ svg.railroad-diagram {
  background-color: #ffffff;
}
svg.railroad-diagram path {
  stroke-width: 2;
  stroke: #5a6872;
  fill: none;
}
svg.railroad-diagram text {
  font-size: 14px;
  font-family: 'ibm-plex-mono', 'Menlo', 'DejaVu Sans Mono', 'Bitstream Vera Sans Mono', Courier, monospace;
  color: #152935;
  text-anchor: middle;
  cursor: pointer;
}
svg.railroad-diagram text.label {
  text-anchor: start;
}
svg.railroad-diagram text.comment {
  font-size: 12px;
}
svg.railroad-diagram rect {
  stroke-width: 2;
  stroke:  #5a6872;
  fill: #5aaafa;
}
 ]]></style></defs>
<g transform="translate(.5 .5)">
<path d="M 20 41 v 20 m 10 -20 v 20 m -10 -10 h 20.5"></path>
<g>
<path d="M40 51h0"></path>
<path d="M1388 51h0"></path>
<g>
<path d="M40 51h0"></path>
<path d="M204 51h0"></path>
<path d="M40 51h20"></path>
<g>
<path d="M60 51h16"></path>
<path d="M168 51h16"></path>
<rect x="76" y="40" width="92" height="22"></rect>
<text x="122" y="55">CRN&#95;TABLE</text>
</g>
<path d="M184 51h20"></path>
<path d="M40 51a10 10 0 0 1 10 10v10a10 10 0 0 0 10 10"></path>
<g>
<path d="M60 81h0"></path>
<path d="M184 81h0"></path>
<rect x="60" y="70" width="124" height="22"></rect>
<text x="122" y="85">DB2&#95;TABLE&#95;URI</text>
</g>
<path d="M184 81a10 10 0 0 0 10 -10v-10a10 10 0 0 1 10 -10"></path>
</g>
<g>
<path d="M204 51h0"></path>
<path d="M1388 51h0"></path>
<path d="M204 51a10 10 0 0 0 10 -10v-9a10 10 0 0 1 10 -10"></path>
<g>
<path d="M224 22h1144"></path>
</g>
<path d="M1368 22a10 10 0 0 1 10 10v9a10 10 0 0 0 10 10"></path>
<path d="M204 51h20"></path>
<g>
<path d="M224 51h0"></path>
<path d="M1368 51h0"></path>
<g>
<path d="M224 51h0"></path>
<path d="M316 51h0"></path>
<path d="M224 51a10 10 0 0 0 10 -10v0a10 10 0 0 1 10 -10"></path>
<g>
<path d="M244 31h52"></path>
</g>
<path d="M296 31a10 10 0 0 1 10 10v0a10 10 0 0 0 10 10"></path>
<path d="M224 51h20"></path>
<g>
<path d="M244 51h0"></path>
<path d="M296 51h0"></path>
<rect x="244" y="40" width="52" height="22" rx="10" ry="10"></rect>
<text x="270" y="55">WITH</text>
</g>
<path d="M296 51h20"></path>
</g>
<path d="M316 51h10"></path>
<g>
<path d="M326 51h0"></path>
<path d="M434 51h0"></path>
<rect x="326" y="40" width="108" height="22" rx="10" ry="10"></rect>
<text x="380" y="55">PARALLELISM</text>
</g>
<path d="M434 51h10"></path>
<path d="M444 51h10"></path>
<g>
<path d="M454 51h0"></path>
<path d="M594 51h0"></path>
<rect x="454" y="40" width="140" height="22"></rect>
<text x="524" y="55">unsignedInteger</text>
</g>
<path d="M594 51h10"></path>
<path d="M604 51h10"></path>
<g>
<path d="M614 51h0"></path>
<path d="M650 51h0"></path>
<rect x="614" y="40" width="36" height="22" rx="10" ry="10"></rect>
<text x="632" y="55">ON</text>
</g>
<path d="M650 51h10"></path>
<g>
<path d="M660 51h0"></path>
<path d="M768 51h0"></path>
<path d="M660 51a10 10 0 0 0 10 -10v0a10 10 0 0 1 10 -10"></path>
<g>
<path d="M680 31h68"></path>
</g>
<path d="M748 31a10 10 0 0 1 10 10v0a10 10 0 0 0 10 10"></path>
<path d="M660 51h20"></path>
<g>
<path d="M680 51h0"></path>
<path d="M748 51h0"></path>
<rect x="680" y="40" width="68" height="22" rx="10" ry="10"></rect>
<text x="714" y="55">COLUMN</text>
</g>
<path d="M748 51h20"></path>
</g>
<path d="M768 51h10"></path>
<g>
<path d="M778 51h0"></path>
<path d="M878 51h0"></path>
<rect x="778" y="40" width="100" height="22"></rect>
<text x="828" y="55">expression</text>
</g>
<path d="M878 51h10"></path>
<path d="M888 51h10"></path>
<g>
<path d="M898 51h0"></path>
<path d="M974 51h0"></path>
<rect x="898" y="40" width="76" height="22" rx="10" ry="10"></rect>
<text x="936" y="55">BETWEEN</text>
</g>
<path d="M974 51h10"></path>
<path d="M984 51h10"></path>
<g>
<path d="M994 51h0"></path>
<path d="M1134 51h0"></path>
<rect x="994" y="40" width="140" height="22"></rect>
<text x="1064" y="55">unsignedInteger</text>
</g>
<path d="M1134 51h10"></path>
<path d="M1144 51h10"></path>
<g>
<path d="M1154 51h0"></path>
<path d="M1198 51h0"></path>
<rect x="1154" y="40" width="44" height="22" rx="10" ry="10"></rect>
<text x="1176" y="55">AND</text>
</g>
<path d="M1198 51h10"></path>
<path d="M1208 51h10"></path>
<g>
<path d="M1218 51h0"></path>
<path d="M1358 51h0"></path>
<rect x="1218" y="40" width="140" height="22"></rect>
<text x="1288" y="55">unsignedInteger</text>
</g>
<path d="M1358 51h10"></path>
</g>
<path d="M1368 51h20"></path>
</g>
</g>
<path d="M 1388 51 h 20 m -10 -10 v 20 m 10 -20 v 20"></path>
</g>
</svg>
