<?xml version="1.0" standalone="no"?>
<!DOCTYPE svg PUBLIC "-//W3C//DTD SVG 1.1//EN"
  "http://www.w3.org/Graphics/SVG/1.1/DTD/svg11.dtd">
<svg xmlns="http://www.w3.org/2000/svg" version="1.1" class="railroad-diagram" width="1017" height="272" viewBox="0 0 1017 272">
<defs><style type="text/css"><![CDATA[ svg.railroad-diagram {
  background-color: #ffffff;
}
svg.railroad-diagram path {
  stroke-width: 2;
  stroke: #5a6872;
  fill: none;
}
svg.railroad-diagram text {
  font-size: 14px;
  font-family: 'ibm-plex-mono', 'Menlo', 'DejaVu Sans Mono', 'Bitstream Vera Sans Mono', Courier, monospace;
  color: #152935;
  text-anchor: middle;
  cursor: pointer;
}
svg.railroad-diagram text.label {
  text-anchor: start;
}
svg.railroad-diagram text.comment {
  font-size: 12px;
}
svg.railroad-diagram rect {
  stroke-width: 2;
  stroke:  #5a6872;
  fill: #5aaafa;
}
 ]]></style></defs>
<g transform="translate(.5 .5)">
<path d="M 20 31 v 20 m 10 -20 v 20 m -10 -10 h 20.5"></path>
<g>
<path d="M40 41h0"></path>
<path d="M976 41h0"></path>
<path d="M40 41h20"></path>
<g>
<path d="M60 41h0"></path>
<path d="M956 41h0"></path>
<path d="M60 41h10"></path>
<g>
<path d="M70 41h0"></path>
<path d="M138 41h0"></path>
<rect x="70" y="30" width="68" height="22"></rect>
<text x="104" y="45">COSURI</text>
</g>
<path d="M138 41h10"></path>
<g>
<path d="M148 41h0"></path>
<path d="M956 41h0"></path>
<path d="M148 41a10 10 0 0 0 10 -10v0a10 10 0 0 1 10 -10"></path>
<g>
<path d="M168 21h768"></path>
</g>
<path d="M936 21a10 10 0 0 1 10 10v0a10 10 0 0 0 10 10"></path>
<path d="M148 41h20"></path>
<g>
<path d="M168 41h0"></path>
<path d="M936 41h0"></path>
<path d="M168 41h10"></path>
<g>
<path d="M178 41h0"></path>
<path d="M246 41h0"></path>
<rect x="178" y="30" width="68" height="22" rx="10" ry="10"></rect>
<text x="212" y="45">STORED</text>
</g>
<path d="M246 41h10"></path>
<path d="M256 41h10"></path>
<g>
<path d="M266 41h0"></path>
<path d="M302 41h0"></path>
<rect x="266" y="30" width="36" height="22" rx="10" ry="10"></rect>
<text x="284" y="45">AS</text>
</g>
<path d="M302 41h10"></path>
<g>
<path d="M312 41h0"></path>
<path d="M936 41h0"></path>
<path d="M312 41h20"></path>
<g>
<path d="M332 41h266"></path>
<path d="M650 41h266"></path>
<rect x="598" y="30" width="52" height="22" rx="10" ry="10"></rect>
<text x="624" y="45">AVRO</text>
</g>
<path d="M916 41h20"></path>
<path d="M312 41a10 10 0 0 1 10 10v20a10 10 0 0 0 10 10"></path>
<g>
<path d="M332 81h0"></path>
<path d="M916 81h0"></path>
<g>
<path d="M332 81h0"></path>
<path d="M456 81h0"></path>
<path d="M332 81h20"></path>
<g>
<path d="M352 81h20"></path>
<path d="M416 81h20"></path>
<rect x="372" y="70" width="44" height="22" rx="10" ry="10"></rect>
<text x="394" y="85">CSV</text>
</g>
<path d="M436 81h20"></path>
<path d="M332 81a10 10 0 0 1 10 10v10a10 10 0 0 0 10 10"></path>
<g>
<path d="M352 111h0"></path>
<path d="M436 111h0"></path>
<rect x="352" y="100" width="84" height="22" rx="10" ry="10"></rect>
<text x="394" y="115">TEXTFILE</text>
</g>
<path d="M436 111a10 10 0 0 0 10 -10v-10a10 10 0 0 1 10 -10"></path>
</g>
<g>
<path d="M456 81h0"></path>
<path d="M792 81h0"></path>
<path d="M456 81a10 10 0 0 0 10 -10v0a10 10 0 0 1 10 -10"></path>
<g>
<path d="M476 61h296"></path>
</g>
<path d="M772 61a10 10 0 0 1 10 10v0a10 10 0 0 0 10 10"></path>
<path d="M456 81h20"></path>
<g>
<path d="M476 81h0"></path>
<path d="M772 81h0"></path>
<path d="M476 81h10"></path>
<g>
<path d="M486 81h0"></path>
<path d="M674 81h0"></path>
<rect x="486" y="70" width="188" height="22" rx="10" ry="10"></rect>
<text x="580" y="85">FIELDS TERMINATED BY </text>
</g>
<path d="M674 81h10"></path>
<path d="M684 81h10"></path>
<g>
<path d="M694 81h0"></path>
<path d="M762 81h0"></path>
<rect x="694" y="70" width="68" height="22"></rect>
<text x="728" y="85">STRING</text>
</g>
<path d="M762 81h10"></path>
</g>
<path d="M772 81h20"></path>
</g>
<g>
<path d="M792 81h0"></path>
<path d="M916 81h0"></path>
<path d="M792 81a10 10 0 0 0 10 -10v0a10 10 0 0 1 10 -10"></path>
<g>
<path d="M812 61h84"></path>
</g>
<path d="M896 61a10 10 0 0 1 10 10v0a10 10 0 0 0 10 10"></path>
<path d="M792 81h20"></path>
<g>
<path d="M812 81h0"></path>
<path d="M896 81h0"></path>
<rect x="812" y="70" width="84" height="22" rx="10" ry="10"></rect>
<text x="854" y="85">NOHEADER</text>
</g>
<path d="M896 81h20"></path>
</g>
</g>
<path d="M916 81a10 10 0 0 0 10 -10v-20a10 10 0 0 1 10 -10"></path>
<path d="M312 41a10 10 0 0 1 10 10v80a10 10 0 0 0 10 10"></path>
<g>
<path d="M332 141h266"></path>
<path d="M650 141h266"></path>
<rect x="598" y="130" width="52" height="22" rx="10" ry="10"></rect>
<text x="624" y="145">JSON</text>
</g>
<path d="M916 141a10 10 0 0 0 10 -10v-80a10 10 0 0 1 10 -10"></path>
<path d="M312 41a10 10 0 0 1 10 10v110a10 10 0 0 0 10 10"></path>
<g>
<path d="M332 171h270"></path>
<path d="M646 171h270"></path>
<rect x="602" y="160" width="44" height="22" rx="10" ry="10"></rect>
<text x="624" y="175">ORC</text>
</g>
<path d="M916 171a10 10 0 0 0 10 -10v-110a10 10 0 0 1 10 -10"></path>
<path d="M312 41a10 10 0 0 1 10 10v150a10 10 0 0 0 10 10"></path>
<g>
<path d="M332 211h166"></path>
<path d="M750 211h166"></path>
<path d="M498 211h10"></path>
<g>
<path d="M508 211h0"></path>
<path d="M584 211h0"></path>
<rect x="508" y="200" width="76" height="22" rx="10" ry="10"></rect>
<text x="546" y="215">PARQUET</text>
</g>
<path d="M584 211h10"></path>
<g>
<path d="M594 211h0"></path>
<path d="M750 211h0"></path>
<path d="M594 211a10 10 0 0 0 10 -10v0a10 10 0 0 1 10 -10"></path>
<g>
<path d="M614 191h116"></path>
</g>
<path d="M730 191a10 10 0 0 1 10 10v0a10 10 0 0 0 10 10"></path>
<path d="M594 211h20"></path>
<g>
<path d="M614 211h0"></path>
<path d="M730 211h0"></path>
<rect x="614" y="200" width="116" height="22" rx="10" ry="10"></rect>
<text x="672" y="215">MERGE SCHEMA</text>
</g>
<path d="M730 211h20"></path>
</g>
</g>
<path d="M916 211a10 10 0 0 0 10 -10v-150a10 10 0 0 1 10 -10"></path>
</g>
</g>
<path d="M936 41h20"></path>
</g>
</g>
<path d="M956 41h20"></path>
<path d="M40 41a10 10 0 0 1 10 10v180a10 10 0 0 0 10 10"></path>
<g>
<path d="M60 241h374"></path>
<path d="M582 241h374"></path>
<rect x="434" y="230" width="148" height="22"></rect>
<text x="508" y="245">tableTransformer</text>
</g>
<path d="M956 241a10 10 0 0 0 10 -10v-180a10 10 0 0 1 10 -10"></path>
</g>
<path d="M 976 41 h 20 m -10 -10 v 20 m 10 -20 v 20"></path>
</g>
</svg>
