<?xml version="1.0" standalone="no"?>
<!DOCTYPE svg PUBLIC "-//W3C//DTD SVG 1.1//EN"
  "http://www.w3.org/Graphics/SVG/1.1/DTD/svg11.dtd">
<svg xmlns="http://www.w3.org/2000/svg" version="1.1" class="railroad-diagram" width="373" height="182" viewBox="0 0 373 182">
<defs><style type="text/css"><![CDATA[ svg.railroad-diagram {
  background-color: #ffffff;
}
svg.railroad-diagram path {
  stroke-width: 2;
  stroke: #5a6872;
  fill: none;
}
svg.railroad-diagram text {
  font-size: 14px;
  font-family: 'ibm-plex-mono', 'Menlo', 'DejaVu Sans Mono', 'Bitstream Vera Sans Mono', Courier, monospace;
  color: #152935;
  text-anchor: middle;
  cursor: pointer;
}
svg.railroad-diagram text.label {
  text-anchor: start;
}
svg.railroad-diagram text.comment {
  font-size: 12px;
}
svg.railroad-diagram rect {
  stroke-width: 2;
  stroke:  #5a6872;
  fill: #5aaafa;
}
 ]]></style></defs>
<g transform="translate(.5 .5)">
<path d="M 20 21 v 20 m 10 -20 v 20 m -10 -10 h 20.5"></path>
<g>
<path d="M40 31h0"></path>
<path d="M332 31h0"></path>
<path d="M40 31h20"></path>
<g>
<path d="M60 31h4"></path>
<path d="M308 31h4"></path>
<path d="M64 31h10"></path>
<g>
<path d="M74 31h0"></path>
<path d="M166 31h0"></path>
<rect x="74" y="20" width="92" height="22" rx="10" ry="10"></rect>
<text x="120" y="35">UNBOUNDED</text>
</g>
<path d="M166 31h10"></path>
<g>
<path d="M176 31h0"></path>
<path d="M308 31h0"></path>
<path d="M176 31h20"></path>
<g>
<path d="M196 31h0"></path>
<path d="M288 31h0"></path>
<rect x="196" y="20" width="92" height="22" rx="10" ry="10"></rect>
<text x="242" y="35">PRECEDING</text>
</g>
<path d="M288 31h20"></path>
<path d="M176 31a10 10 0 0 1 10 10v10a10 10 0 0 0 10 10"></path>
<g>
<path d="M196 61h0"></path>
<path d="M288 61h0"></path>
<rect x="196" y="50" width="92" height="22" rx="10" ry="10"></rect>
<text x="242" y="65">FOLLOWING</text>
</g>
<path d="M288 61a10 10 0 0 0 10 -10v-10a10 10 0 0 1 10 -10"></path>
</g>
</g>
<path d="M312 31h20"></path>
<path d="M40 31a10 10 0 0 1 10 10v40a10 10 0 0 0 10 10"></path>
<g>
<path d="M60 91h46"></path>
<path d="M266 91h46"></path>
<path d="M106 91h10"></path>
<g>
<path d="M116 91h0"></path>
<path d="M192 91h0"></path>
<rect x="116" y="80" width="76" height="22" rx="10" ry="10"></rect>
<text x="154" y="95">CURRENT</text>
</g>
<path d="M192 91h10"></path>
<path d="M202 91h10"></path>
<g>
<path d="M212 91h0"></path>
<path d="M256 91h0"></path>
<rect x="212" y="80" width="44" height="22" rx="10" ry="10"></rect>
<text x="234" y="95">ROW</text>
</g>
<path d="M256 91h10"></path>
</g>
<path d="M312 91a10 10 0 0 0 10 -10v-40a10 10 0 0 1 10 -10"></path>
<path d="M40 31a10 10 0 0 1 10 10v70a10 10 0 0 0 10 10"></path>
<g>
<path d="M60 121h0"></path>
<path d="M312 121h0"></path>
<path d="M60 121h10"></path>
<g>
<path d="M70 121h0"></path>
<path d="M170 121h0"></path>
<rect x="70" y="110" width="100" height="22"></rect>
<text x="120" y="125">expression</text>
</g>
<path d="M170 121h10"></path>
<g>
<path d="M180 121h0"></path>
<path d="M312 121h0"></path>
<path d="M180 121h20"></path>
<g>
<path d="M200 121h0"></path>
<path d="M292 121h0"></path>
<rect x="200" y="110" width="92" height="22" rx="10" ry="10"></rect>
<text x="246" y="125">PRECEDING</text>
</g>
<path d="M292 121h20"></path>
<path d="M180 121a10 10 0 0 1 10 10v10a10 10 0 0 0 10 10"></path>
<g>
<path d="M200 151h0"></path>
<path d="M292 151h0"></path>
<rect x="200" y="140" width="92" height="22" rx="10" ry="10"></rect>
<text x="246" y="155">FOLLOWING</text>
</g>
<path d="M292 151a10 10 0 0 0 10 -10v-10a10 10 0 0 1 10 -10"></path>
</g>
</g>
<path d="M312 121a10 10 0 0 0 10 -10v-70a10 10 0 0 1 10 -10"></path>
</g>
<path d="M 332 31 h 20 m -10 -10 v 20 m 10 -20 v 20"></path>
</g>
</svg>
