<?xml version="1.0" standalone="no"?>
<!DOCTYPE svg PUBLIC "-//W3C//DTD SVG 1.1//EN"
  "http://www.w3.org/Graphics/SVG/1.1/DTD/svg11.dtd">
<svg xmlns="http://www.w3.org/2000/svg" version="1.1" class="railroad-diagram" width="957" height="542" viewBox="0 0 957 542">
<defs><style type="text/css"><![CDATA[ svg.railroad-diagram {
  background-color: #ffffff;
}
svg.railroad-diagram path {
  stroke-width: 2;
  stroke: #5a6872;
  fill: none;
}
svg.railroad-diagram text {
  font-size: 14px;
  font-family: 'ibm-plex-mono', 'Menlo', 'DejaVu Sans Mono', 'Bitstream Vera Sans Mono', Courier, monospace;
  color: #152935;
  text-anchor: middle;
  cursor: pointer;
}
svg.railroad-diagram text.label {
  text-anchor: start;
}
svg.railroad-diagram text.comment {
  font-size: 12px;
}
svg.railroad-diagram rect {
  stroke-width: 2;
  stroke:  #5a6872;
  fill: #5aaafa;
}
 ]]></style></defs>
<g transform="translate(.5 .5)">
<path d="M 20 41 v 20 m 10 -20 v 20 m -10 -10 h 20.5"></path>
<g>
<path d="M40 51h0"></path>
<path d="M916 51h0"></path>
<path d="M40 51h20"></path>
<g>
<path d="M60 51h0"></path>
<path d="M896 51h0"></path>
<path d="M60 51h10"></path>
<g>
<path d="M70 51h0"></path>
<path d="M194 51h0"></path>
<rect x="70" y="40" width="124" height="22"></rect>
<text x="132" y="55">qualifiedName</text>
</g>
<path d="M194 51h10"></path>
<path d="M204 51h10"></path>
<g>
<path d="M214 51h0"></path>
<path d="M242 51h0"></path>
<rect x="214" y="40" width="28" height="22" rx="10" ry="10"></rect>
<text x="228" y="55">(</text>
</g>
<path d="M242 51h10"></path>
<g>
<path d="M252 51h0"></path>
<path d="M616 51h0"></path>
<path d="M252 51a10 10 0 0 0 10 -10v-9a10 10 0 0 1 10 -10"></path>
<g>
<path d="M272 22h324"></path>
</g>
<path d="M596 22a10 10 0 0 1 10 10v9a10 10 0 0 0 10 10"></path>
<path d="M252 51h20"></path>
<g>
<path d="M272 51h0"></path>
<path d="M596 51h0"></path>
<g>
<path d="M272 51h0"></path>
<path d="M436 51h0"></path>
<path d="M272 51a10 10 0 0 0 10 -10v0a10 10 0 0 1 10 -10"></path>
<g>
<path d="M292 31h124"></path>
</g>
<path d="M416 31a10 10 0 0 1 10 10v0a10 10 0 0 0 10 10"></path>
<path d="M272 51h20"></path>
<g>
<path d="M292 51h0"></path>
<path d="M416 51h0"></path>
<path d="M292 51h20"></path>
<g>
<path d="M312 51h0"></path>
<path d="M396 51h0"></path>
<rect x="312" y="40" width="84" height="22" rx="10" ry="10"></rect>
<text x="354" y="55">DISTINCT</text>
</g>
<path d="M396 51h20"></path>
<path d="M292 51a10 10 0 0 1 10 10v10a10 10 0 0 0 10 10"></path>
<g>
<path d="M312 81h20"></path>
<path d="M376 81h20"></path>
<rect x="332" y="70" width="44" height="22" rx="10" ry="10"></rect>
<text x="354" y="85">ALL</text>
</g>
<path d="M396 81a10 10 0 0 0 10 -10v-10a10 10 0 0 1 10 -10"></path>
</g>
<path d="M416 51h20"></path>
</g>
<path d="M436 51h10"></path>
<g>
<path d="M446 51h0"></path>
<path d="M586 51h0"></path>
<path d="M446 51h10"></path>
<g>
<path d="M456 51h0"></path>
<path d="M576 51h0"></path>
<path d="M456 51h10"></path>
<g>
<path d="M466 51h0"></path>
<path d="M566 51h0"></path>
<rect x="466" y="40" width="100" height="22"></rect>
<text x="516" y="55">expression</text>
</g>
<path d="M566 51h10"></path>
</g>
<path d="M576 51h10"></path>
<path d="M456 51a10 10 0 0 0 -10 10v10a10 10 0 0 0 10 10"></path>
<g>
<path d="M456 81h36"></path>
<path d="M540 81h36"></path>
<path d="M492 81h10"></path>
<g>
<path d="M502 81h0"></path>
<path d="M530 81h0"></path>
<rect x="502" y="70" width="28" height="22" rx="10" ry="10"></rect>
<text x="516" y="85">,</text>
</g>
<path d="M530 81h10"></path>
</g>
<path d="M576 81a10 10 0 0 0 10 -10v-10a10 10 0 0 0 -10 -10"></path>
</g>
<path d="M586 51h10"></path>
</g>
<path d="M596 51h20"></path>
</g>
<path d="M616 51h10"></path>
<g>
<path d="M626 51h0"></path>
<path d="M654 51h0"></path>
<rect x="626" y="40" width="28" height="22" rx="10" ry="10"></rect>
<text x="640" y="55">)</text>
</g>
<path d="M654 51h10"></path>
<g>
<path d="M664 51h0"></path>
<path d="M896 51h0"></path>
<path d="M664 51a10 10 0 0 0 10 -10v0a10 10 0 0 1 10 -10"></path>
<g>
<path d="M684 31h192"></path>
</g>
<path d="M876 31a10 10 0 0 1 10 10v0a10 10 0 0 0 10 10"></path>
<path d="M664 51h20"></path>
<g>
<path d="M684 51h0"></path>
<path d="M876 51h0"></path>
<path d="M684 51h10"></path>
<g>
<path d="M694 51h0"></path>
<path d="M746 51h0"></path>
<rect x="694" y="40" width="52" height="22" rx="10" ry="10"></rect>
<text x="720" y="55">OVER</text>
</g>
<path d="M746 51h10"></path>
<path d="M756 51h10"></path>
<g>
<path d="M766 51h0"></path>
<path d="M866 51h0"></path>
<rect x="766" y="40" width="100" height="22"></rect>
<text x="816" y="55">windowSpec</text>
</g>
<path d="M866 51h10"></path>
</g>
<path d="M876 51h20"></path>
</g>
</g>
<path d="M896 51h20"></path>
<path d="M40 51a10 10 0 0 1 10 10v40a10 10 0 0 0 10 10"></path>
<g>
<path d="M60 111h96"></path>
<path d="M800 111h96"></path>
<path d="M156 111h10"></path>
<g>
<path d="M166 111h0"></path>
<path d="M218 111h0"></path>
<rect x="166" y="100" width="52" height="22" rx="10" ry="10"></rect>
<text x="192" y="115">TRIM</text>
</g>
<path d="M218 111h10"></path>
<path d="M228 111h10"></path>
<g>
<path d="M238 111h0"></path>
<path d="M266 111h0"></path>
<rect x="238" y="100" width="28" height="22" rx="10" ry="10"></rect>
<text x="252" y="115">(</text>
</g>
<path d="M266 111h10"></path>
<g>
<path d="M276 111h0"></path>
<path d="M752 111h0"></path>
<path d="M276 111h20"></path>
<g>
<path d="M296 111h0"></path>
<path d="M732 111h0"></path>
<g>
<path d="M296 111h0"></path>
<path d="M420 111h0"></path>
<path d="M296 111h20"></path>
<g>
<path d="M316 111h16"></path>
<path d="M384 111h16"></path>
<rect x="332" y="100" width="52" height="22" rx="10" ry="10"></rect>
<text x="358" y="115">BOTH</text>
</g>
<path d="M400 111h20"></path>
<path d="M296 111a10 10 0 0 1 10 10v10a10 10 0 0 0 10 10"></path>
<g>
<path d="M316 141h4"></path>
<path d="M396 141h4"></path>
<rect x="320" y="130" width="76" height="22" rx="10" ry="10"></rect>
<text x="358" y="145">LEADING</text>
</g>
<path d="M400 141a10 10 0 0 0 10 -10v-10a10 10 0 0 1 10 -10"></path>
<path d="M296 111a10 10 0 0 1 10 10v40a10 10 0 0 0 10 10"></path>
<g>
<path d="M316 171h0"></path>
<path d="M400 171h0"></path>
<rect x="316" y="160" width="84" height="22" rx="10" ry="10"></rect>
<text x="358" y="175">TRAILING</text>
</g>
<path d="M400 171a10 10 0 0 0 10 -10v-40a10 10 0 0 1 10 -10"></path>
</g>
<path d="M420 111h10"></path>
<g>
<path d="M430 111h0"></path>
<path d="M530 111h0"></path>
<rect x="430" y="100" width="100" height="22"></rect>
<text x="480" y="115">expression</text>
</g>
<path d="M530 111h10"></path>
<path d="M540 111h10"></path>
<g>
<path d="M550 111h0"></path>
<path d="M602 111h0"></path>
<rect x="550" y="100" width="52" height="22" rx="10" ry="10"></rect>
<text x="576" y="115">FROM</text>
</g>
<path d="M602 111h10"></path>
<path d="M612 111h10"></path>
<g>
<path d="M622 111h0"></path>
<path d="M722 111h0"></path>
<rect x="622" y="100" width="100" height="22"></rect>
<text x="672" y="115">expression</text>
</g>
<path d="M722 111h10"></path>
</g>
<path d="M732 111h20"></path>
<path d="M276 111a10 10 0 0 1 10 10v80a10 10 0 0 0 10 10"></path>
<g>
<path d="M296 211h54"></path>
<path d="M678 211h54"></path>
<path d="M350 211h10"></path>
<g>
<path d="M360 211h0"></path>
<path d="M460 211h0"></path>
<rect x="360" y="200" width="100" height="22"></rect>
<text x="410" y="215">expression</text>
</g>
<path d="M460 211h10"></path>
<g>
<path d="M470 211h0"></path>
<path d="M678 211h0"></path>
<path d="M470 211a10 10 0 0 0 10 -10v0a10 10 0 0 1 10 -10"></path>
<g>
<path d="M490 191h168"></path>
</g>
<path d="M658 191a10 10 0 0 1 10 10v0a10 10 0 0 0 10 10"></path>
<path d="M470 211h20"></path>
<g>
<path d="M490 211h0"></path>
<path d="M658 211h0"></path>
<path d="M490 211h10"></path>
<g>
<path d="M500 211h0"></path>
<path d="M528 211h0"></path>
<rect x="500" y="200" width="28" height="22" rx="10" ry="10"></rect>
<text x="514" y="215">,</text>
</g>
<path d="M528 211h10"></path>
<path d="M538 211h10"></path>
<g>
<path d="M548 211h0"></path>
<path d="M648 211h0"></path>
<rect x="548" y="200" width="100" height="22"></rect>
<text x="598" y="215">expression</text>
</g>
<path d="M648 211h10"></path>
</g>
<path d="M658 211h20"></path>
</g>
</g>
<path d="M732 211a10 10 0 0 0 10 -10v-80a10 10 0 0 1 10 -10"></path>
</g>
<path d="M752 111h10"></path>
<g>
<path d="M762 111h0"></path>
<path d="M790 111h0"></path>
<rect x="762" y="100" width="28" height="22" rx="10" ry="10"></rect>
<text x="776" y="115">)</text>
</g>
<path d="M790 111h10"></path>
</g>
<path d="M896 111a10 10 0 0 0 10 -10v-40a10 10 0 0 1 10 -10"></path>
<path d="M40 51a10 10 0 0 1 10 10v170a10 10 0 0 0 10 10"></path>
<g>
<path d="M60 241h50"></path>
<path d="M846 241h50"></path>
<path d="M110 241h10"></path>
<g>
<path d="M120 241h0"></path>
<path d="M204 241h0"></path>
<rect x="120" y="230" width="84" height="22" rx="10" ry="10"></rect>
<text x="162" y="245">POSITION</text>
</g>
<path d="M204 241h10"></path>
<path d="M214 241h10"></path>
<g>
<path d="M224 241h0"></path>
<path d="M252 241h0"></path>
<rect x="224" y="230" width="28" height="22" rx="10" ry="10"></rect>
<text x="238" y="245">(</text>
</g>
<path d="M252 241h10"></path>
<g>
<path d="M262 241h0"></path>
<path d="M798 241h0"></path>
<path d="M262 241h20"></path>
<g>
<path d="M282 241h60"></path>
<path d="M718 241h60"></path>
<path d="M342 241h10"></path>
<g>
<path d="M352 241h0"></path>
<path d="M492 241h0"></path>
<rect x="352" y="230" width="140" height="22"></rect>
<text x="422" y="245">valueExpression</text>
</g>
<path d="M492 241h10"></path>
<path d="M502 241h10"></path>
<g>
<path d="M512 241h0"></path>
<path d="M548 241h0"></path>
<rect x="512" y="230" width="36" height="22" rx="10" ry="10"></rect>
<text x="530" y="245">IN</text>
</g>
<path d="M548 241h10"></path>
<path d="M558 241h10"></path>
<g>
<path d="M568 241h0"></path>
<path d="M708 241h0"></path>
<rect x="568" y="230" width="140" height="22"></rect>
<text x="638" y="245">valueExpression</text>
</g>
<path d="M708 241h10"></path>
</g>
<path d="M778 241h20"></path>
<path d="M262 241a10 10 0 0 1 10 10v20a10 10 0 0 0 10 10"></path>
<g>
<path d="M282 281h0"></path>
<path d="M778 281h0"></path>
<path d="M282 281h10"></path>
<g>
<path d="M292 281h0"></path>
<path d="M392 281h0"></path>
<rect x="292" y="270" width="100" height="22"></rect>
<text x="342" y="285">expression</text>
</g>
<path d="M392 281h10"></path>
<path d="M402 281h10"></path>
<g>
<path d="M412 281h0"></path>
<path d="M440 281h0"></path>
<rect x="412" y="270" width="28" height="22" rx="10" ry="10"></rect>
<text x="426" y="285">,</text>
</g>
<path d="M440 281h10"></path>
<path d="M450 281h10"></path>
<g>
<path d="M460 281h0"></path>
<path d="M560 281h0"></path>
<rect x="460" y="270" width="100" height="22"></rect>
<text x="510" y="285">expression</text>
</g>
<path d="M560 281h10"></path>
<g>
<path d="M570 281h0"></path>
<path d="M778 281h0"></path>
<path d="M570 281a10 10 0 0 0 10 -10v0a10 10 0 0 1 10 -10"></path>
<g>
<path d="M590 261h168"></path>
</g>
<path d="M758 261a10 10 0 0 1 10 10v0a10 10 0 0 0 10 10"></path>
<path d="M570 281h20"></path>
<g>
<path d="M590 281h0"></path>
<path d="M758 281h0"></path>
<path d="M590 281h10"></path>
<g>
<path d="M600 281h0"></path>
<path d="M628 281h0"></path>
<rect x="600" y="270" width="28" height="22" rx="10" ry="10"></rect>
<text x="614" y="285">,</text>
</g>
<path d="M628 281h10"></path>
<path d="M638 281h10"></path>
<g>
<path d="M648 281h0"></path>
<path d="M748 281h0"></path>
<rect x="648" y="270" width="100" height="22"></rect>
<text x="698" y="285">expression</text>
</g>
<path d="M748 281h10"></path>
</g>
<path d="M758 281h20"></path>
</g>
</g>
<path d="M778 281a10 10 0 0 0 10 -10v-20a10 10 0 0 1 10 -10"></path>
</g>
<path d="M798 241h10"></path>
<g>
<path d="M808 241h0"></path>
<path d="M836 241h0"></path>
<rect x="808" y="230" width="28" height="22" rx="10" ry="10"></rect>
<text x="822" y="245">)</text>
</g>
<path d="M836 241h10"></path>
</g>
<path d="M896 241a10 10 0 0 0 10 -10v-170a10 10 0 0 1 10 -10"></path>
<path d="M40 51a10 10 0 0 1 10 10v250a10 10 0 0 0 10 10"></path>
<g>
<path d="M60 321h118"></path>
<path d="M778 321h118"></path>
<path d="M178 321h10"></path>
<g>
<path d="M188 321h0"></path>
<path d="M248 321h0"></path>
<rect x="188" y="310" width="60" height="22" rx="10" ry="10"></rect>
<text x="218" y="325">FIRST</text>
</g>
<path d="M248 321h10"></path>
<path d="M258 321h10"></path>
<g>
<path d="M268 321h0"></path>
<path d="M296 321h0"></path>
<rect x="268" y="310" width="28" height="22" rx="10" ry="10"></rect>
<text x="282" y="325">(</text>
</g>
<path d="M296 321h10"></path>
<g>
<path d="M306 321h0"></path>
<path d="M730 321h0"></path>
<path d="M306 321h20"></path>
<g>
<path d="M326 321h28"></path>
<path d="M682 321h28"></path>
<path d="M354 321h10"></path>
<g>
<path d="M364 321h0"></path>
<path d="M464 321h0"></path>
<rect x="364" y="310" width="100" height="22"></rect>
<text x="414" y="325">expression</text>
</g>
<path d="M464 321h10"></path>
<g>
<path d="M474 321h0"></path>
<path d="M682 321h0"></path>
<path d="M474 321a10 10 0 0 0 10 -10v0a10 10 0 0 1 10 -10"></path>
<g>
<path d="M494 301h168"></path>
</g>
<path d="M662 301a10 10 0 0 1 10 10v0a10 10 0 0 0 10 10"></path>
<path d="M474 321h20"></path>
<g>
<path d="M494 321h0"></path>
<path d="M662 321h0"></path>
<path d="M494 321h10"></path>
<g>
<path d="M504 321h0"></path>
<path d="M572 321h0"></path>
<rect x="504" y="310" width="68" height="22" rx="10" ry="10"></rect>
<text x="538" y="325">IGNORE</text>
</g>
<path d="M572 321h10"></path>
<path d="M582 321h10"></path>
<g>
<path d="M592 321h0"></path>
<path d="M652 321h0"></path>
<rect x="592" y="310" width="60" height="22" rx="10" ry="10"></rect>
<text x="622" y="325">NULLS</text>
</g>
<path d="M652 321h10"></path>
</g>
<path d="M662 321h20"></path>
</g>
</g>
<path d="M710 321h20"></path>
<path d="M306 321a10 10 0 0 1 10 10v20a10 10 0 0 0 10 10"></path>
<g>
<path d="M326 361h0"></path>
<path d="M710 361h0"></path>
<path d="M326 361h10"></path>
<g>
<path d="M336 361h0"></path>
<path d="M436 361h0"></path>
<rect x="336" y="350" width="100" height="22"></rect>
<text x="386" y="365">expression</text>
</g>
<path d="M436 361h10"></path>
<g>
<path d="M446 361h0"></path>
<path d="M710 361h0"></path>
<path d="M446 361a10 10 0 0 0 10 -10v0a10 10 0 0 1 10 -10"></path>
<g>
<path d="M466 341h224"></path>
</g>
<path d="M690 341a10 10 0 0 1 10 10v0a10 10 0 0 0 10 10"></path>
<path d="M446 361h20"></path>
<g>
<path d="M466 361h0"></path>
<path d="M690 361h0"></path>
<path d="M466 361h10"></path>
<g>
<path d="M476 361h0"></path>
<path d="M504 361h0"></path>
<rect x="476" y="350" width="28" height="22" rx="10" ry="10"></rect>
<text x="490" y="365">,</text>
</g>
<path d="M504 361h10"></path>
<path d="M514 361h10"></path>
<g>
<path d="M524 361h0"></path>
<path d="M680 361h0"></path>
<rect x="524" y="350" width="156" height="22"></rect>
<text x="602" y="365">booleanExpression</text>
</g>
<path d="M680 361h10"></path>
</g>
<path d="M690 361h20"></path>
</g>
</g>
<path d="M710 361a10 10 0 0 0 10 -10v-20a10 10 0 0 1 10 -10"></path>
</g>
<path d="M730 321h10"></path>
<g>
<path d="M740 321h0"></path>
<path d="M768 321h0"></path>
<rect x="740" y="310" width="28" height="22" rx="10" ry="10"></rect>
<text x="754" y="325">)</text>
</g>
<path d="M768 321h10"></path>
</g>
<path d="M896 321a10 10 0 0 0 10 -10v-250a10 10 0 0 1 10 -10"></path>
<path d="M40 51a10 10 0 0 1 10 10v330a10 10 0 0 0 10 10"></path>
<g>
<path d="M60 401h122"></path>
<path d="M774 401h122"></path>
<path d="M182 401h10"></path>
<g>
<path d="M192 401h0"></path>
<path d="M244 401h0"></path>
<rect x="192" y="390" width="52" height="22" rx="10" ry="10"></rect>
<text x="218" y="405">LAST</text>
</g>
<path d="M244 401h10"></path>
<path d="M254 401h10"></path>
<g>
<path d="M264 401h0"></path>
<path d="M292 401h0"></path>
<rect x="264" y="390" width="28" height="22" rx="10" ry="10"></rect>
<text x="278" y="405">(</text>
</g>
<path d="M292 401h10"></path>
<g>
<path d="M302 401h0"></path>
<path d="M726 401h0"></path>
<path d="M302 401h20"></path>
<g>
<path d="M322 401h28"></path>
<path d="M678 401h28"></path>
<path d="M350 401h10"></path>
<g>
<path d="M360 401h0"></path>
<path d="M460 401h0"></path>
<rect x="360" y="390" width="100" height="22"></rect>
<text x="410" y="405">expression</text>
</g>
<path d="M460 401h10"></path>
<g>
<path d="M470 401h0"></path>
<path d="M678 401h0"></path>
<path d="M470 401a10 10 0 0 0 10 -10v0a10 10 0 0 1 10 -10"></path>
<g>
<path d="M490 381h168"></path>
</g>
<path d="M658 381a10 10 0 0 1 10 10v0a10 10 0 0 0 10 10"></path>
<path d="M470 401h20"></path>
<g>
<path d="M490 401h0"></path>
<path d="M658 401h0"></path>
<path d="M490 401h10"></path>
<g>
<path d="M500 401h0"></path>
<path d="M568 401h0"></path>
<rect x="500" y="390" width="68" height="22" rx="10" ry="10"></rect>
<text x="534" y="405">IGNORE</text>
</g>
<path d="M568 401h10"></path>
<path d="M578 401h10"></path>
<g>
<path d="M588 401h0"></path>
<path d="M648 401h0"></path>
<rect x="588" y="390" width="60" height="22" rx="10" ry="10"></rect>
<text x="618" y="405">NULLS</text>
</g>
<path d="M648 401h10"></path>
</g>
<path d="M658 401h20"></path>
</g>
</g>
<path d="M706 401h20"></path>
<path d="M302 401a10 10 0 0 1 10 10v20a10 10 0 0 0 10 10"></path>
<g>
<path d="M322 441h0"></path>
<path d="M706 441h0"></path>
<path d="M322 441h10"></path>
<g>
<path d="M332 441h0"></path>
<path d="M432 441h0"></path>
<rect x="332" y="430" width="100" height="22"></rect>
<text x="382" y="445">expression</text>
</g>
<path d="M432 441h10"></path>
<g>
<path d="M442 441h0"></path>
<path d="M706 441h0"></path>
<path d="M442 441a10 10 0 0 0 10 -10v0a10 10 0 0 1 10 -10"></path>
<g>
<path d="M462 421h224"></path>
</g>
<path d="M686 421a10 10 0 0 1 10 10v0a10 10 0 0 0 10 10"></path>
<path d="M442 441h20"></path>
<g>
<path d="M462 441h0"></path>
<path d="M686 441h0"></path>
<path d="M462 441h10"></path>
<g>
<path d="M472 441h0"></path>
<path d="M500 441h0"></path>
<rect x="472" y="430" width="28" height="22" rx="10" ry="10"></rect>
<text x="486" y="445">,</text>
</g>
<path d="M500 441h10"></path>
<path d="M510 441h10"></path>
<g>
<path d="M520 441h0"></path>
<path d="M676 441h0"></path>
<rect x="520" y="430" width="156" height="22"></rect>
<text x="598" y="445">booleanExpression</text>
</g>
<path d="M676 441h10"></path>
</g>
<path d="M686 441h20"></path>
</g>
</g>
<path d="M706 441a10 10 0 0 0 10 -10v-20a10 10 0 0 1 10 -10"></path>
</g>
<path d="M726 401h10"></path>
<g>
<path d="M736 401h0"></path>
<path d="M764 401h0"></path>
<rect x="736" y="390" width="28" height="22" rx="10" ry="10"></rect>
<text x="750" y="405">)</text>
</g>
<path d="M764 401h10"></path>
</g>
<path d="M896 401a10 10 0 0 0 10 -10v-330a10 10 0 0 1 10 -10"></path>
<path d="M40 51a10 10 0 0 1 10 10v410a10 10 0 0 0 10 10"></path>
<g>
<path d="M60 481h218"></path>
<path d="M678 481h218"></path>
<path d="M278 481h10"></path>
<g>
<path d="M288 481h0"></path>
<path d="M356 481h0"></path>
<rect x="288" y="470" width="68" height="22" rx="10" ry="10"></rect>
<text x="322" y="485">STRUCT</text>
</g>
<path d="M356 481h10"></path>
<path d="M366 481h10"></path>
<g>
<path d="M376 481h0"></path>
<path d="M404 481h0"></path>
<rect x="376" y="470" width="28" height="22" rx="10" ry="10"></rect>
<text x="390" y="485">(</text>
</g>
<path d="M404 481h10"></path>
<g>
<path d="M414 481h0"></path>
<path d="M630 481h0"></path>
<path d="M414 481a10 10 0 0 0 10 -10v0a10 10 0 0 1 10 -10"></path>
<g>
<path d="M434 461h176"></path>
</g>
<path d="M610 461a10 10 0 0 1 10 10v0a10 10 0 0 0 10 10"></path>
<path d="M414 481h20"></path>
<g>
<path d="M434 481h0"></path>
<path d="M610 481h0"></path>
<path d="M434 481h10"></path>
<g>
<path d="M444 481h0"></path>
<path d="M600 481h0"></path>
<path d="M444 481h10"></path>
<g>
<path d="M454 481h0"></path>
<path d="M590 481h0"></path>
<path d="M454 481h10"></path>
<g>
<path d="M464 481h0"></path>
<path d="M580 481h0"></path>
<rect x="464" y="470" width="116" height="22"></rect>
<text x="522" y="485">resultColumn</text>
</g>
<path d="M580 481h10"></path>
</g>
<path d="M590 481h10"></path>
<path d="M454 481a10 10 0 0 0 -10 10v10a10 10 0 0 0 10 10"></path>
<g>
<path d="M454 511h44"></path>
<path d="M546 511h44"></path>
<path d="M498 511h10"></path>
<g>
<path d="M508 511h0"></path>
<path d="M536 511h0"></path>
<rect x="508" y="500" width="28" height="22" rx="10" ry="10"></rect>
<text x="522" y="515">,</text>
</g>
<path d="M536 511h10"></path>
</g>
<path d="M590 511a10 10 0 0 0 10 -10v-10a10 10 0 0 0 -10 -10"></path>
</g>
<path d="M600 481h10"></path>
</g>
<path d="M610 481h20"></path>
</g>
<path d="M630 481h10"></path>
<g>
<path d="M640 481h0"></path>
<path d="M668 481h0"></path>
<rect x="640" y="470" width="28" height="22" rx="10" ry="10"></rect>
<text x="654" y="485">)</text>
</g>
<path d="M668 481h10"></path>
</g>
<path d="M896 481a10 10 0 0 0 10 -10v-410a10 10 0 0 1 10 -10"></path>
</g>
<path d="M 916 51 h 20 m -10 -10 v 20 m 10 -20 v 20"></path>
</g>
</svg>
