<?xml version="1.0" standalone="no"?>
<!DOCTYPE svg PUBLIC "-//W3C//DTD SVG 1.1//EN"
  "http://www.w3.org/Graphics/SVG/1.1/DTD/svg11.dtd">
<svg xmlns="http://www.w3.org/2000/svg" version="1.1" class="railroad-diagram" width="993" height="162" viewBox="0 0 993 162">
<defs><style type="text/css"><![CDATA[ svg.railroad-diagram {
  background-color: #ffffff;
}
svg.railroad-diagram path {
  stroke-width: 2;
  stroke: #5a6872;
  fill: none;
}
svg.railroad-diagram text {
  font-size: 14px;
  font-family: 'ibm-plex-mono', 'Menlo', 'DejaVu Sans Mono', 'Bitstream Vera Sans Mono', Courier, monospace;
  color: #152935;
  text-anchor: middle;
  cursor: pointer;
}
svg.railroad-diagram text.label {
  text-anchor: start;
}
svg.railroad-diagram text.comment {
  font-size: 12px;
}
svg.railroad-diagram rect {
  stroke-width: 2;
  stroke:  #5a6872;
  fill: #5aaafa;
}
 ]]></style></defs>
<g transform="translate(.5 .5)">
<path d="M 20 31 v 20 m 10 -20 v 20 m -10 -10 h 20.5"></path>
<g>
<path d="M40 41h0"></path>
<path d="M952 41h0"></path>
<path d="M40 41h10"></path>
<g>
<path d="M50 41h0"></path>
<path d="M110 41h0"></path>
<rect x="50" y="30" width="60" height="22" rx="10" ry="10"></rect>
<text x="80" y="45">GROUP</text>
</g>
<path d="M110 41h10"></path>
<path d="M120 41h10"></path>
<g>
<path d="M130 41h0"></path>
<path d="M166 41h0"></path>
<rect x="130" y="30" width="36" height="22" rx="10" ry="10"></rect>
<text x="148" y="45">BY</text>
</g>
<path d="M166 41h10"></path>
<path d="M176 41h10"></path>
<g>
<path d="M186 41h0"></path>
<path d="M326 41h0"></path>
<path d="M186 41h10"></path>
<g>
<path d="M196 41h0"></path>
<path d="M316 41h0"></path>
<path d="M196 41h10"></path>
<g>
<path d="M206 41h0"></path>
<path d="M306 41h0"></path>
<rect x="206" y="30" width="100" height="22"></rect>
<text x="256" y="45">expression</text>
</g>
<path d="M306 41h10"></path>
</g>
<path d="M316 41h10"></path>
<path d="M196 41a10 10 0 0 0 -10 10v10a10 10 0 0 0 10 10"></path>
<g>
<path d="M196 71h36"></path>
<path d="M280 71h36"></path>
<path d="M232 71h10"></path>
<g>
<path d="M242 71h0"></path>
<path d="M270 71h0"></path>
<rect x="242" y="60" width="28" height="22" rx="10" ry="10"></rect>
<text x="256" y="75">,</text>
</g>
<path d="M270 71h10"></path>
</g>
<path d="M316 71a10 10 0 0 0 10 -10v-10a10 10 0 0 0 -10 -10"></path>
</g>
<path d="M326 41h10"></path>
<path d="M336 41h10"></path>
<g>
<path d="M346 41h0"></path>
<path d="M422 41h0"></path>
<rect x="346" y="30" width="76" height="22" rx="10" ry="10"></rect>
<text x="384" y="45">@break@</text>
</g>
<path d="M422 41h10"></path>
<g>
<path d="M432 41h0"></path>
<path d="M952 41h0"></path>
<path d="M432 41a10 10 0 0 0 10 -10v0a10 10 0 0 1 10 -10"></path>
<g>
<path d="M452 21h480"></path>
</g>
<path d="M932 21a10 10 0 0 1 10 10v0a10 10 0 0 0 10 10"></path>
<path d="M432 41h20"></path>
<g>
<path d="M452 41h0"></path>
<path d="M932 41h0"></path>
<path d="M452 41h20"></path>
<g>
<path d="M472 41h140"></path>
<path d="M772 41h140"></path>
<path d="M612 41h10"></path>
<g>
<path d="M622 41h0"></path>
<path d="M674 41h0"></path>
<rect x="622" y="30" width="52" height="22" rx="10" ry="10"></rect>
<text x="648" y="45">WITH</text>
</g>
<path d="M674 41h10"></path>
<path d="M684 41h10"></path>
<g>
<path d="M694 41h0"></path>
<path d="M762 41h0"></path>
<rect x="694" y="30" width="68" height="22" rx="10" ry="10"></rect>
<text x="728" y="45">ROLLUP</text>
</g>
<path d="M762 41h10"></path>
</g>
<path d="M912 41h20"></path>
<path d="M452 41a10 10 0 0 1 10 10v10a10 10 0 0 0 10 10"></path>
<g>
<path d="M472 71h148"></path>
<path d="M764 71h148"></path>
<path d="M620 71h10"></path>
<g>
<path d="M630 71h0"></path>
<path d="M682 71h0"></path>
<rect x="630" y="60" width="52" height="22" rx="10" ry="10"></rect>
<text x="656" y="75">WITH</text>
</g>
<path d="M682 71h10"></path>
<path d="M692 71h10"></path>
<g>
<path d="M702 71h0"></path>
<path d="M754 71h0"></path>
<rect x="702" y="60" width="52" height="22" rx="10" ry="10"></rect>
<text x="728" y="75">CUBE</text>
</g>
<path d="M754 71h10"></path>
</g>
<path d="M912 71a10 10 0 0 0 10 -10v-10a10 10 0 0 1 10 -10"></path>
<path d="M452 41a10 10 0 0 1 10 10v40a10 10 0 0 0 10 10"></path>
<g>
<path d="M472 101h0"></path>
<path d="M912 101h0"></path>
<path d="M472 101h10"></path>
<g>
<path d="M482 101h0"></path>
<path d="M566 101h0"></path>
<rect x="482" y="90" width="84" height="22" rx="10" ry="10"></rect>
<text x="524" y="105">GROUPING</text>
</g>
<path d="M566 101h10"></path>
<path d="M576 101h10"></path>
<g>
<path d="M586 101h0"></path>
<path d="M638 101h0"></path>
<rect x="586" y="90" width="52" height="22" rx="10" ry="10"></rect>
<text x="612" y="105">SETS</text>
</g>
<path d="M638 101h10"></path>
<path d="M648 101h10"></path>
<g>
<path d="M658 101h0"></path>
<path d="M686 101h0"></path>
<rect x="658" y="90" width="28" height="22" rx="10" ry="10"></rect>
<text x="672" y="105">(</text>
</g>
<path d="M686 101h10"></path>
<path d="M696 101h10"></path>
<g>
<path d="M706 101h0"></path>
<path d="M854 101h0"></path>
<path d="M706 101h10"></path>
<g>
<path d="M716 101h0"></path>
<path d="M844 101h0"></path>
<path d="M716 101h10"></path>
<g>
<path d="M726 101h0"></path>
<path d="M834 101h0"></path>
<rect x="726" y="90" width="108" height="22"></rect>
<text x="780" y="105">groupingSet</text>
</g>
<path d="M834 101h10"></path>
</g>
<path d="M844 101h10"></path>
<path d="M716 101a10 10 0 0 0 -10 10v10a10 10 0 0 0 10 10"></path>
<g>
<path d="M716 131h40"></path>
<path d="M804 131h40"></path>
<path d="M756 131h10"></path>
<g>
<path d="M766 131h0"></path>
<path d="M794 131h0"></path>
<rect x="766" y="120" width="28" height="22" rx="10" ry="10"></rect>
<text x="780" y="135">,</text>
</g>
<path d="M794 131h10"></path>
</g>
<path d="M844 131a10 10 0 0 0 10 -10v-10a10 10 0 0 0 -10 -10"></path>
</g>
<path d="M854 101h10"></path>
<path d="M864 101h10"></path>
<g>
<path d="M874 101h0"></path>
<path d="M902 101h0"></path>
<rect x="874" y="90" width="28" height="22" rx="10" ry="10"></rect>
<text x="888" y="105">)</text>
</g>
<path d="M902 101h10"></path>
</g>
<path d="M912 101a10 10 0 0 0 10 -10v-40a10 10 0 0 1 10 -10"></path>
</g>
<path d="M932 41h20"></path>
</g>
</g>
<path d="M 952 41 h 20 m -10 -10 v 20 m 10 -20 v 20"></path>
</g>
</svg>
