<?xml version="1.0" standalone="no"?>
<!DOCTYPE svg PUBLIC "-//W3C//DTD SVG 1.1//EN"
  "http://www.w3.org/Graphics/SVG/1.1/DTD/svg11.dtd">
<svg xmlns="http://www.w3.org/2000/svg" version="1.1" class="railroad-diagram" width="497" height="122" viewBox="0 0 497 122">
<defs><style type="text/css"><![CDATA[ svg.railroad-diagram {
  background-color: #ffffff;
}
svg.railroad-diagram path {
  stroke-width: 2;
  stroke: #5a6872;
  fill: none;
}
svg.railroad-diagram text {
  font-size: 14px;
  font-family: 'ibm-plex-mono', 'Menlo', 'DejaVu Sans Mono', 'Bitstream Vera Sans Mono', Courier, monospace;
  color: #152935;
  text-anchor: middle;
  cursor: pointer;
}
svg.railroad-diagram text.label {
  text-anchor: start;
}
svg.railroad-diagram text.comment {
  font-size: 12px;
}
svg.railroad-diagram rect {
  stroke-width: 2;
  stroke:  #5a6872;
  fill: #5aaafa;
}
 ]]></style></defs>
<g transform="translate(.5 .5)">
<path d="M 20 21 v 20 m 10 -20 v 20 m -10 -10 h 20.5"></path>
<g>
<path d="M40 31h0"></path>
<path d="M456 31h0"></path>
<path d="M40 31h20"></path>
<g>
<path d="M60 31h138"></path>
<path d="M298 31h138"></path>
<rect x="198" y="20" width="100" height="22"></rect>
<text x="248" y="35">identifier</text>
</g>
<path d="M436 31h20"></path>
<path d="M40 31a10 10 0 0 1 10 10v10a10 10 0 0 0 10 10"></path>
<g>
<path d="M60 61h0"></path>
<path d="M436 61h0"></path>
<path d="M60 61h10"></path>
<g>
<path d="M70 61h0"></path>
<path d="M170 61h0"></path>
<rect x="70" y="50" width="100" height="22"></rect>
<text x="120" y="65">identifier</text>
</g>
<path d="M170 61h10"></path>
<path d="M180 61h10"></path>
<g>
<path d="M190 61h0"></path>
<path d="M218 61h0"></path>
<rect x="190" y="50" width="28" height="22" rx="10" ry="10"></rect>
<text x="204" y="65">(</text>
</g>
<path d="M218 61h10"></path>
<path d="M228 61h10"></path>
<g>
<path d="M238 61h0"></path>
<path d="M378 61h0"></path>
<path d="M238 61h10"></path>
<g>
<path d="M248 61h0"></path>
<path d="M368 61h0"></path>
<path d="M248 61h10"></path>
<g>
<path d="M258 61h0"></path>
<path d="M358 61h0"></path>
<rect x="258" y="50" width="100" height="22"></rect>
<text x="308" y="65">expression</text>
</g>
<path d="M358 61h10"></path>
</g>
<path d="M368 61h10"></path>
<path d="M248 61a10 10 0 0 0 -10 10v10a10 10 0 0 0 10 10"></path>
<g>
<path d="M248 91h36"></path>
<path d="M332 91h36"></path>
<path d="M284 91h10"></path>
<g>
<path d="M294 91h0"></path>
<path d="M322 91h0"></path>
<rect x="294" y="80" width="28" height="22" rx="10" ry="10"></rect>
<text x="308" y="95">,</text>
</g>
<path d="M322 91h10"></path>
</g>
<path d="M368 91a10 10 0 0 0 10 -10v-10a10 10 0 0 0 -10 -10"></path>
</g>
<path d="M378 61h10"></path>
<path d="M388 61h10"></path>
<g>
<path d="M398 61h0"></path>
<path d="M426 61h0"></path>
<rect x="398" y="50" width="28" height="22" rx="10" ry="10"></rect>
<text x="412" y="65">)</text>
</g>
<path d="M426 61h10"></path>
</g>
<path d="M436 61a10 10 0 0 0 10 -10v-10a10 10 0 0 1 10 -10"></path>
</g>
<path d="M 456 31 h 20 m -10 -10 v 20 m 10 -20 v 20"></path>
</g>
</svg>
