<?xml version="1.0" standalone="no"?>
<!DOCTYPE svg PUBLIC "-//W3C//DTD SVG 1.1//EN"
  "http://www.w3.org/Graphics/SVG/1.1/DTD/svg11.dtd">
<svg xmlns="http://www.w3.org/2000/svg" version="1.1" class="railroad-diagram" width="465" height="92" viewBox="0 0 465 92">
<defs><style type="text/css"><![CDATA[ svg.railroad-diagram {
  background-color: #ffffff;
}
svg.railroad-diagram path {
  stroke-width: 2;
  stroke: #5a6872;
  fill: none;
}
svg.railroad-diagram text {
  font-size: 14px;
  font-family: 'ibm-plex-mono', 'Menlo', 'DejaVu Sans Mono', 'Bitstream Vera Sans Mono', Courier, monospace;
  color: #152935;
  text-anchor: middle;
  cursor: pointer;
}
svg.railroad-diagram text.label {
  text-anchor: start;
}
svg.railroad-diagram text.comment {
  font-size: 12px;
}
svg.railroad-diagram rect {
  stroke-width: 2;
  stroke:  #5a6872;
  fill: #5aaafa;
}
 ]]></style></defs>
<g transform="translate(.5 .5)">
<path d="M 20 21 v 20 m 10 -20 v 20 m -10 -10 h 20.5"></path>
<g>
<path d="M40 31h0"></path>
<path d="M424 31h0"></path>
<path d="M40 31h20"></path>
<g>
<path d="M60 31h68"></path>
<path d="M336 31h68"></path>
<path d="M128 31h10"></path>
<g>
<path d="M138 31h0"></path>
<path d="M230 31h0"></path>
<rect x="138" y="20" width="92" height="22" rx="10" ry="10"></rect>
<text x="184" y="35">TS&#95;EXP&#95;ID</text>
</g>
<path d="M230 31h10"></path>
<path d="M240 31h10"></path>
<g>
<path d="M250 31h0"></path>
<path d="M278 31h0"></path>
<rect x="250" y="20" width="28" height="22" rx="10" ry="10"></rect>
<text x="264" y="35">(</text>
</g>
<path d="M278 31h10"></path>
<path d="M288 31h10"></path>
<g>
<path d="M298 31h0"></path>
<path d="M326 31h0"></path>
<rect x="298" y="20" width="28" height="22" rx="10" ry="10"></rect>
<text x="312" y="35">)</text>
</g>
<path d="M326 31h10"></path>
</g>
<path d="M404 31h20"></path>
<path d="M40 31a10 10 0 0 1 10 10v10a10 10 0 0 0 10 10"></path>
<g>
<path d="M60 61h0"></path>
<path d="M404 61h0"></path>
<path d="M60 61h10"></path>
<g>
<path d="M70 61h0"></path>
<path d="M210 61h0"></path>
<rect x="70" y="50" width="140" height="22" rx="10" ry="10"></rect>
<text x="140" y="65">TS&#95;EXP&#95;ID&#95;INDEX</text>
</g>
<path d="M210 61h10"></path>
<path d="M220 61h10"></path>
<g>
<path d="M230 61h0"></path>
<path d="M258 61h0"></path>
<rect x="230" y="50" width="28" height="22" rx="10" ry="10"></rect>
<text x="244" y="65">(</text>
</g>
<path d="M258 61h10"></path>
<path d="M268 61h10"></path>
<g>
<path d="M278 61h0"></path>
<path d="M346 61h0"></path>
<rect x="278" y="50" width="68" height="22"></rect>
<text x="312" y="65">number</text>
</g>
<path d="M346 61h10"></path>
<path d="M356 61h10"></path>
<g>
<path d="M366 61h0"></path>
<path d="M394 61h0"></path>
<rect x="366" y="50" width="28" height="22" rx="10" ry="10"></rect>
<text x="380" y="65">)</text>
</g>
<path d="M394 61h10"></path>
</g>
<path d="M404 61a10 10 0 0 0 10 -10v-10a10 10 0 0 1 10 -10"></path>
</g>
<path d="M 424 31 h 20 m -10 -10 v 20 m 10 -20 v 20"></path>
</g>
</svg>
