<?xml version="1.0" standalone="no"?>
<!DOCTYPE svg PUBLIC "-//W3C//DTD SVG 1.1//EN"
  "http://www.w3.org/Graphics/SVG/1.1/DTD/svg11.dtd">
<svg xmlns="http://www.w3.org/2000/svg" version="1.1" class="railroad-diagram" width="561" height="162" viewBox="0 0 561 162">
<defs><style type="text/css"><![CDATA[ svg.railroad-diagram {
  background-color: #ffffff;
}
svg.railroad-diagram path {
  stroke-width: 2;
  stroke: #5a6872;
  fill: none;
}
svg.railroad-diagram text {
  font-size: 14px;
  font-family: 'ibm-plex-mono', 'Menlo', 'DejaVu Sans Mono', 'Bitstream Vera Sans Mono', Courier, monospace;
  color: #152935;
  text-anchor: middle;
  cursor: pointer;
}
svg.railroad-diagram text.label {
  text-anchor: start;
}
svg.railroad-diagram text.comment {
  font-size: 12px;
}
svg.railroad-diagram rect {
  stroke-width: 2;
  stroke:  #5a6872;
  fill: #5aaafa;
}
 ]]></style></defs>
<g transform="translate(.5 .5)">
<path d="M 20 31 v 20 m 10 -20 v 20 m -10 -10 h 20.5"></path>
<g>
<path d="M40 41h0"></path>
<path d="M520 41h0"></path>
<path d="M40 41h20"></path>
<g>
<path d="M60 41h2"></path>
<path d="M498 41h2"></path>
<path d="M62 41h10"></path>
<g>
<path d="M72 41h0"></path>
<path d="M156 41h0"></path>
<rect x="72" y="30" width="84" height="22" rx="10" ry="10"></rect>
<text x="114" y="45">INTERVAL</text>
</g>
<path d="M156 41h10"></path>
<g>
<path d="M166 41h0"></path>
<path d="M362 41h0"></path>
<g>
<path d="M166 41h0"></path>
<path d="M274 41h0"></path>
<path d="M166 41a10 10 0 0 0 10 -10v0a10 10 0 0 1 10 -10"></path>
<g>
<path d="M186 21h68"></path>
</g>
<path d="M254 21a10 10 0 0 1 10 10v0a10 10 0 0 0 10 10"></path>
<path d="M166 41h20"></path>
<g>
<path d="M186 41h0"></path>
<path d="M254 41h0"></path>
<path d="M186 41h20"></path>
<g>
<path d="M206 41h0"></path>
<path d="M234 41h0"></path>
<rect x="206" y="30" width="28" height="22" rx="10" ry="10"></rect>
<text x="220" y="45">+</text>
</g>
<path d="M234 41h20"></path>
<path d="M186 41a10 10 0 0 1 10 10v10a10 10 0 0 0 10 10"></path>
<g>
<path d="M206 71h0"></path>
<path d="M234 71h0"></path>
<rect x="206" y="60" width="28" height="22" rx="10" ry="10"></rect>
<text x="220" y="75">-</text>
</g>
<path d="M234 71a10 10 0 0 0 10 -10v-10a10 10 0 0 1 10 -10"></path>
</g>
<path d="M254 41h20"></path>
</g>
<path d="M274 41h10"></path>
<g>
<path d="M284 41h0"></path>
<path d="M352 41h0"></path>
<rect x="284" y="30" width="68" height="22"></rect>
<text x="318" y="45">number</text>
</g>
<path d="M352 41h10"></path>
</g>
<path d="M362 41h10"></path>
<g>
<path d="M372 41h0"></path>
<path d="M488 41h0"></path>
<rect x="372" y="30" width="116" height="22"></rect>
<text x="430" y="45">timeUnitSpec</text>
</g>
<path d="M488 41h10"></path>
</g>
<path d="M500 41h20"></path>
<path d="M40 41a10 10 0 0 1 10 10v40a10 10 0 0 0 10 10"></path>
<g>
<path d="M60 101h0"></path>
<path d="M500 101h0"></path>
<path d="M60 101h10"></path>
<g>
<path d="M70 101h0"></path>
<path d="M154 101h0"></path>
<rect x="70" y="90" width="84" height="22" rx="10" ry="10"></rect>
<text x="112" y="105">INTERVAL</text>
</g>
<path d="M154 101h10"></path>
<path d="M164 101h10"></path>
<g>
<path d="M174 101h0"></path>
<path d="M242 101h0"></path>
<rect x="174" y="90" width="68" height="22"></rect>
<text x="208" y="105">STRING</text>
</g>
<path d="M242 101h10"></path>
<g>
<path d="M252 101h0"></path>
<path d="M500 101h0"></path>
<path d="M252 101h20"></path>
<g>
<path d="M272 101h0"></path>
<path d="M480 101h0"></path>
<path d="M272 101h10"></path>
<g>
<path d="M282 101h0"></path>
<path d="M334 101h0"></path>
<rect x="282" y="90" width="52" height="22" rx="10" ry="10"></rect>
<text x="308" y="105">YEAR</text>
</g>
<path d="M334 101h10"></path>
<path d="M344 101h10"></path>
<g>
<path d="M354 101h0"></path>
<path d="M390 101h0"></path>
<rect x="354" y="90" width="36" height="22" rx="10" ry="10"></rect>
<text x="372" y="105">TO</text>
</g>
<path d="M390 101h10"></path>
<path d="M400 101h10"></path>
<g>
<path d="M410 101h0"></path>
<path d="M470 101h0"></path>
<rect x="410" y="90" width="60" height="22" rx="10" ry="10"></rect>
<text x="440" y="105">MONTH</text>
</g>
<path d="M470 101h10"></path>
</g>
<path d="M480 101h20"></path>
<path d="M252 101a10 10 0 0 1 10 10v10a10 10 0 0 0 10 10"></path>
<g>
<path d="M272 131h0"></path>
<path d="M480 131h0"></path>
<path d="M272 131h10"></path>
<g>
<path d="M282 131h0"></path>
<path d="M326 131h0"></path>
<rect x="282" y="120" width="44" height="22" rx="10" ry="10"></rect>
<text x="304" y="135">DAY</text>
</g>
<path d="M326 131h10"></path>
<path d="M336 131h10"></path>
<g>
<path d="M346 131h0"></path>
<path d="M382 131h0"></path>
<rect x="346" y="120" width="36" height="22" rx="10" ry="10"></rect>
<text x="364" y="135">TO</text>
</g>
<path d="M382 131h10"></path>
<path d="M392 131h10"></path>
<g>
<path d="M402 131h0"></path>
<path d="M470 131h0"></path>
<rect x="402" y="120" width="68" height="22" rx="10" ry="10"></rect>
<text x="436" y="135">SECOND</text>
</g>
<path d="M470 131h10"></path>
</g>
<path d="M480 131a10 10 0 0 0 10 -10v-10a10 10 0 0 1 10 -10"></path>
</g>
</g>
<path d="M500 101a10 10 0 0 0 10 -10v-40a10 10 0 0 1 10 -10"></path>
</g>
<path d="M 520 41 h 20 m -10 -10 v 20 m 10 -20 v 20"></path>
</g>
</svg>
