<?xml version="1.0" standalone="no"?>
<!DOCTYPE svg PUBLIC "-//W3C//DTD SVG 1.1//EN"
  "http://www.w3.org/Graphics/SVG/1.1/DTD/svg11.dtd">
<svg xmlns="http://www.w3.org/2000/svg" version="1.1" class="railroad-diagram" width="301" height="292" viewBox="0 0 301 292">
<defs><style type="text/css"><![CDATA[ svg.railroad-diagram {
  background-color: #ffffff;
}
svg.railroad-diagram path {
  stroke-width: 2;
  stroke: #5a6872;
  fill: none;
}
svg.railroad-diagram text {
  font-size: 14px;
  font-family: 'ibm-plex-mono', 'Menlo', 'DejaVu Sans Mono', 'Bitstream Vera Sans Mono', Courier, monospace;
  color: #152935;
  text-anchor: middle;
  cursor: pointer;
}
svg.railroad-diagram text.label {
  text-anchor: start;
}
svg.railroad-diagram text.comment {
  font-size: 12px;
}
svg.railroad-diagram rect {
  stroke-width: 2;
  stroke:  #5a6872;
  fill: #5aaafa;
}
 ]]></style></defs>
<g transform="translate(.5 .5)">
<path d="M 20 31 v 20 m 10 -20 v 20 m -10 -10 h 20.5"></path>
<g>
<path d="M40 41h0"></path>
<path d="M260 41h0"></path>
<path d="M40 41h20"></path>
<g>
<path d="M60 41h40"></path>
<path d="M200 41h40"></path>
<path d="M100 41a10 10 0 0 0 10 -10v0a10 10 0 0 1 10 -10"></path>
<g>
<path d="M120 21h60"></path>
</g>
<path d="M180 21a10 10 0 0 1 10 10v0a10 10 0 0 0 10 10"></path>
<path d="M100 41h20"></path>
<g>
<path d="M120 41h0"></path>
<path d="M180 41h0"></path>
<rect x="120" y="30" width="60" height="22" rx="10" ry="10"></rect>
<text x="150" y="45">INNER</text>
</g>
<path d="M180 41h20"></path>
</g>
<path d="M240 41h20"></path>
<path d="M40 41a10 10 0 0 1 10 10v10a10 10 0 0 0 10 10"></path>
<g>
<path d="M60 71h60"></path>
<path d="M180 71h60"></path>
<rect x="120" y="60" width="60" height="22" rx="10" ry="10"></rect>
<text x="150" y="75">CROSS</text>
</g>
<path d="M240 71a10 10 0 0 0 10 -10v-10a10 10 0 0 1 10 -10"></path>
<path d="M40 41a10 10 0 0 1 10 10v50a10 10 0 0 0 10 10"></path>
<g>
<path d="M60 111h4"></path>
<path d="M236 111h4"></path>
<path d="M64 111h10"></path>
<g>
<path d="M74 111h0"></path>
<path d="M126 111h0"></path>
<rect x="74" y="100" width="52" height="22" rx="10" ry="10"></rect>
<text x="100" y="115">LEFT</text>
</g>
<path d="M126 111h10"></path>
<g>
<path d="M136 111h0"></path>
<path d="M236 111h0"></path>
<path d="M136 111a10 10 0 0 0 10 -10v0a10 10 0 0 1 10 -10"></path>
<g>
<path d="M156 91h60"></path>
</g>
<path d="M216 91a10 10 0 0 1 10 10v0a10 10 0 0 0 10 10"></path>
<path d="M136 111h20"></path>
<g>
<path d="M156 111h0"></path>
<path d="M216 111h0"></path>
<rect x="156" y="100" width="60" height="22" rx="10" ry="10"></rect>
<text x="186" y="115">OUTER</text>
</g>
<path d="M216 111h20"></path>
</g>
</g>
<path d="M240 111a10 10 0 0 0 10 -10v-50a10 10 0 0 1 10 -10"></path>
<path d="M40 41a10 10 0 0 1 10 10v80a10 10 0 0 0 10 10"></path>
<g>
<path d="M60 141h18"></path>
<path d="M222 141h18"></path>
<path d="M78 141h10"></path>
<g>
<path d="M88 141h0"></path>
<path d="M140 141h0"></path>
<rect x="88" y="130" width="52" height="22" rx="10" ry="10"></rect>
<text x="114" y="145">LEFT</text>
</g>
<path d="M140 141h10"></path>
<path d="M150 141h10"></path>
<g>
<path d="M160 141h0"></path>
<path d="M212 141h0"></path>
<rect x="160" y="130" width="52" height="22" rx="10" ry="10"></rect>
<text x="186" y="145">SEMI</text>
</g>
<path d="M212 141h10"></path>
</g>
<path d="M240 141a10 10 0 0 0 10 -10v-80a10 10 0 0 1 10 -10"></path>
<path d="M40 41a10 10 0 0 1 10 10v120a10 10 0 0 0 10 10"></path>
<g>
<path d="M60 181h0"></path>
<path d="M240 181h0"></path>
<path d="M60 181h10"></path>
<g>
<path d="M70 181h0"></path>
<path d="M130 181h0"></path>
<rect x="70" y="170" width="60" height="22" rx="10" ry="10"></rect>
<text x="100" y="185">RIGHT</text>
</g>
<path d="M130 181h10"></path>
<g>
<path d="M140 181h0"></path>
<path d="M240 181h0"></path>
<path d="M140 181a10 10 0 0 0 10 -10v0a10 10 0 0 1 10 -10"></path>
<g>
<path d="M160 161h60"></path>
</g>
<path d="M220 161a10 10 0 0 1 10 10v0a10 10 0 0 0 10 10"></path>
<path d="M140 181h20"></path>
<g>
<path d="M160 181h0"></path>
<path d="M220 181h0"></path>
<rect x="160" y="170" width="60" height="22" rx="10" ry="10"></rect>
<text x="190" y="185">OUTER</text>
</g>
<path d="M220 181h20"></path>
</g>
</g>
<path d="M240 181a10 10 0 0 0 10 -10v-120a10 10 0 0 1 10 -10"></path>
<path d="M40 41a10 10 0 0 1 10 10v160a10 10 0 0 0 10 10"></path>
<g>
<path d="M60 221h4"></path>
<path d="M236 221h4"></path>
<path d="M64 221h10"></path>
<g>
<path d="M74 221h0"></path>
<path d="M126 221h0"></path>
<rect x="74" y="210" width="52" height="22" rx="10" ry="10"></rect>
<text x="100" y="225">FULL</text>
</g>
<path d="M126 221h10"></path>
<g>
<path d="M136 221h0"></path>
<path d="M236 221h0"></path>
<path d="M136 221a10 10 0 0 0 10 -10v0a10 10 0 0 1 10 -10"></path>
<g>
<path d="M156 201h60"></path>
</g>
<path d="M216 201a10 10 0 0 1 10 10v0a10 10 0 0 0 10 10"></path>
<path d="M136 221h20"></path>
<g>
<path d="M156 221h0"></path>
<path d="M216 221h0"></path>
<rect x="156" y="210" width="60" height="22" rx="10" ry="10"></rect>
<text x="186" y="225">OUTER</text>
</g>
<path d="M216 221h20"></path>
</g>
</g>
<path d="M240 221a10 10 0 0 0 10 -10v-160a10 10 0 0 1 10 -10"></path>
<path d="M40 41a10 10 0 0 1 10 10v200a10 10 0 0 0 10 10"></path>
<g>
<path d="M60 261h8"></path>
<path d="M232 261h8"></path>
<g>
<path d="M68 261h0"></path>
<path d="M160 261h0"></path>
<path d="M68 261a10 10 0 0 0 10 -10v0a10 10 0 0 1 10 -10"></path>
<g>
<path d="M88 241h52"></path>
</g>
<path d="M140 241a10 10 0 0 1 10 10v0a10 10 0 0 0 10 10"></path>
<path d="M68 261h20"></path>
<g>
<path d="M88 261h0"></path>
<path d="M140 261h0"></path>
<rect x="88" y="250" width="52" height="22" rx="10" ry="10"></rect>
<text x="114" y="265">LEFT</text>
</g>
<path d="M140 261h20"></path>
</g>
<path d="M160 261h10"></path>
<g>
<path d="M170 261h0"></path>
<path d="M222 261h0"></path>
<rect x="170" y="250" width="52" height="22" rx="10" ry="10"></rect>
<text x="196" y="265">ANTI</text>
</g>
<path d="M222 261h10"></path>
</g>
<path d="M240 261a10 10 0 0 0 10 -10v-200a10 10 0 0 1 10 -10"></path>
</g>
<path d="M 260 41 h 20 m -10 -10 v 20 m 10 -20 v 20"></path>
</g>
</svg>
