<?xml version="1.0" standalone="no"?>
<!DOCTYPE svg PUBLIC "-//W3C//DTD SVG 1.1//EN"
  "http://www.w3.org/Graphics/SVG/1.1/DTD/svg11.dtd">
<svg xmlns="http://www.w3.org/2000/svg" version="1.1" class="railroad-diagram" width="433" height="122" viewBox="0 0 433 122">
<defs><style type="text/css"><![CDATA[ svg.railroad-diagram {
  background-color: #ffffff;
}
svg.railroad-diagram path {
  stroke-width: 2;
  stroke: #5a6872;
  fill: none;
}
svg.railroad-diagram text {
  font-size: 14px;
  font-family: 'ibm-plex-mono', 'Menlo', 'DejaVu Sans Mono', 'Bitstream Vera Sans Mono', Courier, monospace;
  color: #152935;
  text-anchor: middle;
  cursor: pointer;
}
svg.railroad-diagram text.label {
  text-anchor: start;
}
svg.railroad-diagram text.comment {
  font-size: 12px;
}
svg.railroad-diagram rect {
  stroke-width: 2;
  stroke:  #5a6872;
  fill: #5aaafa;
}
 ]]></style></defs>
<g transform="translate(.5 .5)">
<path d="M 20 21 v 20 m 10 -20 v 20 m -10 -10 h 20.5"></path>
<g>
<path d="M40 31h0"></path>
<path d="M392 31h0"></path>
<path d="M40 31h20"></path>
<g>
<path d="M60 31h20"></path>
<path d="M352 31h20"></path>
<path d="M80 31h10"></path>
<g>
<path d="M90 31h0"></path>
<path d="M158 31h0"></path>
<rect x="90" y="20" width="68" height="22" rx="10" ry="10"></rect>
<text x="124" y="35">MINMAX</text>
</g>
<path d="M158 31h10"></path>
<path d="M168 31h10"></path>
<g>
<path d="M178 31h0"></path>
<path d="M222 31h0"></path>
<rect x="178" y="20" width="44" height="22" rx="10" ry="10"></rect>
<text x="200" y="35">FOR</text>
</g>
<path d="M222 31h10"></path>
<path d="M232 31h10"></path>
<g>
<path d="M242 31h0"></path>
<path d="M342 31h0"></path>
<rect x="242" y="20" width="100" height="22"></rect>
<text x="292" y="35">identifier</text>
</g>
<path d="M342 31h10"></path>
</g>
<path d="M372 31h20"></path>
<path d="M40 31a10 10 0 0 1 10 10v10a10 10 0 0 0 10 10"></path>
<g>
<path d="M60 61h8"></path>
<path d="M364 61h8"></path>
<path d="M68 61h10"></path>
<g>
<path d="M78 61h0"></path>
<path d="M170 61h0"></path>
<rect x="78" y="50" width="92" height="22" rx="10" ry="10"></rect>
<text x="124" y="65">VALUELIST</text>
</g>
<path d="M170 61h10"></path>
<path d="M180 61h10"></path>
<g>
<path d="M190 61h0"></path>
<path d="M234 61h0"></path>
<rect x="190" y="50" width="44" height="22" rx="10" ry="10"></rect>
<text x="212" y="65">FOR</text>
</g>
<path d="M234 61h10"></path>
<path d="M244 61h10"></path>
<g>
<path d="M254 61h0"></path>
<path d="M354 61h0"></path>
<rect x="254" y="50" width="100" height="22"></rect>
<text x="304" y="65">identifier</text>
</g>
<path d="M354 61h10"></path>
</g>
<path d="M372 61a10 10 0 0 0 10 -10v-10a10 10 0 0 1 10 -10"></path>
<path d="M40 31a10 10 0 0 1 10 10v40a10 10 0 0 0 10 10"></path>
<g>
<path d="M60 91h0"></path>
<path d="M372 91h0"></path>
<path d="M60 91h10"></path>
<g>
<path d="M70 91h0"></path>
<path d="M178 91h0"></path>
<rect x="70" y="80" width="108" height="22" rx="10" ry="10"></rect>
<text x="124" y="95">BLOOMFILTER</text>
</g>
<path d="M178 91h10"></path>
<path d="M188 91h10"></path>
<g>
<path d="M198 91h0"></path>
<path d="M242 91h0"></path>
<rect x="198" y="80" width="44" height="22" rx="10" ry="10"></rect>
<text x="220" y="95">FOR</text>
</g>
<path d="M242 91h10"></path>
<path d="M252 91h10"></path>
<g>
<path d="M262 91h0"></path>
<path d="M362 91h0"></path>
<rect x="262" y="80" width="100" height="22"></rect>
<text x="312" y="95">identifier</text>
</g>
<path d="M362 91h10"></path>
</g>
<path d="M372 91a10 10 0 0 0 10 -10v-40a10 10 0 0 1 10 -10"></path>
</g>
<path d="M 392 31 h 20 m -10 -10 v 20 m 10 -20 v 20"></path>
</g>
</svg>
