<?xml version="1.0" standalone="no"?>
<!DOCTYPE svg PUBLIC "-//W3C//DTD SVG 1.1//EN"
  "http://www.w3.org/Graphics/SVG/1.1/DTD/svg11.dtd">
<svg xmlns="http://www.w3.org/2000/svg" version="1.1" class="railroad-diagram" width="397" height="212" viewBox="0 0 397 212">
<defs><style type="text/css"><![CDATA[ svg.railroad-diagram {
  background-color: #ffffff;
}
svg.railroad-diagram path {
  stroke-width: 2;
  stroke: #5a6872;
  fill: none;
}
svg.railroad-diagram text {
  font-size: 14px;
  font-family: 'ibm-plex-mono', 'Menlo', 'DejaVu Sans Mono', 'Bitstream Vera Sans Mono', Courier, monospace;
  color: #152935;
  text-anchor: middle;
  cursor: pointer;
}
svg.railroad-diagram text.label {
  text-anchor: start;
}
svg.railroad-diagram text.comment {
  font-size: 12px;
}
svg.railroad-diagram rect {
  stroke-width: 2;
  stroke:  #5a6872;
  fill: #5aaafa;
}
 ]]></style></defs>
<g transform="translate(.5 .5)">
<path d="M 20 21 v 20 m 10 -20 v 20 m -10 -10 h 20.5"></path>
<g>
<path d="M40 31h0"></path>
<path d="M356 31h0"></path>
<path d="M40 31h20"></path>
<g>
<path d="M60 31h36"></path>
<path d="M300 31h36"></path>
<rect x="96" y="20" width="204" height="22"></rect>
<text x="198" y="35">metaindexRefreshCommand</text>
</g>
<path d="M336 31h20"></path>
<path d="M40 31a10 10 0 0 1 10 10v10a10 10 0 0 0 10 10"></path>
<g>
<path d="M60 61h40"></path>
<path d="M296 61h40"></path>
<rect x="100" y="50" width="196" height="22"></rect>
<text x="198" y="65">metaindexCreateCommand</text>
</g>
<path d="M336 61a10 10 0 0 0 10 -10v-10a10 10 0 0 1 10 -10"></path>
<path d="M40 31a10 10 0 0 1 10 10v40a10 10 0 0 0 10 10"></path>
<g>
<path d="M60 91h48"></path>
<path d="M288 91h48"></path>
<rect x="108" y="80" width="180" height="22"></rect>
<text x="198" y="95">metaindexDropCommand</text>
</g>
<path d="M336 91a10 10 0 0 0 10 -10v-40a10 10 0 0 1 10 -10"></path>
<path d="M40 31a10 10 0 0 1 10 10v70a10 10 0 0 0 10 10"></path>
<g>
<path d="M60 121h32"></path>
<path d="M304 121h32"></path>
<rect x="92" y="110" width="212" height="22"></rect>
<text x="198" y="125">metaindexLocationCommand</text>
</g>
<path d="M336 121a10 10 0 0 0 10 -10v-70a10 10 0 0 1 10 -10"></path>
<path d="M40 31a10 10 0 0 1 10 10v100a10 10 0 0 0 10 10"></path>
<g>
<path d="M60 151h16"></path>
<path d="M320 151h16"></path>
<rect x="76" y="140" width="244" height="22"></rect>
<text x="198" y="155">hiveMetaindexLocationCommand</text>
</g>
<path d="M336 151a10 10 0 0 0 10 -10v-100a10 10 0 0 1 10 -10"></path>
<path d="M40 31a10 10 0 0 1 10 10v130a10 10 0 0 0 10 10"></path>
<g>
<path d="M60 181h0"></path>
<path d="M336 181h0"></path>
<rect x="60" y="170" width="276" height="22"></rect>
<text x="198" y="185">hiveMetaindexDropLocationCommand</text>
</g>
<path d="M336 181a10 10 0 0 0 10 -10v-130a10 10 0 0 1 10 -10"></path>
</g>
<path d="M 356 31 h 20 m -10 -10 v 20 m 10 -20 v 20"></path>
</g>
</svg>
