<?xml version="1.0" standalone="no"?>
<!DOCTYPE svg PUBLIC "-//W3C//DTD SVG 1.1//EN"
  "http://www.w3.org/Graphics/SVG/1.1/DTD/svg11.dtd">
<svg xmlns="http://www.w3.org/2000/svg" version="1.1" class="railroad-diagram" width="333" height="102" viewBox="0 0 333 102">
<defs><style type="text/css"><![CDATA[ svg.railroad-diagram {
  background-color: #ffffff;
}
svg.railroad-diagram path {
  stroke-width: 2;
  stroke: #5a6872;
  fill: none;
}
svg.railroad-diagram text {
  font-size: 14px;
  font-family: 'ibm-plex-mono', 'Menlo', 'DejaVu Sans Mono', 'Bitstream Vera Sans Mono', Courier, monospace;
  color: #152935;
  text-anchor: middle;
  cursor: pointer;
}
svg.railroad-diagram text.label {
  text-anchor: start;
}
svg.railroad-diagram text.comment {
  font-size: 12px;
}
svg.railroad-diagram rect {
  stroke-width: 2;
  stroke:  #5a6872;
  fill: #5aaafa;
}
 ]]></style></defs>
<g transform="translate(.5 .5)">
<path d="M 20 31 v 20 m 10 -20 v 20 m -10 -10 h 20.5"></path>
<g>
<path d="M40 41h0"></path>
<path d="M292 41h0"></path>
<path d="M40 41h10"></path>
<g>
<path d="M50 41h0"></path>
<path d="M150 41h0"></path>
<rect x="50" y="30" width="100" height="22"></rect>
<text x="100" y="45">expression</text>
</g>
<path d="M150 41h10"></path>
<g>
<path d="M160 41h0"></path>
<path d="M292 41h0"></path>
<path d="M160 41a10 10 0 0 0 10 -10v0a10 10 0 0 1 10 -10"></path>
<g>
<path d="M180 21h92"></path>
</g>
<path d="M272 21a10 10 0 0 1 10 10v0a10 10 0 0 0 10 10"></path>
<path d="M160 41h20"></path>
<g>
<path d="M180 41h0"></path>
<path d="M272 41h0"></path>
<path d="M180 41h20"></path>
<g>
<path d="M200 41h4"></path>
<path d="M248 41h4"></path>
<rect x="204" y="30" width="44" height="22" rx="10" ry="10"></rect>
<text x="226" y="45">ASC</text>
</g>
<path d="M252 41h20"></path>
<path d="M180 41a10 10 0 0 1 10 10v10a10 10 0 0 0 10 10"></path>
<g>
<path d="M200 71h0"></path>
<path d="M252 71h0"></path>
<rect x="200" y="60" width="52" height="22" rx="10" ry="10"></rect>
<text x="226" y="75">DESC</text>
</g>
<path d="M252 71a10 10 0 0 0 10 -10v-10a10 10 0 0 1 10 -10"></path>
</g>
<path d="M272 41h20"></path>
</g>
</g>
<path d="M 292 41 h 20 m -10 -10 v 20 m 10 -20 v 20"></path>
</g>
</svg>
