<?xml version="1.0" standalone="no"?>
<!DOCTYPE svg PUBLIC "-//W3C//DTD SVG 1.1//EN"
  "http://www.w3.org/Graphics/SVG/1.1/DTD/svg11.dtd">
<svg xmlns="http://www.w3.org/2000/svg" version="1.1" class="railroad-diagram" width="641" height="102" viewBox="0 0 641 102">
<defs><style type="text/css"><![CDATA[ svg.railroad-diagram {
  background-color: #ffffff;
}
svg.railroad-diagram path {
  stroke-width: 2;
  stroke: #5a6872;
  fill: none;
}
svg.railroad-diagram text {
  font-size: 14px;
  font-family: 'ibm-plex-mono', 'Menlo', 'DejaVu Sans Mono', 'Bitstream Vera Sans Mono', Courier, monospace;
  color: #152935;
  text-anchor: middle;
  cursor: pointer;
}
svg.railroad-diagram text.label {
  text-anchor: start;
}
svg.railroad-diagram text.comment {
  font-size: 12px;
}
svg.railroad-diagram rect {
  stroke-width: 2;
  stroke:  #5a6872;
  fill: #5aaafa;
}
 ]]></style></defs>
<g transform="translate(.5 .5)">
<path d="M 20 31 v 20 m 10 -20 v 20 m -10 -10 h 20.5"></path>
<g>
<path d="M40 41h0"></path>
<path d="M600 41h0"></path>
<path d="M40 41h10"></path>
<g>
<path d="M50 41h0"></path>
<path d="M142 41h0"></path>
<rect x="50" y="30" width="92" height="22" rx="10" ry="10"></rect>
<text x="96" y="45">PARTITION</text>
</g>
<path d="M142 41h10"></path>
<path d="M152 41h10"></path>
<g>
<path d="M162 41h0"></path>
<path d="M190 41h0"></path>
<rect x="162" y="30" width="28" height="22" rx="10" ry="10"></rect>
<text x="176" y="45">(</text>
</g>
<path d="M190 41h10"></path>
<path d="M200 41h10"></path>
<g>
<path d="M210 41h0"></path>
<path d="M542 41h0"></path>
<path d="M210 41h10"></path>
<g>
<path d="M220 41h0"></path>
<path d="M532 41h0"></path>
<path d="M220 41h10"></path>
<g>
<path d="M230 41h0"></path>
<path d="M330 41h0"></path>
<rect x="230" y="30" width="100" height="22"></rect>
<text x="280" y="45">identifier</text>
</g>
<path d="M330 41h10"></path>
<g>
<path d="M340 41h0"></path>
<path d="M532 41h0"></path>
<path d="M340 41a10 10 0 0 0 10 -10v0a10 10 0 0 1 10 -10"></path>
<g>
<path d="M360 21h152"></path>
</g>
<path d="M512 21a10 10 0 0 1 10 10v0a10 10 0 0 0 10 10"></path>
<path d="M340 41h20"></path>
<g>
<path d="M360 41h0"></path>
<path d="M512 41h0"></path>
<path d="M360 41h10"></path>
<g>
<path d="M370 41h0"></path>
<path d="M398 41h0"></path>
<rect x="370" y="30" width="28" height="22" rx="10" ry="10"></rect>
<text x="384" y="45">=</text>
</g>
<path d="M398 41h10"></path>
<path d="M408 41h10"></path>
<g>
<path d="M418 41h0"></path>
<path d="M502 41h0"></path>
<rect x="418" y="30" width="84" height="22"></rect>
<text x="460" y="45">constant</text>
</g>
<path d="M502 41h10"></path>
</g>
<path d="M512 41h20"></path>
</g>
</g>
<path d="M532 41h10"></path>
<path d="M220 41a10 10 0 0 0 -10 10v10a10 10 0 0 0 10 10"></path>
<g>
<path d="M220 71h132"></path>
<path d="M400 71h132"></path>
<path d="M352 71h10"></path>
<g>
<path d="M362 71h0"></path>
<path d="M390 71h0"></path>
<rect x="362" y="60" width="28" height="22" rx="10" ry="10"></rect>
<text x="376" y="75">,</text>
</g>
<path d="M390 71h10"></path>
</g>
<path d="M532 71a10 10 0 0 0 10 -10v-10a10 10 0 0 0 -10 -10"></path>
</g>
<path d="M542 41h10"></path>
<path d="M552 41h10"></path>
<g>
<path d="M562 41h0"></path>
<path d="M590 41h0"></path>
<rect x="562" y="30" width="28" height="22" rx="10" ry="10"></rect>
<text x="576" y="45">)</text>
</g>
<path d="M590 41h10"></path>
</g>
<path d="M 600 41 h 20 m -10 -10 v 20 m 10 -20 v 20"></path>
</g>
</svg>
