<?xml version="1.0" standalone="no"?>
<!DOCTYPE svg PUBLIC "-//W3C//DTD SVG 1.1//EN"
  "http://www.w3.org/Graphics/SVG/1.1/DTD/svg11.dtd">
<svg xmlns="http://www.w3.org/2000/svg" version="1.1" class="railroad-diagram" width="1461" height="102" viewBox="0 0 1461 102">
<defs><style type="text/css"><![CDATA[ svg.railroad-diagram {
  background-color: #ffffff;
}
svg.railroad-diagram path {
  stroke-width: 2;
  stroke: #5a6872;
  fill: none;
}
svg.railroad-diagram text {
  font-size: 14px;
  font-family: 'ibm-plex-mono', 'Menlo', 'DejaVu Sans Mono', 'Bitstream Vera Sans Mono', Courier, monospace;
  color: #152935;
  text-anchor: middle;
  cursor: pointer;
}
svg.railroad-diagram text.label {
  text-anchor: start;
}
svg.railroad-diagram text.comment {
  font-size: 12px;
}
svg.railroad-diagram rect {
  stroke-width: 2;
  stroke:  #5a6872;
  fill: #5aaafa;
}
 ]]></style></defs>
<g transform="translate(.5 .5)">
<path d="M 20 31 v 20 m 10 -20 v 20 m -10 -10 h 20.5"></path>
<g>
<path d="M40 41h0"></path>
<path d="M1420 41h0"></path>
<path d="M40 41h10"></path>
<g>
<path d="M50 41h0"></path>
<path d="M158 41h0"></path>
<rect x="50" y="30" width="108" height="22" rx="10" ry="10"></rect>
<text x="104" y="45">PARTITIONED</text>
</g>
<path d="M158 41h10"></path>
<g>
<path d="M168 41h0"></path>
<path d="M1420 41h0"></path>
<g>
<path d="M168 41h0"></path>
<path d="M520 41h0"></path>
<path d="M168 41a10 10 0 0 0 10 -10v0a10 10 0 0 1 10 -10"></path>
<g>
<path d="M188 21h312"></path>
</g>
<path d="M500 21a10 10 0 0 1 10 10v0a10 10 0 0 0 10 10"></path>
<path d="M168 41h20"></path>
<g>
<path d="M188 41h0"></path>
<path d="M500 41h0"></path>
<path d="M188 41h10"></path>
<g>
<path d="M198 41h0"></path>
<path d="M234 41h0"></path>
<rect x="198" y="30" width="36" height="22" rx="10" ry="10"></rect>
<text x="216" y="45">BY</text>
</g>
<path d="M234 41h10"></path>
<path d="M244 41h10"></path>
<g>
<path d="M254 41h0"></path>
<path d="M282 41h0"></path>
<rect x="254" y="30" width="28" height="22" rx="10" ry="10"></rect>
<text x="268" y="45">(</text>
</g>
<path d="M282 41h10"></path>
<path d="M292 41h10"></path>
<g>
<path d="M302 41h0"></path>
<path d="M442 41h0"></path>
<path d="M302 41h10"></path>
<g>
<path d="M312 41h0"></path>
<path d="M432 41h0"></path>
<path d="M312 41h10"></path>
<g>
<path d="M322 41h0"></path>
<path d="M422 41h0"></path>
<rect x="322" y="30" width="100" height="22"></rect>
<text x="372" y="45">identifier</text>
</g>
<path d="M422 41h10"></path>
</g>
<path d="M432 41h10"></path>
<path d="M312 41a10 10 0 0 0 -10 10v10a10 10 0 0 0 10 10"></path>
<g>
<path d="M312 71h36"></path>
<path d="M396 71h36"></path>
<path d="M348 71h10"></path>
<g>
<path d="M358 71h0"></path>
<path d="M386 71h0"></path>
<rect x="358" y="60" width="28" height="22" rx="10" ry="10"></rect>
<text x="372" y="75">,</text>
</g>
<path d="M386 71h10"></path>
</g>
<path d="M432 71a10 10 0 0 0 10 -10v-10a10 10 0 0 0 -10 -10"></path>
</g>
<path d="M442 41h10"></path>
<path d="M452 41h10"></path>
<g>
<path d="M462 41h0"></path>
<path d="M490 41h0"></path>
<rect x="462" y="30" width="28" height="22" rx="10" ry="10"></rect>
<text x="476" y="45">)</text>
</g>
<path d="M490 41h10"></path>
</g>
<path d="M500 41h20"></path>
</g>
<path d="M520 41h10"></path>
<g>
<path d="M530 41h0"></path>
<path d="M606 41h0"></path>
<rect x="530" y="30" width="76" height="22" rx="10" ry="10"></rect>
<text x="568" y="45">@break@</text>
</g>
<path d="M606 41h10"></path>
<g>
<path d="M616 41h0"></path>
<path d="M988 41h0"></path>
<path d="M616 41a10 10 0 0 0 10 -10v0a10 10 0 0 1 10 -10"></path>
<g>
<path d="M636 21h332"></path>
</g>
<path d="M968 21a10 10 0 0 1 10 10v0a10 10 0 0 0 10 10"></path>
<path d="M616 41h20"></path>
<g>
<path d="M636 41h0"></path>
<path d="M968 41h0"></path>
<path d="M636 41h10"></path>
<g>
<path d="M646 41h0"></path>
<path d="M698 41h0"></path>
<rect x="646" y="30" width="52" height="22" rx="10" ry="10"></rect>
<text x="672" y="45">INTO</text>
</g>
<path d="M698 41h10"></path>
<path d="M708 41h10"></path>
<g>
<path d="M718 41h0"></path>
<path d="M842 41h0"></path>
<rect x="718" y="30" width="124" height="22"></rect>
<text x="780" y="45">INTEGER&#95;VALUE</text>
</g>
<path d="M842 41h10"></path>
<g>
<path d="M852 41h0"></path>
<path d="M968 41h0"></path>
<path d="M852 41h20"></path>
<g>
<path d="M872 41h0"></path>
<path d="M948 41h0"></path>
<rect x="872" y="30" width="76" height="22" rx="10" ry="10"></rect>
<text x="910" y="45">BUCKETS</text>
</g>
<path d="M948 41h20"></path>
<path d="M852 41a10 10 0 0 1 10 10v10a10 10 0 0 0 10 10"></path>
<g>
<path d="M872 71h0"></path>
<path d="M948 71h0"></path>
<rect x="872" y="60" width="76" height="22" rx="10" ry="10"></rect>
<text x="910" y="75">OBJECTS</text>
</g>
<path d="M948 71a10 10 0 0 0 10 -10v-10a10 10 0 0 1 10 -10"></path>
</g>
</g>
<path d="M968 41h20"></path>
</g>
<path d="M988 41h10"></path>
<g>
<path d="M998 41h0"></path>
<path d="M1074 41h0"></path>
<rect x="998" y="30" width="76" height="22" rx="10" ry="10"></rect>
<text x="1036" y="45">@break@</text>
</g>
<path d="M1074 41h10"></path>
<g>
<path d="M1084 41h0"></path>
<path d="M1420 41h0"></path>
<path d="M1084 41a10 10 0 0 0 10 -10v0a10 10 0 0 1 10 -10"></path>
<g>
<path d="M1104 21h296"></path>
</g>
<path d="M1400 21a10 10 0 0 1 10 10v0a10 10 0 0 0 10 10"></path>
<path d="M1084 41h20"></path>
<g>
<path d="M1104 41h0"></path>
<path d="M1400 41h0"></path>
<path d="M1104 41h10"></path>
<g>
<path d="M1114 41h0"></path>
<path d="M1174 41h0"></path>
<rect x="1114" y="30" width="60" height="22" rx="10" ry="10"></rect>
<text x="1144" y="45">EVERY</text>
</g>
<path d="M1174 41h10"></path>
<path d="M1184 41h10"></path>
<g>
<path d="M1194 41h0"></path>
<path d="M1318 41h0"></path>
<rect x="1194" y="30" width="124" height="22"></rect>
<text x="1256" y="45">INTEGER&#95;VALUE</text>
</g>
<path d="M1318 41h10"></path>
<path d="M1328 41h10"></path>
<g>
<path d="M1338 41h0"></path>
<path d="M1390 41h0"></path>
<rect x="1338" y="30" width="52" height="22" rx="10" ry="10"></rect>
<text x="1364" y="45">ROWS</text>
</g>
<path d="M1390 41h10"></path>
</g>
<path d="M1400 41h20"></path>
</g>
</g>
</g>
<path d="M 1420 41 h 20 m -10 -10 v 20 m 10 -20 v 20"></path>
</g>
</svg>
