<?xml version="1.0" standalone="no"?>
<!DOCTYPE svg PUBLIC "-//W3C//DTD SVG 1.1//EN"
  "http://www.w3.org/Graphics/SVG/1.1/DTD/svg11.dtd">
<svg xmlns="http://www.w3.org/2000/svg" version="1.1" class="railroad-diagram" width="601" height="92" viewBox="0 0 601 92">
<defs><style type="text/css"><![CDATA[ svg.railroad-diagram {
  background-color: #ffffff;
}
svg.railroad-diagram path {
  stroke-width: 2;
  stroke: #5a6872;
  fill: none;
}
svg.railroad-diagram text {
  font-size: 14px;
  font-family: 'ibm-plex-mono', 'Menlo', 'DejaVu Sans Mono', 'Bitstream Vera Sans Mono', Courier, monospace;
  color: #152935;
  text-anchor: middle;
  cursor: pointer;
}
svg.railroad-diagram text.label {
  text-anchor: start;
}
svg.railroad-diagram text.comment {
  font-size: 12px;
}
svg.railroad-diagram rect {
  stroke-width: 2;
  stroke:  #5a6872;
  fill: #5aaafa;
}
 ]]></style></defs>
<g transform="translate(.5 .5)">
<path d="M 20 21 v 20 m 10 -20 v 20 m -10 -10 h 20.5"></path>
<g>
<path d="M40 31h0"></path>
<path d="M560 31h0"></path>
<path d="M40 31h10"></path>
<g>
<path d="M50 31h0"></path>
<path d="M142 31h0"></path>
<rect x="50" y="20" width="92" height="22" rx="10" ry="10"></rect>
<text x="96" y="35">PARTITION</text>
</g>
<path d="M142 31h10"></path>
<path d="M152 31h10"></path>
<g>
<path d="M162 31h0"></path>
<path d="M190 31h0"></path>
<rect x="162" y="20" width="28" height="22" rx="10" ry="10"></rect>
<text x="176" y="35">(</text>
</g>
<path d="M190 31h10"></path>
<path d="M200 31h10"></path>
<g>
<path d="M210 31h0"></path>
<path d="M502 31h0"></path>
<path d="M210 31h10"></path>
<g>
<path d="M220 31h0"></path>
<path d="M492 31h0"></path>
<path d="M220 31h10"></path>
<g>
<path d="M230 31h0"></path>
<path d="M330 31h0"></path>
<rect x="230" y="20" width="100" height="22"></rect>
<text x="280" y="35">identifier</text>
</g>
<path d="M330 31h10"></path>
<path d="M340 31h10"></path>
<g>
<path d="M350 31h0"></path>
<path d="M378 31h0"></path>
<rect x="350" y="20" width="28" height="22" rx="10" ry="10"></rect>
<text x="364" y="35">=</text>
</g>
<path d="M378 31h10"></path>
<path d="M388 31h10"></path>
<g>
<path d="M398 31h0"></path>
<path d="M482 31h0"></path>
<rect x="398" y="20" width="84" height="22"></rect>
<text x="440" y="35">constant</text>
</g>
<path d="M482 31h10"></path>
</g>
<path d="M492 31h10"></path>
<path d="M220 31a10 10 0 0 0 -10 10v10a10 10 0 0 0 10 10"></path>
<g>
<path d="M220 61h112"></path>
<path d="M380 61h112"></path>
<path d="M332 61h10"></path>
<g>
<path d="M342 61h0"></path>
<path d="M370 61h0"></path>
<rect x="342" y="50" width="28" height="22" rx="10" ry="10"></rect>
<text x="356" y="65">,</text>
</g>
<path d="M370 61h10"></path>
</g>
<path d="M492 61a10 10 0 0 0 10 -10v-10a10 10 0 0 0 -10 -10"></path>
</g>
<path d="M502 31h10"></path>
<path d="M512 31h10"></path>
<g>
<path d="M522 31h0"></path>
<path d="M550 31h0"></path>
<rect x="522" y="20" width="28" height="22" rx="10" ry="10"></rect>
<text x="536" y="35">)</text>
</g>
<path d="M550 31h10"></path>
</g>
<path d="M 560 31 h 20 m -10 -10 v 20 m 10 -20 v 20"></path>
</g>
</svg>
