<?xml version="1.0" standalone="no"?>
<!DOCTYPE svg PUBLIC "-//W3C//DTD SVG 1.1//EN"
  "http://www.w3.org/Graphics/SVG/1.1/DTD/svg11.dtd">
<svg xmlns="http://www.w3.org/2000/svg" version="1.1" class="railroad-diagram" width="413" height="92" viewBox="0 0 413 92">
<defs><style type="text/css"><![CDATA[ svg.railroad-diagram {
  background-color: #ffffff;
}
svg.railroad-diagram path {
  stroke-width: 2;
  stroke: #5a6872;
  fill: none;
}
svg.railroad-diagram text {
  font-size: 14px;
  font-family: 'ibm-plex-mono', 'Menlo', 'DejaVu Sans Mono', 'Bitstream Vera Sans Mono', Courier, monospace;
  color: #152935;
  text-anchor: middle;
  cursor: pointer;
}
svg.railroad-diagram text.label {
  text-anchor: start;
}
svg.railroad-diagram text.comment {
  font-size: 12px;
}
svg.railroad-diagram rect {
  stroke-width: 2;
  stroke:  #5a6872;
  fill: #5aaafa;
}
 ]]></style></defs>
<g transform="translate(.5 .5)">
<path d="M 20 21 v 20 m 10 -20 v 20 m -10 -10 h 20.5"></path>
<g>
<path d="M40 31h0"></path>
<path d="M372 31h0"></path>
<path d="M40 31h10"></path>
<g>
<path d="M50 31h0"></path>
<path d="M102 31h0"></path>
<rect x="50" y="20" width="52" height="22" rx="10" ry="10"></rect>
<text x="76" y="35">INTO</text>
</g>
<path d="M102 31h10"></path>
<path d="M112 31h10"></path>
<g>
<path d="M122 31h0"></path>
<path d="M246 31h0"></path>
<rect x="122" y="20" width="124" height="22"></rect>
<text x="184" y="35">INTEGER&#95;VALUE</text>
</g>
<path d="M246 31h10"></path>
<g>
<path d="M256 31h0"></path>
<path d="M372 31h0"></path>
<path d="M256 31h20"></path>
<g>
<path d="M276 31h0"></path>
<path d="M352 31h0"></path>
<rect x="276" y="20" width="76" height="22" rx="10" ry="10"></rect>
<text x="314" y="35">BUCKETS</text>
</g>
<path d="M352 31h20"></path>
<path d="M256 31a10 10 0 0 1 10 10v10a10 10 0 0 0 10 10"></path>
<g>
<path d="M276 61h0"></path>
<path d="M352 61h0"></path>
<rect x="276" y="50" width="76" height="22" rx="10" ry="10"></rect>
<text x="314" y="65">OBJECTS</text>
</g>
<path d="M352 61a10 10 0 0 0 10 -10v-10a10 10 0 0 1 10 -10"></path>
</g>
</g>
<path d="M 372 31 h 20 m -10 -10 v 20 m 10 -20 v 20"></path>
</g>
</svg>
