<?xml version="1.0" standalone="no"?>
<!DOCTYPE svg PUBLIC "-//W3C//DTD SVG 1.1//EN"
  "http://www.w3.org/Graphics/SVG/1.1/DTD/svg11.dtd">
<svg xmlns="http://www.w3.org/2000/svg" version="1.1" class="railroad-diagram" width="749" height="102" viewBox="0 0 749 102">
<defs><style type="text/css"><![CDATA[ svg.railroad-diagram {
  background-color: #ffffff;
}
svg.railroad-diagram path {
  stroke-width: 2;
  stroke: #5a6872;
  fill: none;
}
svg.railroad-diagram text {
  font-size: 14px;
  font-family: 'ibm-plex-mono', 'Menlo', 'DejaVu Sans Mono', 'Bitstream Vera Sans Mono', Courier, monospace;
  color: #152935;
  text-anchor: middle;
  cursor: pointer;
}
svg.railroad-diagram text.label {
  text-anchor: start;
}
svg.railroad-diagram text.comment {
  font-size: 12px;
}
svg.railroad-diagram rect {
  stroke-width: 2;
  stroke:  #5a6872;
  fill: #5aaafa;
}
 ]]></style></defs>
<g transform="translate(.5 .5)">
<path d="M 20 31 v 20 m 10 -20 v 20 m -10 -10 h 20.5"></path>
<g>
<path d="M40 41h0"></path>
<path d="M708 41h0"></path>
<g>
<path d="M40 41h0"></path>
<path d="M372 41h0"></path>
<path d="M40 41h10"></path>
<g>
<path d="M50 41h0"></path>
<path d="M102 41h0"></path>
<rect x="50" y="30" width="52" height="22" rx="10" ry="10"></rect>
<text x="76" y="45">INTO</text>
</g>
<path d="M102 41h10"></path>
<path d="M112 41h10"></path>
<g>
<path d="M122 41h0"></path>
<path d="M246 41h0"></path>
<rect x="122" y="30" width="124" height="22"></rect>
<text x="184" y="45">INTEGER&#95;VALUE</text>
</g>
<path d="M246 41h10"></path>
<g>
<path d="M256 41h0"></path>
<path d="M372 41h0"></path>
<path d="M256 41h20"></path>
<g>
<path d="M276 41h0"></path>
<path d="M352 41h0"></path>
<rect x="276" y="30" width="76" height="22" rx="10" ry="10"></rect>
<text x="314" y="45">BUCKETS</text>
</g>
<path d="M352 41h20"></path>
<path d="M256 41a10 10 0 0 1 10 10v10a10 10 0 0 0 10 10"></path>
<g>
<path d="M276 71h0"></path>
<path d="M352 71h0"></path>
<rect x="276" y="60" width="76" height="22" rx="10" ry="10"></rect>
<text x="314" y="75">OBJECTS</text>
</g>
<path d="M352 71a10 10 0 0 0 10 -10v-10a10 10 0 0 1 10 -10"></path>
</g>
</g>
<g>
<path d="M372 41h0"></path>
<path d="M708 41h0"></path>
<path d="M372 41a10 10 0 0 0 10 -10v0a10 10 0 0 1 10 -10"></path>
<g>
<path d="M392 21h296"></path>
</g>
<path d="M688 21a10 10 0 0 1 10 10v0a10 10 0 0 0 10 10"></path>
<path d="M372 41h20"></path>
<g>
<path d="M392 41h0"></path>
<path d="M688 41h0"></path>
<path d="M392 41h10"></path>
<g>
<path d="M402 41h0"></path>
<path d="M462 41h0"></path>
<rect x="402" y="30" width="60" height="22" rx="10" ry="10"></rect>
<text x="432" y="45">EVERY</text>
</g>
<path d="M462 41h10"></path>
<path d="M472 41h10"></path>
<g>
<path d="M482 41h0"></path>
<path d="M606 41h0"></path>
<rect x="482" y="30" width="124" height="22"></rect>
<text x="544" y="45">INTEGER&#95;VALUE</text>
</g>
<path d="M606 41h10"></path>
<path d="M616 41h10"></path>
<g>
<path d="M626 41h0"></path>
<path d="M678 41h0"></path>
<rect x="626" y="30" width="52" height="22" rx="10" ry="10"></rect>
<text x="652" y="45">ROWS</text>
</g>
<path d="M678 41h10"></path>
</g>
<path d="M688 41h20"></path>
</g>
</g>
<path d="M 708 41 h 20 m -10 -10 v 20 m 10 -20 v 20"></path>
</g>
</svg>
