<?xml version="1.0" standalone="no"?>
<!DOCTYPE svg PUBLIC "-//W3C//DTD SVG 1.1//EN"
  "http://www.w3.org/Graphics/SVG/1.1/DTD/svg11.dtd">
<svg xmlns="http://www.w3.org/2000/svg" version="1.1" class="railroad-diagram" width="437" height="82" viewBox="0 0 437 82">
<defs><style type="text/css"><![CDATA[ svg.railroad-diagram {
  background-color: #ffffff;
}
svg.railroad-diagram path {
  stroke-width: 2;
  stroke: #5a6872;
  fill: none;
}
svg.railroad-diagram text {
  font-size: 14px;
  font-family: 'ibm-plex-mono', 'Menlo', 'DejaVu Sans Mono', 'Bitstream Vera Sans Mono', Courier, monospace;
  color: #152935;
  text-anchor: middle;
  cursor: pointer;
}
svg.railroad-diagram text.label {
  text-anchor: start;
}
svg.railroad-diagram text.comment {
  font-size: 12px;
}
svg.railroad-diagram rect {
  stroke-width: 2;
  stroke:  #5a6872;
  fill: #5aaafa;
}
 ]]></style></defs>
<g transform="translate(.5 .5)">
<path d="M 20 41 v 20 m 10 -20 v 20 m -10 -10 h 20.5"></path>
<g>
<path d="M40 51h0"></path>
<path d="M396 51h0"></path>
<path d="M40 51h10"></path>
<g>
<path d="M50 51h0"></path>
<path d="M150 51h0"></path>
<rect x="50" y="40" width="100" height="22"></rect>
<text x="100" y="55">expression</text>
</g>
<path d="M150 51h10"></path>
<g>
<path d="M160 51h0"></path>
<path d="M396 51h0"></path>
<path d="M160 51a10 10 0 0 0 10 -10v-9a10 10 0 0 1 10 -10"></path>
<g>
<path d="M180 22h196"></path>
</g>
<path d="M376 22a10 10 0 0 1 10 10v9a10 10 0 0 0 10 10"></path>
<path d="M160 51h20"></path>
<g>
<path d="M180 51h0"></path>
<path d="M376 51h0"></path>
<g>
<path d="M180 51h0"></path>
<path d="M256 51h0"></path>
<path d="M180 51a10 10 0 0 0 10 -10v0a10 10 0 0 1 10 -10"></path>
<g>
<path d="M200 31h36"></path>
</g>
<path d="M236 31a10 10 0 0 1 10 10v0a10 10 0 0 0 10 10"></path>
<path d="M180 51h20"></path>
<g>
<path d="M200 51h0"></path>
<path d="M236 51h0"></path>
<rect x="200" y="40" width="36" height="22" rx="10" ry="10"></rect>
<text x="218" y="55">AS</text>
</g>
<path d="M236 51h20"></path>
</g>
<path d="M256 51h10"></path>
<g>
<path d="M266 51h0"></path>
<path d="M366 51h0"></path>
<rect x="266" y="40" width="100" height="22"></rect>
<text x="316" y="55">identifier</text>
</g>
<path d="M366 51h10"></path>
</g>
<path d="M376 51h20"></path>
</g>
</g>
<path d="M 396 51 h 20 m -10 -10 v 20 m 10 -20 v 20"></path>
</g>
</svg>
