<?xml version="1.0" standalone="no"?>
<!DOCTYPE svg PUBLIC "-//W3C//DTD SVG 1.1//EN"
  "http://www.w3.org/Graphics/SVG/1.1/DTD/svg11.dtd">
<svg xmlns="http://www.w3.org/2000/svg" version="1.1" class="railroad-diagram" width="441" height="92" viewBox="0 0 441 92">
<defs><style type="text/css"><![CDATA[ svg.railroad-diagram {
  background-color: #ffffff;
}
svg.railroad-diagram path {
  stroke-width: 2;
  stroke: #5a6872;
  fill: none;
}
svg.railroad-diagram text {
  font-size: 14px;
  font-family: 'ibm-plex-mono', 'Menlo', 'DejaVu Sans Mono', 'Bitstream Vera Sans Mono', Courier, monospace;
  color: #152935;
  text-anchor: middle;
  cursor: pointer;
}
svg.railroad-diagram text.label {
  text-anchor: start;
}
svg.railroad-diagram text.comment {
  font-size: 12px;
}
svg.railroad-diagram rect {
  stroke-width: 2;
  stroke:  #5a6872;
  fill: #5aaafa;
}
 ]]></style></defs>
<g transform="translate(.5 .5)">
<path d="M 20 21 v 20 m 10 -20 v 20 m -10 -10 h 20.5"></path>
<g>
<path d="M40 31h0"></path>
<path d="M400 31h0"></path>
<path d="M40 31h10"></path>
<g>
<path d="M50 31h0"></path>
<path d="M126 31h0"></path>
<rect x="50" y="20" width="76" height="22" rx="10" ry="10"></rect>
<text x="88" y="35">SORT BY</text>
</g>
<path d="M126 31h10"></path>
<path d="M136 31h10"></path>
<g>
<path d="M146 31h0"></path>
<path d="M174 31h0"></path>
<rect x="146" y="20" width="28" height="22" rx="10" ry="10"></rect>
<text x="160" y="35">(</text>
</g>
<path d="M174 31h10"></path>
<path d="M184 31h10"></path>
<g>
<path d="M194 31h0"></path>
<path d="M342 31h0"></path>
<path d="M194 31h10"></path>
<g>
<path d="M204 31h0"></path>
<path d="M332 31h0"></path>
<path d="M204 31h10"></path>
<g>
<path d="M214 31h0"></path>
<path d="M322 31h0"></path>
<rect x="214" y="20" width="108" height="22"></rect>
<text x="268" y="35">orderedItem</text>
</g>
<path d="M322 31h10"></path>
</g>
<path d="M332 31h10"></path>
<path d="M204 31a10 10 0 0 0 -10 10v10a10 10 0 0 0 10 10"></path>
<g>
<path d="M204 61h40"></path>
<path d="M292 61h40"></path>
<path d="M244 61h10"></path>
<g>
<path d="M254 61h0"></path>
<path d="M282 61h0"></path>
<rect x="254" y="50" width="28" height="22" rx="10" ry="10"></rect>
<text x="268" y="65">,</text>
</g>
<path d="M282 61h10"></path>
</g>
<path d="M332 61a10 10 0 0 0 10 -10v-10a10 10 0 0 0 -10 -10"></path>
</g>
<path d="M342 31h10"></path>
<path d="M352 31h10"></path>
<g>
<path d="M362 31h0"></path>
<path d="M390 31h0"></path>
<rect x="362" y="20" width="28" height="22" rx="10" ry="10"></rect>
<text x="376" y="35">)</text>
</g>
<path d="M390 31h10"></path>
</g>
<path d="M 400 31 h 20 m -10 -10 v 20 m 10 -20 v 20"></path>
</g>
</svg>
