<?xml version="1.0" standalone="no"?>
<!DOCTYPE svg PUBLIC "-//W3C//DTD SVG 1.1//EN"
  "http://www.w3.org/Graphics/SVG/1.1/DTD/svg11.dtd">
<svg xmlns="http://www.w3.org/2000/svg" version="1.1" class="railroad-diagram" width="761" height="72" viewBox="0 0 761 72">
<defs><style type="text/css"><![CDATA[ svg.railroad-diagram {
  background-color: #ffffff;
}
svg.railroad-diagram path {
  stroke-width: 2;
  stroke: #5a6872;
  fill: none;
}
svg.railroad-diagram text {
  font-size: 14px;
  font-family: 'ibm-plex-mono', 'Menlo', 'DejaVu Sans Mono', 'Bitstream Vera Sans Mono', Courier, monospace;
  color: #152935;
  text-anchor: middle;
  cursor: pointer;
}
svg.railroad-diagram text.label {
  text-anchor: start;
}
svg.railroad-diagram text.comment {
  font-size: 12px;
}
svg.railroad-diagram rect {
  stroke-width: 2;
  stroke:  #5a6872;
  fill: #5aaafa;
}
 ]]></style></defs>
<g transform="translate(.5 .5)">
<path d="M 20 31 v 20 m 10 -20 v 20 m -10 -10 h 20.5"></path>
<g>
<path d="M40 41h0"></path>
<path d="M720 41h0"></path>
<path d="M40 41h10"></path>
<g>
<path d="M50 41h0"></path>
<path d="M102 41h0"></path>
<rect x="50" y="30" width="52" height="22" rx="10" ry="10"></rect>
<text x="76" y="45">SHOW</text>
</g>
<path d="M102 41h10"></path>
<path d="M112 41h10"></path>
<g>
<path d="M122 41h0"></path>
<path d="M246 41h0"></path>
<rect x="122" y="30" width="124" height="22" rx="10" ry="10"></rect>
<text x="184" y="45">TBLPROPERTIES</text>
</g>
<path d="M246 41h10"></path>
<path d="M256 41h10"></path>
<g>
<path d="M266 41h0"></path>
<path d="M406 41h0"></path>
<rect x="266" y="30" width="140" height="22"></rect>
<text x="336" y="45">tableIdentifier</text>
</g>
<path d="M406 41h10"></path>
<g>
<path d="M416 41h0"></path>
<path d="M720 41h0"></path>
<path d="M416 41a10 10 0 0 0 10 -10v0a10 10 0 0 1 10 -10"></path>
<g>
<path d="M436 21h264"></path>
</g>
<path d="M700 21a10 10 0 0 1 10 10v0a10 10 0 0 0 10 10"></path>
<path d="M416 41h20"></path>
<g>
<path d="M436 41h0"></path>
<path d="M700 41h0"></path>
<path d="M436 41h10"></path>
<g>
<path d="M446 41h0"></path>
<path d="M474 41h0"></path>
<rect x="446" y="30" width="28" height="22" rx="10" ry="10"></rect>
<text x="460" y="45">(</text>
</g>
<path d="M474 41h10"></path>
<path d="M484 41h10"></path>
<g>
<path d="M494 41h0"></path>
<path d="M642 41h0"></path>
<rect x="494" y="30" width="148" height="22"></rect>
<text x="568" y="45">tablePropertyKey</text>
</g>
<path d="M642 41h10"></path>
<path d="M652 41h10"></path>
<g>
<path d="M662 41h0"></path>
<path d="M690 41h0"></path>
<rect x="662" y="30" width="28" height="22" rx="10" ry="10"></rect>
<text x="676" y="45">)</text>
</g>
<path d="M690 41h10"></path>
</g>
<path d="M700 41h20"></path>
</g>
</g>
<path d="M 720 41 h 20 m -10 -10 v 20 m 10 -20 v 20"></path>
</g>
</svg>
