<?xml version="1.0" standalone="no"?>
<!DOCTYPE svg PUBLIC "-//W3C//DTD SVG 1.1//EN"
  "http://www.w3.org/Graphics/SVG/1.1/DTD/svg11.dtd">
<svg xmlns="http://www.w3.org/2000/svg" version="1.1" class="railroad-diagram" width="461" height="82" viewBox="0 0 461 82">
<defs><style type="text/css"><![CDATA[ svg.railroad-diagram {
  background-color: #ffffff;
}
svg.railroad-diagram path {
  stroke-width: 2;
  stroke: #5a6872;
  fill: none;
}
svg.railroad-diagram text {
  font-size: 14px;
  font-family: 'ibm-plex-mono', 'Menlo', 'DejaVu Sans Mono', 'Bitstream Vera Sans Mono', Courier, monospace;
  color: #152935;
  text-anchor: middle;
  cursor: pointer;
}
svg.railroad-diagram text.label {
  text-anchor: start;
}
svg.railroad-diagram text.comment {
  font-size: 12px;
}
svg.railroad-diagram rect {
  stroke-width: 2;
  stroke:  #5a6872;
  fill: #5aaafa;
}
 ]]></style></defs>
<g transform="translate(.5 .5)">
<path d="M 20 41 v 20 m 10 -20 v 20 m -10 -10 h 20.5"></path>
<g>
<path d="M40 51h0"></path>
<path d="M420 51h0"></path>
<path d="M40 51h10"></path>
<g>
<path d="M50 51h0"></path>
<path d="M102 51h0"></path>
<rect x="50" y="40" width="52" height="22" rx="10" ry="10"></rect>
<text x="76" y="55">SHOW</text>
</g>
<path d="M102 51h10"></path>
<path d="M112 51h10"></path>
<g>
<path d="M122 51h0"></path>
<path d="M190 51h0"></path>
<rect x="122" y="40" width="68" height="22" rx="10" ry="10"></rect>
<text x="156" y="55">TABLES</text>
</g>
<path d="M190 51h10"></path>
<g>
<path d="M200 51h0"></path>
<path d="M420 51h0"></path>
<path d="M200 51a10 10 0 0 0 10 -10v-9a10 10 0 0 1 10 -10"></path>
<g>
<path d="M220 22h180"></path>
</g>
<path d="M400 22a10 10 0 0 1 10 10v9a10 10 0 0 0 10 10"></path>
<path d="M200 51h20"></path>
<g>
<path d="M220 51h0"></path>
<path d="M400 51h0"></path>
<g>
<path d="M220 51h0"></path>
<path d="M312 51h0"></path>
<path d="M220 51a10 10 0 0 0 10 -10v0a10 10 0 0 1 10 -10"></path>
<g>
<path d="M240 31h52"></path>
</g>
<path d="M292 31a10 10 0 0 1 10 10v0a10 10 0 0 0 10 10"></path>
<path d="M220 51h20"></path>
<g>
<path d="M240 51h0"></path>
<path d="M292 51h0"></path>
<rect x="240" y="40" width="52" height="22" rx="10" ry="10"></rect>
<text x="266" y="55">LIKE</text>
</g>
<path d="M292 51h20"></path>
</g>
<path d="M312 51h10"></path>
<g>
<path d="M322 51h0"></path>
<path d="M390 51h0"></path>
<rect x="322" y="40" width="68" height="22"></rect>
<text x="356" y="55">STRING</text>
</g>
<path d="M390 51h10"></path>
</g>
<path d="M400 51h20"></path>
</g>
</g>
<path d="M 420 51 h 20 m -10 -10 v 20 m 10 -20 v 20"></path>
</g>
</svg>
