<?xml version="1.0" standalone="no"?>
<!DOCTYPE svg PUBLIC "-//W3C//DTD SVG 1.1//EN"
  "http://www.w3.org/Graphics/SVG/1.1/DTD/svg11.dtd">
<svg xmlns="http://www.w3.org/2000/svg" version="1.1" class="railroad-diagram" width="2237" height="112" viewBox="0 0 2237 112">
<defs><style type="text/css"><![CDATA[ svg.railroad-diagram {
  background-color: #ffffff;
}
svg.railroad-diagram path {
  stroke-width: 2;
  stroke: #5a6872;
  fill: none;
}
svg.railroad-diagram text {
  font-size: 14px;
  font-family: 'ibm-plex-mono', 'Menlo', 'DejaVu Sans Mono', 'Bitstream Vera Sans Mono', Courier, monospace;
  color: #152935;
  text-anchor: middle;
  cursor: pointer;
}
svg.railroad-diagram text.label {
  text-anchor: start;
}
svg.railroad-diagram text.comment {
  font-size: 12px;
}
svg.railroad-diagram rect {
  stroke-width: 2;
  stroke:  #5a6872;
  fill: #5aaafa;
}
 ]]></style></defs>
<g transform="translate(.5 .5)">
<path d="M 20 41 v 20 m 10 -20 v 20 m -10 -10 h 20.5"></path>
<g>
<path d="M40 51h0"></path>
<path d="M2196 51h0"></path>
<path d="M40 51h10"></path>
<g>
<path d="M50 51h0"></path>
<path d="M118 51h0"></path>
<rect x="50" y="40" width="68" height="22" rx="10" ry="10"></rect>
<text x="84" y="55">SELECT</text>
</g>
<path d="M118 51h10"></path>
<g>
<path d="M128 51h0"></path>
<path d="M292 51h0"></path>
<path d="M128 51a10 10 0 0 0 10 -10v0a10 10 0 0 1 10 -10"></path>
<g>
<path d="M148 31h124"></path>
</g>
<path d="M272 31a10 10 0 0 1 10 10v0a10 10 0 0 0 10 10"></path>
<path d="M128 51h20"></path>
<g>
<path d="M148 51h0"></path>
<path d="M272 51h0"></path>
<path d="M148 51h20"></path>
<g>
<path d="M168 51h0"></path>
<path d="M252 51h0"></path>
<rect x="168" y="40" width="84" height="22" rx="10" ry="10"></rect>
<text x="210" y="55">DISTINCT</text>
</g>
<path d="M252 51h20"></path>
<path d="M148 51a10 10 0 0 1 10 10v10a10 10 0 0 0 10 10"></path>
<g>
<path d="M168 81h20"></path>
<path d="M232 81h20"></path>
<rect x="188" y="70" width="44" height="22" rx="10" ry="10"></rect>
<text x="210" y="85">ALL</text>
</g>
<path d="M252 81a10 10 0 0 0 10 -10v-10a10 10 0 0 1 10 -10"></path>
</g>
<path d="M272 51h20"></path>
</g>
<path d="M292 51h10"></path>
<g>
<path d="M302 51h0"></path>
<path d="M458 51h0"></path>
<path d="M302 51h10"></path>
<g>
<path d="M312 51h0"></path>
<path d="M448 51h0"></path>
<path d="M312 51h10"></path>
<g>
<path d="M322 51h0"></path>
<path d="M438 51h0"></path>
<rect x="322" y="40" width="116" height="22"></rect>
<text x="380" y="55">resultColumn</text>
</g>
<path d="M438 51h10"></path>
</g>
<path d="M448 51h10"></path>
<path d="M312 51a10 10 0 0 0 -10 10v10a10 10 0 0 0 10 10"></path>
<g>
<path d="M312 81h44"></path>
<path d="M404 81h44"></path>
<path d="M356 81h10"></path>
<g>
<path d="M366 81h0"></path>
<path d="M394 81h0"></path>
<rect x="366" y="70" width="28" height="22" rx="10" ry="10"></rect>
<text x="380" y="85">,</text>
</g>
<path d="M394 81h10"></path>
</g>
<path d="M448 81a10 10 0 0 0 10 -10v-10a10 10 0 0 0 -10 -10"></path>
</g>
<path d="M458 51h10"></path>
<path d="M468 51h10"></path>
<g>
<path d="M478 51h0"></path>
<path d="M554 51h0"></path>
<rect x="478" y="40" width="76" height="22" rx="10" ry="10"></rect>
<text x="516" y="55">@break@</text>
</g>
<path d="M554 51h10"></path>
<g>
<path d="M564 51h0"></path>
<path d="M988 51h0"></path>
<path d="M564 51a10 10 0 0 0 10 -10v-9a10 10 0 0 1 10 -10"></path>
<g>
<path d="M584 22h384"></path>
</g>
<path d="M968 22a10 10 0 0 1 10 10v9a10 10 0 0 0 10 10"></path>
<path d="M564 51h20"></path>
<g>
<path d="M584 51h0"></path>
<path d="M968 51h0"></path>
<path d="M584 51h10"></path>
<g>
<path d="M594 51h0"></path>
<path d="M646 51h0"></path>
<rect x="594" y="40" width="52" height="22" rx="10" ry="10"></rect>
<text x="620" y="55">FROM</text>
</g>
<path d="M646 51h10"></path>
<path d="M656 51h10"></path>
<g>
<path d="M666 51h0"></path>
<path d="M790 51h0"></path>
<path d="M666 51h10"></path>
<g>
<path d="M676 51h0"></path>
<path d="M780 51h0"></path>
<path d="M676 51h10"></path>
<g>
<path d="M686 51h0"></path>
<path d="M770 51h0"></path>
<rect x="686" y="40" width="84" height="22"></rect>
<text x="728" y="55">relation</text>
</g>
<path d="M770 51h10"></path>
</g>
<path d="M780 51h10"></path>
<path d="M676 51a10 10 0 0 0 -10 10v10a10 10 0 0 0 10 10"></path>
<g>
<path d="M676 81h28"></path>
<path d="M752 81h28"></path>
<path d="M704 81h10"></path>
<g>
<path d="M714 81h0"></path>
<path d="M742 81h0"></path>
<rect x="714" y="70" width="28" height="22" rx="10" ry="10"></rect>
<text x="728" y="85">,</text>
</g>
<path d="M742 81h10"></path>
</g>
<path d="M780 81a10 10 0 0 0 10 -10v-10a10 10 0 0 0 -10 -10"></path>
</g>
<path d="M790 51h10"></path>
<g>
<path d="M800 51h0"></path>
<path d="M968 51h0"></path>
<path d="M800 51a10 10 0 0 0 10 -10v0a10 10 0 0 1 10 -10"></path>
<g>
<path d="M820 31h128"></path>
</g>
<path d="M948 31a10 10 0 0 1 10 10v0a10 10 0 0 0 10 10"></path>
<path d="M800 51h20"></path>
<g>
<path d="M820 51h0"></path>
<path d="M948 51h0"></path>
<path d="M820 51h10"></path>
<g>
<path d="M830 51h0"></path>
<path d="M938 51h0"></path>
<rect x="830" y="40" width="108" height="22"></rect>
<text x="884" y="55">lateralView</text>
</g>
<path d="M938 51h10"></path>
<path d="M830 51a10 10 0 0 0 -10 10v0a10 10 0 0 0 10 10"></path>
<g>
<path d="M830 71h108"></path>
</g>
<path d="M938 71a10 10 0 0 0 10 -10v0a10 10 0 0 0 -10 -10"></path>
</g>
<path d="M948 51h20"></path>
</g>
</g>
<path d="M968 51h20"></path>
</g>
<path d="M988 51h10"></path>
<g>
<path d="M998 51h0"></path>
<path d="M1074 51h0"></path>
<rect x="998" y="40" width="76" height="22" rx="10" ry="10"></rect>
<text x="1036" y="55">@break@</text>
</g>
<path d="M1074 51h10"></path>
<g>
<path d="M1084 51h0"></path>
<path d="M1380 51h0"></path>
<path d="M1084 51a10 10 0 0 0 10 -10v0a10 10 0 0 1 10 -10"></path>
<g>
<path d="M1104 31h256"></path>
</g>
<path d="M1360 31a10 10 0 0 1 10 10v0a10 10 0 0 0 10 10"></path>
<path d="M1084 51h20"></path>
<g>
<path d="M1104 51h0"></path>
<path d="M1360 51h0"></path>
<path d="M1104 51h10"></path>
<g>
<path d="M1114 51h0"></path>
<path d="M1174 51h0"></path>
<rect x="1114" y="40" width="60" height="22" rx="10" ry="10"></rect>
<text x="1144" y="55">WHERE</text>
</g>
<path d="M1174 51h10"></path>
<path d="M1184 51h10"></path>
<g>
<path d="M1194 51h0"></path>
<path d="M1350 51h0"></path>
<rect x="1194" y="40" width="156" height="22"></rect>
<text x="1272" y="55">booleanExpression</text>
</g>
<path d="M1350 51h10"></path>
</g>
<path d="M1360 51h20"></path>
</g>
<path d="M1380 51h10"></path>
<g>
<path d="M1390 51h0"></path>
<path d="M1466 51h0"></path>
<rect x="1390" y="40" width="76" height="22" rx="10" ry="10"></rect>
<text x="1428" y="55">@break@</text>
</g>
<path d="M1466 51h10"></path>
<g>
<path d="M1476 51h0"></path>
<path d="M1640 51h0"></path>
<path d="M1476 51a10 10 0 0 0 10 -10v0a10 10 0 0 1 10 -10"></path>
<g>
<path d="M1496 31h124"></path>
</g>
<path d="M1620 31a10 10 0 0 1 10 10v0a10 10 0 0 0 10 10"></path>
<path d="M1476 51h20"></path>
<g>
<path d="M1496 51h0"></path>
<path d="M1620 51h0"></path>
<rect x="1496" y="40" width="124" height="22"></rect>
<text x="1558" y="55">groupByClause</text>
</g>
<path d="M1620 51h20"></path>
</g>
<g>
<path d="M1640 51h0"></path>
<path d="M1944 51h0"></path>
<path d="M1640 51a10 10 0 0 0 10 -10v0a10 10 0 0 1 10 -10"></path>
<g>
<path d="M1660 31h264"></path>
</g>
<path d="M1924 31a10 10 0 0 1 10 10v0a10 10 0 0 0 10 10"></path>
<path d="M1640 51h20"></path>
<g>
<path d="M1660 51h0"></path>
<path d="M1924 51h0"></path>
<path d="M1660 51h10"></path>
<g>
<path d="M1670 51h0"></path>
<path d="M1738 51h0"></path>
<rect x="1670" y="40" width="68" height="22" rx="10" ry="10"></rect>
<text x="1704" y="55">HAVING</text>
</g>
<path d="M1738 51h10"></path>
<path d="M1748 51h10"></path>
<g>
<path d="M1758 51h0"></path>
<path d="M1914 51h0"></path>
<rect x="1758" y="40" width="156" height="22"></rect>
<text x="1836" y="55">booleanExpression</text>
</g>
<path d="M1914 51h10"></path>
</g>
<path d="M1924 51h20"></path>
</g>
<path d="M1944 51h10"></path>
<g>
<path d="M1954 51h0"></path>
<path d="M2030 51h0"></path>
<rect x="1954" y="40" width="76" height="22" rx="10" ry="10"></rect>
<text x="1992" y="55">@break@</text>
</g>
<path d="M2030 51h10"></path>
<g>
<path d="M2040 51h0"></path>
<path d="M2196 51h0"></path>
<path d="M2040 51a10 10 0 0 0 10 -10v0a10 10 0 0 1 10 -10"></path>
<g>
<path d="M2060 31h116"></path>
</g>
<path d="M2176 31a10 10 0 0 1 10 10v0a10 10 0 0 0 10 10"></path>
<path d="M2040 51h20"></path>
<g>
<path d="M2060 51h0"></path>
<path d="M2176 51h0"></path>
<rect x="2060" y="40" width="116" height="22"></rect>
<text x="2118" y="55">namedWindows</text>
</g>
<path d="M2176 51h20"></path>
</g>
</g>
<path d="M 2196 51 h 20 m -10 -10 v 20 m 10 -20 v 20"></path>
</g>
</svg>
