<?xml version="1.0" standalone="no"?>
<!DOCTYPE svg PUBLIC "-//W3C//DTD SVG 1.1//EN"
  "http://www.w3.org/Graphics/SVG/1.1/DTD/svg11.dtd">
<svg xmlns="http://www.w3.org/2000/svg" version="1.1" class="railroad-diagram" width="497" height="102" viewBox="0 0 497 102">
<defs><style type="text/css"><![CDATA[ svg.railroad-diagram {
  background-color: #ffffff;
}
svg.railroad-diagram path {
  stroke-width: 2;
  stroke: #5a6872;
  fill: none;
}
svg.railroad-diagram text {
  font-size: 14px;
  font-family: 'ibm-plex-mono', 'Menlo', 'DejaVu Sans Mono', 'Bitstream Vera Sans Mono', Courier, monospace;
  color: #152935;
  text-anchor: middle;
  cursor: pointer;
}
svg.railroad-diagram text.label {
  text-anchor: start;
}
svg.railroad-diagram text.comment {
  font-size: 12px;
}
svg.railroad-diagram rect {
  stroke-width: 2;
  stroke:  #5a6872;
  fill: #5aaafa;
}
 ]]></style></defs>
<g transform="translate(.5 .5)">
<path d="M 20 31 v 20 m 10 -20 v 20 m -10 -10 h 20.5"></path>
<g>
<path d="M40 41h0"></path>
<path d="M456 41h0"></path>
<path d="M40 41h10"></path>
<g>
<path d="M50 41h0"></path>
<path d="M150 41h0"></path>
<rect x="50" y="30" width="100" height="22"></rect>
<text x="100" y="45">identifier</text>
</g>
<path d="M150 41h10"></path>
<path d="M160 41h10"></path>
<g>
<path d="M170 41h0"></path>
<path d="M198 41h0"></path>
<rect x="170" y="30" width="28" height="22" rx="10" ry="10"></rect>
<text x="184" y="45">(</text>
</g>
<path d="M198 41h10"></path>
<g>
<path d="M208 41h0"></path>
<path d="M408 41h0"></path>
<path d="M208 41a10 10 0 0 0 10 -10v0a10 10 0 0 1 10 -10"></path>
<g>
<path d="M228 21h160"></path>
</g>
<path d="M388 21a10 10 0 0 1 10 10v0a10 10 0 0 0 10 10"></path>
<path d="M208 41h20"></path>
<g>
<path d="M228 41h0"></path>
<path d="M388 41h0"></path>
<path d="M228 41h10"></path>
<g>
<path d="M238 41h0"></path>
<path d="M378 41h0"></path>
<path d="M238 41h10"></path>
<g>
<path d="M248 41h0"></path>
<path d="M368 41h0"></path>
<path d="M248 41h10"></path>
<g>
<path d="M258 41h0"></path>
<path d="M358 41h0"></path>
<rect x="258" y="30" width="100" height="22"></rect>
<text x="308" y="45">expression</text>
</g>
<path d="M358 41h10"></path>
</g>
<path d="M368 41h10"></path>
<path d="M248 41a10 10 0 0 0 -10 10v10a10 10 0 0 0 10 10"></path>
<g>
<path d="M248 71h36"></path>
<path d="M332 71h36"></path>
<path d="M284 71h10"></path>
<g>
<path d="M294 71h0"></path>
<path d="M322 71h0"></path>
<rect x="294" y="60" width="28" height="22" rx="10" ry="10"></rect>
<text x="308" y="75">,</text>
</g>
<path d="M322 71h10"></path>
</g>
<path d="M368 71a10 10 0 0 0 10 -10v-10a10 10 0 0 0 -10 -10"></path>
</g>
<path d="M378 41h10"></path>
</g>
<path d="M388 41h20"></path>
</g>
<path d="M408 41h10"></path>
<g>
<path d="M418 41h0"></path>
<path d="M446 41h0"></path>
<rect x="418" y="30" width="28" height="22" rx="10" ry="10"></rect>
<text x="432" y="45">)</text>
</g>
<path d="M446 41h10"></path>
</g>
<path d="M 456 41 h 20 m -10 -10 v 20 m 10 -20 v 20"></path>
</g>
</svg>
