<?xml version="1.0" standalone="no"?>
<!DOCTYPE svg PUBLIC "-//W3C//DTD SVG 1.1//EN"
  "http://www.w3.org/Graphics/SVG/1.1/DTD/svg11.dtd">
<svg xmlns="http://www.w3.org/2000/svg" version="1.1" class="railroad-diagram" width="385" height="182" viewBox="0 0 385 182">
<defs><style type="text/css"><![CDATA[ svg.railroad-diagram {
  background-color: #ffffff;
}
svg.railroad-diagram path {
  stroke-width: 2;
  stroke: #5a6872;
  fill: none;
}
svg.railroad-diagram text {
  font-size: 14px;
  font-family: 'ibm-plex-mono', 'Menlo', 'DejaVu Sans Mono', 'Bitstream Vera Sans Mono', Courier, monospace;
  color: #152935;
  text-anchor: middle;
  cursor: pointer;
}
svg.railroad-diagram text.label {
  text-anchor: start;
}
svg.railroad-diagram text.comment {
  font-size: 12px;
}
svg.railroad-diagram rect {
  stroke-width: 2;
  stroke:  #5a6872;
  fill: #5aaafa;
}
 ]]></style></defs>
<g transform="translate(.5 .5)">
<path d="M 20 21 v 20 m 10 -20 v 20 m -10 -10 h 20.5"></path>
<g>
<path d="M40 31h0"></path>
<path d="M344 31h0"></path>
<path d="M40 31h20"></path>
<g>
<path d="M60 31h0"></path>
<path d="M324 31h0"></path>
<path d="M60 31h10"></path>
<g>
<path d="M70 31h0"></path>
<path d="M178 31h0"></path>
<rect x="70" y="20" width="108" height="22" rx="10" ry="10"></rect>
<text x="124" y="35">GRANULARITY</text>
</g>
<path d="M178 31h10"></path>
<path d="M188 31h10"></path>
<g>
<path d="M198 31h0"></path>
<path d="M226 31h0"></path>
<rect x="198" y="20" width="28" height="22" rx="10" ry="10"></rect>
<text x="212" y="35">=</text>
</g>
<path d="M226 31h10"></path>
<path d="M236 31h10"></path>
<g>
<path d="M246 31h0"></path>
<path d="M314 31h0"></path>
<rect x="246" y="20" width="68" height="22"></rect>
<text x="280" y="35">STRING</text>
</g>
<path d="M314 31h10"></path>
</g>
<path d="M324 31h20"></path>
<path d="M40 31a10 10 0 0 1 10 10v10a10 10 0 0 0 10 10"></path>
<g>
<path d="M60 61h8"></path>
<path d="M316 61h8"></path>
<path d="M68 61h10"></path>
<g>
<path d="M78 61h0"></path>
<path d="M170 61h0"></path>
<rect x="78" y="50" width="92" height="22" rx="10" ry="10"></rect>
<text x="124" y="65">STARTTIME</text>
</g>
<path d="M170 61h10"></path>
<path d="M180 61h10"></path>
<g>
<path d="M190 61h0"></path>
<path d="M218 61h0"></path>
<rect x="190" y="50" width="28" height="22" rx="10" ry="10"></rect>
<text x="204" y="65">=</text>
</g>
<path d="M218 61h10"></path>
<path d="M228 61h10"></path>
<g>
<path d="M238 61h0"></path>
<path d="M306 61h0"></path>
<rect x="238" y="50" width="68" height="22"></rect>
<text x="272" y="65">STRING</text>
</g>
<path d="M306 61h10"></path>
</g>
<path d="M324 61a10 10 0 0 0 10 -10v-10a10 10 0 0 1 10 -10"></path>
<path d="M40 31a10 10 0 0 1 10 10v40a10 10 0 0 0 10 10"></path>
<g>
<path d="M60 91h32"></path>
<path d="M292 91h32"></path>
<path d="M92 91h10"></path>
<g>
<path d="M102 91h0"></path>
<path d="M146 91h0"></path>
<rect x="102" y="80" width="44" height="22" rx="10" ry="10"></rect>
<text x="124" y="95">KEY</text>
</g>
<path d="M146 91h10"></path>
<path d="M156 91h10"></path>
<g>
<path d="M166 91h0"></path>
<path d="M194 91h0"></path>
<rect x="166" y="80" width="28" height="22" rx="10" ry="10"></rect>
<text x="180" y="95">=</text>
</g>
<path d="M194 91h10"></path>
<path d="M204 91h10"></path>
<g>
<path d="M214 91h0"></path>
<path d="M282 91h0"></path>
<rect x="214" y="80" width="68" height="22"></rect>
<text x="248" y="95">STRING</text>
</g>
<path d="M282 91h10"></path>
</g>
<path d="M324 91a10 10 0 0 0 10 -10v-40a10 10 0 0 1 10 -10"></path>
<path d="M40 31a10 10 0 0 1 10 10v70a10 10 0 0 0 10 10"></path>
<g>
<path d="M60 121h12"></path>
<path d="M312 121h12"></path>
<path d="M72 121h10"></path>
<g>
<path d="M82 121h0"></path>
<path d="M166 121h0"></path>
<rect x="82" y="110" width="84" height="22" rx="10" ry="10"></rect>
<text x="124" y="125">TIMETICK</text>
</g>
<path d="M166 121h10"></path>
<path d="M176 121h10"></path>
<g>
<path d="M186 121h0"></path>
<path d="M214 121h0"></path>
<rect x="186" y="110" width="28" height="22" rx="10" ry="10"></rect>
<text x="200" y="125">=</text>
</g>
<path d="M214 121h10"></path>
<path d="M224 121h10"></path>
<g>
<path d="M234 121h0"></path>
<path d="M302 121h0"></path>
<rect x="234" y="110" width="68" height="22"></rect>
<text x="268" y="125">STRING</text>
</g>
<path d="M302 121h10"></path>
</g>
<path d="M324 121a10 10 0 0 0 10 -10v-70a10 10 0 0 1 10 -10"></path>
<path d="M40 31a10 10 0 0 1 10 10v100a10 10 0 0 0 10 10"></path>
<g>
<path d="M60 151h24"></path>
<path d="M300 151h24"></path>
<path d="M84 151h10"></path>
<g>
<path d="M94 151h0"></path>
<path d="M154 151h0"></path>
<rect x="94" y="140" width="60" height="22" rx="10" ry="10"></rect>
<text x="124" y="155">VALUE</text>
</g>
<path d="M154 151h10"></path>
<path d="M164 151h10"></path>
<g>
<path d="M174 151h0"></path>
<path d="M202 151h0"></path>
<rect x="174" y="140" width="28" height="22" rx="10" ry="10"></rect>
<text x="188" y="155">=</text>
</g>
<path d="M202 151h10"></path>
<path d="M212 151h10"></path>
<g>
<path d="M222 151h0"></path>
<path d="M290 151h0"></path>
<rect x="222" y="140" width="68" height="22"></rect>
<text x="256" y="155">STRING</text>
</g>
<path d="M290 151h10"></path>
</g>
<path d="M324 151a10 10 0 0 0 10 -10v-100a10 10 0 0 1 10 -10"></path>
</g>
<path d="M 344 31 h 20 m -10 -10 v 20 m 10 -20 v 20"></path>
</g>
</svg>
