<?xml version="1.0" standalone="no"?>
<!DOCTYPE svg PUBLIC "-//W3C//DTD SVG 1.1//EN"
  "http://www.w3.org/Graphics/SVG/1.1/DTD/svg11.dtd">
<svg xmlns="http://www.w3.org/2000/svg" version="1.1" class="railroad-diagram" width="565" height="112" viewBox="0 0 565 112">
<defs><style type="text/css"><![CDATA[ svg.railroad-diagram {
  background-color: #ffffff;
}
svg.railroad-diagram path {
  stroke-width: 2;
  stroke: #5a6872;
  fill: none;
}
svg.railroad-diagram text {
  font-size: 14px;
  font-family: 'ibm-plex-mono', 'Menlo', 'DejaVu Sans Mono', 'Bitstream Vera Sans Mono', Courier, monospace;
  color: #152935;
  text-anchor: middle;
  cursor: pointer;
}
svg.railroad-diagram text.label {
  text-anchor: start;
}
svg.railroad-diagram text.comment {
  font-size: 12px;
}
svg.railroad-diagram rect {
  stroke-width: 2;
  stroke:  #5a6872;
  fill: #5aaafa;
}
 ]]></style></defs>
<g transform="translate(.5 .5)">
<path d="M 20 41 v 20 m 10 -20 v 20 m -10 -10 h 20.5"></path>
<g>
<path d="M40 51h0"></path>
<path d="M524 51h0"></path>
<path d="M40 51h10"></path>
<g>
<path d="M50 51h0"></path>
<path d="M118 51h0"></path>
<rect x="50" y="40" width="68" height="22" rx="10" ry="10"></rect>
<text x="84" y="55">VALUES</text>
</g>
<path d="M118 51h10"></path>
<path d="M128 51h10"></path>
<g>
<path d="M138 51h0"></path>
<path d="M278 51h0"></path>
<path d="M138 51h10"></path>
<g>
<path d="M148 51h0"></path>
<path d="M268 51h0"></path>
<path d="M148 51h10"></path>
<g>
<path d="M158 51h0"></path>
<path d="M258 51h0"></path>
<rect x="158" y="40" width="100" height="22"></rect>
<text x="208" y="55">expression</text>
</g>
<path d="M258 51h10"></path>
</g>
<path d="M268 51h10"></path>
<path d="M148 51a10 10 0 0 0 -10 10v10a10 10 0 0 0 10 10"></path>
<g>
<path d="M148 81h36"></path>
<path d="M232 81h36"></path>
<path d="M184 81h10"></path>
<g>
<path d="M194 81h0"></path>
<path d="M222 81h0"></path>
<rect x="194" y="70" width="28" height="22" rx="10" ry="10"></rect>
<text x="208" y="85">,</text>
</g>
<path d="M222 81h10"></path>
</g>
<path d="M268 81a10 10 0 0 0 10 -10v-10a10 10 0 0 0 -10 -10"></path>
</g>
<path d="M278 51h10"></path>
<g>
<path d="M288 51h0"></path>
<path d="M524 51h0"></path>
<path d="M288 51a10 10 0 0 0 10 -10v-9a10 10 0 0 1 10 -10"></path>
<g>
<path d="M308 22h196"></path>
</g>
<path d="M504 22a10 10 0 0 1 10 10v9a10 10 0 0 0 10 10"></path>
<path d="M288 51h20"></path>
<g>
<path d="M308 51h0"></path>
<path d="M504 51h0"></path>
<g>
<path d="M308 51h0"></path>
<path d="M384 51h0"></path>
<path d="M308 51a10 10 0 0 0 10 -10v0a10 10 0 0 1 10 -10"></path>
<g>
<path d="M328 31h36"></path>
</g>
<path d="M364 31a10 10 0 0 1 10 10v0a10 10 0 0 0 10 10"></path>
<path d="M308 51h20"></path>
<g>
<path d="M328 51h0"></path>
<path d="M364 51h0"></path>
<rect x="328" y="40" width="36" height="22" rx="10" ry="10"></rect>
<text x="346" y="55">AS</text>
</g>
<path d="M364 51h20"></path>
</g>
<path d="M384 51h10"></path>
<g>
<path d="M394 51h0"></path>
<path d="M494 51h0"></path>
<rect x="394" y="40" width="100" height="22"></rect>
<text x="444" y="55">identifier</text>
</g>
<path d="M494 51h10"></path>
</g>
<path d="M504 51h20"></path>
</g>
</g>
<path d="M 524 51 h 20 m -10 -10 v 20 m 10 -20 v 20"></path>
</g>
</svg>
