<?xml version="1.0" standalone="no"?>
<!DOCTYPE svg PUBLIC "-//W3C//DTD SVG 1.1//EN"
  "http://www.w3.org/Graphics/SVG/1.1/DTD/svg11.dtd">
<svg xmlns="http://www.w3.org/2000/svg" version="1.1" class="railroad-diagram" width="765" height="142" viewBox="0 0 765 142">
<defs><style type="text/css"><![CDATA[ svg.railroad-diagram {
  background-color: #ffffff;
}
svg.railroad-diagram path {
  stroke-width: 2;
  stroke: #5a6872;
  fill: none;
}
svg.railroad-diagram text {
  font-size: 14px;
  font-family: 'ibm-plex-mono', 'Menlo', 'DejaVu Sans Mono', 'Bitstream Vera Sans Mono', Courier, monospace;
  color: #152935;
  text-anchor: middle;
  cursor: pointer;
}
svg.railroad-diagram text.label {
  text-anchor: start;
}
svg.railroad-diagram text.comment {
  font-size: 12px;
}
svg.railroad-diagram rect {
  stroke-width: 2;
  stroke:  #5a6872;
  fill: #5aaafa;
}
 ]]></style></defs>
<g transform="translate(.5 .5)">
<path d="M 20 21 v 20 m 10 -20 v 20 m -10 -10 h 20.5"></path>
<g>
<path d="M40 31h0"></path>
<path d="M724 31h0"></path>
<path d="M40 31h20"></path>
<g>
<path d="M60 31h272"></path>
<path d="M432 31h272"></path>
<rect x="332" y="20" width="100" height="22"></rect>
<text x="382" y="35">identifier</text>
</g>
<path d="M704 31h20"></path>
<path d="M40 31a10 10 0 0 1 10 10v20a10 10 0 0 0 10 10"></path>
<g>
<path d="M60 71h0"></path>
<path d="M704 71h0"></path>
<path d="M60 71h10"></path>
<g>
<path d="M70 71h0"></path>
<path d="M98 71h0"></path>
<rect x="70" y="60" width="28" height="22" rx="10" ry="10"></rect>
<text x="84" y="75">(</text>
</g>
<path d="M98 71h10"></path>
<g>
<path d="M108 71h0"></path>
<path d="M508 71h0"></path>
<path d="M108 71h20"></path>
<g>
<path d="M128 71h110"></path>
<path d="M378 71h110"></path>
<rect x="238" y="60" width="140" height="22"></rect>
<text x="308" y="75">windowClusterBy</text>
</g>
<path d="M488 71h20"></path>
<path d="M108 71a10 10 0 0 1 10 10v20a10 10 0 0 0 10 10"></path>
<g>
<path d="M128 111h0"></path>
<path d="M488 111h0"></path>
<g>
<path d="M128 111h0"></path>
<path d="M324 111h0"></path>
<path d="M128 111a10 10 0 0 0 10 -10v0a10 10 0 0 1 10 -10"></path>
<g>
<path d="M148 91h156"></path>
</g>
<path d="M304 91a10 10 0 0 1 10 10v0a10 10 0 0 0 10 10"></path>
<path d="M128 111h20"></path>
<g>
<path d="M148 111h0"></path>
<path d="M304 111h0"></path>
<rect x="148" y="100" width="156" height="22"></rect>
<text x="226" y="115">windowPartitionBy</text>
</g>
<path d="M304 111h20"></path>
</g>
<g>
<path d="M324 111h0"></path>
<path d="M488 111h0"></path>
<path d="M324 111a10 10 0 0 0 10 -10v0a10 10 0 0 1 10 -10"></path>
<g>
<path d="M344 91h124"></path>
</g>
<path d="M468 91a10 10 0 0 1 10 10v0a10 10 0 0 0 10 10"></path>
<path d="M324 111h20"></path>
<g>
<path d="M344 111h0"></path>
<path d="M468 111h0"></path>
<rect x="344" y="100" width="124" height="22"></rect>
<text x="406" y="115">windowOrderBy</text>
</g>
<path d="M468 111h20"></path>
</g>
</g>
<path d="M488 111a10 10 0 0 0 10 -10v-20a10 10 0 0 1 10 -10"></path>
</g>
<g>
<path d="M508 71h0"></path>
<path d="M656 71h0"></path>
<path d="M508 71a10 10 0 0 0 10 -10v0a10 10 0 0 1 10 -10"></path>
<g>
<path d="M528 51h108"></path>
</g>
<path d="M636 51a10 10 0 0 1 10 10v0a10 10 0 0 0 10 10"></path>
<path d="M508 71h20"></path>
<g>
<path d="M528 71h0"></path>
<path d="M636 71h0"></path>
<rect x="528" y="60" width="108" height="22"></rect>
<text x="582" y="75">windowFrame</text>
</g>
<path d="M636 71h20"></path>
</g>
<path d="M656 71h10"></path>
<g>
<path d="M666 71h0"></path>
<path d="M694 71h0"></path>
<rect x="666" y="60" width="28" height="22" rx="10" ry="10"></rect>
<text x="680" y="75">)</text>
</g>
<path d="M694 71h10"></path>
</g>
<path d="M704 71a10 10 0 0 0 10 -10v-20a10 10 0 0 1 10 -10"></path>
</g>
<path d="M 724 31 h 20 m -10 -10 v 20 m 10 -20 v 20"></path>
</g>
</svg>
